<?xml version="1.0" encoding="UTF-8"?>
<svg id="Layer_1" xmlns="http://www.w3.org/2000/svg" version="1.1" viewBox="0 0 1200 350">
  <!-- Generator: Adobe Illustrator 29.5.1, SVG Export Plug-In . SVG Version: 2.1.0 Build 141)  -->
  <defs>
    <style>
      .st0 {
        stroke: green;
      }

      .st0, .st1, .st2, .st3, .st4, .st5, .st6, .st7, .st8, .st9, .st10, .st11 {
        stroke-miterlimit: 1;
      }

      .st0, .st12, .st3, .st6, .st13, .st8, .st14, .st15 {
        fill: none;
      }

      .st16, .st17, .st18, .st1, .st7 {
        fill: orange;
      }

      .st16, .st19, .st20 {
        fill-opacity: 0;
      }

      .st17, .st18, .st21, .st2, .st22, .st5, .st23, .st7, .st9, .st24 {
        fill-rule: evenodd;
      }

      .st17, .st21, .st23 {
        fill-opacity: .6;
      }

      .st1, .st12, .st2, .st4, .st5, .st13, .st7, .st14, .st15, .st9, .st10, .st11 {
        stroke: #000;
      }

      .st1, .st2, .st4, .st5, .st7, .st11 {
        stroke-width: .7px;
      }

      .st12 {
        stroke-opacity: .1;
      }

      .st12, .st13, .st14, .st15 {
        stroke-linecap: round;
        stroke-linejoin: round;
      }

      .st12, .st14, .st15 {
        stroke-width: .5px;
      }

      .st19, .st21, .st2, .st11, .st24 {
        fill: green;
      }

      .st22, .st4, .st5, .st23, .st20 {
        fill: blue;
      }

      .st3 {
        stroke: gray;
      }

      .st3, .st9, .st10 {
        stroke-width: .69px;
      }

      .st6 {
        stroke: blue;
      }

      .st8 {
        stroke: orange;
      }

      .st15 {
        stroke-opacity: .6;
      }

      .st9, .st10 {
        fill: gray;
      }
    </style>
  </defs>
  <line class="st12" x1="247.04" y1="338.19" x2="383.34" y2="338.19"/>
  <line class="st12" x1="247.04" y1="272.06" x2="383.34" y2="272.06"/>
  <line class="st12" x1="247.04" y1="205.93" x2="383.34" y2="205.93"/>
  <line class="st12" x1="247.04" y1="139.8" x2="383.34" y2="139.8"/>
  <line class="st12" x1="247.04" y1="73.67" x2="383.34" y2="73.67"/>
  <line class="st13" x1="247.04" y1="338.19" x2="383.34" y2="338.19"/>
  <line class="st13" x1="247.04" y1="338.19" x2="247.04" y2="22.36"/>
  <line class="st13" x1="247.04" y1="338.19" x2="248.93" y2="338.19"/>
  <line class="st13" x1="247.04" y1="272.06" x2="248.93" y2="272.06"/>
  <line class="st13" x1="247.04" y1="205.93" x2="248.93" y2="205.93"/>
  <line class="st13" x1="247.04" y1="139.8" x2="248.93" y2="139.8"/>
  <line class="st13" x1="247.04" y1="73.67" x2="248.93" y2="73.67"/>
  <path d="M226.06,334.64c-.6,0-1.06.3-1.36.89-.3.59-.45,1.48-.45,2.67s.15,2.07.45,2.67c.3.59.76.89,1.36.89s1.06-.3,1.36-.89c.3-.59.46-1.48.46-2.67s-.15-2.08-.46-2.67c-.3-.59-.75-.89-1.36-.89M226.06,333.71c.97,0,1.71.38,2.22,1.15.51.76.77,1.87.77,3.33s-.26,2.57-.77,3.33c-.51.77-1.25,1.15-2.22,1.15s-1.71-.38-2.22-1.15c-.51-.77-.76-1.88-.76-3.33,0-1.46.25-2.57.76-3.33.51-.77,1.25-1.15,2.22-1.15Z"/>
  <path d="M224.06,275.39h1.91v-6.59l-2.08.42v-1.06l2.07-.42h1.17v7.65h1.91v.99h-4.98v-.99Z"/>
  <path d="M224.96,209.27h4.08v.98h-5.49v-.98c.44-.46,1.05-1.07,1.81-1.85.77-.78,1.25-1.27,1.45-1.5.37-.42.63-.78.78-1.06.15-.29.23-.58.23-.86,0-.46-.16-.83-.49-1.12-.32-.29-.74-.43-1.26-.43-.37,0-.75.06-1.16.19-.4.13-.84.32-1.3.58v-1.18c.47-.19.91-.33,1.32-.43.41-.1.78-.14,1.12-.14.9,0,1.61.22,2.14.67.53.45.8,1.05.8,1.79,0,.35-.07.69-.2,1.01-.13.32-.37.69-.72,1.12-.1.11-.4.44-.92.97-.52.53-1.25,1.28-2.19,2.24Z"/>
  <path d="M227.26,139.46c.56.12,1,.37,1.31.75.32.38.47.85.47,1.4,0,.85-.29,1.51-.88,1.98-.59.47-1.42.7-2.5.7-.36,0-.74-.04-1.12-.11-.38-.07-.78-.18-1.19-.32v-1.13c.32.19.68.33,1.07.43.39.1.79.14,1.21.14.73,0,1.29-.14,1.67-.43.39-.29.58-.71.58-1.26,0-.51-.18-.91-.54-1.19-.35-.29-.85-.43-1.49-.43h-1.01v-.96h1.05c.57,0,1.01-.11,1.32-.34.3-.23.46-.56.46-1,0-.44-.16-.78-.47-1.02-.31-.24-.76-.36-1.35-.36-.32,0-.66.03-1.03.1s-.77.18-1.21.32v-1.04c.44-.12.86-.22,1.24-.28.39-.06.76-.09,1.1-.09.89,0,1.59.2,2.11.61.52.4.78.95.78,1.63,0,.48-.14.88-.41,1.22-.27.33-.66.56-1.17.68Z"/>
  <path d="M226.65,70.37l-2.95,4.61h2.95v-4.61M226.34,69.35h1.47v5.63h1.23v.97h-1.23v2.04h-1.16v-2.04h-3.9v-1.13l3.59-5.47Z"/>
  <path d="M189.3,236.7v-2.4l8.08-3.03-8.08-3.05v-2.4h11.88v1.57h-10.43l8.15,3.06v1.62l-8.15,3.06h10.43v1.56h-11.88Z"/>
  <path d="M196.36,215.08h.72v6.73c1.01-.06,1.78-.37,2.31-.91.53-.55.79-1.31.79-2.28,0-.56-.07-1.11-.21-1.63-.14-.53-.34-1.06-.62-1.58h1.38c.22.53.39,1.06.51,1.62.12.55.18,1.11.18,1.68,0,1.42-.41,2.55-1.24,3.38-.83.83-1.95,1.24-3.36,1.24-1.46,0-2.62-.39-3.47-1.18-.86-.79-1.29-1.85-1.29-3.19,0-1.2.39-2.15,1.16-2.84.77-.7,1.82-1.05,3.14-1.05M195.93,216.54c-.8.01-1.44.24-1.92.68-.48.44-.72,1.01-.72,1.73,0,.82.23,1.47.69,1.97.46.49,1.11.77,1.95.84v-5.22Z"/>
  <path d="M196.7,208.63c0,1.18.14,2,.41,2.46.27.46.73.68,1.38.68.52,0,.93-.17,1.24-.51.3-.34.45-.81.45-1.4,0-.81-.29-1.46-.86-1.95-.58-.49-1.34-.74-2.3-.74h-.33v1.46M196.1,205.71h5.08v1.46h-1.35c.54.33.94.75,1.2,1.25.25.5.38,1.11.38,1.83,0,.91-.25,1.64-.76,2.18-.51.54-1.2.8-2.06.8-1,0-1.76-.33-2.27-1-.51-.67-.76-1.68-.76-3.01v-2.05h-.14c-.67,0-1.19.22-1.56.67-.37.44-.56,1.06-.56,1.86,0,.51.06,1.01.18,1.49.12.48.31.95.55,1.39h-1.35c-.21-.54-.36-1.06-.46-1.56-.11-.5-.16-.99-.16-1.47,0-1.29.33-2.25,1-2.89.67-.64,1.68-.95,3.04-.95Z"/>
  <path d="M195.8,195.28h5.38v1.46h-5.33c-.84,0-1.47.16-1.89.49-.42.33-.63.82-.63,1.48,0,.79.25,1.41.76,1.87.5.46,1.19.68,2.06.68h5.04v1.47h-8.91v-1.47h1.38c-.54-.35-.94-.76-1.2-1.23-.27-.48-.4-1.03-.4-1.65,0-1.02.32-1.8.96-2.32.63-.53,1.56-.79,2.79-.79Z"/>
  <path d="M189.3,188.77v-10.05h1.35v4.22h10.53v1.62h-10.53v4.22h-1.35Z"/>
  <path d="M192.27,177.73v-1.46h8.91v1.46h-8.91M188.8,177.73v-1.46h1.85v1.46h-1.85Z"/>
  <path d="M193.98,166.26c-.66-.37-1.14-.8-1.46-1.31-.31-.51-.47-1.11-.47-1.8,0-.93.33-1.64.98-2.15.65-.5,1.57-.76,2.77-.76h5.38v1.47h-5.33c-.85,0-1.49.15-1.9.45-.41.3-.62.76-.62,1.38,0,.76.25,1.36.76,1.8.5.44,1.19.66,2.06.66h5.04v1.47h-5.33c-.86,0-1.49.15-1.9.45-.41.3-.62.77-.62,1.4,0,.75.25,1.34.76,1.78.5.44,1.19.66,2.05.66h5.04v1.47h-8.91v-1.47h1.38c-.55-.33-.95-.73-1.21-1.2-.26-.47-.39-1.02-.39-1.66s.16-1.2.49-1.65c.33-.46.81-.79,1.43-1.01Z"/>
  <path d="M196.36,149.7h.72v6.73c1.01-.06,1.78-.37,2.31-.91.53-.55.79-1.3.79-2.28,0-.56-.07-1.11-.21-1.63-.14-.53-.34-1.06-.62-1.58h1.38c.22.53.39,1.06.51,1.62.12.55.18,1.11.18,1.68,0,1.42-.41,2.55-1.24,3.38-.83.83-1.95,1.24-3.36,1.24s-2.62-.39-3.47-1.18c-.86-.79-1.29-1.85-1.29-3.19,0-1.2.39-2.15,1.16-2.84.77-.7,1.82-1.05,3.14-1.05M195.93,151.17c-.8.01-1.44.24-1.92.68-.48.44-.72,1.01-.72,1.73,0,.82.23,1.47.69,1.97.46.49,1.11.77,1.95.84v-5.22Z"/>
  <path d="M188.82,138.6c1.22.71,2.43,1.24,3.62,1.58,1.19.34,2.4.52,3.63.52s2.44-.17,3.64-.52c1.2-.35,2.41-.88,3.62-1.58v1.27c-1.25.8-2.47,1.39-3.68,1.79-1.2.39-2.4.59-3.59.59s-2.37-.2-3.57-.59-2.42-.99-3.68-1.79v-1.27Z"/>
  <path d="M192.53,130.08h1.38c-.21.41-.37.84-.48,1.29-.11.45-.16.91-.16,1.38,0,.73.11,1.27.33,1.64.22.36.56.54,1,.54.34,0,.61-.13.8-.39.19-.26.37-.78.55-1.57l.11-.5c.22-1.04.54-1.78.95-2.21.4-.44.97-.66,1.7-.66.83,0,1.48.33,1.97.99.48.65.72,1.55.72,2.7,0,.48-.05.98-.14,1.5-.09.51-.23,1.06-.41,1.63h-1.51c.28-.54.49-1.07.64-1.6.14-.53.21-1.05.21-1.56,0-.69-.12-1.22-.35-1.59-.24-.37-.57-.56-1-.56-.4,0-.7.14-.92.41-.21.27-.42.85-.61,1.76l-.12.51c-.19.91-.48,1.56-.88,1.97-.4.4-.94.6-1.63.6-.84,0-1.49-.3-1.94-.89-.46-.59-.68-1.44-.68-2.53,0-.54.04-1.05.12-1.53.08-.48.2-.92.36-1.32Z"/>
  <path d="M188.82,127.5v-1.27c1.25-.8,2.48-1.39,3.68-1.78,1.2-.4,2.39-.6,3.57-.6s2.38.2,3.59.6c1.2.39,2.43.99,3.68,1.78v1.27c-1.21-.71-2.42-1.23-3.62-1.58-1.2-.35-2.42-.53-3.64-.53s-2.43.18-3.63.53c-1.19.34-2.4.87-3.62,1.58Z"/>
  <path d="M284.67,11.3v6.85h-1.86v-6.79c0-1.07-.21-1.88-.63-2.41s-1.05-.8-1.88-.8c-1.01,0-1.8.32-2.38.96-.58.64-.87,1.52-.87,2.62v6.41h-1.87V6.8h1.87v1.76c.45-.68.97-1.19,1.57-1.53.61-.34,1.31-.51,2.1-.51,1.3,0,2.29.41,2.96,1.22.67.8,1,1.99,1,3.55Z"/>
  <path d="M295.23,8.73h12.98v1.7h-12.98v-1.7M295.23,12.86h12.98v1.72h-12.98v-1.72Z"/>
  <path d="M319.57,16.42h3.34V4.89l-3.64.73v-1.86l3.61-.73h2.05v13.4h3.34v1.72h-8.71v-1.72Z"/>
  <path d="M336.79,4.37c-1.05,0-1.85.52-2.38,1.56-.53,1.03-.79,2.59-.79,4.67s.26,3.63.79,4.67c.53,1.03,1.33,1.55,2.38,1.55s1.85-.52,2.38-1.55c.53-1.04.8-2.6.8-4.67s-.27-3.64-.8-4.67c-.53-1.04-1.32-1.56-2.38-1.56M336.79,2.75c1.7,0,2.99.67,3.88,2.02.9,1.34,1.35,3.28,1.35,5.83,0,2.55-.45,4.49-1.35,5.83-.89,1.34-2.18,2.01-3.88,2.01s-2.99-.67-3.89-2.01c-.89-1.34-1.34-3.29-1.34-5.83s.45-4.5,1.34-5.83c.9-1.34,2.2-2.02,3.89-2.02Z"/>
  <path d="M349.98,4.37c-1.05,0-1.85.52-2.38,1.56-.53,1.03-.79,2.59-.79,4.67s.26,3.63.79,4.67c.53,1.03,1.33,1.55,2.38,1.55s1.85-.52,2.38-1.55c.53-1.04.8-2.6.8-4.67s-.27-3.64-.8-4.67c-.53-1.04-1.32-1.56-2.38-1.56M349.98,2.75c1.69,0,2.99.67,3.88,2.02.9,1.34,1.35,3.28,1.35,5.83s-.45,4.49-1.35,5.83c-.89,1.34-2.18,2.01-3.88,2.01s-2.99-.67-3.89-2.01c-.89-1.34-1.34-3.29-1.34-5.83,0-2.55.45-4.5,1.34-5.83.9-1.34,2.19-2.02,3.89-2.02Z"/>
  <path class="st21" d="M254.54,280.41v57.78h34.66v-57.78h-34.66Z"/>
  <polyline class="st15" points="254.54 280.41 254.54 338.19 289.2 338.19 289.2 280.41 254.54 280.41"/>
  <path class="st17" d="M297.86,279.42v58.77h34.66v-58.77h-34.66Z"/>
  <polyline class="st15" points="297.86 279.42 297.86 338.19 332.52 338.19 332.52 279.42 297.86 279.42"/>
  <path class="st23" d="M341.18,73.96v264.23h34.66V73.96h-34.66Z"/>
  <polyline class="st15" points="341.18 73.96 341.18 338.19 375.84 338.19 375.84 73.96 341.18 73.96"/>
  <circle class="st19" cx="271.87" cy="280.41" r=".5"/>
  <circle class="st16" cx="315.19" cy="279.42" r=".5"/>
  <circle class="st20" cx="358.51" cy="73.96" r=".5"/>
  <circle class="st11" cx="271.87" cy="299.23" r="5.4"/>
  <circle class="st1" cx="315.19" cy="291.78" r="5.4"/>
  <circle class="st4" cx="358.51" cy="76.8" r="5.4"/>
  <path class="st2" d="M265.87,285.31v12h12v-12h-12Z"/>
  <path class="st7" d="M309.19,286.17v12h12v-12h-12Z"/>
  <path class="st5" d="M352.51,91.66v12h12v-12h-12Z"/>
  <path class="st2" d="M271.87,287.68l-6,6,6,6,6-6-6-6Z"/>
  <path class="st7" d="M315.19,301.32l-6,6,6,6,6-6-6-6Z"/>
  <path class="st5" d="M358.51,77.67l-6,6,6,6,6-6-6-6Z"/>
  <path class="st2" d="M271.87,281.42l-1.41,4.06-4.29.09,3.42,2.6-1.25,4.11,3.53-2.45,3.53,2.45-1.25-4.11,3.43-2.6-4.3-.09-1.41-4.06Z"/>
  <path class="st7" d="M315.19,292.46l-1.41,4.05-4.3.09,3.43,2.6-1.25,4.11,3.53-2.45,3.53,2.45-1.25-4.11,3.43-2.6-4.3-.09-1.41-4.05Z"/>
  <path class="st5" d="M358.51,105.37l-1.41,4.06-4.3.09,3.43,2.6-1.25,4.11,3.53-2.45,3.53,2.45-1.25-4.11,3.43-2.6-4.3-.09-1.41-4.06Z"/>
  <line class="st0" x1="271.87" y1="278.45" x2="271.87" y2="272.45"/>
  <line class="st0" x1="271.87" y1="278.45" x2="265.87" y2="278.45"/>
  <line class="st0" x1="271.87" y1="278.45" x2="271.87" y2="284.45"/>
  <line class="st0" x1="271.87" y1="278.45" x2="277.87" y2="278.45"/>
  <line class="st8" x1="315.19" y1="271.54" x2="315.19" y2="265.54"/>
  <line class="st8" x1="315.19" y1="271.54" x2="309.19" y2="271.54"/>
  <line class="st8" x1="315.19" y1="271.54" x2="315.19" y2="277.54"/>
  <line class="st8" x1="315.19" y1="271.54" x2="321.19" y2="271.54"/>
  <line class="st6" x1="358.51" y1="76.22" x2="358.51" y2="70.22"/>
  <line class="st6" x1="358.51" y1="76.22" x2="352.51" y2="76.22"/>
  <line class="st6" x1="358.51" y1="76.22" x2="358.51" y2="82.22"/>
  <line class="st6" x1="358.51" y1="76.22" x2="364.51" y2="76.22"/>
  <path class="st2" d="M271.87,266l-6,12h12l-6-12Z"/>
  <path class="st7" d="M315.19,287.25l-6,12h12l-6-12Z"/>
  <path class="st5" d="M358.51,60.77l-6,12h12l-6-12Z"/>
  <path class="st2" d="M271.87,276.52l-5.2-3v-6l5.2-3,5.2,3v6l-5.2,3Z"/>
  <path class="st7" d="M315.19,284.89l-5.2-3v-6l5.2-3,5.2,3v6l-5.2,3Z"/>
  <path class="st5" d="M358.51,65.65l-5.2-3v-6l5.2-3,5.2,3v6l-5.2,3Z"/>
  <line class="st0" x1="271.87" y1="261.99" x2="265.87" y2="255.99"/>
  <line class="st0" x1="271.87" y1="261.99" x2="265.87" y2="267.99"/>
  <line class="st0" x1="271.87" y1="261.99" x2="277.87" y2="267.99"/>
  <line class="st0" x1="271.87" y1="261.99" x2="277.87" y2="255.99"/>
  <line class="st8" x1="315.19" y1="262.4" x2="309.19" y2="256.4"/>
  <line class="st8" x1="315.19" y1="262.4" x2="309.19" y2="268.4"/>
  <line class="st8" x1="315.19" y1="262.4" x2="321.19" y2="268.4"/>
  <line class="st8" x1="315.19" y1="262.4" x2="321.19" y2="256.4"/>
  <line class="st6" x1="358.51" y1="66.43" x2="352.51" y2="60.43"/>
  <line class="st6" x1="358.51" y1="66.43" x2="352.51" y2="72.43"/>
  <line class="st6" x1="358.51" y1="66.43" x2="364.51" y2="72.43"/>
  <line class="st6" x1="358.51" y1="66.43" x2="364.51" y2="60.43"/>
  <path class="st2" d="M271.87,265.07l-5.7,4.14,2.18,6.71h7.05l2.18-6.71-5.71-4.14Z"/>
  <path class="st7" d="M315.19,254.45l-5.71,4.15,2.18,6.71h7.05l2.18-6.71-5.71-4.15Z"/>
  <path class="st5" d="M358.51,20.36l-5.71,4.15,2.18,6.71h7.06l2.18-6.71-5.71-4.15Z"/>
  <path class="st2" d="M277.87,272.42h-12l6,12,6-12Z"/>
  <path class="st7" d="M321.19,231.95h-12l6,12,6-12Z"/>
  <path class="st5" d="M364.51,72.68h-12l6,12,6-12Z"/>
  <polyline class="st13" points="68.86 283.45 159.26 283.45 159.26 99.05 68.86 99.05 68.86 283.45"/>
  <path class="st24" d="M72.64,112.15h22.68v-10.37h-22.68v10.37Z"/>
  <polyline class="st13" points="72.64 112.15 95.31 112.15 95.31 101.79 72.64 101.79 72.64 112.15"/>
  <path d="M100.26,103.61v6.72h1.41c1.19,0,2.06-.27,2.62-.81.56-.54.83-1.39.83-2.56s-.28-2-.83-2.54c-.55-.54-1.42-.81-2.62-.81h-1.41M99.09,102.65h2.4c1.67,0,2.9.35,3.69,1.05.78.69,1.17,1.78,1.17,3.26s-.39,2.58-1.18,3.28c-.79.7-2.01,1.05-3.68,1.05h-2.4v-8.64Z"/>
  <path d="M110.87,111.89c-.3.77-.59,1.27-.88,1.51-.29.24-.67.35-1.15.35h-.85v-.89h.62c.29,0,.52-.07.68-.21.16-.14.34-.47.54-.98l.19-.49-2.62-6.38h1.13l2.03,5.07,2.03-5.07h1.13l-2.85,7.08Z"/>
  <path d="M120.57,107.38v3.91h-1.07v-3.88c0-.61-.12-1.07-.36-1.38-.24-.3-.6-.46-1.08-.46-.57,0-1.03.18-1.36.55s-.5.87-.5,1.5v3.66h-1.07v-6.48h1.07v1.01c.25-.39.55-.68.9-.87.35-.19.75-.29,1.2-.29.74,0,1.31.23,1.69.69.38.46.57,1.14.57,2.03Z"/>
  <path d="M125.64,108.03c-.86,0-1.46.1-1.79.29-.33.2-.5.53-.5,1.01,0,.38.12.68.37.9.25.22.59.33,1.02.33.59,0,1.06-.21,1.42-.62.36-.42.54-.98.54-1.67v-.24h-1.06M127.77,107.59v3.7h-1.06v-.98c-.24.39-.55.68-.91.87-.36.19-.81.28-1.33.28-.66,0-1.19-.19-1.59-.56-.39-.37-.58-.87-.58-1.5,0-.73.24-1.28.73-1.65.49-.37,1.22-.56,2.19-.56h1.49v-.1c0-.49-.16-.87-.49-1.13-.32-.27-.77-.41-1.35-.41-.37,0-.73.04-1.08.13-.35.09-.69.22-1.01.4v-.98c.39-.15.77-.26,1.13-.34.37-.08.72-.12,1.07-.12.94,0,1.64.24,2.1.73.46.49.69,1.22.69,2.21Z"/>
  <path d="M135.01,106.05c.27-.48.58-.83.95-1.06.37-.23.81-.34,1.31-.34.68,0,1.2.24,1.56.71.37.47.55,1.14.55,2.01v3.91h-1.07v-3.88c0-.62-.11-1.08-.33-1.38-.22-.3-.56-.45-1.01-.45-.55,0-.99.18-1.31.55-.32.37-.48.87-.48,1.5v3.66h-1.07v-3.88c0-.63-.11-1.09-.33-1.38-.22-.3-.56-.45-1.02-.45-.54,0-.98.19-1.3.56-.32.37-.48.86-.48,1.49v3.66h-1.07v-6.48h1.07v1.01c.24-.4.53-.69.87-.88.34-.19.74-.28,1.21-.28.47,0,.87.12,1.2.36.33.24.58.59.74,1.04Z"/>
  <path d="M144.45,108.03c-.86,0-1.46.1-1.79.29-.33.2-.5.53-.5,1.01,0,.38.12.68.37.9.25.22.59.33,1.02.33.59,0,1.06-.21,1.42-.62.36-.42.54-.98.54-1.67v-.24h-1.06M146.58,107.59v3.7h-1.06v-.98c-.24.39-.55.68-.91.87-.36.19-.81.28-1.33.28-.66,0-1.19-.19-1.59-.56-.39-.37-.58-.87-.58-1.5,0-.73.24-1.28.73-1.65.49-.37,1.22-.56,2.19-.56h1.49v-.1c0-.49-.16-.87-.49-1.13-.32-.27-.77-.41-1.35-.41-.37,0-.73.04-1.08.13-.35.09-.69.22-1.01.4v-.98c.39-.15.77-.26,1.13-.34.37-.08.72-.12,1.07-.12.94,0,1.64.24,2.1.73.46.49.69,1.22.69,2.21Z"/>
  <path d="M154.16,104.81l-2.34,3.15,2.47,3.33h-1.26l-1.89-2.55-1.89,2.55h-1.26l2.52-3.39-2.3-3.09h1.26l1.72,2.31,1.72-2.31h1.26Z"/>
  <path class="st18" d="M72.64,125.11h22.68v-10.37h-22.68v10.37Z"/>
  <polyline class="st13" points="72.64 125.11 95.31 125.11 95.31 114.75 72.64 114.75 72.64 125.11"/>
  <path d="M104.65,115.89v1.14c-.44-.21-.86-.37-1.26-.47-.39-.1-.77-.16-1.14-.16-.64,0-1.13.12-1.48.37-.34.25-.52.6-.52,1.05,0,.38.11.67.34.87.23.19.67.35,1.31.47l.71.14c.87.17,1.51.46,1.93.88.42.42.62.98.62,1.68,0,.84-.28,1.47-.85,1.9-.56.43-1.38.65-2.47.65-.41,0-.84-.05-1.31-.14-.46-.09-.94-.23-1.43-.41v-1.2c.47.27.94.47,1.39.6.46.13.9.2,1.34.2.67,0,1.18-.13,1.55-.39.36-.26.54-.64.54-1.12,0-.42-.13-.76-.39-1-.26-.24-.68-.42-1.28-.54l-.71-.14c-.87-.17-1.5-.45-1.89-.82s-.58-.89-.58-1.55c0-.76.27-1.37.8-1.81.54-.44,1.28-.66,2.23-.66.41,0,.82.04,1.24.11.42.07.85.18,1.29.33Z"/>
  <path d="M112.03,115.89v1.14c-.44-.21-.86-.37-1.26-.47-.39-.1-.77-.16-1.14-.16-.64,0-1.13.12-1.48.37-.34.25-.51.6-.51,1.05,0,.38.11.67.34.87.23.19.67.35,1.31.47l.71.14c.87.17,1.51.46,1.93.88.42.42.62.98.62,1.68,0,.84-.28,1.47-.84,1.9-.56.43-1.38.65-2.47.65-.41,0-.85-.05-1.31-.14-.46-.09-.94-.23-1.43-.41v-1.2c.47.27.94.47,1.39.6.46.13.9.2,1.34.2.67,0,1.18-.13,1.55-.39.36-.26.54-.64.54-1.12,0-.42-.13-.76-.39-1-.26-.24-.68-.42-1.28-.54l-.71-.14c-.87-.17-1.5-.45-1.89-.82-.39-.37-.58-.89-.58-1.55,0-.76.27-1.37.8-1.81.54-.44,1.28-.66,2.23-.66.41,0,.82.04,1.24.11.42.07.85.18,1.29.33Z"/>
  <path d="M114.9,116.57v6.72h1.41c1.19,0,2.06-.27,2.62-.81.56-.54.83-1.39.83-2.56s-.28-2-.83-2.54c-.55-.54-1.42-.81-2.62-.81h-1.41M113.73,115.61h2.4c1.67,0,2.9.35,3.69,1.05.78.69,1.17,1.78,1.17,3.26s-.39,2.58-1.18,3.28c-.79.7-2.01,1.05-3.68,1.05h-2.4v-8.64Z"/>
  <path class="st22" d="M72.64,138.07h22.68v-10.37h-22.68v10.37Z"/>
  <polyline class="st13" points="72.64 138.07 95.31 138.07 95.31 127.71 72.64 127.71 72.64 138.07"/>
  <path d="M100.16,136.24v3.44h-1.07v-8.95h1.07v.98c.22-.39.51-.67.84-.86.34-.19.75-.28,1.23-.28.79,0,1.43.31,1.92.94.49.62.74,1.45.74,2.47s-.25,1.84-.74,2.47c-.49.62-1.13.94-1.92.94-.47,0-.88-.09-1.23-.28-.34-.19-.62-.48-.84-.86M103.79,133.98c0-.78-.16-1.4-.49-1.84-.32-.45-.76-.67-1.33-.67s-1.01.22-1.33.67c-.32.44-.48,1.06-.48,1.84s.16,1.4.48,1.85c.32.44.77.67,1.33.67s1.01-.22,1.33-.67c.32-.45.49-1.06.49-1.85Z"/>
  <path d="M109.35,137.81c-.3.77-.59,1.27-.88,1.51-.29.24-.67.35-1.15.35h-.85v-.89h.62c.29,0,.52-.07.68-.21.16-.14.34-.47.54-.98l.19-.49-2.62-6.38h1.13l2.03,5.07,2.03-5.07h1.13l-2.85,7.08Z"/>
  <path d="M113.63,128.21h1.07v5.32l3.18-2.8h1.36l-3.44,3.03,3.58,3.45h-1.39l-3.29-3.17v3.17h-1.07v-9Z"/>
  <path d="M123.27,133.95c-.86,0-1.46.1-1.79.29-.33.2-.5.53-.5,1.01,0,.38.12.68.37.9.25.22.59.33,1.02.33.59,0,1.06-.21,1.42-.62.36-.42.54-.98.54-1.67v-.24h-1.06M125.39,133.51v3.7h-1.06v-.98c-.24.39-.55.68-.91.87-.36.19-.81.28-1.33.28-.66,0-1.19-.19-1.59-.56-.39-.37-.58-.87-.58-1.5,0-.73.24-1.28.73-1.65.49-.37,1.22-.56,2.19-.56h1.49v-.1c0-.49-.16-.87-.49-1.13-.32-.27-.77-.41-1.35-.41-.37,0-.73.04-1.08.13-.35.09-.69.22-1.01.4v-.98c.39-.15.77-.26,1.13-.34.37-.08.72-.12,1.07-.12.94,0,1.64.24,2.1.73s.69,1.22.69,2.21Z"/>
  <path d="M127.59,128.21h1.06v9h-1.06v-9Z"/>
  <path d="M135.93,131.97c.27-.48.58-.83.96-1.06.37-.23.81-.34,1.31-.34.68,0,1.2.24,1.56.71.37.47.55,1.14.55,2.01v3.91h-1.07v-3.88c0-.62-.11-1.08-.33-1.38-.22-.3-.56-.45-1.01-.45-.55,0-.99.18-1.31.55-.32.37-.48.87-.48,1.5v3.66h-1.07v-3.88c0-.62-.11-1.09-.33-1.38-.22-.3-.56-.45-1.02-.45-.54,0-.98.19-1.3.56-.32.37-.48.86-.48,1.49v3.66h-1.07v-6.48h1.07v1.01c.24-.4.53-.69.87-.88.34-.19.74-.28,1.21-.28s.87.12,1.2.36c.33.24.58.59.73,1.04Z"/>
  <path d="M145.37,133.95c-.86,0-1.46.1-1.79.29-.33.2-.5.53-.5,1.01,0,.38.12.68.37.9.25.22.59.33,1.02.33.59,0,1.06-.21,1.42-.62.36-.42.54-.98.54-1.67v-.24h-1.06M147.5,133.51v3.7h-1.06v-.98c-.24.39-.55.68-.91.87-.36.19-.81.28-1.33.28-.66,0-1.19-.19-1.59-.56-.39-.37-.58-.87-.58-1.5,0-.73.24-1.28.73-1.65.49-.37,1.22-.56,2.19-.56h1.49v-.1c0-.49-.16-.87-.49-1.13-.32-.27-.77-.41-1.35-.41-.37,0-.73.04-1.08.13-.35.09-.69.22-1.01.4v-.98c.39-.15.77-.26,1.13-.34.37-.08.72-.12,1.07-.12.94,0,1.64.24,2.1.73.46.49.69,1.22.69,2.21Z"/>
  <path d="M155.08,133.3v3.91h-1.06v-3.88c0-.61-.12-1.07-.36-1.38-.24-.3-.6-.46-1.08-.46-.57,0-1.03.18-1.36.55-.33.37-.5.87-.5,1.5v3.66h-1.07v-6.48h1.07v1.01c.25-.39.55-.68.9-.87.35-.19.75-.29,1.2-.29.74,0,1.31.23,1.69.69.38.46.57,1.14.57,2.03Z"/>
  <g>
    <path class="st9" d="M84.39,170.92l-5.91,5.91,5.91,5.91,5.91-5.91-5.91-5.91Z"/>
    <path d="M100.91,180.16h4.08v.98h-5.49v-.98c.44-.46,1.05-1.07,1.81-1.85.77-.78,1.25-1.28,1.45-1.5.37-.42.63-.78.78-1.06.15-.29.23-.58.23-.86,0-.46-.16-.83-.49-1.12-.32-.29-.74-.43-1.26-.43-.37,0-.75.06-1.16.19-.41.13-.84.32-1.3.58v-1.18c.47-.19.91-.33,1.32-.43.41-.1.78-.14,1.12-.14.9,0,1.61.22,2.14.67s.8,1.05.8,1.79c0,.35-.07.69-.2,1.01-.13.32-.37.69-.72,1.12-.1.11-.4.44-.92.97-.52.53-1.25,1.28-2.19,2.24Z"/>
    <path d="M112.68,174.66l-2.34,3.15,2.47,3.33h-1.26l-1.89-2.55-1.89,2.55h-1.26l2.52-3.39-2.3-3.09h1.26l1.72,2.31,1.72-2.31h1.26Z"/>
    <path d="M117.1,176.36c-.52,0-.94.18-1.25.54-.3.36-.46.85-.46,1.48,0,.62.15,1.11.46,1.48.31.36.73.54,1.25.54s.94-.18,1.24-.54c.31-.36.46-.85.46-1.48,0-.62-.15-1.12-.46-1.48-.3-.36-.72-.54-1.24-.54M119.42,172.7v1.06c-.29-.14-.59-.24-.89-.32-.3-.07-.59-.11-.89-.11-.77,0-1.36.26-1.77.78-.41.52-.64,1.31-.69,2.36.23-.34.51-.59.86-.77.34-.18.72-.27,1.13-.27.87,0,1.55.26,2.05.79.51.52.76,1.24.76,2.15s-.26,1.6-.79,2.14c-.52.54-1.22.8-2.1.8-1,0-1.76-.38-2.29-1.15-.53-.77-.79-1.88-.79-3.33,0-1.37.32-2.45.97-3.26.65-.81,1.52-1.22,2.61-1.22.29,0,.59.03.89.09.3.06.61.14.94.26Z"/>
  </g>
  <g>
    <path class="st9" d="M78.48,157.51v11.82h11.82v-11.82h-11.82Z"/>
    <path d="M100.91,166.75h4.08v.98h-5.49v-.98c.44-.46,1.05-1.07,1.81-1.85.77-.78,1.25-1.28,1.45-1.5.37-.42.63-.78.78-1.06.15-.29.23-.58.23-.86,0-.46-.16-.83-.49-1.12-.32-.29-.74-.43-1.26-.43-.37,0-.75.06-1.16.19-.41.13-.84.32-1.3.58v-1.18c.47-.19.91-.33,1.32-.43.41-.1.78-.14,1.12-.14.9,0,1.61.22,2.14.67.53.45.8,1.05.8,1.79,0,.35-.07.69-.2,1.01-.13.32-.37.69-.72,1.12-.1.11-.4.44-.92.97-.52.53-1.25,1.28-2.19,2.24Z"/>
    <path d="M112.68,161.26l-2.34,3.15,2.47,3.33h-1.26l-1.89-2.55-1.89,2.55h-1.26l2.52-3.39-2.3-3.09h1.26l1.72,2.31,1.72-2.31h1.26Z"/>
    <path d="M117.67,160.12l-2.95,4.61h2.95v-4.61M117.36,159.1h1.47v5.63h1.23v.97h-1.23v2.04h-1.16v-2.04h-3.9v-1.13l3.59-5.47Z"/>
  </g>
  <g>
    <line class="st3" x1="84.36" y1="205.66" x2="84.36" y2="199.75"/>
    <line class="st3" x1="84.36" y1="205.66" x2="78.45" y2="205.66"/>
    <line class="st3" x1="84.36" y1="205.66" x2="84.36" y2="211.57"/>
    <line class="st3" x1="84.36" y1="205.66" x2="90.27" y2="205.66"/>
    <path d="M103.38,202.36l-2.95,4.61h2.95v-4.61M103.07,201.34h1.47v5.63h1.23v.97h-1.23v2.04h-1.16v-2.04h-3.9v-1.13l3.59-5.47Z"/>
    <path d="M112.95,203.5l-2.34,3.15,2.47,3.33h-1.26l-1.89-2.55-1.89,2.55h-1.26l2.52-3.39-2.3-3.09h1.26l1.72,2.31,1.72-2.31h1.26Z"/>
    <path d="M117.93,202.36l-2.95,4.61h2.95v-4.61M117.63,201.34h1.47v5.63h1.23v.97h-1.23v2.04h-1.16v-2.04h-3.9v-1.13l3.59-5.47Z"/>
  </g>
  <g>
    <path class="st9" d="M84.84,255.14l-5.62,4.08,2.14,6.6h6.95l2.14-6.6-5.62-4.08Z"/>
    <path d="M103.04,260.58c-.52,0-.94.18-1.25.54-.3.36-.46.85-.46,1.48s.15,1.11.46,1.48c.31.36.73.54,1.25.54s.94-.18,1.24-.54c.31-.36.46-.85.46-1.48s-.15-1.12-.46-1.48c-.3-.36-.72-.54-1.24-.54M105.36,256.92v1.06c-.29-.14-.59-.24-.89-.32-.3-.07-.59-.11-.89-.11-.77,0-1.36.26-1.77.78-.41.52-.64,1.31-.69,2.36.23-.34.51-.59.86-.77.34-.18.72-.27,1.13-.27.87,0,1.55.26,2.05.79.51.52.76,1.24.76,2.15s-.26,1.6-.79,2.14c-.52.54-1.22.8-2.1.8-1,0-1.76-.38-2.29-1.15-.53-.77-.79-1.88-.79-3.33,0-1.37.32-2.45.97-3.26.65-.81,1.52-1.22,2.61-1.22.29,0,.59.03.89.09.3.06.61.14.94.26Z"/>
    <path d="M113.17,258.88l-2.34,3.15,2.47,3.33h-1.26l-1.89-2.55-1.89,2.55h-1.26l2.52-3.39-2.3-3.09h1.26l1.72,2.31,1.72-2.31h1.26Z"/>
    <path d="M117.45,261.26c-.56,0-.99.15-1.31.45-.32.3-.47.71-.47,1.23s.16.93.47,1.23c.32.3.76.45,1.31.45s.99-.15,1.31-.45c.32-.3.48-.71.48-1.23s-.16-.93-.48-1.23c-.32-.3-.75-.45-1.31-.45M116.28,260.76c-.5-.12-.89-.36-1.17-.7-.28-.34-.42-.76-.42-1.26,0-.69.25-1.24.74-1.64.49-.4,1.17-.6,2.03-.6s1.54.2,2.03.6c.49.4.73.95.73,1.64,0,.49-.14.91-.42,1.26-.28.34-.67.58-1.16.7.56.13,1,.39,1.31.77.32.38.47.85.47,1.4,0,.84-.26,1.48-.77,1.93-.51.45-1.24.67-2.19.67s-1.69-.22-2.2-.67c-.51-.45-.76-1.09-.76-1.93,0-.55.16-1.02.47-1.4.32-.38.76-.64,1.32-.77M115.85,258.92c0,.45.14.8.42,1.05.28.25.68.38,1.18.38.5,0,.89-.13,1.17-.38.29-.25.43-.6.43-1.05,0-.45-.14-.8-.43-1.05-.28-.25-.67-.38-1.17-.38s-.9.13-1.18.38c-.28.25-.42.6-.42,1.05Z"/>
  </g>
  <g>
    <path class="st9" d="M84.4,214.18l-5.91,11.82h11.82l-5.91-11.82Z"/>
    <path d="M103.42,216.79l-2.95,4.61h2.95v-4.61M103.11,215.77h1.47v5.63h1.23v.97h-1.23v2.04h-1.16v-2.04h-3.9v-1.13l3.59-5.47Z"/>
    <path d="M112.99,217.93l-2.34,3.15,2.47,3.33h-1.26l-1.89-2.55-1.89,2.55h-1.26l2.52-3.39-2.3-3.09h1.26l1.72,2.31,1.72-2.31h1.26Z"/>
    <path d="M117.41,219.62c-.52,0-.94.18-1.25.54-.3.36-.46.85-.46,1.48,0,.62.15,1.11.46,1.48.31.36.73.54,1.25.54s.94-.18,1.24-.54c.31-.36.46-.85.46-1.48s-.15-1.12-.46-1.48c-.3-.36-.72-.54-1.24-.54M119.73,215.96v1.06c-.29-.14-.59-.24-.89-.32-.3-.07-.59-.11-.89-.11-.77,0-1.36.26-1.77.78-.4.52-.64,1.31-.69,2.36.23-.34.51-.59.86-.77.34-.18.72-.27,1.13-.27.87,0,1.55.26,2.05.79.51.52.76,1.24.76,2.15s-.26,1.6-.79,2.14c-.52.54-1.22.8-2.09.8-1,0-1.76-.38-2.29-1.15-.53-.77-.79-1.88-.79-3.33,0-1.37.32-2.45.97-3.26.65-.81,1.52-1.22,2.61-1.22.29,0,.59.03.89.09.3.06.61.14.94.26Z"/>
  </g>
  <g>
    <path class="st9" d="M90.58,268.55h-11.82l5.91,11.82,5.91-11.82Z"/>
    <path d="M102.76,274.67c-.56,0-.99.15-1.31.45-.32.3-.47.71-.47,1.23s.16.93.47,1.23c.32.3.76.45,1.31.45s.99-.15,1.31-.45c.32-.3.48-.71.48-1.23s-.16-.93-.48-1.23c-.32-.3-.75-.45-1.31-.45M101.59,274.17c-.5-.12-.89-.36-1.17-.7-.28-.34-.42-.76-.42-1.26,0-.69.25-1.24.74-1.64.49-.4,1.17-.6,2.03-.6s1.54.2,2.03.6c.49.4.74.95.74,1.64,0,.49-.14.91-.42,1.26-.28.34-.67.58-1.16.7.56.13,1,.39,1.31.77.32.38.47.85.47,1.4,0,.84-.26,1.48-.77,1.93-.51.45-1.24.67-2.19.67s-1.69-.22-2.2-.67c-.51-.45-.76-1.09-.76-1.93,0-.55.16-1.02.47-1.4.32-.38.76-.64,1.32-.77M101.16,272.33c0,.45.14.8.42,1.05.28.25.68.38,1.18.38s.89-.13,1.17-.38c.29-.25.43-.6.43-1.05s-.14-.8-.43-1.05c-.28-.25-.67-.38-1.17-.38-.51,0-.9.13-1.18.38-.28.25-.42.6-.42,1.05Z"/>
    <path d="M113.03,272.29l-2.34,3.15,2.47,3.33h-1.26l-1.89-2.55-1.89,2.55h-1.26l2.52-3.39-2.3-3.09h1.26l1.72,2.31,1.72-2.31h1.26Z"/>
    <path d="M117.31,274.67c-.56,0-.99.15-1.31.45-.32.3-.47.71-.47,1.23s.16.93.47,1.23c.32.3.76.45,1.31.45s.99-.15,1.31-.45c.32-.3.48-.71.48-1.23s-.16-.93-.48-1.23c-.32-.3-.75-.45-1.31-.45M116.14,274.17c-.5-.12-.89-.36-1.17-.7-.28-.34-.42-.76-.42-1.26,0-.69.24-1.24.73-1.64.49-.4,1.17-.6,2.03-.6s1.54.2,2.03.6c.49.4.74.95.74,1.64,0,.49-.14.91-.42,1.26-.28.34-.67.58-1.16.7.56.13,1,.39,1.31.77.32.38.47.85.47,1.4,0,.84-.26,1.48-.77,1.93-.51.45-1.24.67-2.19.67s-1.69-.22-2.2-.67c-.51-.45-.76-1.09-.76-1.93,0-.55.16-1.02.47-1.4s.76-.64,1.32-.77M115.71,272.33c0,.45.14.8.42,1.05.28.25.68.38,1.18.38s.89-.13,1.17-.38c.29-.25.43-.6.43-1.05s-.14-.8-.43-1.05c-.28-.25-.67-.38-1.17-.38-.51,0-.9.13-1.18.38-.28.25-.42.6-.42,1.05Z"/>
  </g>
  <g>
    <path class="st9" d="M84.27,185.07l-1.39,3.99-4.23.09,3.37,2.56-1.23,4.05,3.47-2.42,3.47,2.42-1.23-4.05,3.37-2.56-4.23-.09-1.39-3.99Z"/>
    <path d="M100.8,194.31h4.08v.98h-5.49v-.98c.44-.46,1.05-1.07,1.81-1.85.77-.78,1.25-1.28,1.45-1.5.37-.42.63-.78.78-1.06.15-.29.23-.58.23-.86,0-.46-.16-.83-.49-1.12-.32-.29-.74-.43-1.26-.43-.37,0-.75.06-1.16.19-.41.13-.84.32-1.3.58v-1.18c.47-.19.91-.33,1.32-.43.41-.1.78-.14,1.12-.14.9,0,1.61.22,2.14.67.53.45.8,1.05.8,1.79,0,.36-.07.69-.2,1.01-.13.32-.37.69-.72,1.12-.1.11-.4.44-.92.97-.52.53-1.25,1.28-2.19,2.24Z"/>
    <path d="M112.57,188.82l-2.34,3.15,2.47,3.33h-1.26l-1.89-2.55-1.89,2.55h-1.26l2.52-3.39-2.3-3.09h1.26l1.72,2.31,1.72-2.31h1.26Z"/>
    <path d="M116.85,191.19c-.56,0-.99.15-1.31.45-.32.3-.47.71-.47,1.23s.16.93.47,1.23c.32.3.76.45,1.31.45s.99-.15,1.31-.45c.32-.3.48-.71.48-1.23s-.16-.93-.48-1.23c-.32-.3-.75-.45-1.31-.45M115.68,190.7c-.5-.12-.89-.36-1.17-.7-.28-.34-.42-.76-.42-1.26,0-.69.24-1.24.74-1.64.49-.4,1.17-.6,2.03-.6.86,0,1.54.2,2.03.6.49.4.74.95.74,1.64,0,.49-.14.91-.42,1.26-.28.34-.67.58-1.16.7.56.13,1,.39,1.31.77.32.38.47.85.47,1.4,0,.84-.26,1.48-.77,1.93-.51.45-1.24.67-2.19.67s-1.69-.22-2.2-.67c-.51-.45-.76-1.09-.76-1.93,0-.55.16-1.02.47-1.4.32-.38.76-.64,1.32-.77M115.25,188.85c0,.45.14.8.42,1.05.28.25.68.38,1.18.38.5,0,.89-.13,1.17-.38.29-.25.43-.6.43-1.05,0-.45-.14-.8-.43-1.05-.28-.25-.67-.38-1.17-.38s-.9.13-1.18.38c-.28.25-.42.6-.42,1.05Z"/>
  </g>
  <g>
    <circle class="st10" cx="84.03" cy="148.29" r="5.32"/>
    <path d="M100.55,151.63h4.08v.98h-5.49v-.98c.44-.46,1.05-1.07,1.81-1.85.77-.78,1.25-1.28,1.45-1.5.37-.42.63-.78.78-1.06.15-.29.23-.58.23-.86,0-.46-.16-.83-.49-1.12-.32-.29-.74-.43-1.26-.43-.37,0-.75.06-1.16.19-.41.13-.84.32-1.3.58v-1.18c.47-.19.91-.33,1.32-.43.41-.1.78-.14,1.12-.14.9,0,1.61.22,2.14.67s.8,1.05.8,1.79c0,.35-.07.69-.2,1.01-.13.32-.37.69-.72,1.12-.1.11-.4.44-.92.97-.52.53-1.25,1.28-2.19,2.24Z"/>
    <path d="M112.32,146.13l-2.34,3.15,2.47,3.33h-1.26l-1.89-2.55-1.89,2.55h-1.26l2.52-3.39-2.3-3.09h1.26l1.72,2.31,1.72-2.31h1.26Z"/>
    <path d="M115.11,151.63h4.08v.98h-5.49v-.98c.44-.46,1.05-1.07,1.81-1.85.77-.78,1.25-1.28,1.45-1.5.37-.42.63-.78.78-1.06.15-.29.23-.58.23-.86,0-.46-.16-.83-.49-1.12-.32-.29-.74-.43-1.26-.43-.37,0-.75.06-1.16.19-.4.13-.84.32-1.3.58v-1.18c.47-.19.91-.33,1.32-.43.41-.1.78-.14,1.12-.14.9,0,1.61.22,2.14.67.53.45.8,1.05.8,1.79,0,.35-.07.69-.2,1.01-.13.32-.37.69-.72,1.12-.1.11-.4.44-.92.97-.52.53-1.25,1.28-2.19,2.24Z"/>
  </g>
  <g>
    <path class="st9" d="M84.59,240.85l-5.12-2.95v-5.91l5.12-2.95,5.12,2.95v5.91l-5.12,2.95Z"/>
    <path d="M103.61,231.64l-2.95,4.61h2.95v-4.61M103.3,230.62h1.47v5.63h1.23v.97h-1.23v2.03h-1.16v-2.03h-3.9v-1.13l3.59-5.48Z"/>
    <path d="M113.17,232.78l-2.34,3.15,2.47,3.33h-1.26l-1.89-2.54-1.89,2.54h-1.26l2.52-3.39-2.3-3.09h1.26l1.72,2.31,1.72-2.31h1.26Z"/>
    <path d="M117.45,235.16c-.56,0-.99.15-1.31.45-.32.3-.47.71-.47,1.23s.16.93.47,1.23c.32.3.76.45,1.31.45s.99-.15,1.31-.45c.32-.3.48-.71.48-1.23s-.16-.93-.48-1.23c-.32-.3-.75-.45-1.31-.45M116.28,234.66c-.5-.12-.89-.36-1.17-.7-.28-.34-.42-.76-.42-1.26,0-.69.25-1.24.74-1.64.49-.4,1.17-.6,2.03-.6s1.54.2,2.03.6c.49.4.73.95.74,1.64,0,.49-.14.91-.42,1.26-.28.34-.67.58-1.16.7.56.13,1,.39,1.31.77.32.38.47.85.47,1.4,0,.84-.26,1.48-.77,1.93-.51.45-1.24.67-2.19.67s-1.69-.22-2.2-.67c-.51-.45-.76-1.09-.76-1.93,0-.55.16-1.02.47-1.4.32-.38.76-.64,1.32-.77M115.85,232.82c0,.45.14.8.42,1.05.28.25.68.37,1.18.38.5,0,.89-.13,1.17-.38.29-.25.43-.6.43-1.05s-.14-.8-.43-1.05c-.28-.25-.67-.38-1.17-.38s-.9.13-1.18.38c-.28.25-.42.6-.42,1.05Z"/>
  </g>
  <g>
    <line class="st3" x1="84.76" y1="247.86" x2="78.85" y2="241.95"/>
    <line class="st3" x1="84.76" y1="247.86" x2="78.85" y2="253.77"/>
    <line class="st3" x1="84.76" y1="247.86" x2="90.67" y2="253.77"/>
    <line class="st3" x1="84.76" y1="247.86" x2="90.67" y2="241.95"/>
    <path d="M102.96,247.4c-.52,0-.94.18-1.25.54-.3.36-.46.85-.46,1.48s.15,1.11.46,1.48c.31.36.73.54,1.25.54s.94-.18,1.24-.54c.31-.36.46-.85.46-1.48s-.15-1.12-.46-1.48c-.3-.36-.72-.54-1.24-.54M105.28,243.73v1.07c-.29-.14-.59-.25-.89-.32-.3-.07-.59-.11-.89-.11-.77,0-1.36.26-1.77.78-.41.52-.64,1.31-.69,2.36.23-.34.51-.59.86-.77.34-.18.72-.27,1.13-.27.87,0,1.55.26,2.05.79.51.52.76,1.24.76,2.15s-.26,1.6-.79,2.14c-.52.54-1.22.8-2.1.8-1,0-1.76-.38-2.29-1.15-.53-.77-.79-1.88-.79-3.33,0-1.37.32-2.46.97-3.27.65-.81,1.52-1.22,2.61-1.22.29,0,.59.03.89.09.3.06.61.14.94.26Z"/>
    <path d="M113.1,245.7l-2.34,3.15,2.47,3.33h-1.26l-1.89-2.55-1.89,2.55h-1.26l2.52-3.39-2.3-3.09h1.26l1.72,2.31,1.72-2.31h1.26Z"/>
    <path d="M117.52,247.4c-.52,0-.94.18-1.25.54-.3.36-.46.85-.46,1.48,0,.62.15,1.11.46,1.48.31.36.73.54,1.25.54s.94-.18,1.24-.54c.31-.36.46-.85.46-1.48s-.15-1.12-.46-1.48c-.3-.36-.72-.54-1.24-.54M119.84,243.73v1.07c-.29-.14-.59-.25-.89-.32-.3-.07-.59-.11-.89-.11-.77,0-1.36.26-1.77.78-.41.52-.64,1.31-.69,2.36.23-.34.51-.59.86-.77.34-.18.72-.27,1.13-.27.87,0,1.55.26,2.05.79.51.52.76,1.24.76,2.15s-.26,1.6-.79,2.14c-.52.54-1.22.8-2.1.8-1,0-1.76-.38-2.29-1.15-.53-.77-.79-1.88-.79-3.33,0-1.37.32-2.46.97-3.27.65-.81,1.52-1.22,2.61-1.22.29,0,.59.03.89.09.3.06.61.14.94.26Z"/>
  </g>
  <line class="st12" x1="535.17" y1="338.19" x2="785.62" y2="338.19"/>
  <line class="st12" x1="535.17" y1="262.45" x2="785.62" y2="262.45"/>
  <line class="st12" x1="535.17" y1="186.71" x2="785.62" y2="186.71"/>
  <line class="st12" x1="535.17" y1="110.97" x2="785.62" y2="110.97"/>
  <line class="st12" x1="535.17" y1="35.23" x2="785.62" y2="35.23"/>
  <line class="st13" x1="535.17" y1="338.19" x2="785.62" y2="338.19"/>
  <line class="st13" x1="535.17" y1="338.19" x2="535.17" y2="22.36"/>
  <line class="st13" x1="535.17" y1="338.19" x2="538.65" y2="338.19"/>
  <line class="st13" x1="535.17" y1="262.45" x2="538.65" y2="262.45"/>
  <line class="st13" x1="535.17" y1="186.71" x2="538.65" y2="186.71"/>
  <line class="st13" x1="535.17" y1="110.97" x2="538.65" y2="110.97"/>
  <line class="st13" x1="535.17" y1="35.23" x2="538.65" y2="35.23"/>
  <path d="M514.18,334.64c-.6,0-1.05.3-1.36.89-.3.59-.45,1.48-.45,2.67s.15,2.07.45,2.67c.3.59.76.89,1.36.89s1.06-.3,1.36-.89c.3-.59.46-1.48.46-2.67s-.15-2.08-.46-2.67c-.3-.59-.75-.89-1.36-.89M514.18,333.71c.97,0,1.71.38,2.22,1.15.51.76.77,1.87.77,3.33s-.26,2.57-.77,3.33c-.51.77-1.25,1.15-2.22,1.15s-1.71-.38-2.22-1.15c-.51-.77-.77-1.88-.76-3.33,0-1.46.25-2.57.76-3.33.51-.77,1.25-1.15,2.22-1.15Z"/>
  <path d="M511.94,258.13h4.59v.98h-3.52v2.12c.17-.06.34-.1.51-.13.17-.03.34-.05.51-.05.96,0,1.73.26,2.29.79.56.53.84,1.24.84,2.15s-.29,1.65-.87,2.17c-.58.51-1.4.77-2.45.77-.36,0-.73-.03-1.11-.09-.38-.06-.76-.15-1.16-.28v-1.18c.35.19.7.33,1.08.42.37.09.76.14,1.17.14.67,0,1.2-.18,1.58-.53.39-.35.59-.83.59-1.43s-.2-1.08-.59-1.43c-.39-.35-.92-.52-1.58-.52-.31,0-.62.03-.94.1-.31.07-.62.18-.95.33v-4.34Z"/>
  <path d="M504.34,190.05h1.91v-6.59l-2.08.42v-1.06l2.07-.42h1.17v7.66h1.91v.98h-4.98v-.98Z"/>
  <path d="M514.18,183.16c-.6,0-1.05.3-1.36.89-.3.59-.45,1.48-.45,2.67s.15,2.07.45,2.67c.3.59.76.89,1.36.89s1.06-.3,1.36-.89c.3-.59.46-1.48.46-2.67s-.15-2.08-.46-2.67c-.3-.59-.75-.89-1.36-.89M514.18,182.23c.97,0,1.71.38,2.22,1.15.51.76.77,1.88.77,3.33s-.26,2.57-.77,3.33c-.51.76-1.25,1.15-2.22,1.15s-1.71-.38-2.22-1.15c-.51-.77-.77-1.88-.76-3.33,0-1.46.25-2.57.76-3.33.51-.77,1.25-1.15,2.22-1.15Z"/>
  <path d="M504.59,114.31h1.91v-6.59l-2.08.42v-1.07l2.07-.42h1.17v7.66h1.91v.98h-4.98v-.98Z"/>
  <path d="M511.94,106.65h4.59v.98h-3.52v2.12c.17-.06.34-.1.51-.13.17-.03.34-.05.51-.05.96,0,1.73.26,2.29.79.56.53.84,1.24.84,2.15s-.29,1.65-.87,2.17c-.58.51-1.4.77-2.45.77-.36,0-.73-.03-1.11-.09-.38-.06-.76-.15-1.16-.28v-1.17c.35.19.7.33,1.08.42.37.09.76.14,1.17.14.67,0,1.2-.18,1.58-.53.39-.35.59-.83.59-1.43s-.2-1.08-.59-1.43c-.39-.35-.92-.53-1.58-.53-.31,0-.62.03-.94.1-.31.07-.62.18-.95.32v-4.34Z"/>
  <path d="M505.15,38.57h4.08v.98h-5.49v-.98c.44-.46,1.05-1.07,1.81-1.85.77-.78,1.25-1.27,1.45-1.5.37-.42.63-.78.78-1.06.15-.29.23-.58.23-.86,0-.46-.16-.83-.49-1.12-.32-.29-.74-.43-1.25-.43-.37,0-.76.06-1.17.19-.41.13-.84.32-1.3.58v-1.18c.47-.19.91-.33,1.32-.43.41-.1.78-.14,1.12-.14.9,0,1.61.22,2.14.67.53.45.8,1.05.8,1.79,0,.35-.07.69-.2,1.01-.13.32-.37.69-.72,1.12-.1.11-.4.44-.92.97-.52.53-1.25,1.28-2.19,2.24Z"/>
  <path d="M514.18,31.68c-.6,0-1.05.3-1.36.89-.3.59-.45,1.48-.45,2.67s.15,2.07.45,2.67c.3.59.76.89,1.36.89s1.06-.3,1.36-.89c.3-.59.46-1.48.46-2.67s-.15-2.08-.46-2.67c-.3-.59-.75-.89-1.36-.89M514.18,30.75c.97,0,1.71.38,2.22,1.15.51.76.77,1.88.77,3.33s-.26,2.57-.77,3.33c-.51.76-1.25,1.15-2.22,1.15s-1.71-.38-2.22-1.15c-.51-.77-.77-1.88-.76-3.33,0-1.46.25-2.57.76-3.33.51-.77,1.25-1.15,2.22-1.15Z"/>
  <path d="M470.3,236.7v-2.4l8.09-3.03-8.09-3.05v-2.4h11.88v1.57h-10.43l8.15,3.06v1.62l-8.15,3.06h10.43v1.56h-11.88Z"/>
  <path d="M477.36,215.08h.72v6.73c1.01-.06,1.78-.37,2.31-.91.53-.55.79-1.31.79-2.28,0-.56-.07-1.11-.21-1.63-.14-.53-.35-1.06-.62-1.58h1.38c.22.53.39,1.06.51,1.62.12.55.17,1.11.17,1.68,0,1.42-.41,2.55-1.24,3.38-.83.83-1.95,1.24-3.36,1.24-1.46,0-2.61-.39-3.47-1.18-.86-.79-1.29-1.85-1.29-3.19,0-1.2.39-2.15,1.16-2.84.77-.7,1.82-1.05,3.14-1.05M476.92,216.54c-.8.01-1.44.24-1.92.68-.48.44-.71,1.01-.71,1.73,0,.82.23,1.47.69,1.97.46.49,1.11.77,1.95.84v-5.22Z"/>
  <path d="M477.7,208.63c0,1.18.14,2,.4,2.46.27.46.73.68,1.38.68.52,0,.93-.17,1.24-.51.3-.34.45-.81.45-1.4,0-.81-.29-1.46-.86-1.95-.58-.49-1.35-.74-2.3-.74h-.32v1.46M477.09,205.71h5.08v1.46h-1.35c.54.33.94.75,1.2,1.25.26.5.38,1.11.38,1.83,0,.91-.25,1.64-.76,2.18-.51.54-1.2.8-2.06.8-1,0-1.76-.33-2.27-1-.51-.67-.76-1.68-.76-3.01v-2.05h-.14c-.67,0-1.19.22-1.56.67-.37.44-.55,1.06-.55,1.86,0,.51.06,1.01.18,1.49.12.48.3.95.55,1.39h-1.35c-.21-.54-.36-1.06-.46-1.56-.11-.5-.16-.99-.16-1.47,0-1.29.33-2.25,1-2.89.67-.64,1.68-.95,3.04-.95Z"/>
  <path d="M476.8,195.28h5.38v1.46h-5.33c-.84,0-1.47.16-1.89.49-.42.33-.63.82-.63,1.48,0,.79.25,1.41.76,1.87.5.46,1.19.68,2.06.68h5.04v1.47h-8.91v-1.47h1.38c-.54-.35-.94-.76-1.2-1.23-.27-.48-.4-1.03-.4-1.65,0-1.02.32-1.8.96-2.32.63-.53,1.56-.79,2.79-.79Z"/>
  <path d="M470.3,188.77v-10.05h1.35v4.22h10.53v1.62h-10.53v4.22h-1.35Z"/>
  <path d="M473.27,177.73v-1.46h8.91v1.46h-8.91M469.8,177.73v-1.46h1.85v1.46h-1.85Z"/>
  <path d="M474.98,166.26c-.66-.37-1.14-.8-1.46-1.31-.31-.51-.47-1.11-.47-1.8,0-.93.33-1.64.98-2.15.65-.5,1.57-.76,2.77-.76h5.38v1.47h-5.33c-.85,0-1.49.15-1.9.45-.41.3-.62.76-.62,1.38,0,.76.25,1.36.76,1.8.5.44,1.19.66,2.06.66h5.04v1.47h-5.33c-.86,0-1.49.15-1.9.45-.41.3-.62.77-.62,1.4,0,.75.26,1.34.76,1.78.5.44,1.19.66,2.05.66h5.04v1.47h-8.91v-1.47h1.38c-.55-.33-.95-.73-1.21-1.2-.26-.47-.39-1.02-.39-1.66,0-.65.16-1.2.49-1.65.33-.46.81-.79,1.43-1.01Z"/>
  <path d="M477.36,149.7h.72v6.73c1.01-.06,1.78-.37,2.31-.91.53-.55.79-1.3.79-2.28,0-.56-.07-1.11-.21-1.63-.14-.53-.35-1.06-.62-1.58h1.38c.22.53.39,1.06.51,1.62.12.55.17,1.11.17,1.68,0,1.42-.41,2.55-1.24,3.38-.83.83-1.95,1.24-3.36,1.24s-2.61-.39-3.47-1.18c-.86-.79-1.29-1.85-1.29-3.19,0-1.2.39-2.15,1.16-2.84.77-.7,1.82-1.05,3.14-1.05M476.92,151.17c-.8.01-1.44.24-1.92.68-.48.44-.71,1.01-.71,1.73,0,.82.23,1.47.69,1.97.46.49,1.11.77,1.95.84v-5.22Z"/>
  <path d="M469.81,138.6c1.22.71,2.43,1.24,3.62,1.58,1.19.34,2.4.52,3.63.52s2.44-.17,3.64-.52c1.2-.35,2.41-.88,3.62-1.58v1.27c-1.25.8-2.47,1.39-3.68,1.79-1.21.39-2.4.59-3.59.59s-2.37-.2-3.57-.59c-1.2-.39-2.42-.99-3.67-1.79v-1.27Z"/>
  <path d="M473.53,130.08h1.39c-.21.41-.37.84-.48,1.29-.11.45-.16.91-.16,1.38,0,.73.11,1.27.33,1.64.22.36.56.54,1,.54.34,0,.61-.13.8-.39.19-.26.38-.78.55-1.57l.11-.5c.22-1.04.54-1.78.94-2.21.4-.44.97-.66,1.7-.66.83,0,1.48.33,1.97.99.48.65.72,1.55.72,2.7,0,.48-.05.98-.14,1.5-.09.51-.23,1.06-.42,1.63h-1.51c.28-.54.49-1.07.64-1.6.14-.53.21-1.05.21-1.56,0-.69-.12-1.22-.35-1.59-.24-.37-.57-.56-1-.56-.4,0-.7.14-.91.41-.21.27-.42.85-.61,1.76l-.12.51c-.19.91-.48,1.56-.88,1.97-.4.4-.94.6-1.63.6-.84,0-1.48-.3-1.94-.89-.46-.59-.69-1.44-.68-2.53,0-.54.04-1.05.12-1.53.08-.48.2-.92.36-1.32Z"/>
  <path d="M469.81,127.5v-1.27c1.25-.8,2.48-1.39,3.67-1.78,1.2-.4,2.39-.6,3.57-.6s2.38.2,3.59.6c1.2.39,2.43.99,3.68,1.78v1.27c-1.21-.71-2.42-1.23-3.62-1.58-1.2-.35-2.42-.53-3.64-.53s-2.43.18-3.63.53c-1.19.34-2.4.87-3.62,1.58Z"/>
  <path d="M629.88,11.3v6.85h-1.86v-6.79c0-1.07-.21-1.88-.63-2.41-.42-.53-1.05-.8-1.88-.8-1.01,0-1.8.32-2.38.96-.58.64-.87,1.52-.87,2.62v6.41h-1.88V6.8h1.88v1.76c.45-.68.97-1.19,1.57-1.53.61-.34,1.31-.51,2.1-.51,1.3,0,2.29.41,2.96,1.22.67.8,1,1.99,1,3.55Z"/>
  <path d="M640.43,8.73h12.98v1.7h-12.98v-1.7M640.43,12.86h12.98v1.72h-12.98v-1.72Z"/>
  <path d="M664.44,3.02h8.03v1.72h-6.16v3.71c.3-.1.59-.18.89-.22.3-.05.59-.08.89-.08,1.69,0,3.03.46,4.01,1.39.99.92,1.48,2.18,1.48,3.76s-.51,2.89-1.52,3.8c-1.01.9-2.44,1.35-4.28,1.35-.63,0-1.28-.05-1.94-.16-.66-.11-1.33-.27-2.04-.49v-2.06c.61.33,1.24.58,1.89.74s1.33.24,2.05.24c1.17,0,2.09-.31,2.78-.92.68-.61,1.02-1.45,1.02-2.5s-.34-1.89-1.02-2.5c-.68-.61-1.61-.92-2.78-.92-.55,0-1.09.06-1.64.18-.54.12-1.09.31-1.66.57V3.02Z"/>
  <path d="M681.99,4.37c-1.05,0-1.85.52-2.38,1.56-.53,1.03-.79,2.59-.79,4.67s.26,3.63.79,4.67c.53,1.03,1.33,1.55,2.38,1.55s1.85-.52,2.38-1.55c.53-1.04.8-2.6.8-4.67s-.27-3.64-.8-4.67c-.53-1.04-1.32-1.56-2.38-1.56M681.99,2.75c1.7,0,2.99.67,3.88,2.02.9,1.34,1.35,3.28,1.35,5.83s-.45,4.49-1.35,5.83c-.89,1.34-2.18,2.01-3.88,2.01s-2.99-.67-3.89-2.01c-.89-1.34-1.33-3.29-1.33-5.83s.45-4.5,1.33-5.83c.9-1.34,2.2-2.02,3.89-2.02Z"/>
  <path d="M695.18,4.37c-1.05,0-1.85.52-2.38,1.56-.53,1.03-.79,2.59-.79,4.67,0,2.07.26,3.63.79,4.67.53,1.03,1.33,1.55,2.38,1.55s1.85-.52,2.38-1.55c.53-1.04.8-2.6.8-4.67s-.27-3.64-.8-4.67c-.53-1.04-1.32-1.56-2.38-1.56M695.18,2.75c1.69,0,2.99.67,3.88,2.02.9,1.34,1.34,3.28,1.34,5.83s-.45,4.49-1.34,5.83c-.89,1.34-2.19,2.01-3.88,2.01s-2.99-.67-3.89-2.01c-.89-1.34-1.34-3.29-1.34-5.83s.45-4.5,1.34-5.83c.9-1.34,2.19-2.02,3.89-2.02Z"/>
  <path class="st21" d="M548.94,311.41v26.78h63.68v-26.78h-63.68Z"/>
  <polyline class="st15" points="548.94 311.41 548.94 338.19 612.63 338.19 612.63 311.41 548.94 311.41"/>
  <path class="st17" d="M628.55,288.16v50.03h63.69v-50.03h-63.69Z"/>
  <polyline class="st15" points="628.55 288.16 628.55 338.19 692.24 338.19 692.24 288.16 628.55 288.16"/>
  <path class="st23" d="M708.16,38.01v300.18h63.69V38.01h-63.69Z"/>
  <polyline class="st15" points="708.16 38.01 708.16 338.19 771.84 338.19 771.84 38.01 708.16 38.01"/>
  <circle class="st19" cx="580.78" cy="311.41" r=".5"/>
  <circle class="st16" cx="660.39" cy="288.16" r=".5"/>
  <circle class="st20" cx="740" cy="38.01" r=".5"/>
  <circle class="st11" cx="580.78" cy="322.57" r="5.4"/>
  <circle class="st1" cx="660.39" cy="307.92" r="5.4"/>
  <circle class="st4" cx="740" cy="22.36" r="5.4"/>
  <path class="st2" d="M574.78,315.02v12h12v-12h-12Z"/>
  <path class="st7" d="M654.39,301.38v12h12v-12h-12Z"/>
  <path class="st5" d="M734,23.8v12h12v-12h-12Z"/>
  <path class="st2" d="M580.78,314.15l-6,6,6,6,6-6-6-6Z"/>
  <path class="st7" d="M660.39,300.72l-6,6,6,6,6-6-6-6Z"/>
  <path class="st5" d="M740,48.37l-6,6,6,6,6-6-6-6Z"/>
  <path class="st2" d="M580.78,315.61l-1.41,4.05-4.29.09,3.42,2.6-1.25,4.11,3.53-2.45,3.53,2.45-1.25-4.11,3.43-2.6-4.3-.09-1.41-4.05Z"/>
  <path class="st7" d="M660.39,300.33l-1.41,4.06-4.29.09,3.42,2.6-1.25,4.11,3.53-2.46,3.53,2.46-1.25-4.11,3.43-2.6-4.3-.09-1.41-4.06Z"/>
  <path class="st5" d="M740,31.37l-1.41,4.06-4.3.09,3.42,2.6-1.25,4.11,3.53-2.45,3.53,2.45-1.25-4.11,3.43-2.6-4.3-.09-1.41-4.06Z"/>
  <line class="st0" x1="580.78" y1="303.85" x2="580.78" y2="297.85"/>
  <line class="st0" x1="580.78" y1="303.85" x2="574.78" y2="303.85"/>
  <line class="st0" x1="580.78" y1="303.85" x2="580.78" y2="309.85"/>
  <line class="st0" x1="580.78" y1="303.85" x2="586.78" y2="303.85"/>
  <line class="st8" x1="660.39" y1="287.14" x2="660.39" y2="281.14"/>
  <line class="st8" x1="660.39" y1="287.14" x2="654.39" y2="287.14"/>
  <line class="st8" x1="660.39" y1="287.14" x2="660.39" y2="293.14"/>
  <line class="st8" x1="660.39" y1="287.14" x2="666.39" y2="287.14"/>
  <line class="st6" x1="740" y1="34.4" x2="740" y2="28.41"/>
  <line class="st6" x1="740" y1="34.4" x2="734" y2="34.4"/>
  <line class="st6" x1="740" y1="34.4" x2="740" y2="40.4"/>
  <line class="st6" x1="740" y1="34.4" x2="746" y2="34.4"/>
  <path class="st2" d="M580.78,304.27l-6,12h12l-6-12Z"/>
  <path class="st7" d="M660.39,283.85l-6,12h12l-6-12Z"/>
  <path class="st5" d="M740,36.68l-6,12h12l-6-12Z"/>
  <path class="st2" d="M580.78,306.15l-5.19-3v-6l5.19-3,5.2,3v6l-5.2,3Z"/>
  <path class="st7" d="M660.39,300.87l-5.2-3v-6l5.2-3,5.2,3v6l-5.2,3Z"/>
  <path class="st5" d="M740,47.21l-5.2-3v-6l5.2-3,5.2,3v6l-5.2,3Z"/>
  <line class="st0" x1="580.78" y1="305.44" x2="574.78" y2="299.44"/>
  <line class="st0" x1="580.78" y1="305.44" x2="574.78" y2="311.44"/>
  <line class="st0" x1="580.78" y1="305.44" x2="586.78" y2="311.44"/>
  <line class="st0" x1="580.78" y1="305.44" x2="586.78" y2="299.44"/>
  <line class="st8" x1="660.39" y1="276.45" x2="654.39" y2="270.45"/>
  <line class="st8" x1="660.39" y1="276.45" x2="654.39" y2="282.45"/>
  <line class="st8" x1="660.39" y1="276.45" x2="666.39" y2="282.45"/>
  <line class="st8" x1="660.39" y1="276.45" x2="666.39" y2="270.45"/>
  <line class="st6" x1="740" y1="39.24" x2="734" y2="33.24"/>
  <line class="st6" x1="740" y1="39.24" x2="734" y2="45.24"/>
  <line class="st6" x1="740" y1="39.24" x2="746" y2="45.24"/>
  <line class="st6" x1="740" y1="39.24" x2="746" y2="33.24"/>
  <path class="st2" d="M580.78,300.75l-5.7,4.14,2.18,6.71h7.05l2.18-6.71-5.71-4.14Z"/>
  <path class="st7" d="M660.39,269.01l-5.71,4.14,2.18,6.71h7.06l2.18-6.71-5.71-4.14Z"/>
  <path class="st5" d="M740,44.52l-5.71,4.15,2.18,6.71h7.06l2.18-6.71-5.71-4.15Z"/>
  <path class="st2" d="M586.78,296.31h-12l6,12,6-12Z"/>
  <path class="st7" d="M666.39,223.94h-12l6,12,6-12Z"/>
  <path class="st5" d="M746,22.18h-12l6,12,6-12Z"/>
  <path class="st14" d="M449.24,189.51"/>
  <line class="st12" x1="938.03" y1="338.19" x2="1188.19" y2="338.19"/>
  <line class="st12" x1="938.03" y1="265.76" x2="1188.19" y2="265.76"/>
  <line class="st12" x1="938.03" y1="193.32" x2="1188.19" y2="193.32"/>
  <line class="st12" x1="938.03" y1="120.89" x2="1188.19" y2="120.89"/>
  <line class="st12" x1="938.03" y1="48.46" x2="1188.19" y2="48.46"/>
  <line class="st13" x1="938.03" y1="338.19" x2="1188.19" y2="338.19"/>
  <line class="st13" x1="938.03" y1="338.19" x2="938.03" y2="22.36"/>
  <line class="st13" x1="938.03" y1="338.19" x2="941.5" y2="338.19"/>
  <line class="st13" x1="938.03" y1="265.76" x2="941.5" y2="265.76"/>
  <line class="st13" x1="938.03" y1="193.32" x2="941.5" y2="193.32"/>
  <line class="st13" x1="938.03" y1="120.89" x2="941.5" y2="120.89"/>
  <line class="st13" x1="938.03" y1="48.46" x2="941.5" y2="48.46"/>
  <path d="M917.04,334.64c-.6,0-1.05.3-1.36.89-.3.59-.45,1.48-.45,2.67s.15,2.07.45,2.67c.31.59.76.89,1.36.89s1.06-.3,1.36-.89c.3-.59.46-1.48.46-2.67s-.15-2.08-.46-2.67c-.3-.59-.76-.89-1.36-.89M917.04,333.71c.97,0,1.71.38,2.22,1.15.51.76.77,1.87.77,3.33,0,1.45-.26,2.57-.77,3.33-.51.77-1.25,1.15-2.22,1.15s-1.71-.38-2.22-1.15c-.51-.77-.77-1.88-.77-3.33s.25-2.57.77-3.33c.51-.77,1.25-1.15,2.22-1.15Z"/>
  <path d="M907.2,269.09h1.91v-6.59l-2.08.42v-1.07l2.07-.42h1.17v7.66h1.91v.98h-4.97v-.98Z"/>
  <path d="M917.04,262.2c-.6,0-1.05.3-1.36.89-.3.59-.45,1.48-.45,2.67s.15,2.07.45,2.67c.31.59.76.89,1.36.89s1.06-.3,1.36-.89c.3-.6.46-1.48.46-2.67s-.15-2.08-.46-2.67c-.3-.6-.76-.89-1.36-.89M917.04,261.28c.97,0,1.71.38,2.22,1.15.51.77.77,1.88.77,3.34,0,1.45-.26,2.56-.77,3.33-.51.76-1.25,1.14-2.22,1.14s-1.71-.38-2.22-1.14c-.51-.77-.77-1.88-.77-3.33s.25-2.57.77-3.34c.51-.77,1.25-1.15,2.22-1.15Z"/>
  <path d="M908.01,196.66h4.08v.98h-5.49v-.98c.44-.46,1.05-1.07,1.81-1.85.77-.78,1.25-1.28,1.45-1.5.38-.42.64-.78.78-1.06.15-.29.22-.58.22-.86,0-.46-.16-.83-.48-1.12-.32-.29-.74-.43-1.26-.43-.37,0-.75.06-1.16.19-.41.13-.84.32-1.3.58v-1.18c.47-.19.91-.33,1.32-.43.41-.1.78-.14,1.12-.14.89,0,1.61.22,2.14.67.53.45.8,1.05.8,1.79,0,.36-.07.69-.2,1.01-.13.32-.37.69-.72,1.12-.1.11-.4.44-.92.97-.52.53-1.25,1.28-2.19,2.24Z"/>
  <path d="M917.04,189.77c-.6,0-1.05.3-1.36.89-.3.59-.45,1.48-.45,2.67s.15,2.07.45,2.67c.31.59.76.89,1.36.89s1.06-.3,1.36-.89c.3-.59.46-1.48.46-2.67s-.15-2.08-.46-2.67c-.3-.59-.76-.89-1.36-.89M917.04,188.85c.97,0,1.71.38,2.22,1.15.51.76.77,1.88.77,3.33,0,1.45-.26,2.57-.77,3.33-.51.76-1.25,1.15-2.22,1.15s-1.71-.38-2.22-1.15c-.51-.77-.77-1.88-.77-3.33s.25-2.57.77-3.33c.51-.77,1.25-1.15,2.22-1.15Z"/>
  <path d="M910.54,120.55c.56.12,1,.37,1.31.75.32.38.47.85.47,1.4,0,.85-.29,1.51-.88,1.98-.59.47-1.42.7-2.5.7-.36,0-.74-.04-1.12-.11-.38-.07-.78-.18-1.18-.32v-1.13c.32.19.68.33,1.07.43.39.1.79.14,1.21.14.73,0,1.29-.14,1.67-.43.38-.29.58-.71.58-1.26,0-.51-.18-.91-.54-1.19-.35-.29-.85-.43-1.49-.43h-1.01v-.96h1.05c.57,0,1.02-.11,1.32-.34.3-.23.46-.56.46-1s-.16-.78-.48-1.02c-.31-.24-.76-.36-1.35-.36-.32,0-.66.03-1.03.1-.37.07-.77.18-1.21.32v-1.04c.44-.12.86-.22,1.24-.28.39-.06.76-.09,1.1-.09.89,0,1.59.2,2.1.61.52.4.77.95.78,1.63,0,.48-.14.88-.41,1.22-.27.33-.66.56-1.17.68Z"/>
  <path d="M917.04,117.34c-.6,0-1.05.3-1.36.89-.3.59-.45,1.48-.45,2.67s.15,2.07.45,2.67c.31.59.76.89,1.36.89.61,0,1.06-.3,1.36-.89.3-.59.46-1.48.46-2.67s-.15-2.08-.46-2.67c-.3-.59-.76-.89-1.36-.89M917.04,116.41c.97,0,1.71.38,2.22,1.15.51.76.77,1.87.77,3.33,0,1.45-.26,2.57-.77,3.33-.51.76-1.25,1.15-2.22,1.15-.97,0-1.71-.38-2.22-1.15-.51-.77-.77-1.88-.77-3.33s.25-2.57.77-3.33c.51-.77,1.25-1.15,2.22-1.15Z"/>
  <path d="M910.21,45.15l-2.95,4.61h2.95v-4.61M909.91,44.14h1.47v5.63h1.23v.97h-1.23v2.04h-1.16v-2.04h-3.9v-1.13l3.6-5.47Z"/>
  <path d="M917.04,44.91c-.6,0-1.05.3-1.36.89-.3.59-.45,1.48-.45,2.67s.15,2.07.45,2.67c.31.59.76.89,1.36.89s1.06-.3,1.36-.89c.3-.59.46-1.48.46-2.67s-.15-2.08-.46-2.67c-.3-.59-.76-.89-1.36-.89M917.04,43.98c.97,0,1.71.38,2.22,1.15.51.76.77,1.87.77,3.33,0,1.45-.26,2.57-.77,3.33-.51.76-1.25,1.15-2.22,1.15-.97,0-1.71-.38-2.22-1.15-.51-.77-.77-1.88-.77-3.33s.25-2.57.77-3.33c.51-.77,1.25-1.15,2.22-1.15Z"/>
  <path d="M872.87,236.7v-2.4l8.08-3.03-8.08-3.05v-2.4h11.88v1.57h-10.43l8.15,3.06v1.62l-8.15,3.06h10.43v1.56h-11.88Z"/>
  <path d="M879.92,215.08h.72v6.73c1.01-.06,1.78-.37,2.31-.91.52-.55.79-1.31.79-2.28,0-.56-.07-1.11-.2-1.63-.14-.53-.35-1.06-.62-1.58h1.39c.22.53.39,1.06.51,1.62s.17,1.11.17,1.68c0,1.42-.41,2.55-1.24,3.38-.83.83-1.95,1.24-3.36,1.24-1.46,0-2.61-.39-3.47-1.18-.86-.79-1.29-1.85-1.29-3.19,0-1.2.39-2.15,1.16-2.84.77-.7,1.82-1.05,3.14-1.05M879.49,216.54c-.8.01-1.44.24-1.92.68-.48.44-.72,1.01-.72,1.73,0,.82.23,1.47.69,1.97.46.49,1.11.77,1.95.84v-5.22Z"/>
  <path d="M880.27,208.63c0,1.18.14,2,.4,2.46.27.46.73.68,1.39.68.52,0,.93-.17,1.24-.51.3-.34.46-.81.46-1.4,0-.81-.29-1.46-.86-1.95-.58-.49-1.34-.74-2.3-.74h-.33v1.46M879.66,205.71h5.09v1.46h-1.35c.54.33.94.75,1.2,1.25.25.5.38,1.11.38,1.83,0,.91-.26,1.64-.76,2.18-.51.54-1.2.8-2.06.8-1,0-1.76-.33-2.27-1-.51-.67-.77-1.68-.77-3.01v-2.05h-.14c-.67,0-1.19.22-1.56.67-.37.44-.56,1.06-.56,1.86,0,.51.06,1.01.18,1.49.12.48.3.95.55,1.39h-1.35c-.21-.54-.36-1.06-.46-1.56-.11-.5-.16-.99-.16-1.47,0-1.29.33-2.25,1-2.89.67-.64,1.68-.95,3.04-.95Z"/>
  <path d="M879.37,195.28h5.38v1.46h-5.33c-.84,0-1.47.16-1.89.49-.42.33-.63.82-.63,1.48,0,.79.25,1.41.76,1.87.5.46,1.19.68,2.06.68h5.04v1.47h-8.91v-1.47h1.38c-.54-.35-.94-.76-1.2-1.23-.27-.48-.4-1.03-.4-1.65,0-1.02.32-1.8.96-2.32.63-.53,1.56-.79,2.79-.79Z"/>
  <path d="M872.87,188.77v-10.05h1.35v4.22h10.53v1.62h-10.53v4.22h-1.35Z"/>
  <path d="M875.84,177.73v-1.46h8.91v1.46h-8.91M872.36,177.73v-1.46h1.85v1.46h-1.85Z"/>
  <path d="M877.54,166.26c-.66-.37-1.14-.8-1.45-1.31-.31-.51-.47-1.11-.47-1.8,0-.93.33-1.64.98-2.15.65-.5,1.57-.76,2.77-.76h5.38v1.47h-5.33c-.85,0-1.49.15-1.9.45-.41.3-.62.76-.62,1.38,0,.76.25,1.36.76,1.8.5.44,1.19.66,2.06.66h5.04v1.47h-5.33c-.86,0-1.49.15-1.9.45-.41.3-.62.77-.62,1.4,0,.75.25,1.34.76,1.78.5.44,1.19.66,2.05.66h5.04v1.47h-8.91v-1.47h1.38c-.55-.33-.95-.73-1.21-1.2-.26-.47-.39-1.02-.39-1.66,0-.65.16-1.2.49-1.65.33-.46.81-.79,1.43-1.01Z"/>
  <path d="M879.92,149.7h.72v6.73c1.01-.06,1.78-.37,2.31-.91.52-.55.79-1.3.79-2.28,0-.56-.07-1.11-.2-1.63-.14-.53-.35-1.06-.62-1.58h1.39c.22.53.39,1.06.51,1.62.12.55.17,1.11.17,1.68,0,1.42-.41,2.55-1.24,3.38-.83.83-1.95,1.24-3.36,1.24s-2.61-.39-3.47-1.18c-.86-.79-1.29-1.85-1.29-3.19,0-1.2.39-2.15,1.16-2.84.77-.7,1.82-1.05,3.14-1.05M879.49,151.17c-.8.01-1.44.24-1.92.68-.48.44-.72,1.01-.72,1.73,0,.82.23,1.47.69,1.97.46.49,1.11.77,1.95.84v-5.22Z"/>
  <path d="M872.38,138.6c1.22.71,2.43,1.24,3.62,1.58,1.19.34,2.4.52,3.63.52s2.44-.17,3.65-.52c1.2-.35,2.4-.88,3.62-1.58v1.27c-1.25.8-2.47,1.39-3.68,1.79-1.21.39-2.4.59-3.59.59s-2.37-.2-3.57-.59c-1.2-.39-2.42-.99-3.67-1.79v-1.27Z"/>
  <path d="M876.1,130.08h1.39c-.21.41-.37.84-.48,1.29-.11.45-.16.91-.16,1.38,0,.73.11,1.27.34,1.64.22.36.56.54,1,.54.34,0,.61-.13.8-.39.19-.26.38-.78.55-1.57l.11-.5c.22-1.04.54-1.78.95-2.21.4-.44.97-.66,1.69-.66.83,0,1.48.33,1.97.99.48.65.72,1.55.72,2.7,0,.48-.05.98-.14,1.5-.09.51-.23,1.06-.42,1.63h-1.51c.28-.54.49-1.07.64-1.6.14-.53.21-1.05.21-1.56,0-.69-.12-1.22-.35-1.59-.24-.37-.57-.56-1-.56-.4,0-.7.14-.92.41-.21.27-.42.85-.61,1.76l-.12.51c-.19.91-.48,1.56-.88,1.97-.4.4-.94.6-1.63.6-.84,0-1.48-.3-1.94-.89-.46-.59-.69-1.44-.68-2.53,0-.54.04-1.05.12-1.53.08-.48.2-.92.36-1.32Z"/>
  <path d="M872.38,127.5v-1.27c1.25-.8,2.48-1.39,3.67-1.78,1.2-.4,2.39-.6,3.57-.6s2.38.2,3.59.6c1.2.39,2.43.99,3.68,1.78v1.27c-1.22-.71-2.42-1.23-3.62-1.58-1.21-.35-2.42-.53-3.65-.53s-2.43.18-3.63.53c-1.19.34-2.4.87-3.62,1.58Z"/>
  <path d="M1025.99,11.3v6.85h-1.86v-6.79c0-1.07-.21-1.88-.63-2.41s-1.05-.8-1.89-.8c-1,0-1.8.32-2.38.96-.58.64-.87,1.52-.87,2.62v6.41h-1.87V6.8h1.87v1.76c.45-.68.97-1.19,1.57-1.53.61-.34,1.31-.51,2.1-.51,1.3,0,2.29.41,2.96,1.22.67.8,1,1.99,1,3.55Z"/>
  <path d="M1036.54,8.73h12.98v1.7h-12.98v-1.7M1036.54,12.86h12.98v1.72h-12.98v-1.72Z"/>
  <path d="M1060.89,16.42h3.34V4.89l-3.64.73v-1.86l3.62-.73h2.04v13.4h3.34v1.72h-8.71v-1.72Z"/>
  <path d="M1078.1,4.37c-1.05,0-1.85.52-2.38,1.56-.53,1.03-.79,2.59-.79,4.67s.26,3.63.79,4.67c.53,1.03,1.33,1.55,2.38,1.55s1.85-.52,2.38-1.55c.53-1.04.8-2.6.8-4.67s-.27-3.64-.8-4.67c-.53-1.04-1.32-1.56-2.38-1.56M1078.1,2.75c1.69,0,2.99.67,3.88,2.02.9,1.34,1.35,3.28,1.35,5.83s-.45,4.49-1.35,5.83c-.89,1.34-2.19,2.01-3.88,2.01s-2.99-.67-3.89-2.01c-.89-1.34-1.34-3.29-1.34-5.83s.45-4.5,1.34-5.83c.9-1.34,2.19-2.02,3.89-2.02Z"/>
  <path d="M1091.3,4.37c-1.05,0-1.85.52-2.38,1.56-.53,1.03-.79,2.59-.79,4.67s.26,3.63.79,4.67c.53,1.03,1.33,1.55,2.38,1.55s1.85-.52,2.38-1.55c.53-1.04.8-2.6.8-4.67s-.27-3.64-.8-4.67c-.53-1.04-1.32-1.56-2.38-1.56M1091.3,2.75c1.69,0,2.99.67,3.88,2.02.9,1.34,1.35,3.28,1.35,5.83s-.45,4.49-1.35,5.83c-.89,1.34-2.18,2.01-3.88,2.01s-2.99-.67-3.89-2.01c-.89-1.34-1.34-3.29-1.34-5.83s.45-4.5,1.34-5.83c.9-1.34,2.2-2.02,3.89-2.02Z"/>
  <path d="M1104.5,4.37c-1.05,0-1.85.52-2.38,1.56-.53,1.03-.79,2.59-.79,4.67s.26,3.63.79,4.67c.53,1.03,1.33,1.55,2.38,1.55s1.85-.52,2.38-1.55c.53-1.04.8-2.6.8-4.67s-.27-3.64-.8-4.67c-.53-1.04-1.32-1.56-2.38-1.56M1104.5,2.75c1.69,0,2.99.67,3.88,2.02.9,1.34,1.35,3.28,1.35,5.83s-.45,4.49-1.35,5.83c-.89,1.34-2.18,2.01-3.88,2.01s-2.99-.67-3.89-2.01c-.89-1.34-1.34-3.29-1.34-5.83s.44-4.5,1.34-5.83c.9-1.34,2.19-2.02,3.89-2.02Z"/>
  <path class="st21" d="M951.78,316.28v21.91h63.61v-21.91h-63.61Z"/>
  <polyline class="st15" points="951.78 316.28 951.78 338.19 1015.4 338.19 1015.4 316.28 951.78 316.28"/>
  <path class="st17" d="M1031.3,290.3v47.89h63.61v-47.89h-63.61Z"/>
  <polyline class="st15" points="1031.3 290.3 1031.3 338.19 1094.91 338.19 1094.91 290.3 1031.3 290.3"/>
  <path class="st23" d="M1110.82,48.51v289.68h63.61V48.51h-63.61Z"/>
  <polyline class="st15" points="1110.82 48.51 1110.82 338.19 1174.43 338.19 1174.43 48.51 1110.82 48.51"/>
  <circle class="st19" cx="983.59" cy="316.28" r=".5"/>
  <circle class="st16" cx="1063.11" cy="290.3" r=".5"/>
  <circle class="st20" cx="1142.62" cy="48.51" r=".5"/>
  <circle class="st11" cx="983.59" cy="329.13" r="5.4"/>
  <circle class="st1" cx="1063.11" cy="308.67" r="5.4"/>
  <circle class="st4" cx="1142.62" cy="32.62" r="5.4"/>
  <path class="st2" d="M977.59,319.92v12h12v-12h-12Z"/>
  <path class="st7" d="M1057.11,302.17v12h12v-12h-12Z"/>
  <path class="st5" d="M1136.62,58.4v12h12v-12h-12Z"/>
  <path class="st2" d="M983.59,317.05l-6,6,6,6,6-6-6-6Z"/>
  <path class="st7" d="M1063.11,301.72l-6,6,6,6,6-6-6-6Z"/>
  <path class="st5" d="M1142.62,43.78l-6,6,6,6,6-6-6-6Z"/>
  <path class="st2" d="M983.59,318.15l-1.41,4.06-4.3.09,3.43,2.6-1.25,4.11,3.53-2.46,3.53,2.46-1.25-4.11,3.42-2.6-4.29-.09-1.41-4.06Z"/>
  <path class="st7" d="M1063.11,302.59l-1.41,4.05-4.3.09,3.43,2.6-1.25,4.11,3.53-2.46,3.53,2.46-1.25-4.11,3.43-2.6-4.3-.09-1.41-4.05Z"/>
  <path class="st5" d="M1142.62,46.21l-1.41,4.06-4.3.09,3.43,2.6-1.25,4.11,3.53-2.45,3.53,2.45-1.25-4.11,3.43-2.6-4.3-.09-1.41-4.06Z"/>
  <line class="st0" x1="983.59" y1="308.79" x2="983.59" y2="302.79"/>
  <line class="st0" x1="983.59" y1="308.79" x2="977.59" y2="308.79"/>
  <line class="st0" x1="983.59" y1="308.79" x2="983.59" y2="314.79"/>
  <line class="st0" x1="983.59" y1="308.79" x2="989.59" y2="308.79"/>
  <line class="st8" x1="1063.11" y1="289.52" x2="1063.11" y2="283.52"/>
  <line class="st8" x1="1063.11" y1="289.52" x2="1057.11" y2="289.52"/>
  <line class="st8" x1="1063.11" y1="289.52" x2="1063.11" y2="295.52"/>
  <line class="st8" x1="1063.11" y1="289.52" x2="1069.11" y2="289.52"/>
  <line class="st6" x1="1142.62" y1="66.02" x2="1142.62" y2="60.02"/>
  <line class="st6" x1="1142.62" y1="66.02" x2="1136.62" y2="66.02"/>
  <line class="st6" x1="1142.62" y1="66.02" x2="1142.62" y2="72.02"/>
  <line class="st6" x1="1142.62" y1="66.02" x2="1148.62" y2="66.02"/>
  <path class="st2" d="M983.59,307.05l-6,12h12l-6-12Z"/>
  <path class="st7" d="M1063.11,297.22l-6,12h12l-6-12Z"/>
  <path class="st5" d="M1142.62,39.33l-6,12h12l-6-12Z"/>
  <path class="st2" d="M983.59,319.4l-5.2-3v-6l5.2-3,5.19,3v6l-5.19,3Z"/>
  <path class="st7" d="M1063.11,302.65l-5.2-3v-6l5.2-3,5.19,3v6l-5.19,3Z"/>
  <path class="st5" d="M1142.62,61.07l-5.2-3v-6l5.2-3,5.2,3v6l-5.2,3Z"/>
  <line class="st0" x1="983.59" y1="302.98" x2="977.59" y2="296.98"/>
  <line class="st0" x1="983.59" y1="302.98" x2="977.59" y2="308.98"/>
  <line class="st0" x1="983.59" y1="302.98" x2="989.59" y2="308.98"/>
  <line class="st0" x1="983.59" y1="302.98" x2="989.59" y2="296.98"/>
  <line class="st8" x1="1063.11" y1="280.44" x2="1057.11" y2="274.44"/>
  <line class="st8" x1="1063.11" y1="280.44" x2="1057.11" y2="286.44"/>
  <line class="st8" x1="1063.11" y1="280.44" x2="1069.11" y2="286.44"/>
  <line class="st8" x1="1063.11" y1="280.44" x2="1069.11" y2="274.44"/>
  <line class="st6" x1="1142.62" y1="43.17" x2="1136.62" y2="37.17"/>
  <line class="st6" x1="1142.62" y1="43.17" x2="1136.62" y2="49.17"/>
  <line class="st6" x1="1142.62" y1="43.17" x2="1148.62" y2="49.17"/>
  <line class="st6" x1="1142.62" y1="43.17" x2="1148.62" y2="37.17"/>
  <path class="st2" d="M983.59,306.25l-5.71,4.15,2.18,6.71h7.06l2.18-6.71-5.7-4.15Z"/>
  <path class="st7" d="M1063.11,272.29l-5.71,4.14,2.18,6.71h7.06l2.18-6.71-5.7-4.14Z"/>
  <path class="st5" d="M1142.62,48.13l-5.71,4.15,2.18,6.71h7.06l2.18-6.71-5.71-4.15Z"/>
  <path class="st2" d="M989.59,304.06h-12l6,12,6-12Z"/>
  <path class="st7" d="M1069.11,215.69h-12l6,12,6-12Z"/>
  <path class="st5" d="M1148.62,16.36h-12l6,12,6-12Z"/>
</svg>