<?xml version="1.0" encoding="utf-8"?>
<svg xmlns="http://www.w3.org/2000/svg" xmlns:xlink="http://www.w3.org/1999/xlink" width="600" height="400" viewBox="0 0 2400 1600">
<defs>
  <clipPath id="clip970">
    <rect x="0" y="0" width="2400" height="1600"/>
  </clipPath>
</defs>
<path clip-path="url(#clip970)" d="M0 1600 L2400 1600 L2400 0 L0 0  Z" fill="#ffffff" fill-rule="evenodd" fill-opacity="1"/>
<defs>
  <clipPath id="clip971">
    <rect x="480" y="0" width="1681" height="1600"/>
  </clipPath>
</defs>
<path clip-path="url(#clip970)" d="M407.875 1423.18 L2352.76 1423.18 L2352.76 123.472 L407.875 123.472  Z" fill="#ffffff" fill-rule="evenodd" fill-opacity="1"/>
<defs>
  <clipPath id="clip972">
    <rect x="407" y="123" width="1946" height="1301"/>
  </clipPath>
</defs>
<polyline clip-path="url(#clip972)" style="stroke:#000000; stroke-linecap:round; stroke-linejoin:round; stroke-width:2; stroke-opacity:0.1; fill:none" points="768.717,1423.18 768.717,123.472 "/>
<polyline clip-path="url(#clip972)" style="stroke:#000000; stroke-linecap:round; stroke-linejoin:round; stroke-width:2; stroke-opacity:0.1; fill:none" points="1150.97,1423.18 1150.97,123.472 "/>
<polyline clip-path="url(#clip972)" style="stroke:#000000; stroke-linecap:round; stroke-linejoin:round; stroke-width:2; stroke-opacity:0.1; fill:none" points="1533.21,1423.18 1533.21,123.472 "/>
<polyline clip-path="url(#clip972)" style="stroke:#000000; stroke-linecap:round; stroke-linejoin:round; stroke-width:2; stroke-opacity:0.1; fill:none" points="1915.46,1423.18 1915.46,123.472 "/>
<polyline clip-path="url(#clip972)" style="stroke:#000000; stroke-linecap:round; stroke-linejoin:round; stroke-width:2; stroke-opacity:0.1; fill:none" points="2297.71,1423.18 2297.71,123.472 "/>
<polyline clip-path="url(#clip972)" style="stroke:#000000; stroke-linecap:round; stroke-linejoin:round; stroke-width:2; stroke-opacity:0.1; fill:none" points="407.875,1177.84 2352.76,1177.84 "/>
<polyline clip-path="url(#clip972)" style="stroke:#000000; stroke-linecap:round; stroke-linejoin:round; stroke-width:2; stroke-opacity:0.1; fill:none" points="407.875,921.103 2352.76,921.103 "/>
<polyline clip-path="url(#clip972)" style="stroke:#000000; stroke-linecap:round; stroke-linejoin:round; stroke-width:2; stroke-opacity:0.1; fill:none" points="407.875,664.369 2352.76,664.369 "/>
<polyline clip-path="url(#clip972)" style="stroke:#000000; stroke-linecap:round; stroke-linejoin:round; stroke-width:2; stroke-opacity:0.1; fill:none" points="407.875,407.634 2352.76,407.634 "/>
<polyline clip-path="url(#clip972)" style="stroke:#000000; stroke-linecap:round; stroke-linejoin:round; stroke-width:2; stroke-opacity:0.1; fill:none" points="407.875,150.9 2352.76,150.9 "/>
<polyline clip-path="url(#clip970)" style="stroke:#000000; stroke-linecap:round; stroke-linejoin:round; stroke-width:4; stroke-opacity:1; fill:none" points="407.875,1423.18 2352.76,1423.18 "/>
<polyline clip-path="url(#clip970)" style="stroke:#000000; stroke-linecap:round; stroke-linejoin:round; stroke-width:4; stroke-opacity:1; fill:none" points="768.717,1423.18 768.717,1404.28 "/>
<polyline clip-path="url(#clip970)" style="stroke:#000000; stroke-linecap:round; stroke-linejoin:round; stroke-width:4; stroke-opacity:1; fill:none" points="1150.97,1423.18 1150.97,1404.28 "/>
<polyline clip-path="url(#clip970)" style="stroke:#000000; stroke-linecap:round; stroke-linejoin:round; stroke-width:4; stroke-opacity:1; fill:none" points="1533.21,1423.18 1533.21,1404.28 "/>
<polyline clip-path="url(#clip970)" style="stroke:#000000; stroke-linecap:round; stroke-linejoin:round; stroke-width:4; stroke-opacity:1; fill:none" points="1915.46,1423.18 1915.46,1404.28 "/>
<polyline clip-path="url(#clip970)" style="stroke:#000000; stroke-linecap:round; stroke-linejoin:round; stroke-width:4; stroke-opacity:1; fill:none" points="2297.71,1423.18 2297.71,1404.28 "/>
<path clip-path="url(#clip970)" d="M758.995 1451.02 L777.352 1451.02 L777.352 1454.96 L763.278 1454.96 L763.278 1463.43 Q764.296 1463.08 765.315 1462.92 Q766.333 1462.73 767.352 1462.73 Q773.139 1462.73 776.518 1465.9 Q779.898 1469.08 779.898 1474.49 Q779.898 1480.07 776.426 1483.17 Q772.953 1486.25 766.634 1486.25 Q764.458 1486.25 762.19 1485.88 Q759.944 1485.51 757.537 1484.77 L757.537 1480.07 Q759.62 1481.2 761.842 1481.76 Q764.065 1482.32 766.541 1482.32 Q770.546 1482.32 772.884 1480.21 Q775.222 1478.1 775.222 1474.49 Q775.222 1470.88 772.884 1468.77 Q770.546 1466.67 766.541 1466.67 Q764.666 1466.67 762.791 1467.08 Q760.94 1467.5 758.995 1468.38 L758.995 1451.02 Z" fill="#000000" fill-rule="nonzero" fill-opacity="1" /><path clip-path="url(#clip970)" d="M1125.65 1481.64 L1133.29 1481.64 L1133.29 1455.28 L1124.98 1456.95 L1124.98 1452.69 L1133.25 1451.02 L1137.92 1451.02 L1137.92 1481.64 L1145.56 1481.64 L1145.56 1485.58 L1125.65 1485.58 L1125.65 1481.64 Z" fill="#000000" fill-rule="nonzero" fill-opacity="1" /><path clip-path="url(#clip970)" d="M1165.01 1454.1 Q1161.39 1454.1 1159.57 1457.66 Q1157.76 1461.2 1157.76 1468.33 Q1157.76 1475.44 1159.57 1479.01 Q1161.39 1482.55 1165.01 1482.55 Q1168.64 1482.55 1170.45 1479.01 Q1172.27 1475.44 1172.27 1468.33 Q1172.27 1461.2 1170.45 1457.66 Q1168.64 1454.1 1165.01 1454.1 M1165.01 1450.39 Q1170.82 1450.39 1173.87 1455 Q1176.95 1459.58 1176.95 1468.33 Q1176.95 1477.06 1173.87 1481.67 Q1170.82 1486.25 1165.01 1486.25 Q1159.2 1486.25 1156.12 1481.67 Q1153.06 1477.06 1153.06 1468.33 Q1153.06 1459.58 1156.12 1455 Q1159.2 1450.39 1165.01 1450.39 Z" fill="#000000" fill-rule="nonzero" fill-opacity="1" /><path clip-path="url(#clip970)" d="M1508.4 1481.64 L1516.04 1481.64 L1516.04 1455.28 L1507.73 1456.95 L1507.73 1452.69 L1515.99 1451.02 L1520.67 1451.02 L1520.67 1481.64 L1528.31 1481.64 L1528.31 1485.58 L1508.4 1485.58 L1508.4 1481.64 Z" fill="#000000" fill-rule="nonzero" fill-opacity="1" /><path clip-path="url(#clip970)" d="M1537.8 1451.02 L1556.15 1451.02 L1556.15 1454.96 L1542.08 1454.96 L1542.08 1463.43 Q1543.1 1463.08 1544.12 1462.92 Q1545.14 1462.73 1546.15 1462.73 Q1551.94 1462.73 1555.32 1465.9 Q1558.7 1469.08 1558.7 1474.49 Q1558.7 1480.07 1555.23 1483.17 Q1551.76 1486.25 1545.44 1486.25 Q1543.26 1486.25 1540.99 1485.88 Q1538.75 1485.51 1536.34 1484.77 L1536.34 1480.07 Q1538.42 1481.2 1540.65 1481.76 Q1542.87 1482.32 1545.34 1482.32 Q1549.35 1482.32 1551.69 1480.21 Q1554.02 1478.1 1554.02 1474.49 Q1554.02 1470.88 1551.69 1468.77 Q1549.35 1466.67 1545.34 1466.67 Q1543.47 1466.67 1541.59 1467.08 Q1539.74 1467.5 1537.8 1468.38 L1537.8 1451.02 Z" fill="#000000" fill-rule="nonzero" fill-opacity="1" /><path clip-path="url(#clip970)" d="M1894.24 1481.64 L1910.56 1481.64 L1910.56 1485.58 L1888.61 1485.58 L1888.61 1481.64 Q1891.27 1478.89 1895.86 1474.26 Q1900.46 1469.61 1901.64 1468.27 Q1903.89 1465.74 1904.77 1464.01 Q1905.67 1462.25 1905.67 1460.56 Q1905.67 1457.8 1903.73 1456.07 Q1901.81 1454.33 1898.7 1454.33 Q1896.51 1454.33 1894.05 1455.09 Q1891.62 1455.86 1888.84 1457.41 L1888.84 1452.69 Q1891.67 1451.55 1894.12 1450.97 Q1896.57 1450.39 1898.61 1450.39 Q1903.98 1450.39 1907.18 1453.08 Q1910.37 1455.77 1910.37 1460.26 Q1910.37 1462.39 1909.56 1464.31 Q1908.77 1466.2 1906.67 1468.8 Q1906.09 1469.47 1902.99 1472.69 Q1899.88 1475.88 1894.24 1481.64 Z" fill="#000000" fill-rule="nonzero" fill-opacity="1" /><path clip-path="url(#clip970)" d="M1930.37 1454.1 Q1926.76 1454.1 1924.93 1457.66 Q1923.13 1461.2 1923.13 1468.33 Q1923.13 1475.44 1924.93 1479.01 Q1926.76 1482.55 1930.37 1482.55 Q1934 1482.55 1935.81 1479.01 Q1937.64 1475.44 1937.64 1468.33 Q1937.64 1461.2 1935.81 1457.66 Q1934 1454.1 1930.37 1454.1 M1930.37 1450.39 Q1936.18 1450.39 1939.24 1455 Q1942.32 1459.58 1942.32 1468.33 Q1942.32 1477.06 1939.24 1481.67 Q1936.18 1486.25 1930.37 1486.25 Q1924.56 1486.25 1921.48 1481.67 Q1918.43 1477.06 1918.43 1468.33 Q1918.43 1459.58 1921.48 1455 Q1924.56 1450.39 1930.37 1450.39 Z" fill="#000000" fill-rule="nonzero" fill-opacity="1" /><path clip-path="url(#clip970)" d="M2276.98 1481.64 L2293.3 1481.64 L2293.3 1485.58 L2271.36 1485.58 L2271.36 1481.64 Q2274.02 1478.89 2278.6 1474.26 Q2283.21 1469.61 2284.39 1468.27 Q2286.64 1465.74 2287.52 1464.01 Q2288.42 1462.25 2288.42 1460.56 Q2288.42 1457.8 2286.47 1456.07 Q2284.55 1454.33 2281.45 1454.33 Q2279.25 1454.33 2276.8 1455.09 Q2274.37 1455.86 2271.59 1457.41 L2271.59 1452.69 Q2274.41 1451.55 2276.87 1450.97 Q2279.32 1450.39 2281.36 1450.39 Q2286.73 1450.39 2289.92 1453.08 Q2293.12 1455.77 2293.12 1460.26 Q2293.12 1462.39 2292.31 1464.31 Q2291.52 1466.2 2289.41 1468.8 Q2288.83 1469.47 2285.73 1472.69 Q2282.63 1475.88 2276.98 1481.64 Z" fill="#000000" fill-rule="nonzero" fill-opacity="1" /><path clip-path="url(#clip970)" d="M2303.16 1451.02 L2321.52 1451.02 L2321.52 1454.96 L2307.45 1454.96 L2307.45 1463.43 Q2308.46 1463.08 2309.48 1462.92 Q2310.5 1462.73 2311.52 1462.73 Q2317.31 1462.73 2320.69 1465.9 Q2324.07 1469.08 2324.07 1474.49 Q2324.07 1480.07 2320.59 1483.17 Q2317.12 1486.25 2310.8 1486.25 Q2308.63 1486.25 2306.36 1485.88 Q2304.11 1485.51 2301.71 1484.77 L2301.71 1480.07 Q2303.79 1481.2 2306.01 1481.76 Q2308.23 1482.32 2310.71 1482.32 Q2314.71 1482.32 2317.05 1480.21 Q2319.39 1478.1 2319.39 1474.49 Q2319.39 1470.88 2317.05 1468.77 Q2314.71 1466.67 2310.71 1466.67 Q2308.83 1466.67 2306.96 1467.08 Q2305.11 1467.5 2303.16 1468.38 L2303.16 1451.02 Z" fill="#000000" fill-rule="nonzero" fill-opacity="1" /><path clip-path="url(#clip970)" d="M1248.04 1520.52 L1254.47 1520.52 L1254.47 1568.04 L1248.04 1568.04 L1248.04 1520.52 Z" fill="#000000" fill-rule="nonzero" fill-opacity="1" /><path clip-path="url(#clip970)" d="M1272.8 1522.27 L1272.8 1532.4 L1284.86 1532.4 L1284.86 1536.95 L1272.8 1536.95 L1272.8 1556.3 Q1272.8 1560.66 1273.98 1561.9 Q1275.19 1563.14 1278.85 1563.14 L1284.86 1563.14 L1284.86 1568.04 L1278.85 1568.04 Q1272.07 1568.04 1269.49 1565.53 Q1266.91 1562.98 1266.91 1556.3 L1266.91 1536.95 L1262.61 1536.95 L1262.61 1532.4 L1266.91 1532.4 L1266.91 1522.27 L1272.8 1522.27 Z" fill="#000000" fill-rule="nonzero" fill-opacity="1" /><path clip-path="url(#clip970)" d="M1323.06 1548.76 L1323.06 1551.62 L1296.13 1551.62 Q1296.51 1557.67 1299.76 1560.85 Q1303.04 1564 1308.86 1564 Q1312.23 1564 1315.39 1563.17 Q1318.57 1562.35 1321.69 1560.69 L1321.69 1566.23 Q1318.54 1567.57 1315.23 1568.27 Q1311.92 1568.97 1308.51 1568.97 Q1299.98 1568.97 1294.98 1564 Q1290.02 1559.04 1290.02 1550.57 Q1290.02 1541.82 1294.73 1536.69 Q1299.47 1531.54 1307.49 1531.54 Q1314.68 1531.54 1318.85 1536.18 Q1323.06 1540.8 1323.06 1548.76 M1317.2 1547.04 Q1317.14 1542.23 1314.49 1539.37 Q1311.88 1536.5 1307.56 1536.5 Q1302.65 1536.5 1299.69 1539.27 Q1296.77 1542.04 1296.32 1547.07 L1317.2 1547.04 Z" fill="#000000" fill-rule="nonzero" fill-opacity="1" /><path clip-path="url(#clip970)" d="M1353.32 1537.87 Q1352.34 1537.3 1351.16 1537.04 Q1350.01 1536.76 1348.61 1536.76 Q1343.65 1536.76 1340.98 1540 Q1338.33 1543.22 1338.33 1549.27 L1338.33 1568.04 L1332.45 1568.04 L1332.45 1532.4 L1338.33 1532.4 L1338.33 1537.93 Q1340.18 1534.69 1343.14 1533.13 Q1346.1 1531.54 1350.33 1531.54 Q1350.94 1531.54 1351.67 1531.63 Q1352.4 1531.7 1353.29 1531.85 L1353.32 1537.87 Z" fill="#000000" fill-rule="nonzero" fill-opacity="1" /><path clip-path="url(#clip970)" d="M1375.67 1550.12 Q1368.57 1550.12 1365.83 1551.75 Q1363.1 1553.37 1363.1 1557.29 Q1363.1 1560.4 1365.13 1562.25 Q1367.2 1564.07 1370.73 1564.07 Q1375.6 1564.07 1378.53 1560.63 Q1381.49 1557.16 1381.49 1551.43 L1381.49 1550.12 L1375.67 1550.12 M1387.35 1547.71 L1387.35 1568.04 L1381.49 1568.04 L1381.49 1562.63 Q1379.49 1565.88 1376.5 1567.44 Q1373.5 1568.97 1369.18 1568.97 Q1363.7 1568.97 1360.45 1565.91 Q1357.24 1562.82 1357.24 1557.67 Q1357.24 1551.65 1361.25 1548.6 Q1365.29 1545.54 1373.28 1545.54 L1381.49 1545.54 L1381.49 1544.97 Q1381.49 1540.93 1378.82 1538.73 Q1376.18 1536.5 1371.37 1536.5 Q1368.32 1536.5 1365.42 1537.23 Q1362.52 1537.97 1359.85 1539.43 L1359.85 1534.02 Q1363.06 1532.78 1366.09 1532.17 Q1369.11 1531.54 1371.98 1531.54 Q1379.71 1531.54 1383.53 1535.55 Q1387.35 1539.56 1387.35 1547.71 Z" fill="#000000" fill-rule="nonzero" fill-opacity="1" /><path clip-path="url(#clip970)" d="M1405.21 1522.27 L1405.21 1532.4 L1417.27 1532.4 L1417.27 1536.95 L1405.21 1536.95 L1405.21 1556.3 Q1405.21 1560.66 1406.38 1561.9 Q1407.59 1563.14 1411.25 1563.14 L1417.27 1563.14 L1417.27 1568.04 L1411.25 1568.04 Q1404.47 1568.04 1401.89 1565.53 Q1399.32 1562.98 1399.32 1556.3 L1399.32 1536.95 L1395.02 1536.95 L1395.02 1532.4 L1399.32 1532.4 L1399.32 1522.27 L1405.21 1522.27 Z" fill="#000000" fill-rule="nonzero" fill-opacity="1" /><path clip-path="url(#clip970)" d="M1424.97 1532.4 L1430.83 1532.4 L1430.83 1568.04 L1424.97 1568.04 L1424.97 1532.4 M1424.97 1518.52 L1430.83 1518.52 L1430.83 1525.93 L1424.97 1525.93 L1424.97 1518.52 Z" fill="#000000" fill-rule="nonzero" fill-opacity="1" /><path clip-path="url(#clip970)" d="M1456.89 1536.5 Q1452.18 1536.5 1449.45 1540.19 Q1446.71 1543.85 1446.71 1550.25 Q1446.71 1556.65 1449.41 1560.34 Q1452.15 1564 1456.89 1564 Q1461.57 1564 1464.31 1560.31 Q1467.05 1556.62 1467.05 1550.25 Q1467.05 1543.92 1464.31 1540.23 Q1461.57 1536.5 1456.89 1536.5 M1456.89 1531.54 Q1464.53 1531.54 1468.89 1536.5 Q1473.25 1541.47 1473.25 1550.25 Q1473.25 1559 1468.89 1564 Q1464.53 1568.97 1456.89 1568.97 Q1449.22 1568.97 1444.86 1564 Q1440.53 1559 1440.53 1550.25 Q1440.53 1541.47 1444.86 1536.5 Q1449.22 1531.54 1456.89 1531.54 Z" fill="#000000" fill-rule="nonzero" fill-opacity="1" /><path clip-path="url(#clip970)" d="M1512.59 1546.53 L1512.59 1568.04 L1506.74 1568.04 L1506.74 1546.72 Q1506.74 1541.66 1504.76 1539.14 Q1502.79 1536.63 1498.84 1536.63 Q1494.1 1536.63 1491.36 1539.65 Q1488.63 1542.68 1488.63 1547.9 L1488.63 1568.04 L1482.74 1568.04 L1482.74 1532.4 L1488.63 1532.4 L1488.63 1537.93 Q1490.73 1534.72 1493.56 1533.13 Q1496.43 1531.54 1500.15 1531.54 Q1506.29 1531.54 1509.44 1535.36 Q1512.59 1539.14 1512.59 1546.53 Z" fill="#000000" fill-rule="nonzero" fill-opacity="1" /><polyline clip-path="url(#clip970)" style="stroke:#000000; stroke-linecap:round; stroke-linejoin:round; stroke-width:4; stroke-opacity:1; fill:none" points="407.875,1423.18 407.875,123.472 "/>
<polyline clip-path="url(#clip970)" style="stroke:#000000; stroke-linecap:round; stroke-linejoin:round; stroke-width:4; stroke-opacity:1; fill:none" points="407.875,1177.84 426.772,1177.84 "/>
<polyline clip-path="url(#clip970)" style="stroke:#000000; stroke-linecap:round; stroke-linejoin:round; stroke-width:4; stroke-opacity:1; fill:none" points="407.875,921.103 426.772,921.103 "/>
<polyline clip-path="url(#clip970)" style="stroke:#000000; stroke-linecap:round; stroke-linejoin:round; stroke-width:4; stroke-opacity:1; fill:none" points="407.875,664.369 426.772,664.369 "/>
<polyline clip-path="url(#clip970)" style="stroke:#000000; stroke-linecap:round; stroke-linejoin:round; stroke-width:4; stroke-opacity:1; fill:none" points="407.875,407.634 426.772,407.634 "/>
<polyline clip-path="url(#clip970)" style="stroke:#000000; stroke-linecap:round; stroke-linejoin:round; stroke-width:4; stroke-opacity:1; fill:none" points="407.875,150.9 426.772,150.9 "/>
<path clip-path="url(#clip970)" d="M114.26 1184.74 L143.936 1184.74 L143.936 1188.67 L114.26 1188.67 L114.26 1184.74 Z" fill="#000000" fill-rule="nonzero" fill-opacity="1" /><path clip-path="url(#clip970)" d="M158.056 1197.63 L174.376 1197.63 L174.376 1201.57 L152.431 1201.57 L152.431 1197.63 Q155.093 1194.88 159.677 1190.25 Q164.283 1185.59 165.464 1184.25 Q167.709 1181.73 168.589 1179.99 Q169.491 1178.23 169.491 1176.54 Q169.491 1173.79 167.547 1172.05 Q165.626 1170.32 162.524 1170.32 Q160.325 1170.32 157.871 1171.08 Q155.44 1171.84 152.663 1173.39 L152.663 1168.67 Q155.487 1167.54 157.94 1166.96 Q160.394 1166.38 162.431 1166.38 Q167.802 1166.38 170.996 1169.07 Q174.19 1171.75 174.19 1176.24 Q174.19 1178.37 173.38 1180.29 Q172.593 1182.19 170.487 1184.78 Q169.908 1185.45 166.806 1188.67 Q163.704 1191.87 158.056 1197.63 Z" fill="#000000" fill-rule="nonzero" fill-opacity="1" /><path clip-path="url(#clip970)" d="M184.19 1195.69 L189.075 1195.69 L189.075 1201.57 L184.19 1201.57 L184.19 1195.69 Z" fill="#000000" fill-rule="nonzero" fill-opacity="1" /><path clip-path="url(#clip970)" d="M199.306 1167.01 L217.662 1167.01 L217.662 1170.94 L203.588 1170.94 L203.588 1179.41 Q204.607 1179.07 205.625 1178.9 Q206.644 1178.72 207.662 1178.72 Q213.449 1178.72 216.829 1181.89 Q220.209 1185.06 220.209 1190.48 Q220.209 1196.06 216.736 1199.16 Q213.264 1202.24 206.945 1202.24 Q204.769 1202.24 202.5 1201.87 Q200.255 1201.5 197.848 1200.76 L197.848 1196.06 Q199.931 1197.19 202.153 1197.75 Q204.375 1198.3 206.852 1198.3 Q210.857 1198.3 213.195 1196.2 Q215.533 1194.09 215.533 1190.48 Q215.533 1186.87 213.195 1184.76 Q210.857 1182.65 206.852 1182.65 Q204.977 1182.65 203.102 1183.07 Q201.25 1183.49 199.306 1184.37 L199.306 1167.01 Z" fill="#000000" fill-rule="nonzero" fill-opacity="1" /><path clip-path="url(#clip970)" d="M239.422 1170.08 Q235.81 1170.08 233.982 1173.65 Q232.176 1177.19 232.176 1184.32 Q232.176 1191.43 233.982 1194.99 Q235.81 1198.53 239.422 1198.53 Q243.056 1198.53 244.861 1194.99 Q246.69 1191.43 246.69 1184.32 Q246.69 1177.19 244.861 1173.65 Q243.056 1170.08 239.422 1170.08 M239.422 1166.38 Q245.232 1166.38 248.287 1170.99 Q251.366 1175.57 251.366 1184.32 Q251.366 1193.05 248.287 1197.65 Q245.232 1202.24 239.422 1202.24 Q233.611 1202.24 230.533 1197.65 Q227.477 1193.05 227.477 1184.32 Q227.477 1175.57 230.533 1170.99 Q233.611 1166.38 239.422 1166.38 Z" fill="#000000" fill-rule="nonzero" fill-opacity="1" /><path clip-path="url(#clip970)" d="M287.755 1176.1 L277.176 1186.73 L287.755 1197.31 L285 1200.11 L274.375 1189.48 L263.75 1200.11 L261.019 1197.31 L271.574 1186.73 L261.019 1176.1 L263.75 1173.3 L274.375 1183.93 L285 1173.3 L287.755 1176.1 Z" fill="#000000" fill-rule="nonzero" fill-opacity="1" /><path clip-path="url(#clip970)" d="M300.116 1197.63 L307.754 1197.63 L307.754 1171.26 L299.444 1172.93 L299.444 1168.67 L307.708 1167.01 L312.384 1167.01 L312.384 1197.63 L320.023 1197.63 L320.023 1201.57 L300.116 1201.57 L300.116 1197.63 Z" fill="#000000" fill-rule="nonzero" fill-opacity="1" /><path clip-path="url(#clip970)" d="M339.467 1170.08 Q335.856 1170.08 334.027 1173.65 Q332.222 1177.19 332.222 1184.32 Q332.222 1191.43 334.027 1194.99 Q335.856 1198.53 339.467 1198.53 Q343.102 1198.53 344.907 1194.99 Q346.736 1191.43 346.736 1184.32 Q346.736 1177.19 344.907 1173.65 Q343.102 1170.08 339.467 1170.08 M339.467 1166.38 Q345.277 1166.38 348.333 1170.99 Q351.412 1175.57 351.412 1184.32 Q351.412 1193.05 348.333 1197.65 Q345.277 1202.24 339.467 1202.24 Q333.657 1202.24 330.578 1197.65 Q327.523 1193.05 327.523 1184.32 Q327.523 1175.57 330.578 1170.99 Q333.657 1166.38 339.467 1166.38 Z" fill="#000000" fill-rule="nonzero" fill-opacity="1" /><path clip-path="url(#clip970)" d="M364.088 1149.39 L354.496 1164.38 L364.088 1164.38 L364.088 1149.39 M363.091 1146.08 L367.868 1146.08 L367.868 1164.38 L371.875 1164.38 L371.875 1167.53 L367.868 1167.53 L367.868 1174.16 L364.088 1174.16 L364.088 1167.53 L351.412 1167.53 L351.412 1163.87 L363.091 1146.08 Z" fill="#000000" fill-rule="nonzero" fill-opacity="1" /><path clip-path="url(#clip970)" d="M114.26 928.002 L143.936 928.002 L143.936 931.938 L114.26 931.938 L114.26 928.002 Z" fill="#000000" fill-rule="nonzero" fill-opacity="1" /><path clip-path="url(#clip970)" d="M158.056 940.896 L174.376 940.896 L174.376 944.831 L152.431 944.831 L152.431 940.896 Q155.093 938.141 159.677 933.512 Q164.283 928.859 165.464 927.516 Q167.709 924.993 168.589 923.257 Q169.491 921.498 169.491 919.808 Q169.491 917.053 167.547 915.317 Q165.626 913.581 162.524 913.581 Q160.325 913.581 157.871 914.345 Q155.44 915.109 152.663 916.66 L152.663 911.938 Q155.487 910.803 157.94 910.225 Q160.394 909.646 162.431 909.646 Q167.802 909.646 170.996 912.331 Q174.19 915.016 174.19 919.507 Q174.19 921.637 173.38 923.558 Q172.593 925.456 170.487 928.049 Q169.908 928.72 166.806 931.938 Q163.704 935.132 158.056 940.896 Z" fill="#000000" fill-rule="nonzero" fill-opacity="1" /><path clip-path="url(#clip970)" d="M184.19 938.951 L189.075 938.951 L189.075 944.831 L184.19 944.831 L184.19 938.951 Z" fill="#000000" fill-rule="nonzero" fill-opacity="1" /><path clip-path="url(#clip970)" d="M209.26 913.35 Q205.649 913.35 203.82 916.915 Q202.014 920.456 202.014 927.586 Q202.014 934.692 203.82 938.257 Q205.649 941.799 209.26 941.799 Q212.894 941.799 214.699 938.257 Q216.528 934.692 216.528 927.586 Q216.528 920.456 214.699 916.915 Q212.894 913.35 209.26 913.35 M209.26 909.646 Q215.07 909.646 218.125 914.253 Q221.204 918.836 221.204 927.586 Q221.204 936.313 218.125 940.919 Q215.07 945.502 209.26 945.502 Q203.449 945.502 200.371 940.919 Q197.315 936.313 197.315 927.586 Q197.315 918.836 200.371 914.253 Q203.449 909.646 209.26 909.646 Z" fill="#000000" fill-rule="nonzero" fill-opacity="1" /><path clip-path="url(#clip970)" d="M239.422 913.35 Q235.81 913.35 233.982 916.915 Q232.176 920.456 232.176 927.586 Q232.176 934.692 233.982 938.257 Q235.81 941.799 239.422 941.799 Q243.056 941.799 244.861 938.257 Q246.69 934.692 246.69 927.586 Q246.69 920.456 244.861 916.915 Q243.056 913.35 239.422 913.35 M239.422 909.646 Q245.232 909.646 248.287 914.253 Q251.366 918.836 251.366 927.586 Q251.366 936.313 248.287 940.919 Q245.232 945.502 239.422 945.502 Q233.611 945.502 230.533 940.919 Q227.477 936.313 227.477 927.586 Q227.477 918.836 230.533 914.253 Q233.611 909.646 239.422 909.646 Z" fill="#000000" fill-rule="nonzero" fill-opacity="1" /><path clip-path="url(#clip970)" d="M287.755 919.368 L277.176 929.993 L287.755 940.572 L285 943.373 L274.375 932.748 L263.75 943.373 L261.019 940.572 L271.574 929.993 L261.019 919.368 L263.75 916.567 L274.375 927.192 L285 916.567 L287.755 919.368 Z" fill="#000000" fill-rule="nonzero" fill-opacity="1" /><path clip-path="url(#clip970)" d="M300.116 940.896 L307.754 940.896 L307.754 914.53 L299.444 916.197 L299.444 911.938 L307.708 910.271 L312.384 910.271 L312.384 940.896 L320.023 940.896 L320.023 944.831 L300.116 944.831 L300.116 940.896 Z" fill="#000000" fill-rule="nonzero" fill-opacity="1" /><path clip-path="url(#clip970)" d="M339.467 913.35 Q335.856 913.35 334.027 916.915 Q332.222 920.456 332.222 927.586 Q332.222 934.692 334.027 938.257 Q335.856 941.799 339.467 941.799 Q343.102 941.799 344.907 938.257 Q346.736 934.692 346.736 927.586 Q346.736 920.456 344.907 916.915 Q343.102 913.35 339.467 913.35 M339.467 909.646 Q345.277 909.646 348.333 914.253 Q351.412 918.836 351.412 927.586 Q351.412 936.313 348.333 940.919 Q345.277 945.502 339.467 945.502 Q333.657 945.502 330.578 940.919 Q327.523 936.313 327.523 927.586 Q327.523 918.836 330.578 914.253 Q333.657 909.646 339.467 909.646 Z" fill="#000000" fill-rule="nonzero" fill-opacity="1" /><path clip-path="url(#clip970)" d="M364.088 892.651 L354.496 907.641 L364.088 907.641 L364.088 892.651 M363.091 889.341 L367.868 889.341 L367.868 907.641 L371.875 907.641 L371.875 910.8 L367.868 910.8 L367.868 917.421 L364.088 917.421 L364.088 910.8 L351.412 910.8 L351.412 907.133 L363.091 889.341 Z" fill="#000000" fill-rule="nonzero" fill-opacity="1" /><path clip-path="url(#clip970)" d="M114.26 671.268 L143.936 671.268 L143.936 675.203 L114.26 675.203 L114.26 671.268 Z" fill="#000000" fill-rule="nonzero" fill-opacity="1" /><path clip-path="url(#clip970)" d="M154.839 684.161 L162.477 684.161 L162.477 657.796 L154.167 659.462 L154.167 655.203 L162.431 653.536 L167.107 653.536 L167.107 684.161 L174.746 684.161 L174.746 688.096 L154.839 688.096 L154.839 684.161 Z" fill="#000000" fill-rule="nonzero" fill-opacity="1" /><path clip-path="url(#clip970)" d="M184.19 682.217 L189.075 682.217 L189.075 688.096 L184.19 688.096 L184.19 682.217 Z" fill="#000000" fill-rule="nonzero" fill-opacity="1" /><path clip-path="url(#clip970)" d="M199.306 653.536 L217.662 653.536 L217.662 657.472 L203.588 657.472 L203.588 665.944 Q204.607 665.597 205.625 665.435 Q206.644 665.249 207.662 665.249 Q213.449 665.249 216.829 668.421 Q220.209 671.592 220.209 677.009 Q220.209 682.587 216.736 685.689 Q213.264 688.768 206.945 688.768 Q204.769 688.768 202.5 688.397 Q200.255 688.027 197.848 687.286 L197.848 682.587 Q199.931 683.721 202.153 684.277 Q204.375 684.833 206.852 684.833 Q210.857 684.833 213.195 682.726 Q215.533 680.62 215.533 677.009 Q215.533 673.397 213.195 671.291 Q210.857 669.185 206.852 669.185 Q204.977 669.185 203.102 669.601 Q201.25 670.018 199.306 670.897 L199.306 653.536 Z" fill="#000000" fill-rule="nonzero" fill-opacity="1" /><path clip-path="url(#clip970)" d="M239.422 656.615 Q235.81 656.615 233.982 660.18 Q232.176 663.722 232.176 670.851 Q232.176 677.958 233.982 681.522 Q235.81 685.064 239.422 685.064 Q243.056 685.064 244.861 681.522 Q246.69 677.958 246.69 670.851 Q246.69 663.722 244.861 660.18 Q243.056 656.615 239.422 656.615 M239.422 652.911 Q245.232 652.911 248.287 657.518 Q251.366 662.101 251.366 670.851 Q251.366 679.578 248.287 684.184 Q245.232 688.768 239.422 688.768 Q233.611 688.768 230.533 684.184 Q227.477 679.578 227.477 670.851 Q227.477 662.101 230.533 657.518 Q233.611 652.911 239.422 652.911 Z" fill="#000000" fill-rule="nonzero" fill-opacity="1" /><path clip-path="url(#clip970)" d="M287.755 662.634 L277.176 673.259 L287.755 683.837 L285 686.638 L274.375 676.013 L263.75 686.638 L261.019 683.837 L271.574 673.259 L261.019 662.634 L263.75 659.833 L274.375 670.458 L285 659.833 L287.755 662.634 Z" fill="#000000" fill-rule="nonzero" fill-opacity="1" /><path clip-path="url(#clip970)" d="M300.116 684.161 L307.754 684.161 L307.754 657.796 L299.444 659.462 L299.444 655.203 L307.708 653.536 L312.384 653.536 L312.384 684.161 L320.023 684.161 L320.023 688.096 L300.116 688.096 L300.116 684.161 Z" fill="#000000" fill-rule="nonzero" fill-opacity="1" /><path clip-path="url(#clip970)" d="M339.467 656.615 Q335.856 656.615 334.027 660.18 Q332.222 663.722 332.222 670.851 Q332.222 677.958 334.027 681.522 Q335.856 685.064 339.467 685.064 Q343.102 685.064 344.907 681.522 Q346.736 677.958 346.736 670.851 Q346.736 663.722 344.907 660.18 Q343.102 656.615 339.467 656.615 M339.467 652.911 Q345.277 652.911 348.333 657.518 Q351.412 662.101 351.412 670.851 Q351.412 679.578 348.333 684.184 Q345.277 688.768 339.467 688.768 Q333.657 688.768 330.578 684.184 Q327.523 679.578 327.523 670.851 Q327.523 662.101 330.578 657.518 Q333.657 652.911 339.467 652.911 Z" fill="#000000" fill-rule="nonzero" fill-opacity="1" /><path clip-path="url(#clip970)" d="M364.088 635.916 L354.496 650.906 L364.088 650.906 L364.088 635.916 M363.091 632.606 L367.868 632.606 L367.868 650.906 L371.875 650.906 L371.875 654.066 L367.868 654.066 L367.868 660.686 L364.088 660.686 L364.088 654.066 L351.412 654.066 L351.412 650.398 L363.091 632.606 Z" fill="#000000" fill-rule="nonzero" fill-opacity="1" /><path clip-path="url(#clip970)" d="M114.26 414.533 L143.936 414.533 L143.936 418.468 L114.26 418.468 L114.26 414.533 Z" fill="#000000" fill-rule="nonzero" fill-opacity="1" /><path clip-path="url(#clip970)" d="M154.839 427.427 L162.477 427.427 L162.477 401.061 L154.167 402.728 L154.167 398.469 L162.431 396.802 L167.107 396.802 L167.107 427.427 L174.746 427.427 L174.746 431.362 L154.839 431.362 L154.839 427.427 Z" fill="#000000" fill-rule="nonzero" fill-opacity="1" /><path clip-path="url(#clip970)" d="M184.19 425.482 L189.075 425.482 L189.075 431.362 L184.19 431.362 L184.19 425.482 Z" fill="#000000" fill-rule="nonzero" fill-opacity="1" /><path clip-path="url(#clip970)" d="M209.26 399.881 Q205.649 399.881 203.82 403.445 Q202.014 406.987 202.014 414.117 Q202.014 421.223 203.82 424.788 Q205.649 428.329 209.26 428.329 Q212.894 428.329 214.699 424.788 Q216.528 421.223 216.528 414.117 Q216.528 406.987 214.699 403.445 Q212.894 399.881 209.26 399.881 M209.26 396.177 Q215.07 396.177 218.125 400.783 Q221.204 405.367 221.204 414.117 Q221.204 422.843 218.125 427.45 Q215.07 432.033 209.26 432.033 Q203.449 432.033 200.371 427.45 Q197.315 422.843 197.315 414.117 Q197.315 405.367 200.371 400.783 Q203.449 396.177 209.26 396.177 Z" fill="#000000" fill-rule="nonzero" fill-opacity="1" /><path clip-path="url(#clip970)" d="M239.422 399.881 Q235.81 399.881 233.982 403.445 Q232.176 406.987 232.176 414.117 Q232.176 421.223 233.982 424.788 Q235.81 428.329 239.422 428.329 Q243.056 428.329 244.861 424.788 Q246.69 421.223 246.69 414.117 Q246.69 406.987 244.861 403.445 Q243.056 399.881 239.422 399.881 M239.422 396.177 Q245.232 396.177 248.287 400.783 Q251.366 405.367 251.366 414.117 Q251.366 422.843 248.287 427.45 Q245.232 432.033 239.422 432.033 Q233.611 432.033 230.533 427.45 Q227.477 422.843 227.477 414.117 Q227.477 405.367 230.533 400.783 Q233.611 396.177 239.422 396.177 Z" fill="#000000" fill-rule="nonzero" fill-opacity="1" /><path clip-path="url(#clip970)" d="M287.755 405.899 L277.176 416.524 L287.755 427.103 L285 429.904 L274.375 419.279 L263.75 429.904 L261.019 427.103 L271.574 416.524 L261.019 405.899 L263.75 403.098 L274.375 413.723 L285 403.098 L287.755 405.899 Z" fill="#000000" fill-rule="nonzero" fill-opacity="1" /><path clip-path="url(#clip970)" d="M300.116 427.427 L307.754 427.427 L307.754 401.061 L299.444 402.728 L299.444 398.469 L307.708 396.802 L312.384 396.802 L312.384 427.427 L320.023 427.427 L320.023 431.362 L300.116 431.362 L300.116 427.427 Z" fill="#000000" fill-rule="nonzero" fill-opacity="1" /><path clip-path="url(#clip970)" d="M339.467 399.881 Q335.856 399.881 334.027 403.445 Q332.222 406.987 332.222 414.117 Q332.222 421.223 334.027 424.788 Q335.856 428.329 339.467 428.329 Q343.102 428.329 344.907 424.788 Q346.736 421.223 346.736 414.117 Q346.736 406.987 344.907 403.445 Q343.102 399.881 339.467 399.881 M339.467 396.177 Q345.277 396.177 348.333 400.783 Q351.412 405.367 351.412 414.117 Q351.412 422.843 348.333 427.45 Q345.277 432.033 339.467 432.033 Q333.657 432.033 330.578 427.45 Q327.523 422.843 327.523 414.117 Q327.523 405.367 330.578 400.783 Q333.657 396.177 339.467 396.177 Z" fill="#000000" fill-rule="nonzero" fill-opacity="1" /><path clip-path="url(#clip970)" d="M364.088 379.182 L354.496 394.171 L364.088 394.171 L364.088 379.182 M363.091 375.871 L367.868 375.871 L367.868 394.171 L371.875 394.171 L371.875 397.331 L367.868 397.331 L367.868 403.951 L364.088 403.951 L364.088 397.331 L351.412 397.331 L351.412 393.664 L363.091 375.871 Z" fill="#000000" fill-rule="nonzero" fill-opacity="1" /><path clip-path="url(#clip970)" d="M116.235 157.799 L145.911 157.799 L145.911 161.734 L116.235 161.734 L116.235 157.799 Z" fill="#000000" fill-rule="nonzero" fill-opacity="1" /><path clip-path="url(#clip970)" d="M156.05 140.067 L174.406 140.067 L174.406 144.002 L160.332 144.002 L160.332 152.475 Q161.35 152.127 162.369 151.965 Q163.387 151.78 164.406 151.78 Q170.193 151.78 173.573 154.951 Q176.952 158.123 176.952 163.539 Q176.952 169.118 173.48 172.22 Q170.008 175.299 163.688 175.299 Q161.513 175.299 159.244 174.928 Q156.999 174.558 154.591 173.817 L154.591 169.118 Q156.675 170.252 158.897 170.808 Q161.119 171.363 163.596 171.363 Q167.6 171.363 169.938 169.257 Q172.276 167.15 172.276 163.539 Q172.276 159.928 169.938 157.822 Q167.6 155.715 163.596 155.715 Q161.721 155.715 159.846 156.132 Q157.994 156.549 156.05 157.428 L156.05 140.067 Z" fill="#000000" fill-rule="nonzero" fill-opacity="1" /><path clip-path="url(#clip970)" d="M186.165 168.748 L191.049 168.748 L191.049 174.627 L186.165 174.627 L186.165 168.748 Z" fill="#000000" fill-rule="nonzero" fill-opacity="1" /><path clip-path="url(#clip970)" d="M211.234 143.146 Q207.623 143.146 205.795 146.711 Q203.989 150.252 203.989 157.382 Q203.989 164.488 205.795 168.053 Q207.623 171.595 211.234 171.595 Q214.869 171.595 216.674 168.053 Q218.503 164.488 218.503 157.382 Q218.503 150.252 216.674 146.711 Q214.869 143.146 211.234 143.146 M211.234 139.442 Q217.045 139.442 220.1 144.049 Q223.179 148.632 223.179 157.382 Q223.179 166.109 220.1 170.715 Q217.045 175.299 211.234 175.299 Q205.424 175.299 202.346 170.715 Q199.29 166.109 199.29 157.382 Q199.29 148.632 202.346 144.049 Q205.424 139.442 211.234 139.442 Z" fill="#000000" fill-rule="nonzero" fill-opacity="1" /><path clip-path="url(#clip970)" d="M241.396 143.146 Q237.785 143.146 235.957 146.711 Q234.151 150.252 234.151 157.382 Q234.151 164.488 235.957 168.053 Q237.785 171.595 241.396 171.595 Q245.031 171.595 246.836 168.053 Q248.665 164.488 248.665 157.382 Q248.665 150.252 246.836 146.711 Q245.031 143.146 241.396 143.146 M241.396 139.442 Q247.206 139.442 250.262 144.049 Q253.341 148.632 253.341 157.382 Q253.341 166.109 250.262 170.715 Q247.206 175.299 241.396 175.299 Q235.586 175.299 232.507 170.715 Q229.452 166.109 229.452 157.382 Q229.452 148.632 232.507 144.049 Q235.586 139.442 241.396 139.442 Z" fill="#000000" fill-rule="nonzero" fill-opacity="1" /><path clip-path="url(#clip970)" d="M289.729 149.164 L279.151 159.789 L289.729 170.368 L286.975 173.169 L276.35 162.544 L265.725 173.169 L262.993 170.368 L273.549 159.789 L262.993 149.164 L265.725 146.364 L276.35 156.988 L286.975 146.364 L289.729 149.164 Z" fill="#000000" fill-rule="nonzero" fill-opacity="1" /><path clip-path="url(#clip970)" d="M302.09 170.692 L309.729 170.692 L309.729 144.326 L301.419 145.993 L301.419 141.734 L309.683 140.067 L314.359 140.067 L314.359 170.692 L321.998 170.692 L321.998 174.627 L302.09 174.627 L302.09 170.692 Z" fill="#000000" fill-rule="nonzero" fill-opacity="1" /><path clip-path="url(#clip970)" d="M341.442 143.146 Q337.831 143.146 336.002 146.711 Q334.197 150.252 334.197 157.382 Q334.197 164.488 336.002 168.053 Q337.831 171.595 341.442 171.595 Q345.076 171.595 346.882 168.053 Q348.711 164.488 348.711 157.382 Q348.711 150.252 346.882 146.711 Q345.076 143.146 341.442 143.146 M341.442 139.442 Q347.252 139.442 350.308 144.049 Q353.386 148.632 353.386 157.382 Q353.386 166.109 350.308 170.715 Q347.252 175.299 341.442 175.299 Q335.632 175.299 332.553 170.715 Q329.498 166.109 329.498 157.382 Q329.498 148.632 332.553 144.049 Q335.632 139.442 341.442 139.442 Z" fill="#000000" fill-rule="nonzero" fill-opacity="1" /><path clip-path="url(#clip970)" d="M366.082 132.077 Q368.809 132.66 370.332 134.503 Q371.875 136.346 371.875 139.054 Q371.875 143.211 369.016 145.487 Q366.157 147.762 360.891 147.762 Q359.123 147.762 357.242 147.405 Q355.38 147.066 353.386 146.37 L353.386 142.703 Q354.966 143.625 356.847 144.095 Q358.728 144.565 360.778 144.565 Q364.351 144.565 366.213 143.154 Q368.094 141.744 368.094 139.054 Q368.094 136.572 366.345 135.18 Q364.615 133.769 361.511 133.769 L358.239 133.769 L358.239 130.647 L361.662 130.647 Q364.464 130.647 365.95 129.538 Q367.436 128.409 367.436 126.303 Q367.436 124.14 365.894 122.992 Q364.37 121.826 361.511 121.826 Q359.95 121.826 358.164 122.165 Q356.377 122.503 354.233 123.218 L354.233 119.833 Q356.396 119.231 358.277 118.93 Q360.176 118.629 361.85 118.629 Q366.176 118.629 368.696 120.604 Q371.216 122.56 371.216 125.908 Q371.216 128.24 369.881 129.857 Q368.546 131.456 366.082 132.077 Z" fill="#000000" fill-rule="nonzero" fill-opacity="1" /><path clip-path="url(#clip970)" d="M16.4842 854.489 L16.4842 824.443 L21.895 824.443 L21.895 848.059 L35.9632 848.059 L35.9632 825.429 L41.3741 825.429 L41.3741 848.059 L58.5933 848.059 L58.5933 823.87 L64.0042 823.87 L64.0042 854.489 L16.4842 854.489 Z" fill="#000000" fill-rule="nonzero" fill-opacity="1" /><path clip-path="url(#clip970)" d="M16.4842 813.303 L16.4842 806.873 L58.5933 806.873 L58.5933 783.734 L64.0042 783.734 L64.0042 813.303 L16.4842 813.303 Z" fill="#000000" fill-rule="nonzero" fill-opacity="1" /><path clip-path="url(#clip970)" d="M41.3104 770.557 L58.7206 770.557 L58.7206 760.244 Q58.7206 755.056 56.5881 752.574 Q54.4238 750.059 49.9996 750.059 Q45.5436 750.059 43.4429 752.574 Q41.3104 755.056 41.3104 760.244 L41.3104 770.557 M21.7677 770.557 L36.0905 770.557 L36.0905 761.04 Q36.0905 756.33 34.34 754.038 Q32.5576 751.714 28.9291 751.714 Q25.3325 751.714 23.5501 754.038 Q21.7677 756.33 21.7677 761.04 L21.7677 770.557 M16.4842 776.986 L16.4842 760.563 Q16.4842 753.21 19.5397 749.232 Q22.5952 745.253 28.2289 745.253 Q32.5894 745.253 35.1675 747.29 Q37.7456 749.327 38.3822 753.274 Q39.4007 748.532 42.6472 745.922 Q45.8619 743.28 50.6998 743.28 Q57.0655 743.28 60.5348 747.609 Q64.0042 751.937 64.0042 759.926 L64.0042 776.986 L16.4842 776.986 Z" fill="#000000" fill-rule="nonzero" fill-opacity="1" /><path clip-path="url(#clip970)" d="M20.8447 714.125 Q20.8447 721.127 26.0645 725.265 Q31.2844 729.371 40.2919 729.371 Q49.2675 729.371 54.4874 725.265 Q59.7073 721.127 59.7073 714.125 Q59.7073 707.123 54.4874 703.049 Q49.2675 698.943 40.2919 698.943 Q31.2844 698.943 26.0645 703.049 Q20.8447 707.123 20.8447 714.125 M15.6248 714.125 Q15.6248 704.131 22.3406 698.147 Q29.0246 692.163 40.2919 692.163 Q51.5274 692.163 58.2432 698.147 Q64.9272 704.131 64.9272 714.125 Q64.9272 724.151 58.2432 730.166 Q51.5592 736.15 40.2919 736.15 Q29.0246 736.15 22.3406 730.166 Q15.6248 724.151 15.6248 714.125 Z" fill="#000000" fill-rule="nonzero" fill-opacity="1" /><path clip-path="url(#clip970)" d="M823.093 72.576 L800.003 12.096 L808.55 12.096 L827.711 63.0159 L846.912 12.096 L855.419 12.096 L832.37 72.576 L823.093 72.576 Z" fill="#000000" fill-rule="nonzero" fill-opacity="1" /><path clip-path="url(#clip970)" d="M878.104 49.7694 Q869.071 49.7694 865.587 51.8354 Q862.103 53.9013 862.103 58.8839 Q862.103 62.8538 864.696 65.2034 Q867.329 67.5124 871.825 67.5124 Q878.023 67.5124 881.75 63.1374 Q885.518 58.7219 885.518 51.4303 L885.518 49.7694 L878.104 49.7694 M892.971 46.6907 L892.971 72.576 L885.518 72.576 L885.518 65.6895 Q882.965 69.8214 879.158 71.8063 Q875.35 73.7508 869.841 73.7508 Q862.873 73.7508 858.741 69.8619 Q854.65 65.9325 854.65 59.3701 Q854.65 51.7138 859.754 47.825 Q864.898 43.9361 875.066 43.9361 L885.518 43.9361 L885.518 43.2069 Q885.518 38.0623 882.115 35.2672 Q878.753 32.4315 872.636 32.4315 Q868.747 32.4315 865.06 33.3632 Q861.374 34.295 857.971 36.1584 L857.971 29.2718 Q862.063 27.692 865.911 26.9223 Q869.759 26.1121 873.405 26.1121 Q883.249 26.1121 888.11 31.2163 Q892.971 36.3204 892.971 46.6907 Z" fill="#000000" fill-rule="nonzero" fill-opacity="1" /><path clip-path="url(#clip970)" d="M934.614 34.1734 Q933.359 33.4443 931.86 33.1202 Q930.402 32.7556 928.619 32.7556 Q922.3 32.7556 918.897 36.8875 Q915.535 40.9789 915.535 48.6757 L915.535 72.576 L908.041 72.576 L908.041 27.2059 L915.535 27.2059 L915.535 34.2544 Q917.884 30.1225 921.652 28.1376 Q925.419 26.1121 930.807 26.1121 Q931.576 26.1121 932.508 26.2337 Q933.44 26.3147 934.574 26.5172 L934.614 34.1734 Z" fill="#000000" fill-rule="nonzero" fill-opacity="1" /><path clip-path="url(#clip970)" d="M942.433 27.2059 L949.886 27.2059 L949.886 72.576 L942.433 72.576 L942.433 27.2059 M942.433 9.54393 L949.886 9.54393 L949.886 18.9825 L942.433 18.9825 L942.433 9.54393 Z" fill="#000000" fill-rule="nonzero" fill-opacity="1" /><path clip-path="url(#clip970)" d="M986.101 49.7694 Q977.068 49.7694 973.584 51.8354 Q970.1 53.9013 970.1 58.8839 Q970.1 62.8538 972.693 65.2034 Q975.326 67.5124 979.823 67.5124 Q986.02 67.5124 989.747 63.1374 Q993.515 58.7219 993.515 51.4303 L993.515 49.7694 L986.101 49.7694 M1000.97 46.6907 L1000.97 72.576 L993.515 72.576 L993.515 65.6895 Q990.963 69.8214 987.155 71.8063 Q983.347 73.7508 977.838 73.7508 Q970.87 73.7508 966.738 69.8619 Q962.647 65.9325 962.647 59.3701 Q962.647 51.7138 967.751 47.825 Q972.896 43.9361 983.063 43.9361 L993.515 43.9361 L993.515 43.2069 Q993.515 38.0623 990.112 35.2672 Q986.75 32.4315 980.633 32.4315 Q976.744 32.4315 973.058 33.3632 Q969.371 34.295 965.968 36.1584 L965.968 29.2718 Q970.06 27.692 973.908 26.9223 Q977.757 26.1121 981.402 26.1121 Q991.246 26.1121 996.107 31.2163 Q1000.97 36.3204 1000.97 46.6907 Z" fill="#000000" fill-rule="nonzero" fill-opacity="1" /><path clip-path="url(#clip970)" d="M1023.69 14.324 L1023.69 27.2059 L1039.05 27.2059 L1039.05 32.9987 L1023.69 32.9987 L1023.69 57.6282 Q1023.69 63.1779 1025.19 64.7578 Q1026.73 66.3376 1031.39 66.3376 L1039.05 66.3376 L1039.05 72.576 L1031.39 72.576 Q1022.76 72.576 1019.48 69.3758 Q1016.2 66.1351 1016.2 57.6282 L1016.2 32.9987 L1010.73 32.9987 L1010.73 27.2059 L1016.2 27.2059 L1016.2 14.324 L1023.69 14.324 Z" fill="#000000" fill-rule="nonzero" fill-opacity="1" /><path clip-path="url(#clip970)" d="M1048.85 27.2059 L1056.3 27.2059 L1056.3 72.576 L1048.85 72.576 L1048.85 27.2059 M1048.85 9.54393 L1056.3 9.54393 L1056.3 18.9825 L1048.85 18.9825 L1048.85 9.54393 Z" fill="#000000" fill-rule="nonzero" fill-opacity="1" /><path clip-path="url(#clip970)" d="M1089.48 32.4315 Q1083.49 32.4315 1080 37.1306 Q1076.52 41.7891 1076.52 49.9314 Q1076.52 58.0738 1079.96 62.7728 Q1083.44 67.4314 1089.48 67.4314 Q1095.44 67.4314 1098.92 62.7323 Q1102.4 58.0333 1102.4 49.9314 Q1102.4 41.8701 1098.92 37.1711 Q1095.44 32.4315 1089.48 32.4315 M1089.48 26.1121 Q1099.2 26.1121 1104.75 32.4315 Q1110.3 38.7509 1110.3 49.9314 Q1110.3 61.0714 1104.75 67.4314 Q1099.2 73.7508 1089.48 73.7508 Q1079.72 73.7508 1074.17 67.4314 Q1068.66 61.0714 1068.66 49.9314 Q1068.66 38.7509 1074.17 32.4315 Q1079.72 26.1121 1089.48 26.1121 Z" fill="#000000" fill-rule="nonzero" fill-opacity="1" /><path clip-path="url(#clip970)" d="M1160.37 45.1919 L1160.37 72.576 L1152.92 72.576 L1152.92 45.4349 Q1152.92 38.994 1150.41 35.7938 Q1147.89 32.5936 1142.87 32.5936 Q1136.84 32.5936 1133.35 36.4419 Q1129.87 40.2903 1129.87 46.9338 L1129.87 72.576 L1122.37 72.576 L1122.37 27.2059 L1129.87 27.2059 L1129.87 34.2544 Q1132.54 30.163 1136.15 28.1376 Q1139.79 26.1121 1144.53 26.1121 Q1152.35 26.1121 1156.36 30.9732 Q1160.37 35.7938 1160.37 45.1919 Z" fill="#000000" fill-rule="nonzero" fill-opacity="1" /><path clip-path="url(#clip970)" d="M1195.86 49.7694 Q1186.82 49.7694 1183.34 51.8354 Q1179.86 53.9013 1179.86 58.8839 Q1179.86 62.8538 1182.45 65.2034 Q1185.08 67.5124 1189.58 67.5124 Q1195.78 67.5124 1199.5 63.1374 Q1203.27 58.7219 1203.27 51.4303 L1203.27 49.7694 L1195.86 49.7694 M1210.72 46.6907 L1210.72 72.576 L1203.27 72.576 L1203.27 65.6895 Q1200.72 69.8214 1196.91 71.8063 Q1193.1 73.7508 1187.59 73.7508 Q1180.63 73.7508 1176.49 69.8619 Q1172.4 65.9325 1172.4 59.3701 Q1172.4 51.7138 1177.51 47.825 Q1182.65 43.9361 1192.82 43.9361 L1203.27 43.9361 L1203.27 43.2069 Q1203.27 38.0623 1199.87 35.2672 Q1196.51 32.4315 1190.39 32.4315 Q1186.5 32.4315 1182.81 33.3632 Q1179.13 34.295 1175.72 36.1584 L1175.72 29.2718 Q1179.82 27.692 1183.66 26.9223 Q1187.51 26.1121 1191.16 26.1121 Q1201 26.1121 1205.86 31.2163 Q1210.72 36.3204 1210.72 46.6907 Z" fill="#000000" fill-rule="nonzero" fill-opacity="1" /><path clip-path="url(#clip970)" d="M1226.08 9.54393 L1233.53 9.54393 L1233.53 72.576 L1226.08 72.576 L1226.08 9.54393 Z" fill="#000000" fill-rule="nonzero" fill-opacity="1" /><path clip-path="url(#clip970)" d="M1275.82 12.096 L1314.06 12.096 L1314.06 18.9825 L1284 18.9825 L1284 36.8875 L1312.81 36.8875 L1312.81 43.7741 L1284 43.7741 L1284 65.6895 L1314.79 65.6895 L1314.79 72.576 L1275.82 72.576 L1275.82 12.096 Z" fill="#000000" fill-rule="nonzero" fill-opacity="1" /><path clip-path="url(#clip970)" d="M1328.24 12.096 L1340.43 12.096 L1355.87 53.2532 L1371.38 12.096 L1383.58 12.096 L1383.58 72.576 L1375.6 72.576 L1375.6 19.4686 L1360 60.9499 L1351.78 60.9499 L1336.18 19.4686 L1336.18 72.576 L1328.24 72.576 L1328.24 12.096 Z" fill="#000000" fill-rule="nonzero" fill-opacity="1" /><path clip-path="url(#clip970)" d="M1471.48 16.7545 L1471.48 25.383 Q1467.35 21.5346 1462.65 19.6307 Q1457.99 17.7268 1452.73 17.7268 Q1442.35 17.7268 1436.85 24.0867 Q1431.34 30.4061 1431.34 42.3968 Q1431.34 54.3469 1436.85 60.7069 Q1442.35 67.0263 1452.73 67.0263 Q1457.99 67.0263 1462.65 65.1223 Q1467.35 63.2184 1471.48 59.3701 L1471.48 67.9175 Q1467.19 70.8341 1462.37 72.2924 Q1457.59 73.7508 1452.24 73.7508 Q1438.51 73.7508 1430.61 65.3654 Q1422.71 56.9395 1422.71 42.3968 Q1422.71 27.8135 1430.61 19.4281 Q1438.51 11.0023 1452.24 11.0023 Q1457.67 11.0023 1462.45 12.4606 Q1467.27 13.8784 1471.48 16.7545 Z" fill="#000000" fill-rule="nonzero" fill-opacity="1" /><path clip-path="url(#clip970)" d="M1501.38 32.4315 Q1495.38 32.4315 1491.9 37.1306 Q1488.41 41.7891 1488.41 49.9314 Q1488.41 58.0738 1491.86 62.7728 Q1495.34 67.4314 1501.38 67.4314 Q1507.33 67.4314 1510.82 62.7323 Q1514.3 58.0333 1514.3 49.9314 Q1514.3 41.8701 1510.82 37.1711 Q1507.33 32.4315 1501.38 32.4315 M1501.38 26.1121 Q1511.1 26.1121 1516.65 32.4315 Q1522.2 38.7509 1522.2 49.9314 Q1522.2 61.0714 1516.65 67.4314 Q1511.1 73.7508 1501.38 73.7508 Q1491.61 73.7508 1486.06 67.4314 Q1480.55 61.0714 1480.55 49.9314 Q1480.55 38.7509 1486.06 32.4315 Q1491.61 26.1121 1501.38 26.1121 Z" fill="#000000" fill-rule="nonzero" fill-opacity="1" /><path clip-path="url(#clip970)" d="M1572.27 45.1919 L1572.27 72.576 L1564.81 72.576 L1564.81 45.4349 Q1564.81 38.994 1562.3 35.7938 Q1559.79 32.5936 1554.77 32.5936 Q1548.73 32.5936 1545.25 36.4419 Q1541.76 40.2903 1541.76 46.9338 L1541.76 72.576 L1534.27 72.576 L1534.27 27.2059 L1541.76 27.2059 L1541.76 34.2544 Q1544.44 30.163 1548.04 28.1376 Q1551.69 26.1121 1556.43 26.1121 Q1564.25 26.1121 1568.26 30.9732 Q1572.27 35.7938 1572.27 45.1919 Z" fill="#000000" fill-rule="nonzero" fill-opacity="1" /><path clip-path="url(#clip970)" d="M1581.79 27.2059 L1589.69 27.2059 L1603.86 65.2844 L1618.04 27.2059 L1625.94 27.2059 L1608.93 72.576 L1598.8 72.576 L1581.79 27.2059 Z" fill="#000000" fill-rule="nonzero" fill-opacity="1" /><path clip-path="url(#clip970)" d="M1675.04 48.0275 L1675.04 51.6733 L1640.77 51.6733 Q1641.25 59.3701 1645.39 63.421 Q1649.56 67.4314 1656.97 67.4314 Q1661.27 67.4314 1665.28 66.3781 Q1669.33 65.3249 1673.3 63.2184 L1673.3 70.267 Q1669.29 71.9684 1665.07 72.8596 Q1660.86 73.7508 1656.53 73.7508 Q1645.67 73.7508 1639.31 67.4314 Q1632.99 61.1119 1632.99 50.3365 Q1632.99 39.1965 1638.99 32.6746 Q1645.02 26.1121 1655.23 26.1121 Q1664.38 26.1121 1669.69 32.0264 Q1675.04 37.9003 1675.04 48.0275 M1667.59 45.84 Q1667.5 39.7232 1664.14 36.0774 Q1660.82 32.4315 1655.31 32.4315 Q1649.07 32.4315 1645.31 35.9558 Q1641.58 39.4801 1641.01 45.8805 L1667.59 45.84 Z" fill="#000000" fill-rule="nonzero" fill-opacity="1" /><path clip-path="url(#clip970)" d="M1713.56 34.1734 Q1712.31 33.4443 1710.81 33.1202 Q1709.35 32.7556 1707.57 32.7556 Q1701.25 32.7556 1697.85 36.8875 Q1694.48 40.9789 1694.48 48.6757 L1694.48 72.576 L1686.99 72.576 L1686.99 27.2059 L1694.48 27.2059 L1694.48 34.2544 Q1696.83 30.1225 1700.6 28.1376 Q1704.37 26.1121 1709.75 26.1121 Q1710.52 26.1121 1711.46 26.2337 Q1712.39 26.3147 1713.52 26.5172 L1713.56 34.1734 Z" fill="#000000" fill-rule="nonzero" fill-opacity="1" /><path clip-path="url(#clip970)" d="M1749.78 49.3643 Q1749.78 41.2625 1746.42 36.8065 Q1743.09 32.3505 1737.06 32.3505 Q1731.06 32.3505 1727.7 36.8065 Q1724.38 41.2625 1724.38 49.3643 Q1724.38 57.4256 1727.7 61.8816 Q1731.06 66.3376 1737.06 66.3376 Q1743.09 66.3376 1746.42 61.8816 Q1749.78 57.4256 1749.78 49.3643 M1757.23 66.9452 Q1757.23 78.5308 1752.09 84.1616 Q1746.94 89.8329 1736.33 89.8329 Q1732.4 89.8329 1728.92 89.2252 Q1725.43 88.6581 1722.15 87.4428 L1722.15 80.1917 Q1725.43 81.9741 1728.63 82.8248 Q1731.83 83.6755 1735.15 83.6755 Q1742.49 83.6755 1746.13 79.8271 Q1749.78 76.0193 1749.78 68.282 L1749.78 64.5957 Q1747.47 68.6061 1743.86 70.5911 Q1740.26 72.576 1735.24 72.576 Q1726.89 72.576 1721.79 66.2161 Q1716.68 59.8562 1716.68 49.3643 Q1716.68 38.832 1721.79 32.472 Q1726.89 26.1121 1735.24 26.1121 Q1740.26 26.1121 1743.86 28.0971 Q1747.47 30.082 1749.78 34.0924 L1749.78 27.2059 L1757.23 27.2059 L1757.23 66.9452 Z" fill="#000000" fill-rule="nonzero" fill-opacity="1" /><path clip-path="url(#clip970)" d="M1811.39 48.0275 L1811.39 51.6733 L1777.12 51.6733 Q1777.61 59.3701 1781.74 63.421 Q1785.91 67.4314 1793.33 67.4314 Q1797.62 67.4314 1801.63 66.3781 Q1805.68 65.3249 1809.65 63.2184 L1809.65 70.267 Q1805.64 71.9684 1801.43 72.8596 Q1797.21 73.7508 1792.88 73.7508 Q1782.02 73.7508 1775.66 67.4314 Q1769.34 61.1119 1769.34 50.3365 Q1769.34 39.1965 1775.34 32.6746 Q1781.37 26.1121 1791.58 26.1121 Q1800.74 26.1121 1806.04 32.0264 Q1811.39 37.9003 1811.39 48.0275 M1803.94 45.84 Q1803.86 39.7232 1800.5 36.0774 Q1797.17 32.4315 1791.66 32.4315 Q1785.43 32.4315 1781.66 35.9558 Q1777.93 39.4801 1777.36 45.8805 L1803.94 45.84 Z" fill="#000000" fill-rule="nonzero" fill-opacity="1" /><path clip-path="url(#clip970)" d="M1861.34 45.1919 L1861.34 72.576 L1853.89 72.576 L1853.89 45.4349 Q1853.89 38.994 1851.37 35.7938 Q1848.86 32.5936 1843.84 32.5936 Q1837.8 32.5936 1834.32 36.4419 Q1830.84 40.2903 1830.84 46.9338 L1830.84 72.576 L1823.34 72.576 L1823.34 27.2059 L1830.84 27.2059 L1830.84 34.2544 Q1833.51 30.163 1837.12 28.1376 Q1840.76 26.1121 1845.5 26.1121 Q1853.32 26.1121 1857.33 30.9732 Q1861.34 35.7938 1861.34 45.1919 Z" fill="#000000" fill-rule="nonzero" fill-opacity="1" /><path clip-path="url(#clip970)" d="M1908.86 28.9478 L1908.86 35.9153 Q1905.7 34.1734 1902.5 33.3227 Q1899.34 32.4315 1896.1 32.4315 Q1888.85 32.4315 1884.84 37.0496 Q1880.82 41.6271 1880.82 49.9314 Q1880.82 58.2358 1884.84 62.8538 Q1888.85 67.4314 1896.1 67.4314 Q1899.34 67.4314 1902.5 66.5807 Q1905.7 65.6895 1908.86 63.9476 L1908.86 70.8341 Q1905.74 72.2924 1902.38 73.0216 Q1899.05 73.7508 1895.29 73.7508 Q1885.04 73.7508 1879 67.3098 Q1872.97 60.8689 1872.97 49.9314 Q1872.97 38.832 1879.04 32.472 Q1885.16 26.1121 1895.77 26.1121 Q1899.22 26.1121 1902.5 26.8413 Q1905.78 27.5299 1908.86 28.9478 Z" fill="#000000" fill-rule="nonzero" fill-opacity="1" /><path clip-path="url(#clip970)" d="M1960.63 48.0275 L1960.63 51.6733 L1926.36 51.6733 Q1926.84 59.3701 1930.97 63.421 Q1935.15 67.4314 1942.56 67.4314 Q1946.85 67.4314 1950.86 66.3781 Q1954.92 65.3249 1958.89 63.2184 L1958.89 70.267 Q1954.88 71.9684 1950.66 72.8596 Q1946.45 73.7508 1942.11 73.7508 Q1931.26 73.7508 1924.9 67.4314 Q1918.58 61.1119 1918.58 50.3365 Q1918.58 39.1965 1924.57 32.6746 Q1930.61 26.1121 1940.82 26.1121 Q1949.97 26.1121 1955.28 32.0264 Q1960.63 37.9003 1960.63 48.0275 M1953.17 45.84 Q1953.09 39.7232 1949.73 36.0774 Q1946.41 32.4315 1940.9 32.4315 Q1934.66 32.4315 1930.89 35.9558 Q1927.17 39.4801 1926.6 45.8805 L1953.17 45.84 Z" fill="#000000" fill-rule="nonzero" fill-opacity="1" /><polyline clip-path="url(#clip972)" style="stroke:#006400; stroke-linecap:round; stroke-linejoin:round; stroke-width:8; stroke-opacity:1; fill:none" points="462.918,1386.4 539.368,496.574 615.818,412.985 692.268,363.712 768.717,345.468 845.167,340.837 921.617,340.752 998.067,335.237 1074.52,328.768 1150.97,322.813 1227.42,316.883 1303.87,302.993 1380.32,292.641 1456.76,264.007 1533.21,207.27 1609.66,165.437 1686.11,160.256 1762.56,161.727 1839.01,162.539 1915.46,162.514 1991.91,163.137 2068.36,162.86 2144.81,162.922 2221.26,162.612 2297.71,162.41 "/>
<circle clip-path="url(#clip972)" cx="462.918" cy="1386.4" r="10.8" fill="#006400" fill-rule="evenodd" fill-opacity="1" stroke="#000000" stroke-opacity="1" stroke-width="3.2"/>
<circle clip-path="url(#clip972)" cx="539.368" cy="496.574" r="10.8" fill="#006400" fill-rule="evenodd" fill-opacity="1" stroke="#000000" stroke-opacity="1" stroke-width="3.2"/>
<circle clip-path="url(#clip972)" cx="615.818" cy="412.985" r="10.8" fill="#006400" fill-rule="evenodd" fill-opacity="1" stroke="#000000" stroke-opacity="1" stroke-width="3.2"/>
<circle clip-path="url(#clip972)" cx="692.268" cy="363.712" r="10.8" fill="#006400" fill-rule="evenodd" fill-opacity="1" stroke="#000000" stroke-opacity="1" stroke-width="3.2"/>
<circle clip-path="url(#clip972)" cx="768.717" cy="345.468" r="10.8" fill="#006400" fill-rule="evenodd" fill-opacity="1" stroke="#000000" stroke-opacity="1" stroke-width="3.2"/>
<circle clip-path="url(#clip972)" cx="845.167" cy="340.837" r="10.8" fill="#006400" fill-rule="evenodd" fill-opacity="1" stroke="#000000" stroke-opacity="1" stroke-width="3.2"/>
<circle clip-path="url(#clip972)" cx="921.617" cy="340.752" r="10.8" fill="#006400" fill-rule="evenodd" fill-opacity="1" stroke="#000000" stroke-opacity="1" stroke-width="3.2"/>
<circle clip-path="url(#clip972)" cx="998.067" cy="335.237" r="10.8" fill="#006400" fill-rule="evenodd" fill-opacity="1" stroke="#000000" stroke-opacity="1" stroke-width="3.2"/>
<circle clip-path="url(#clip972)" cx="1074.52" cy="328.768" r="10.8" fill="#006400" fill-rule="evenodd" fill-opacity="1" stroke="#000000" stroke-opacity="1" stroke-width="3.2"/>
<circle clip-path="url(#clip972)" cx="1150.97" cy="322.813" r="10.8" fill="#006400" fill-rule="evenodd" fill-opacity="1" stroke="#000000" stroke-opacity="1" stroke-width="3.2"/>
<circle clip-path="url(#clip972)" cx="1227.42" cy="316.883" r="10.8" fill="#006400" fill-rule="evenodd" fill-opacity="1" stroke="#000000" stroke-opacity="1" stroke-width="3.2"/>
<circle clip-path="url(#clip972)" cx="1303.87" cy="302.993" r="10.8" fill="#006400" fill-rule="evenodd" fill-opacity="1" stroke="#000000" stroke-opacity="1" stroke-width="3.2"/>
<circle clip-path="url(#clip972)" cx="1380.32" cy="292.641" r="10.8" fill="#006400" fill-rule="evenodd" fill-opacity="1" stroke="#000000" stroke-opacity="1" stroke-width="3.2"/>
<circle clip-path="url(#clip972)" cx="1456.76" cy="264.007" r="10.8" fill="#006400" fill-rule="evenodd" fill-opacity="1" stroke="#000000" stroke-opacity="1" stroke-width="3.2"/>
<circle clip-path="url(#clip972)" cx="1533.21" cy="207.27" r="10.8" fill="#006400" fill-rule="evenodd" fill-opacity="1" stroke="#000000" stroke-opacity="1" stroke-width="3.2"/>
<circle clip-path="url(#clip972)" cx="1609.66" cy="165.437" r="10.8" fill="#006400" fill-rule="evenodd" fill-opacity="1" stroke="#000000" stroke-opacity="1" stroke-width="3.2"/>
<circle clip-path="url(#clip972)" cx="1686.11" cy="160.256" r="10.8" fill="#006400" fill-rule="evenodd" fill-opacity="1" stroke="#000000" stroke-opacity="1" stroke-width="3.2"/>
<circle clip-path="url(#clip972)" cx="1762.56" cy="161.727" r="10.8" fill="#006400" fill-rule="evenodd" fill-opacity="1" stroke="#000000" stroke-opacity="1" stroke-width="3.2"/>
<circle clip-path="url(#clip972)" cx="1839.01" cy="162.539" r="10.8" fill="#006400" fill-rule="evenodd" fill-opacity="1" stroke="#000000" stroke-opacity="1" stroke-width="3.2"/>
<circle clip-path="url(#clip972)" cx="1915.46" cy="162.514" r="10.8" fill="#006400" fill-rule="evenodd" fill-opacity="1" stroke="#000000" stroke-opacity="1" stroke-width="3.2"/>
<circle clip-path="url(#clip972)" cx="1991.91" cy="163.137" r="10.8" fill="#006400" fill-rule="evenodd" fill-opacity="1" stroke="#000000" stroke-opacity="1" stroke-width="3.2"/>
<circle clip-path="url(#clip972)" cx="2068.36" cy="162.86" r="10.8" fill="#006400" fill-rule="evenodd" fill-opacity="1" stroke="#000000" stroke-opacity="1" stroke-width="3.2"/>
<circle clip-path="url(#clip972)" cx="2144.81" cy="162.922" r="10.8" fill="#006400" fill-rule="evenodd" fill-opacity="1" stroke="#000000" stroke-opacity="1" stroke-width="3.2"/>
<circle clip-path="url(#clip972)" cx="2221.26" cy="162.612" r="10.8" fill="#006400" fill-rule="evenodd" fill-opacity="1" stroke="#000000" stroke-opacity="1" stroke-width="3.2"/>
<circle clip-path="url(#clip972)" cx="2297.71" cy="162.41" r="10.8" fill="#006400" fill-rule="evenodd" fill-opacity="1" stroke="#000000" stroke-opacity="1" stroke-width="3.2"/>
<path clip-path="url(#clip970)" d="M1440.91 154.222 L1465.73 154.222 L1465.73 159.141 L1446.75 159.141 L1446.75 171.872 L1463.88 171.872 L1463.88 176.791 L1446.75 176.791 L1446.75 197.422 L1440.91 197.422 L1440.91 154.222 Z" fill="#000000" fill-rule="nonzero" fill-opacity="1" /><path clip-path="url(#clip970)" d="M1470.45 165.015 L1475.77 165.015 L1475.77 197.422 L1470.45 197.422 L1470.45 165.015 M1470.45 152.399 L1475.77 152.399 L1475.77 159.141 L1470.45 159.141 L1470.45 152.399 Z" fill="#000000" fill-rule="nonzero" fill-opacity="1" /><path clip-path="url(#clip970)" d="M1513.85 177.862 L1513.85 197.422 L1508.53 197.422 L1508.53 178.035 Q1508.53 173.435 1506.73 171.149 Q1504.94 168.863 1501.35 168.863 Q1497.04 168.863 1494.55 171.612 Q1492.06 174.361 1492.06 179.106 L1492.06 197.422 L1486.71 197.422 L1486.71 165.015 L1492.06 165.015 L1492.06 170.049 Q1493.97 167.127 1496.55 165.68 Q1499.15 164.233 1502.54 164.233 Q1508.12 164.233 1510.99 167.706 Q1513.85 171.149 1513.85 177.862 Z" fill="#000000" fill-rule="nonzero" fill-opacity="1" /><path clip-path="url(#clip970)" d="M1539.2 181.131 Q1532.75 181.131 1530.26 182.607 Q1527.77 184.083 1527.77 187.642 Q1527.77 190.477 1529.62 192.156 Q1531.5 193.805 1534.71 193.805 Q1539.14 193.805 1541.8 190.68 Q1544.49 187.526 1544.49 182.318 L1544.49 181.131 L1539.2 181.131 M1549.82 178.932 L1549.82 197.422 L1544.49 197.422 L1544.49 192.503 Q1542.67 195.454 1539.95 196.872 Q1537.23 198.261 1533.3 198.261 Q1528.32 198.261 1525.37 195.483 Q1522.44 192.676 1522.44 187.989 Q1522.44 182.52 1526.09 179.743 Q1529.77 176.965 1537.03 176.965 L1544.49 176.965 L1544.49 176.444 Q1544.49 172.769 1542.06 170.773 Q1539.66 168.747 1535.29 168.747 Q1532.51 168.747 1529.88 169.413 Q1527.25 170.078 1524.82 171.409 L1524.82 166.49 Q1527.74 165.362 1530.49 164.812 Q1533.24 164.233 1535.84 164.233 Q1542.87 164.233 1546.35 167.879 Q1549.82 171.525 1549.82 178.932 Z" fill="#000000" fill-rule="nonzero" fill-opacity="1" /><path clip-path="url(#clip970)" d="M1560.78 152.399 L1566.11 152.399 L1566.11 197.422 L1560.78 197.422 L1560.78 152.399 Z" fill="#000000" fill-rule="nonzero" fill-opacity="1" /><path clip-path="url(#clip970)" d="M1596.32 154.222 L1623.63 154.222 L1623.63 159.141 L1602.16 159.141 L1602.16 171.93 L1622.73 171.93 L1622.73 176.849 L1602.16 176.849 L1602.16 192.503 L1624.15 192.503 L1624.15 197.422 L1596.32 197.422 L1596.32 154.222 Z" fill="#000000" fill-rule="nonzero" fill-opacity="1" /><path clip-path="url(#clip970)" d="M1633.76 154.222 L1639.6 154.222 L1639.6 192.503 L1660.64 192.503 L1660.64 197.422 L1633.76 197.422 L1633.76 154.222 Z" fill="#000000" fill-rule="nonzero" fill-opacity="1" /><path clip-path="url(#clip970)" d="M1672.62 176.791 L1672.62 192.619 L1681.99 192.619 Q1686.71 192.619 1688.97 190.68 Q1691.25 188.712 1691.25 184.69 Q1691.25 180.64 1688.97 178.73 Q1686.71 176.791 1681.99 176.791 L1672.62 176.791 M1672.62 159.025 L1672.62 172.046 L1681.27 172.046 Q1685.55 172.046 1687.63 170.454 Q1689.75 168.834 1689.75 165.535 Q1689.75 162.266 1687.63 160.645 Q1685.55 159.025 1681.27 159.025 L1672.62 159.025 M1666.77 154.222 L1681.7 154.222 Q1688.39 154.222 1692 157 Q1695.62 159.777 1695.62 164.899 Q1695.62 168.863 1693.77 171.207 Q1691.92 173.55 1688.33 174.129 Q1692.64 175.055 1695.01 178.006 Q1697.41 180.929 1697.41 185.327 Q1697.41 191.114 1693.48 194.268 Q1689.54 197.422 1682.28 197.422 L1666.77 197.422 L1666.77 154.222 Z" fill="#000000" fill-rule="nonzero" fill-opacity="1" /><path clip-path="url(#clip970)" d="M1723.92 158.186 Q1717.55 158.186 1713.79 162.931 Q1710.06 167.677 1710.06 175.865 Q1710.06 184.025 1713.79 188.77 Q1717.55 193.516 1723.92 193.516 Q1730.29 193.516 1733.99 188.77 Q1737.72 184.025 1737.72 175.865 Q1737.72 167.677 1733.99 162.931 Q1730.29 158.186 1723.92 158.186 M1723.92 153.441 Q1733.01 153.441 1738.44 159.546 Q1743.88 165.622 1743.88 175.865 Q1743.88 186.079 1738.44 192.185 Q1733.01 198.261 1723.92 198.261 Q1714.8 198.261 1709.34 192.185 Q1703.9 186.108 1703.9 175.865 Q1703.9 165.622 1709.34 159.546 Q1714.8 153.441 1723.92 153.441 Z" fill="#000000" fill-rule="nonzero" fill-opacity="1" /><path clip-path="url(#clip970)" d="M1753.11 190.072 L1759.22 190.072 L1759.22 197.422 L1753.11 197.422 L1753.11 190.072 M1753.11 166.78 L1759.22 166.78 L1759.22 174.129 L1753.11 174.129 L1753.11 166.78 Z" fill="#000000" fill-rule="nonzero" fill-opacity="1" /><path clip-path="url(#clip970)" d="M1787.87 178.817 L1803.46 178.817 L1803.46 183.562 L1787.87 183.562 L1787.87 178.817 Z" fill="#000000" fill-rule="nonzero" fill-opacity="1" /><path clip-path="url(#clip970)" d="M1812.75 154.222 L1835.7 154.222 L1835.7 159.141 L1818.1 159.141 L1818.1 169.731 Q1819.38 169.297 1820.65 169.094 Q1821.92 168.863 1823.2 168.863 Q1830.43 168.863 1834.65 172.827 Q1838.88 176.791 1838.88 183.562 Q1838.88 190.535 1834.54 194.413 Q1830.2 198.261 1822.3 198.261 Q1819.58 198.261 1816.74 197.798 Q1813.94 197.335 1810.93 196.409 L1810.93 190.535 Q1813.53 191.953 1816.31 192.648 Q1819.09 193.342 1822.18 193.342 Q1827.19 193.342 1830.11 190.709 Q1833.03 188.076 1833.03 183.562 Q1833.03 179.048 1830.11 176.415 Q1827.19 173.782 1822.18 173.782 Q1819.84 173.782 1817.5 174.303 Q1815.18 174.824 1812.75 175.923 L1812.75 154.222 Z" fill="#000000" fill-rule="nonzero" fill-opacity="1" /><path clip-path="url(#clip970)" d="M1855.43 192.503 L1875.83 192.503 L1875.83 197.422 L1848.4 197.422 L1848.4 192.503 Q1851.73 189.06 1857.45 183.273 Q1863.21 177.457 1864.69 175.778 Q1867.5 172.625 1868.59 170.454 Q1869.72 168.255 1869.72 166.143 Q1869.72 162.7 1867.29 160.53 Q1864.89 158.36 1861.01 158.36 Q1858.26 158.36 1855.2 159.314 Q1852.16 160.269 1848.69 162.208 L1848.69 156.305 Q1852.22 154.887 1855.28 154.164 Q1858.35 153.441 1860.9 153.441 Q1867.61 153.441 1871.6 156.797 Q1875.6 160.154 1875.6 165.767 Q1875.6 168.429 1874.58 170.831 Q1873.6 173.203 1870.97 176.444 Q1870.24 177.283 1866.37 181.305 Q1862.49 185.298 1855.43 192.503 Z" fill="#000000" fill-rule="nonzero" fill-opacity="1" /><path clip-path="url(#clip970)" d="M1893.13 192.503 L1913.53 192.503 L1913.53 197.422 L1886.1 197.422 L1886.1 192.503 Q1889.43 189.06 1895.16 183.273 Q1900.92 177.457 1902.39 175.778 Q1905.2 172.625 1906.3 170.454 Q1907.43 168.255 1907.43 166.143 Q1907.43 162.7 1904.99 160.53 Q1902.59 158.36 1898.72 158.36 Q1895.97 158.36 1892.9 159.314 Q1889.86 160.269 1886.39 162.208 L1886.39 156.305 Q1889.92 154.887 1892.99 154.164 Q1896.05 153.441 1898.6 153.441 Q1905.31 153.441 1909.31 156.797 Q1913.3 160.154 1913.3 165.767 Q1913.3 168.429 1912.29 170.831 Q1911.3 173.203 1908.67 176.444 Q1907.95 177.283 1904.07 181.305 Q1900.19 185.298 1893.13 192.503 Z" fill="#000000" fill-rule="nonzero" fill-opacity="1" /><path clip-path="url(#clip970)" d="M1941.86 159.314 L1927.1 182.376 L1941.86 182.376 L1941.86 159.314 M1940.32 154.222 L1947.67 154.222 L1947.67 182.376 L1953.84 182.376 L1953.84 187.237 L1947.67 187.237 L1947.67 197.422 L1941.86 197.422 L1941.86 187.237 L1922.36 187.237 L1922.36 181.594 L1940.32 154.222 Z" fill="#000000" fill-rule="nonzero" fill-opacity="1" /><path clip-path="url(#clip970)" d="M1963.5 190.072 L1969.61 190.072 L1969.61 197.422 L1963.5 197.422 L1963.5 190.072 Z" fill="#000000" fill-rule="nonzero" fill-opacity="1" /><path clip-path="url(#clip970)" d="M1987.37 192.503 L2007.77 192.503 L2007.77 197.422 L1980.34 197.422 L1980.34 192.503 Q1983.67 189.06 1989.4 183.273 Q1995.16 177.457 1996.63 175.778 Q1999.44 172.625 2000.54 170.454 Q2001.67 168.255 2001.67 166.143 Q2001.67 162.7 1999.24 160.53 Q1996.83 158.36 1992.96 158.36 Q1990.21 158.36 1987.14 159.314 Q1984.1 160.269 1980.63 162.208 L1980.63 156.305 Q1984.16 154.887 1987.23 154.164 Q1990.3 153.441 1992.84 153.441 Q1999.55 153.441 2003.55 156.797 Q2007.54 160.154 2007.54 165.767 Q2007.54 168.429 2006.53 170.831 Q2005.54 173.203 2002.91 176.444 Q2002.19 177.283 1998.31 181.305 Q1994.43 185.298 1987.37 192.503 Z" fill="#000000" fill-rule="nonzero" fill-opacity="1" /></svg>
