<?xml version="1.0" encoding="utf-8"?>
<svg xmlns="http://www.w3.org/2000/svg" xmlns:xlink="http://www.w3.org/1999/xlink" width="600" height="400" viewBox="0 0 2400 1600">
<defs>
  <clipPath id="clip540">
    <rect x="0" y="0" width="2400" height="1600"/>
  </clipPath>
</defs>
<path clip-path="url(#clip540)" d="M0 1600 L2400 1600 L2400 0 L0 0  Z" fill="#ffffff" fill-rule="evenodd" fill-opacity="1"/>
<defs>
  <clipPath id="clip541">
    <rect x="480" y="0" width="1681" height="1600"/>
  </clipPath>
</defs>
<path clip-path="url(#clip540)" d="M302.458 1423.18 L2352.76 1423.18 L2352.76 123.472 L302.458 123.472  Z" fill="#ffffff" fill-rule="evenodd" fill-opacity="1"/>
<defs>
  <clipPath id="clip542">
    <rect x="302" y="123" width="2051" height="1301"/>
  </clipPath>
</defs>
<polyline clip-path="url(#clip542)" style="stroke:#000000; stroke-linecap:round; stroke-linejoin:round; stroke-width:2; stroke-opacity:0.1; fill:none" points="340.948,1423.18 340.948,123.472 "/>
<polyline clip-path="url(#clip542)" style="stroke:#000000; stroke-linecap:round; stroke-linejoin:round; stroke-width:2; stroke-opacity:0.1; fill:none" points="829.393,1423.18 829.393,123.472 "/>
<polyline clip-path="url(#clip542)" style="stroke:#000000; stroke-linecap:round; stroke-linejoin:round; stroke-width:2; stroke-opacity:0.1; fill:none" points="1317.84,1423.18 1317.84,123.472 "/>
<polyline clip-path="url(#clip542)" style="stroke:#000000; stroke-linecap:round; stroke-linejoin:round; stroke-width:2; stroke-opacity:0.1; fill:none" points="1806.28,1423.18 1806.28,123.472 "/>
<polyline clip-path="url(#clip542)" style="stroke:#000000; stroke-linecap:round; stroke-linejoin:round; stroke-width:2; stroke-opacity:0.1; fill:none" points="2294.73,1423.18 2294.73,123.472 "/>
<polyline clip-path="url(#clip542)" style="stroke:#000000; stroke-linecap:round; stroke-linejoin:round; stroke-width:2; stroke-opacity:0.1; fill:none" points="302.458,1211.93 2352.76,1211.93 "/>
<polyline clip-path="url(#clip542)" style="stroke:#000000; stroke-linecap:round; stroke-linejoin:round; stroke-width:2; stroke-opacity:0.1; fill:none" points="302.458,976.316 2352.76,976.316 "/>
<polyline clip-path="url(#clip542)" style="stroke:#000000; stroke-linecap:round; stroke-linejoin:round; stroke-width:2; stroke-opacity:0.1; fill:none" points="302.458,740.705 2352.76,740.705 "/>
<polyline clip-path="url(#clip542)" style="stroke:#000000; stroke-linecap:round; stroke-linejoin:round; stroke-width:2; stroke-opacity:0.1; fill:none" points="302.458,505.094 2352.76,505.094 "/>
<polyline clip-path="url(#clip542)" style="stroke:#000000; stroke-linecap:round; stroke-linejoin:round; stroke-width:2; stroke-opacity:0.1; fill:none" points="302.458,269.483 2352.76,269.483 "/>
<polyline clip-path="url(#clip540)" style="stroke:#000000; stroke-linecap:round; stroke-linejoin:round; stroke-width:4; stroke-opacity:1; fill:none" points="302.458,1423.18 2352.76,1423.18 "/>
<polyline clip-path="url(#clip540)" style="stroke:#000000; stroke-linecap:round; stroke-linejoin:round; stroke-width:4; stroke-opacity:1; fill:none" points="340.948,1423.18 340.948,1404.28 "/>
<polyline clip-path="url(#clip540)" style="stroke:#000000; stroke-linecap:round; stroke-linejoin:round; stroke-width:4; stroke-opacity:1; fill:none" points="829.393,1423.18 829.393,1404.28 "/>
<polyline clip-path="url(#clip540)" style="stroke:#000000; stroke-linecap:round; stroke-linejoin:round; stroke-width:4; stroke-opacity:1; fill:none" points="1317.84,1423.18 1317.84,1404.28 "/>
<polyline clip-path="url(#clip540)" style="stroke:#000000; stroke-linecap:round; stroke-linejoin:round; stroke-width:4; stroke-opacity:1; fill:none" points="1806.28,1423.18 1806.28,1404.28 "/>
<polyline clip-path="url(#clip540)" style="stroke:#000000; stroke-linecap:round; stroke-linejoin:round; stroke-width:4; stroke-opacity:1; fill:none" points="2294.73,1423.18 2294.73,1404.28 "/>
<path clip-path="url(#clip540)" d="M340.948 1454.1 Q337.337 1454.1 335.508 1457.66 Q333.703 1461.2 333.703 1468.33 Q333.703 1475.44 335.508 1479.01 Q337.337 1482.55 340.948 1482.55 Q344.582 1482.55 346.388 1479.01 Q348.216 1475.44 348.216 1468.33 Q348.216 1461.2 346.388 1457.66 Q344.582 1454.1 340.948 1454.1 M340.948 1450.39 Q346.758 1450.39 349.814 1455 Q352.892 1459.58 352.892 1468.33 Q352.892 1477.06 349.814 1481.67 Q346.758 1486.25 340.948 1486.25 Q335.138 1486.25 332.059 1481.67 Q329.004 1477.06 329.004 1468.33 Q329.004 1459.58 332.059 1455 Q335.138 1450.39 340.948 1450.39 Z" fill="#000000" fill-rule="nonzero" fill-opacity="1" /><path clip-path="url(#clip540)" d="M808.664 1481.64 L824.983 1481.64 L824.983 1485.58 L803.039 1485.58 L803.039 1481.64 Q805.701 1478.89 810.284 1474.26 Q814.891 1469.61 816.071 1468.27 Q818.317 1465.74 819.196 1464.01 Q820.099 1462.25 820.099 1460.56 Q820.099 1457.8 818.155 1456.07 Q816.233 1454.33 813.132 1454.33 Q810.933 1454.33 808.479 1455.09 Q806.048 1455.86 803.271 1457.41 L803.271 1452.69 Q806.095 1451.55 808.548 1450.97 Q811.002 1450.39 813.039 1450.39 Q818.409 1450.39 821.604 1453.08 Q824.798 1455.77 824.798 1460.26 Q824.798 1462.39 823.988 1464.31 Q823.201 1466.2 821.095 1468.8 Q820.516 1469.47 817.414 1472.69 Q814.312 1475.88 808.664 1481.64 Z" fill="#000000" fill-rule="nonzero" fill-opacity="1" /><path clip-path="url(#clip540)" d="M834.844 1451.02 L853.201 1451.02 L853.201 1454.96 L839.127 1454.96 L839.127 1463.43 Q840.145 1463.08 841.164 1462.92 Q842.182 1462.73 843.201 1462.73 Q848.988 1462.73 852.367 1465.9 Q855.747 1469.08 855.747 1474.49 Q855.747 1480.07 852.275 1483.17 Q848.803 1486.25 842.483 1486.25 Q840.307 1486.25 838.039 1485.88 Q835.794 1485.51 833.386 1484.77 L833.386 1480.07 Q835.469 1481.2 837.692 1481.76 Q839.914 1482.32 842.391 1482.32 Q846.395 1482.32 848.733 1480.21 Q851.071 1478.1 851.071 1474.49 Q851.071 1470.88 848.733 1468.77 Q846.395 1466.67 842.391 1466.67 Q840.516 1466.67 838.641 1467.08 Q836.789 1467.5 834.844 1468.38 L834.844 1451.02 Z" fill="#000000" fill-rule="nonzero" fill-opacity="1" /><path clip-path="url(#clip540)" d="M1292.54 1451.02 L1310.89 1451.02 L1310.89 1454.96 L1296.82 1454.96 L1296.82 1463.43 Q1297.84 1463.08 1298.86 1462.92 Q1299.88 1462.73 1300.89 1462.73 Q1306.68 1462.73 1310.06 1465.9 Q1313.44 1469.08 1313.44 1474.49 Q1313.44 1480.07 1309.97 1483.17 Q1306.5 1486.25 1300.18 1486.25 Q1298 1486.25 1295.73 1485.88 Q1293.49 1485.51 1291.08 1484.77 L1291.08 1480.07 Q1293.16 1481.2 1295.38 1481.76 Q1297.61 1482.32 1300.08 1482.32 Q1304.09 1482.32 1306.43 1480.21 Q1308.76 1478.1 1308.76 1474.49 Q1308.76 1470.88 1306.43 1468.77 Q1304.09 1466.67 1300.08 1466.67 Q1298.21 1466.67 1296.33 1467.08 Q1294.48 1467.5 1292.54 1468.38 L1292.54 1451.02 Z" fill="#000000" fill-rule="nonzero" fill-opacity="1" /><path clip-path="url(#clip540)" d="M1332.65 1454.1 Q1329.04 1454.1 1327.21 1457.66 Q1325.41 1461.2 1325.41 1468.33 Q1325.41 1475.44 1327.21 1479.01 Q1329.04 1482.55 1332.65 1482.55 Q1336.29 1482.55 1338.09 1479.01 Q1339.92 1475.44 1339.92 1468.33 Q1339.92 1461.2 1338.09 1457.66 Q1336.29 1454.1 1332.65 1454.1 M1332.65 1450.39 Q1338.46 1450.39 1341.52 1455 Q1344.6 1459.58 1344.6 1468.33 Q1344.6 1477.06 1341.52 1481.67 Q1338.46 1486.25 1332.65 1486.25 Q1326.84 1486.25 1323.76 1481.67 Q1320.71 1477.06 1320.71 1468.33 Q1320.71 1459.58 1323.76 1455 Q1326.84 1450.39 1332.65 1450.39 Z" fill="#000000" fill-rule="nonzero" fill-opacity="1" /><path clip-path="url(#clip540)" d="M1780.14 1451.02 L1802.36 1451.02 L1802.36 1453.01 L1789.81 1485.58 L1784.93 1485.58 L1796.73 1454.96 L1780.14 1454.96 L1780.14 1451.02 Z" fill="#000000" fill-rule="nonzero" fill-opacity="1" /><path clip-path="url(#clip540)" d="M1811.53 1451.02 L1829.88 1451.02 L1829.88 1454.96 L1815.81 1454.96 L1815.81 1463.43 Q1816.83 1463.08 1817.85 1462.92 Q1818.86 1462.73 1819.88 1462.73 Q1825.67 1462.73 1829.05 1465.9 Q1832.43 1469.08 1832.43 1474.49 Q1832.43 1480.07 1828.96 1483.17 Q1825.48 1486.25 1819.17 1486.25 Q1816.99 1486.25 1814.72 1485.88 Q1812.48 1485.51 1810.07 1484.77 L1810.07 1480.07 Q1812.15 1481.2 1814.37 1481.76 Q1816.6 1482.32 1819.07 1482.32 Q1823.08 1482.32 1825.42 1480.21 Q1827.75 1478.1 1827.75 1474.49 Q1827.75 1470.88 1825.42 1468.77 Q1823.08 1466.67 1819.07 1466.67 Q1817.2 1466.67 1815.32 1467.08 Q1813.47 1467.5 1811.53 1468.38 L1811.53 1451.02 Z" fill="#000000" fill-rule="nonzero" fill-opacity="1" /><path clip-path="url(#clip540)" d="M2254.34 1481.64 L2261.97 1481.64 L2261.97 1455.28 L2253.66 1456.95 L2253.66 1452.69 L2261.93 1451.02 L2266.6 1451.02 L2266.6 1481.64 L2274.24 1481.64 L2274.24 1485.58 L2254.34 1485.58 L2254.34 1481.64 Z" fill="#000000" fill-rule="nonzero" fill-opacity="1" /><path clip-path="url(#clip540)" d="M2293.69 1454.1 Q2290.08 1454.1 2288.25 1457.66 Q2286.44 1461.2 2286.44 1468.33 Q2286.44 1475.44 2288.25 1479.01 Q2290.08 1482.55 2293.69 1482.55 Q2297.32 1482.55 2299.13 1479.01 Q2300.96 1475.44 2300.96 1468.33 Q2300.96 1461.2 2299.13 1457.66 Q2297.32 1454.1 2293.69 1454.1 M2293.69 1450.39 Q2299.5 1450.39 2302.55 1455 Q2305.63 1459.58 2305.63 1468.33 Q2305.63 1477.06 2302.55 1481.67 Q2299.5 1486.25 2293.69 1486.25 Q2287.88 1486.25 2284.8 1481.67 Q2281.74 1477.06 2281.74 1468.33 Q2281.74 1459.58 2284.8 1455 Q2287.88 1450.39 2293.69 1450.39 Z" fill="#000000" fill-rule="nonzero" fill-opacity="1" /><path clip-path="url(#clip540)" d="M2323.85 1454.1 Q2320.24 1454.1 2318.41 1457.66 Q2316.6 1461.2 2316.6 1468.33 Q2316.6 1475.44 2318.41 1479.01 Q2320.24 1482.55 2323.85 1482.55 Q2327.48 1482.55 2329.29 1479.01 Q2331.12 1475.44 2331.12 1468.33 Q2331.12 1461.2 2329.29 1457.66 Q2327.48 1454.1 2323.85 1454.1 M2323.85 1450.39 Q2329.66 1450.39 2332.71 1455 Q2335.79 1459.58 2335.79 1468.33 Q2335.79 1477.06 2332.71 1481.67 Q2329.66 1486.25 2323.85 1486.25 Q2318.04 1486.25 2314.96 1481.67 Q2311.9 1477.06 2311.9 1468.33 Q2311.9 1459.58 2314.96 1455 Q2318.04 1450.39 2323.85 1450.39 Z" fill="#000000" fill-rule="nonzero" fill-opacity="1" /><path clip-path="url(#clip540)" d="M1195.33 1520.52 L1201.76 1520.52 L1201.76 1568.04 L1195.33 1568.04 L1195.33 1520.52 Z" fill="#000000" fill-rule="nonzero" fill-opacity="1" /><path clip-path="url(#clip540)" d="M1220.09 1522.27 L1220.09 1532.4 L1232.15 1532.4 L1232.15 1536.95 L1220.09 1536.95 L1220.09 1556.3 Q1220.09 1560.66 1221.27 1561.9 Q1222.48 1563.14 1226.14 1563.14 L1232.15 1563.14 L1232.15 1568.04 L1226.14 1568.04 Q1219.36 1568.04 1216.78 1565.53 Q1214.2 1562.98 1214.2 1556.3 L1214.2 1536.95 L1209.91 1536.95 L1209.91 1532.4 L1214.2 1532.4 L1214.2 1522.27 L1220.09 1522.27 Z" fill="#000000" fill-rule="nonzero" fill-opacity="1" /><path clip-path="url(#clip540)" d="M1270.35 1548.76 L1270.35 1551.62 L1243.42 1551.62 Q1243.8 1557.67 1247.05 1560.85 Q1250.33 1564 1256.15 1564 Q1259.53 1564 1262.68 1563.17 Q1265.86 1562.35 1268.98 1560.69 L1268.98 1566.23 Q1265.83 1567.57 1262.52 1568.27 Q1259.21 1568.97 1255.8 1568.97 Q1247.27 1568.97 1242.27 1564 Q1237.31 1559.04 1237.31 1550.57 Q1237.31 1541.82 1242.02 1536.69 Q1246.76 1531.54 1254.78 1531.54 Q1261.98 1531.54 1266.15 1536.18 Q1270.35 1540.8 1270.35 1548.76 M1264.49 1547.04 Q1264.43 1542.23 1261.79 1539.37 Q1259.18 1536.5 1254.85 1536.5 Q1249.95 1536.5 1246.99 1539.27 Q1244.06 1542.04 1243.61 1547.07 L1264.49 1547.04 Z" fill="#000000" fill-rule="nonzero" fill-opacity="1" /><path clip-path="url(#clip540)" d="M1300.62 1537.87 Q1299.63 1537.3 1298.45 1537.04 Q1297.31 1536.76 1295.91 1536.76 Q1290.94 1536.76 1288.27 1540 Q1285.63 1543.22 1285.63 1549.27 L1285.63 1568.04 L1279.74 1568.04 L1279.74 1532.4 L1285.63 1532.4 L1285.63 1537.93 Q1287.47 1534.69 1290.43 1533.13 Q1293.39 1531.54 1297.62 1531.54 Q1298.23 1531.54 1298.96 1531.63 Q1299.69 1531.7 1300.58 1531.85 L1300.62 1537.87 Z" fill="#000000" fill-rule="nonzero" fill-opacity="1" /><path clip-path="url(#clip540)" d="M1322.96 1550.12 Q1315.86 1550.12 1313.13 1551.75 Q1310.39 1553.37 1310.39 1557.29 Q1310.39 1560.4 1312.42 1562.25 Q1314.49 1564.07 1318.03 1564.07 Q1322.9 1564.07 1325.82 1560.63 Q1328.78 1557.16 1328.78 1551.43 L1328.78 1550.12 L1322.96 1550.12 M1334.64 1547.71 L1334.64 1568.04 L1328.78 1568.04 L1328.78 1562.63 Q1326.78 1565.88 1323.79 1567.44 Q1320.8 1568.97 1316.47 1568.97 Q1310.99 1568.97 1307.75 1565.91 Q1304.53 1562.82 1304.53 1557.67 Q1304.53 1551.65 1308.54 1548.6 Q1312.58 1545.54 1320.57 1545.54 L1328.78 1545.54 L1328.78 1544.97 Q1328.78 1540.93 1326.11 1538.73 Q1323.47 1536.5 1318.66 1536.5 Q1315.61 1536.5 1312.71 1537.23 Q1309.82 1537.97 1307.14 1539.43 L1307.14 1534.02 Q1310.36 1532.78 1313.38 1532.17 Q1316.4 1531.54 1319.27 1531.54 Q1327 1531.54 1330.82 1535.55 Q1334.64 1539.56 1334.64 1547.71 Z" fill="#000000" fill-rule="nonzero" fill-opacity="1" /><path clip-path="url(#clip540)" d="M1352.5 1522.27 L1352.5 1532.4 L1364.56 1532.4 L1364.56 1536.95 L1352.5 1536.95 L1352.5 1556.3 Q1352.5 1560.66 1353.67 1561.9 Q1354.88 1563.14 1358.54 1563.14 L1364.56 1563.14 L1364.56 1568.04 L1358.54 1568.04 Q1351.77 1568.04 1349.19 1565.53 Q1346.61 1562.98 1346.61 1556.3 L1346.61 1536.95 L1342.31 1536.95 L1342.31 1532.4 L1346.61 1532.4 L1346.61 1522.27 L1352.5 1522.27 Z" fill="#000000" fill-rule="nonzero" fill-opacity="1" /><path clip-path="url(#clip540)" d="M1372.26 1532.4 L1378.12 1532.4 L1378.12 1568.04 L1372.26 1568.04 L1372.26 1532.4 M1372.26 1518.52 L1378.12 1518.52 L1378.12 1525.93 L1372.26 1525.93 L1372.26 1518.52 Z" fill="#000000" fill-rule="nonzero" fill-opacity="1" /><path clip-path="url(#clip540)" d="M1404.19 1536.5 Q1399.48 1536.5 1396.74 1540.19 Q1394 1543.85 1394 1550.25 Q1394 1556.65 1396.71 1560.34 Q1399.44 1564 1404.19 1564 Q1408.87 1564 1411.6 1560.31 Q1414.34 1556.62 1414.34 1550.25 Q1414.34 1543.92 1411.6 1540.23 Q1408.87 1536.5 1404.19 1536.5 M1404.19 1531.54 Q1411.83 1531.54 1416.19 1536.5 Q1420.55 1541.47 1420.55 1550.25 Q1420.55 1559 1416.19 1564 Q1411.83 1568.97 1404.19 1568.97 Q1396.52 1568.97 1392.16 1564 Q1387.83 1559 1387.83 1550.25 Q1387.83 1541.47 1392.16 1536.5 Q1396.52 1531.54 1404.19 1531.54 Z" fill="#000000" fill-rule="nonzero" fill-opacity="1" /><path clip-path="url(#clip540)" d="M1459.89 1546.53 L1459.89 1568.04 L1454.03 1568.04 L1454.03 1546.72 Q1454.03 1541.66 1452.06 1539.14 Q1450.08 1536.63 1446.14 1536.63 Q1441.39 1536.63 1438.66 1539.65 Q1435.92 1542.68 1435.92 1547.9 L1435.92 1568.04 L1430.03 1568.04 L1430.03 1532.4 L1435.92 1532.4 L1435.92 1537.93 Q1438.02 1534.72 1440.85 1533.13 Q1443.72 1531.54 1447.44 1531.54 Q1453.58 1531.54 1456.74 1535.36 Q1459.89 1539.14 1459.89 1546.53 Z" fill="#000000" fill-rule="nonzero" fill-opacity="1" /><polyline clip-path="url(#clip540)" style="stroke:#000000; stroke-linecap:round; stroke-linejoin:round; stroke-width:4; stroke-opacity:1; fill:none" points="302.458,1423.18 302.458,123.472 "/>
<polyline clip-path="url(#clip540)" style="stroke:#000000; stroke-linecap:round; stroke-linejoin:round; stroke-width:4; stroke-opacity:1; fill:none" points="302.458,1211.93 321.356,1211.93 "/>
<polyline clip-path="url(#clip540)" style="stroke:#000000; stroke-linecap:round; stroke-linejoin:round; stroke-width:4; stroke-opacity:1; fill:none" points="302.458,976.316 321.356,976.316 "/>
<polyline clip-path="url(#clip540)" style="stroke:#000000; stroke-linecap:round; stroke-linejoin:round; stroke-width:4; stroke-opacity:1; fill:none" points="302.458,740.705 321.356,740.705 "/>
<polyline clip-path="url(#clip540)" style="stroke:#000000; stroke-linecap:round; stroke-linejoin:round; stroke-width:4; stroke-opacity:1; fill:none" points="302.458,505.094 321.356,505.094 "/>
<polyline clip-path="url(#clip540)" style="stroke:#000000; stroke-linecap:round; stroke-linejoin:round; stroke-width:4; stroke-opacity:1; fill:none" points="302.458,269.483 321.356,269.483 "/>
<path clip-path="url(#clip540)" d="M114.26 1212.38 L143.936 1212.38 L143.936 1216.31 L114.26 1216.31 L114.26 1212.38 Z" fill="#000000" fill-rule="nonzero" fill-opacity="1" /><path clip-path="url(#clip540)" d="M154.839 1225.27 L162.477 1225.27 L162.477 1198.91 L154.167 1200.57 L154.167 1196.31 L162.431 1194.65 L167.107 1194.65 L167.107 1225.27 L174.746 1225.27 L174.746 1229.21 L154.839 1229.21 L154.839 1225.27 Z" fill="#000000" fill-rule="nonzero" fill-opacity="1" /><path clip-path="url(#clip540)" d="M198.357 1210.57 Q201.713 1211.29 203.588 1213.56 Q205.487 1215.83 205.487 1219.16 Q205.487 1224.28 201.968 1227.08 Q198.45 1229.88 191.968 1229.88 Q189.792 1229.88 187.477 1229.44 Q185.186 1229.02 182.732 1228.17 L182.732 1223.65 Q184.676 1224.79 186.991 1225.36 Q189.306 1225.94 191.829 1225.94 Q196.227 1225.94 198.519 1224.21 Q200.834 1222.47 200.834 1219.16 Q200.834 1216.11 198.681 1214.39 Q196.551 1212.66 192.732 1212.66 L188.704 1212.66 L188.704 1208.81 L192.917 1208.81 Q196.366 1208.81 198.195 1207.45 Q200.024 1206.06 200.024 1203.47 Q200.024 1200.8 198.125 1199.39 Q196.25 1197.96 192.732 1197.96 Q190.811 1197.96 188.612 1198.37 Q186.413 1198.79 183.774 1199.67 L183.774 1195.5 Q186.436 1194.76 188.75 1194.39 Q191.088 1194.02 193.149 1194.02 Q198.473 1194.02 201.575 1196.45 Q204.676 1198.86 204.676 1202.98 Q204.676 1205.85 203.033 1207.84 Q201.389 1209.81 198.357 1210.57 Z" fill="#000000" fill-rule="nonzero" fill-opacity="1" /><path clip-path="url(#clip540)" d="M213.172 1194.65 L235.394 1194.65 L235.394 1196.64 L222.848 1229.21 L217.963 1229.21 L229.769 1198.58 L213.172 1198.58 L213.172 1194.65 Z" fill="#000000" fill-rule="nonzero" fill-opacity="1" /><path clip-path="url(#clip540)" d="M254.514 1197.73 Q250.903 1197.73 249.074 1201.29 Q247.269 1204.83 247.269 1211.96 Q247.269 1219.07 249.074 1222.63 Q250.903 1226.17 254.514 1226.17 Q258.148 1226.17 259.954 1222.63 Q261.783 1219.07 261.783 1211.96 Q261.783 1204.83 259.954 1201.29 Q258.148 1197.73 254.514 1197.73 M254.514 1194.02 Q260.324 1194.02 263.38 1198.63 Q266.458 1203.21 266.458 1211.96 Q266.458 1220.69 263.38 1225.3 Q260.324 1229.88 254.514 1229.88 Q248.704 1229.88 245.625 1225.3 Q242.57 1220.69 242.57 1211.96 Q242.57 1203.21 245.625 1198.63 Q248.704 1194.02 254.514 1194.02 Z" fill="#000000" fill-rule="nonzero" fill-opacity="1" /><path clip-path="url(#clip540)" d="M114.26 976.767 L143.936 976.767 L143.936 980.702 L114.26 980.702 L114.26 976.767 Z" fill="#000000" fill-rule="nonzero" fill-opacity="1" /><path clip-path="url(#clip540)" d="M154.839 989.661 L162.477 989.661 L162.477 963.295 L154.167 964.962 L154.167 960.703 L162.431 959.036 L167.107 959.036 L167.107 989.661 L174.746 989.661 L174.746 993.596 L154.839 993.596 L154.839 989.661 Z" fill="#000000" fill-rule="nonzero" fill-opacity="1" /><path clip-path="url(#clip540)" d="M198.357 974.962 Q201.713 975.679 203.588 977.948 Q205.487 980.216 205.487 983.55 Q205.487 988.665 201.968 991.466 Q198.45 994.267 191.968 994.267 Q189.792 994.267 187.477 993.827 Q185.186 993.411 182.732 992.554 L182.732 988.04 Q184.676 989.175 186.991 989.753 Q189.306 990.332 191.829 990.332 Q196.227 990.332 198.519 988.596 Q200.834 986.86 200.834 983.55 Q200.834 980.494 198.681 978.781 Q196.551 977.045 192.732 977.045 L188.704 977.045 L188.704 973.203 L192.917 973.203 Q196.366 973.203 198.195 971.837 Q200.024 970.448 200.024 967.855 Q200.024 965.193 198.125 963.781 Q196.25 962.346 192.732 962.346 Q190.811 962.346 188.612 962.763 Q186.413 963.179 183.774 964.059 L183.774 959.892 Q186.436 959.152 188.75 958.781 Q191.088 958.411 193.149 958.411 Q198.473 958.411 201.575 960.841 Q204.676 963.249 204.676 967.369 Q204.676 970.24 203.033 972.23 Q201.389 974.198 198.357 974.962 Z" fill="#000000" fill-rule="nonzero" fill-opacity="1" /><path clip-path="url(#clip540)" d="M224.931 974.452 Q221.783 974.452 219.931 976.605 Q218.102 978.758 218.102 982.508 Q218.102 986.235 219.931 988.411 Q221.783 990.564 224.931 990.564 Q228.079 990.564 229.908 988.411 Q231.76 986.235 231.76 982.508 Q231.76 978.758 229.908 976.605 Q228.079 974.452 224.931 974.452 M234.213 959.8 L234.213 964.059 Q232.454 963.226 230.648 962.786 Q228.866 962.346 227.107 962.346 Q222.477 962.346 220.023 965.471 Q217.593 968.596 217.246 974.915 Q218.611 972.902 220.672 971.837 Q222.732 970.749 225.209 970.749 Q230.417 970.749 233.426 973.92 Q236.459 977.068 236.459 982.508 Q236.459 987.832 233.31 991.05 Q230.162 994.267 224.931 994.267 Q218.936 994.267 215.764 989.684 Q212.593 985.077 212.593 976.351 Q212.593 968.156 216.482 963.295 Q220.371 958.411 226.922 958.411 Q228.681 958.411 230.463 958.758 Q232.269 959.105 234.213 959.8 Z" fill="#000000" fill-rule="nonzero" fill-opacity="1" /><path clip-path="url(#clip540)" d="M254.514 962.115 Q250.903 962.115 249.074 965.679 Q247.269 969.221 247.269 976.351 Q247.269 983.457 249.074 987.022 Q250.903 990.564 254.514 990.564 Q258.148 990.564 259.954 987.022 Q261.783 983.457 261.783 976.351 Q261.783 969.221 259.954 965.679 Q258.148 962.115 254.514 962.115 M254.514 958.411 Q260.324 958.411 263.38 963.017 Q266.458 967.601 266.458 976.351 Q266.458 985.077 263.38 989.684 Q260.324 994.267 254.514 994.267 Q248.704 994.267 245.625 989.684 Q242.57 985.077 242.57 976.351 Q242.57 967.601 245.625 963.017 Q248.704 958.411 254.514 958.411 Z" fill="#000000" fill-rule="nonzero" fill-opacity="1" /><path clip-path="url(#clip540)" d="M114.26 741.156 L143.936 741.156 L143.936 745.091 L114.26 745.091 L114.26 741.156 Z" fill="#000000" fill-rule="nonzero" fill-opacity="1" /><path clip-path="url(#clip540)" d="M154.839 754.05 L162.477 754.05 L162.477 727.684 L154.167 729.351 L154.167 725.091 L162.431 723.425 L167.107 723.425 L167.107 754.05 L174.746 754.05 L174.746 757.985 L154.839 757.985 L154.839 754.05 Z" fill="#000000" fill-rule="nonzero" fill-opacity="1" /><path clip-path="url(#clip540)" d="M198.357 739.351 Q201.713 740.068 203.588 742.337 Q205.487 744.605 205.487 747.939 Q205.487 753.054 201.968 755.855 Q198.45 758.656 191.968 758.656 Q189.792 758.656 187.477 758.216 Q185.186 757.8 182.732 756.943 L182.732 752.429 Q184.676 753.564 186.991 754.142 Q189.306 754.721 191.829 754.721 Q196.227 754.721 198.519 752.985 Q200.834 751.249 200.834 747.939 Q200.834 744.883 198.681 743.17 Q196.551 741.434 192.732 741.434 L188.704 741.434 L188.704 737.591 L192.917 737.591 Q196.366 737.591 198.195 736.226 Q200.024 734.837 200.024 732.244 Q200.024 729.582 198.125 728.17 Q196.25 726.735 192.732 726.735 Q190.811 726.735 188.612 727.152 Q186.413 727.568 183.774 728.448 L183.774 724.281 Q186.436 723.541 188.75 723.17 Q191.088 722.8 193.149 722.8 Q198.473 722.8 201.575 725.23 Q204.676 727.638 204.676 731.758 Q204.676 734.628 203.033 736.619 Q201.389 738.587 198.357 739.351 Z" fill="#000000" fill-rule="nonzero" fill-opacity="1" /><path clip-path="url(#clip540)" d="M214.399 723.425 L232.755 723.425 L232.755 727.36 L218.681 727.36 L218.681 735.832 Q219.699 735.485 220.718 735.323 Q221.736 735.138 222.755 735.138 Q228.542 735.138 231.922 738.309 Q235.301 741.48 235.301 746.897 Q235.301 752.476 231.829 755.577 Q228.357 758.656 222.037 758.656 Q219.861 758.656 217.593 758.286 Q215.348 757.915 212.94 757.175 L212.94 752.476 Q215.024 753.61 217.246 754.165 Q219.468 754.721 221.945 754.721 Q225.949 754.721 228.287 752.614 Q230.625 750.508 230.625 746.897 Q230.625 743.286 228.287 741.179 Q225.949 739.073 221.945 739.073 Q220.07 739.073 218.195 739.49 Q216.343 739.906 214.399 740.786 L214.399 723.425 Z" fill="#000000" fill-rule="nonzero" fill-opacity="1" /><path clip-path="url(#clip540)" d="M254.514 726.503 Q250.903 726.503 249.074 730.068 Q247.269 733.61 247.269 740.74 Q247.269 747.846 249.074 751.411 Q250.903 754.952 254.514 754.952 Q258.148 754.952 259.954 751.411 Q261.783 747.846 261.783 740.74 Q261.783 733.61 259.954 730.068 Q258.148 726.503 254.514 726.503 M254.514 722.8 Q260.324 722.8 263.38 727.406 Q266.458 731.99 266.458 740.74 Q266.458 749.466 263.38 754.073 Q260.324 758.656 254.514 758.656 Q248.704 758.656 245.625 754.073 Q242.57 749.466 242.57 740.74 Q242.57 731.99 245.625 727.406 Q248.704 722.8 254.514 722.8 Z" fill="#000000" fill-rule="nonzero" fill-opacity="1" /><path clip-path="url(#clip540)" d="M114.26 505.545 L143.936 505.545 L143.936 509.48 L114.26 509.48 L114.26 505.545 Z" fill="#000000" fill-rule="nonzero" fill-opacity="1" /><path clip-path="url(#clip540)" d="M154.839 518.439 L162.477 518.439 L162.477 492.073 L154.167 493.74 L154.167 489.48 L162.431 487.814 L167.107 487.814 L167.107 518.439 L174.746 518.439 L174.746 522.374 L154.839 522.374 L154.839 518.439 Z" fill="#000000" fill-rule="nonzero" fill-opacity="1" /><path clip-path="url(#clip540)" d="M198.357 503.74 Q201.713 504.457 203.588 506.726 Q205.487 508.994 205.487 512.327 Q205.487 517.443 201.968 520.244 Q198.45 523.045 191.968 523.045 Q189.792 523.045 187.477 522.605 Q185.186 522.188 182.732 521.332 L182.732 516.818 Q184.676 517.952 186.991 518.531 Q189.306 519.11 191.829 519.11 Q196.227 519.11 198.519 517.374 Q200.834 515.638 200.834 512.327 Q200.834 509.272 198.681 507.559 Q196.551 505.823 192.732 505.823 L188.704 505.823 L188.704 501.98 L192.917 501.98 Q196.366 501.98 198.195 500.615 Q200.024 499.226 200.024 496.633 Q200.024 493.971 198.125 492.559 Q196.25 491.124 192.732 491.124 Q190.811 491.124 188.612 491.541 Q186.413 491.957 183.774 492.837 L183.774 488.67 Q186.436 487.929 188.75 487.559 Q191.088 487.189 193.149 487.189 Q198.473 487.189 201.575 489.619 Q204.676 492.027 204.676 496.147 Q204.676 499.017 203.033 501.008 Q201.389 502.976 198.357 503.74 Z" fill="#000000" fill-rule="nonzero" fill-opacity="1" /><path clip-path="url(#clip540)" d="M227.199 491.888 L215.394 510.337 L227.199 510.337 L227.199 491.888 M225.973 487.814 L231.852 487.814 L231.852 510.337 L236.783 510.337 L236.783 514.226 L231.852 514.226 L231.852 522.374 L227.199 522.374 L227.199 514.226 L211.598 514.226 L211.598 509.712 L225.973 487.814 Z" fill="#000000" fill-rule="nonzero" fill-opacity="1" /><path clip-path="url(#clip540)" d="M254.514 490.892 Q250.903 490.892 249.074 494.457 Q247.269 497.999 247.269 505.128 Q247.269 512.235 249.074 515.8 Q250.903 519.341 254.514 519.341 Q258.148 519.341 259.954 515.8 Q261.783 512.235 261.783 505.128 Q261.783 497.999 259.954 494.457 Q258.148 490.892 254.514 490.892 M254.514 487.189 Q260.324 487.189 263.38 491.795 Q266.458 496.378 266.458 505.128 Q266.458 513.855 263.38 518.462 Q260.324 523.045 254.514 523.045 Q248.704 523.045 245.625 518.462 Q242.57 513.855 242.57 505.128 Q242.57 496.378 245.625 491.795 Q248.704 487.189 254.514 487.189 Z" fill="#000000" fill-rule="nonzero" fill-opacity="1" /><path clip-path="url(#clip540)" d="M114.26 269.934 L143.936 269.934 L143.936 273.869 L114.26 273.869 L114.26 269.934 Z" fill="#000000" fill-rule="nonzero" fill-opacity="1" /><path clip-path="url(#clip540)" d="M154.839 282.827 L162.477 282.827 L162.477 256.462 L154.167 258.128 L154.167 253.869 L162.431 252.203 L167.107 252.203 L167.107 282.827 L174.746 282.827 L174.746 286.763 L154.839 286.763 L154.839 282.827 Z" fill="#000000" fill-rule="nonzero" fill-opacity="1" /><path clip-path="url(#clip540)" d="M198.357 268.128 Q201.713 268.846 203.588 271.115 Q205.487 273.383 205.487 276.716 Q205.487 281.832 201.968 284.633 Q198.45 287.434 191.968 287.434 Q189.792 287.434 187.477 286.994 Q185.186 286.577 182.732 285.721 L182.732 281.207 Q184.676 282.341 186.991 282.92 Q189.306 283.499 191.829 283.499 Q196.227 283.499 198.519 281.763 Q200.834 280.026 200.834 276.716 Q200.834 273.661 198.681 271.948 Q196.551 270.212 192.732 270.212 L188.704 270.212 L188.704 266.369 L192.917 266.369 Q196.366 266.369 198.195 265.003 Q200.024 263.615 200.024 261.022 Q200.024 258.36 198.125 256.948 Q196.25 255.513 192.732 255.513 Q190.811 255.513 188.612 255.929 Q186.413 256.346 183.774 257.226 L183.774 253.059 Q186.436 252.318 188.75 251.948 Q191.088 251.578 193.149 251.578 Q198.473 251.578 201.575 254.008 Q204.676 256.416 204.676 260.536 Q204.676 263.406 203.033 265.397 Q201.389 267.365 198.357 268.128 Z" fill="#000000" fill-rule="nonzero" fill-opacity="1" /><path clip-path="url(#clip540)" d="M228.519 268.128 Q231.875 268.846 233.75 271.115 Q235.648 273.383 235.648 276.716 Q235.648 281.832 232.13 284.633 Q228.611 287.434 222.13 287.434 Q219.954 287.434 217.639 286.994 Q215.348 286.577 212.894 285.721 L212.894 281.207 Q214.838 282.341 217.153 282.92 Q219.468 283.499 221.991 283.499 Q226.389 283.499 228.681 281.763 Q230.996 280.026 230.996 276.716 Q230.996 273.661 228.843 271.948 Q226.713 270.212 222.894 270.212 L218.866 270.212 L218.866 266.369 L223.079 266.369 Q226.528 266.369 228.357 265.003 Q230.185 263.615 230.185 261.022 Q230.185 258.36 228.287 256.948 Q226.412 255.513 222.894 255.513 Q220.973 255.513 218.773 255.929 Q216.574 256.346 213.936 257.226 L213.936 253.059 Q216.598 252.318 218.912 251.948 Q221.25 251.578 223.31 251.578 Q228.635 251.578 231.736 254.008 Q234.838 256.416 234.838 260.536 Q234.838 263.406 233.195 265.397 Q231.551 267.365 228.519 268.128 Z" fill="#000000" fill-rule="nonzero" fill-opacity="1" /><path clip-path="url(#clip540)" d="M254.514 255.281 Q250.903 255.281 249.074 258.846 Q247.269 262.388 247.269 269.517 Q247.269 276.624 249.074 280.189 Q250.903 283.73 254.514 283.73 Q258.148 283.73 259.954 280.189 Q261.783 276.624 261.783 269.517 Q261.783 262.388 259.954 258.846 Q258.148 255.281 254.514 255.281 M254.514 251.578 Q260.324 251.578 263.38 256.184 Q266.458 260.767 266.458 269.517 Q266.458 278.244 263.38 282.851 Q260.324 287.434 254.514 287.434 Q248.704 287.434 245.625 282.851 Q242.57 278.244 242.57 269.517 Q242.57 260.767 245.625 256.184 Q248.704 251.578 254.514 251.578 Z" fill="#000000" fill-rule="nonzero" fill-opacity="1" /><path clip-path="url(#clip540)" d="M16.4842 1001.46 L16.4842 995.028 L58.5933 995.028 L58.5933 971.888 L64.0042 971.888 L64.0042 1001.46 L16.4842 1001.46 Z" fill="#000000" fill-rule="nonzero" fill-opacity="1" /><path clip-path="url(#clip540)" d="M32.4621 952.728 Q32.4621 957.438 36.1542 960.175 Q39.8145 962.913 46.212 962.913 Q52.6095 962.913 56.3017 960.207 Q59.9619 957.47 59.9619 952.728 Q59.9619 948.049 56.2698 945.311 Q52.5777 942.574 46.212 942.574 Q39.8781 942.574 36.186 945.311 Q32.4621 948.049 32.4621 952.728 M27.4968 952.728 Q27.4968 945.089 32.4621 940.728 Q37.4273 936.368 46.212 936.368 Q54.9649 936.368 59.9619 940.728 Q64.9272 945.089 64.9272 952.728 Q64.9272 960.398 59.9619 964.759 Q54.9649 969.087 46.212 969.087 Q37.4273 969.087 32.4621 964.759 Q27.4968 960.398 27.4968 952.728 Z" fill="#000000" fill-rule="nonzero" fill-opacity="1" /><path clip-path="url(#clip540)" d="M45.7664 903.202 Q39.4007 903.202 35.8996 905.844 Q32.3984 908.454 32.3984 913.196 Q32.3984 917.907 35.8996 920.549 Q39.4007 923.159 45.7664 923.159 Q52.1003 923.159 55.6014 920.549 Q59.1026 917.907 59.1026 913.196 Q59.1026 908.454 55.6014 905.844 Q52.1003 903.202 45.7664 903.202 M59.58 897.346 Q68.683 897.346 73.1071 901.388 Q77.5631 905.43 77.5631 913.769 Q77.5631 916.857 77.0857 919.594 Q76.6401 922.331 75.6852 924.909 L69.9879 924.909 Q71.3884 922.331 72.0568 919.817 Q72.7252 917.302 72.7252 914.692 Q72.7252 908.931 69.7015 906.067 Q66.7096 903.202 60.6303 903.202 L57.7339 903.202 Q60.885 905.017 62.4446 907.849 Q64.0042 910.682 64.0042 914.629 Q64.0042 921.185 59.0071 925.196 Q54.01 929.206 45.7664 929.206 Q37.491 929.206 32.4939 925.196 Q27.4968 921.185 27.4968 914.629 Q27.4968 910.682 29.0564 907.849 Q30.616 905.017 33.7671 903.202 L28.3562 903.202 L28.3562 897.346 L59.58 897.346 Z" fill="#000000" fill-rule="nonzero" fill-opacity="1" /><path clip-path="url(#clip540)" d="M43.5384 888.243 L43.5384 871.087 L48.7583 871.087 L48.7583 888.243 L43.5384 888.243 Z" fill="#000000" fill-rule="nonzero" fill-opacity="1" /><path clip-path="url(#clip540)" d="M16.4842 861.507 L16.4842 855.078 L58.5933 855.078 L58.5933 831.938 L64.0042 831.938 L64.0042 861.507 L16.4842 861.507 Z" fill="#000000" fill-rule="nonzero" fill-opacity="1" /><path clip-path="url(#clip540)" d="M28.3562 825.445 L28.3562 819.589 L64.0042 819.589 L64.0042 825.445 L28.3562 825.445 M14.479 825.445 L14.479 819.589 L21.895 819.589 L21.895 825.445 L14.479 825.445 Z" fill="#000000" fill-rule="nonzero" fill-opacity="1" /><path clip-path="url(#clip540)" d="M14.479 807.558 L14.479 801.669 L43.7294 801.669 L28.3562 784.195 L28.3562 776.716 L45.0344 795.622 L64.0042 775.92 L64.0042 783.559 L46.5939 801.669 L64.0042 801.669 L64.0042 807.558 L14.479 807.558 Z" fill="#000000" fill-rule="nonzero" fill-opacity="1" /><path clip-path="url(#clip540)" d="M44.7161 741.418 L47.5806 741.418 L47.5806 768.345 Q53.6281 767.963 56.8109 764.716 Q59.9619 761.438 59.9619 755.613 Q59.9619 752.24 59.1344 749.089 Q58.3069 745.906 56.6518 742.787 L62.1899 742.787 Q63.5267 745.938 64.227 749.248 Q64.9272 752.558 64.9272 755.964 Q64.9272 764.494 59.9619 769.491 Q54.9967 774.456 46.5303 774.456 Q37.7774 774.456 32.6531 769.745 Q27.4968 765.003 27.4968 756.982 Q27.4968 749.789 32.1438 745.619 Q36.7589 741.418 44.7161 741.418 M42.9973 747.274 Q38.1912 747.338 35.3266 749.98 Q32.4621 752.59 32.4621 756.918 Q32.4621 761.82 35.2312 764.78 Q38.0002 767.708 43.0292 768.154 L42.9973 747.274 Z" fill="#000000" fill-rule="nonzero" fill-opacity="1" /><path clip-path="url(#clip540)" d="M14.479 731.806 L14.479 725.949 L64.0042 725.949 L64.0042 731.806 L14.479 731.806 Z" fill="#000000" fill-rule="nonzero" fill-opacity="1" /><path clip-path="url(#clip540)" d="M28.3562 713.695 L28.3562 707.839 L64.0042 707.839 L64.0042 713.695 L28.3562 713.695 M14.479 713.695 L14.479 707.839 L21.895 707.839 L21.895 713.695 L14.479 713.695 Z" fill="#000000" fill-rule="nonzero" fill-opacity="1" /><path clip-path="url(#clip540)" d="M42.4881 665.952 L64.0042 665.952 L64.0042 671.809 L42.679 671.809 Q37.6183 671.809 35.1038 673.782 Q32.5894 675.756 32.5894 679.702 Q32.5894 684.445 35.6131 687.182 Q38.6368 689.919 43.8567 689.919 L64.0042 689.919 L64.0042 695.808 L14.479 695.808 L14.479 689.919 L33.8944 689.919 Q30.6797 687.819 29.0883 684.986 Q27.4968 682.121 27.4968 678.397 Q27.4968 672.254 31.3163 669.103 Q35.1038 665.952 42.4881 665.952 Z" fill="#000000" fill-rule="nonzero" fill-opacity="1" /><path clip-path="url(#clip540)" d="M32.4621 640.458 Q32.4621 645.168 36.1542 647.906 Q39.8145 650.643 46.212 650.643 Q52.6095 650.643 56.3017 647.937 Q59.9619 645.2 59.9619 640.458 Q59.9619 635.779 56.2698 633.042 Q52.5777 630.304 46.212 630.304 Q39.8781 630.304 36.186 633.042 Q32.4621 635.779 32.4621 640.458 M27.4968 640.458 Q27.4968 632.819 32.4621 628.458 Q37.4273 624.098 46.212 624.098 Q54.9649 624.098 59.9619 628.458 Q64.9272 632.819 64.9272 640.458 Q64.9272 648.128 59.9619 652.489 Q54.9649 656.818 46.212 656.818 Q37.4273 656.818 32.4621 652.489 Q27.4968 648.128 27.4968 640.458 Z" fill="#000000" fill-rule="nonzero" fill-opacity="1" /><path clip-path="url(#clip540)" d="M32.4621 600.577 Q32.4621 605.287 36.1542 608.024 Q39.8145 610.762 46.212 610.762 Q52.6095 610.762 56.3017 608.056 Q59.9619 605.319 59.9619 600.577 Q59.9619 595.898 56.2698 593.161 Q52.5777 590.423 46.212 590.423 Q39.8781 590.423 36.186 593.161 Q32.4621 595.898 32.4621 600.577 M27.4968 600.577 Q27.4968 592.938 32.4621 588.577 Q37.4273 584.217 46.212 584.217 Q54.9649 584.217 59.9619 588.577 Q64.9272 592.938 64.9272 600.577 Q64.9272 608.247 59.9619 612.608 Q54.9649 616.936 46.212 616.936 Q37.4273 616.936 32.4621 612.608 Q27.4968 608.247 27.4968 600.577 Z" fill="#000000" fill-rule="nonzero" fill-opacity="1" /><path clip-path="url(#clip540)" d="M33.7671 551.051 L14.479 551.051 L14.479 545.195 L64.0042 545.195 L64.0042 551.051 L58.657 551.051 Q61.8398 552.897 63.3994 555.73 Q64.9272 558.531 64.9272 562.478 Q64.9272 568.939 59.771 573.013 Q54.6147 577.055 46.212 577.055 Q37.8093 577.055 32.6531 573.013 Q27.4968 568.939 27.4968 562.478 Q27.4968 558.531 29.0564 555.73 Q30.5842 552.897 33.7671 551.051 M46.212 571.008 Q52.6732 571.008 56.3653 568.366 Q60.0256 565.693 60.0256 561.046 Q60.0256 556.399 56.3653 553.725 Q52.6732 551.051 46.212 551.051 Q39.7508 551.051 36.0905 553.725 Q32.3984 556.399 32.3984 561.046 Q32.3984 565.693 36.0905 568.366 Q39.7508 571.008 46.212 571.008 Z" fill="#000000" fill-rule="nonzero" fill-opacity="1" /><path clip-path="url(#clip540)" d="M985.204 12.096 L1023.45 12.096 L1023.45 18.9825 L993.387 18.9825 L993.387 36.8875 L1022.19 36.8875 L1022.19 43.7741 L993.387 43.7741 L993.387 65.6895 L1024.17 65.6895 L1024.17 72.576 L985.204 72.576 L985.204 12.096 Z" fill="#000000" fill-rule="nonzero" fill-opacity="1" /><path clip-path="url(#clip540)" d="M1037.62 12.096 L1049.82 12.096 L1065.25 53.2532 L1080.77 12.096 L1092.96 12.096 L1092.96 72.576 L1084.98 72.576 L1084.98 19.4686 L1069.38 60.9499 L1061.16 60.9499 L1045.56 19.4686 L1045.56 72.576 L1037.62 72.576 L1037.62 12.096 Z" fill="#000000" fill-rule="nonzero" fill-opacity="1" /><path clip-path="url(#clip540)" d="M1180.86 16.7545 L1180.86 25.383 Q1176.73 21.5346 1172.03 19.6307 Q1167.37 17.7268 1162.11 17.7268 Q1151.74 17.7268 1146.23 24.0867 Q1140.72 30.4061 1140.72 42.3968 Q1140.72 54.3469 1146.23 60.7069 Q1151.74 67.0263 1162.11 67.0263 Q1167.37 67.0263 1172.03 65.1223 Q1176.73 63.2184 1180.86 59.3701 L1180.86 67.9175 Q1176.57 70.8341 1171.75 72.2924 Q1166.97 73.7508 1161.62 73.7508 Q1147.89 73.7508 1139.99 65.3654 Q1132.09 56.9395 1132.09 42.3968 Q1132.09 27.8135 1139.99 19.4281 Q1147.89 11.0023 1161.62 11.0023 Q1167.05 11.0023 1171.83 12.4606 Q1176.65 13.8784 1180.86 16.7545 Z" fill="#000000" fill-rule="nonzero" fill-opacity="1" /><path clip-path="url(#clip540)" d="M1210.76 32.4315 Q1204.76 32.4315 1201.28 37.1306 Q1197.8 41.7891 1197.8 49.9314 Q1197.8 58.0738 1201.24 62.7728 Q1204.72 67.4314 1210.76 67.4314 Q1216.71 67.4314 1220.2 62.7323 Q1223.68 58.0333 1223.68 49.9314 Q1223.68 41.8701 1220.2 37.1711 Q1216.71 32.4315 1210.76 32.4315 M1210.76 26.1121 Q1220.48 26.1121 1226.03 32.4315 Q1231.58 38.7509 1231.58 49.9314 Q1231.58 61.0714 1226.03 67.4314 Q1220.48 73.7508 1210.76 73.7508 Q1201 73.7508 1195.45 67.4314 Q1189.94 61.0714 1189.94 49.9314 Q1189.94 38.7509 1195.45 32.4315 Q1201 26.1121 1210.76 26.1121 Z" fill="#000000" fill-rule="nonzero" fill-opacity="1" /><path clip-path="url(#clip540)" d="M1281.65 45.1919 L1281.65 72.576 L1274.2 72.576 L1274.2 45.4349 Q1274.2 38.994 1271.68 35.7938 Q1269.17 32.5936 1264.15 32.5936 Q1258.11 32.5936 1254.63 36.4419 Q1251.15 40.2903 1251.15 46.9338 L1251.15 72.576 L1243.65 72.576 L1243.65 27.2059 L1251.15 27.2059 L1251.15 34.2544 Q1253.82 30.163 1257.43 28.1376 Q1261.07 26.1121 1265.81 26.1121 Q1273.63 26.1121 1277.64 30.9732 Q1281.65 35.7938 1281.65 45.1919 Z" fill="#000000" fill-rule="nonzero" fill-opacity="1" /><path clip-path="url(#clip540)" d="M1291.17 27.2059 L1299.07 27.2059 L1313.25 65.2844 L1327.42 27.2059 L1335.32 27.2059 L1318.31 72.576 L1308.18 72.576 L1291.17 27.2059 Z" fill="#000000" fill-rule="nonzero" fill-opacity="1" /><path clip-path="url(#clip540)" d="M1384.42 48.0275 L1384.42 51.6733 L1350.15 51.6733 Q1350.64 59.3701 1354.77 63.421 Q1358.94 67.4314 1366.35 67.4314 Q1370.65 67.4314 1374.66 66.3781 Q1378.71 65.3249 1382.68 63.2184 L1382.68 70.267 Q1378.67 71.9684 1374.46 72.8596 Q1370.24 73.7508 1365.91 73.7508 Q1355.05 73.7508 1348.69 67.4314 Q1342.37 61.1119 1342.37 50.3365 Q1342.37 39.1965 1348.37 32.6746 Q1354.4 26.1121 1364.61 26.1121 Q1373.77 26.1121 1379.07 32.0264 Q1384.42 37.9003 1384.42 48.0275 M1376.97 45.84 Q1376.89 39.7232 1373.52 36.0774 Q1370.2 32.4315 1364.69 32.4315 Q1358.45 32.4315 1354.69 35.9558 Q1350.96 39.4801 1350.39 45.8805 L1376.97 45.84 Z" fill="#000000" fill-rule="nonzero" fill-opacity="1" /><path clip-path="url(#clip540)" d="M1422.95 34.1734 Q1421.69 33.4443 1420.19 33.1202 Q1418.73 32.7556 1416.95 32.7556 Q1410.63 32.7556 1407.23 36.8875 Q1403.87 40.9789 1403.87 48.6757 L1403.87 72.576 L1396.37 72.576 L1396.37 27.2059 L1403.87 27.2059 L1403.87 34.2544 Q1406.21 30.1225 1409.98 28.1376 Q1413.75 26.1121 1419.14 26.1121 Q1419.91 26.1121 1420.84 26.2337 Q1421.77 26.3147 1422.9 26.5172 L1422.95 34.1734 Z" fill="#000000" fill-rule="nonzero" fill-opacity="1" /><path clip-path="url(#clip540)" d="M1459.16 49.3643 Q1459.16 41.2625 1455.8 36.8065 Q1452.48 32.3505 1446.44 32.3505 Q1440.45 32.3505 1437.08 36.8065 Q1433.76 41.2625 1433.76 49.3643 Q1433.76 57.4256 1437.08 61.8816 Q1440.45 66.3376 1446.44 66.3376 Q1452.48 66.3376 1455.8 61.8816 Q1459.16 57.4256 1459.16 49.3643 M1466.61 66.9452 Q1466.61 78.5308 1461.47 84.1616 Q1456.32 89.8329 1445.71 89.8329 Q1441.78 89.8329 1438.3 89.2252 Q1434.81 88.6581 1431.53 87.4428 L1431.53 80.1917 Q1434.81 81.9741 1438.01 82.8248 Q1441.21 83.6755 1444.54 83.6755 Q1451.87 83.6755 1455.51 79.8271 Q1459.16 76.0193 1459.16 68.282 L1459.16 64.5957 Q1456.85 68.6061 1453.25 70.5911 Q1449.64 72.576 1444.62 72.576 Q1436.27 72.576 1431.17 66.2161 Q1426.06 59.8562 1426.06 49.3643 Q1426.06 38.832 1431.17 32.472 Q1436.27 26.1121 1444.62 26.1121 Q1449.64 26.1121 1453.25 28.0971 Q1456.85 30.082 1459.16 34.0924 L1459.16 27.2059 L1466.61 27.2059 L1466.61 66.9452 Z" fill="#000000" fill-rule="nonzero" fill-opacity="1" /><path clip-path="url(#clip540)" d="M1520.77 48.0275 L1520.77 51.6733 L1486.5 51.6733 Q1486.99 59.3701 1491.12 63.421 Q1495.29 67.4314 1502.71 67.4314 Q1507 67.4314 1511.01 66.3781 Q1515.06 65.3249 1519.03 63.2184 L1519.03 70.267 Q1515.02 71.9684 1510.81 72.8596 Q1506.6 73.7508 1502.26 73.7508 Q1491.41 73.7508 1485.05 67.4314 Q1478.73 61.1119 1478.73 50.3365 Q1478.73 39.1965 1484.72 32.6746 Q1490.76 26.1121 1500.97 26.1121 Q1510.12 26.1121 1515.43 32.0264 Q1520.77 37.9003 1520.77 48.0275 M1513.32 45.84 Q1513.24 39.7232 1509.88 36.0774 Q1506.56 32.4315 1501.05 32.4315 Q1494.81 32.4315 1491.04 35.9558 Q1487.31 39.4801 1486.75 45.8805 L1513.32 45.84 Z" fill="#000000" fill-rule="nonzero" fill-opacity="1" /><path clip-path="url(#clip540)" d="M1570.72 45.1919 L1570.72 72.576 L1563.27 72.576 L1563.27 45.4349 Q1563.27 38.994 1560.76 35.7938 Q1558.25 32.5936 1553.22 32.5936 Q1547.19 32.5936 1543.7 36.4419 Q1540.22 40.2903 1540.22 46.9338 L1540.22 72.576 L1532.72 72.576 L1532.72 27.2059 L1540.22 27.2059 L1540.22 34.2544 Q1542.89 30.163 1546.5 28.1376 Q1550.14 26.1121 1554.88 26.1121 Q1562.7 26.1121 1566.71 30.9732 Q1570.72 35.7938 1570.72 45.1919 Z" fill="#000000" fill-rule="nonzero" fill-opacity="1" /><path clip-path="url(#clip540)" d="M1618.24 28.9478 L1618.24 35.9153 Q1615.08 34.1734 1611.88 33.3227 Q1608.72 32.4315 1605.48 32.4315 Q1598.23 32.4315 1594.22 37.0496 Q1590.21 41.6271 1590.21 49.9314 Q1590.21 58.2358 1594.22 62.8538 Q1598.23 67.4314 1605.48 67.4314 Q1608.72 67.4314 1611.88 66.5807 Q1615.08 65.6895 1618.24 63.9476 L1618.24 70.8341 Q1615.12 72.2924 1611.76 73.0216 Q1608.44 73.7508 1604.67 73.7508 Q1594.42 73.7508 1588.38 67.3098 Q1582.35 60.8689 1582.35 49.9314 Q1582.35 38.832 1588.42 32.472 Q1594.54 26.1121 1605.15 26.1121 Q1608.6 26.1121 1611.88 26.8413 Q1615.16 27.5299 1618.24 28.9478 Z" fill="#000000" fill-rule="nonzero" fill-opacity="1" /><path clip-path="url(#clip540)" d="M1670.01 48.0275 L1670.01 51.6733 L1635.74 51.6733 Q1636.23 59.3701 1640.36 63.421 Q1644.53 67.4314 1651.94 67.4314 Q1656.24 67.4314 1660.25 66.3781 Q1664.3 65.3249 1668.27 63.2184 L1668.27 70.267 Q1664.26 71.9684 1660.04 72.8596 Q1655.83 73.7508 1651.5 73.7508 Q1640.64 73.7508 1634.28 67.4314 Q1627.96 61.1119 1627.96 50.3365 Q1627.96 39.1965 1633.96 32.6746 Q1639.99 26.1121 1650.2 26.1121 Q1659.36 26.1121 1664.66 32.0264 Q1670.01 37.9003 1670.01 48.0275 M1662.56 45.84 Q1662.48 39.7232 1659.11 36.0774 Q1655.79 32.4315 1650.28 32.4315 Q1644.04 32.4315 1640.28 35.9558 Q1636.55 39.4801 1635.98 45.8805 L1662.56 45.84 Z" fill="#000000" fill-rule="nonzero" fill-opacity="1" /><polyline clip-path="url(#clip542)" style="stroke:#009af9; stroke-linecap:round; stroke-linejoin:round; stroke-width:4; stroke-opacity:1; fill:none" points="360.486,1386.4 380.024,740.257 399.561,512.061 419.099,355.877 438.637,262.094 458.175,217.047 477.713,196.952 497.25,187.097 516.788,181.447 536.326,177.787 555.864,175.227 575.402,173.339 594.939,171.888 614.477,170.729 634.015,169.774 653.553,168.963 673.091,168.259 692.628,167.634 712.166,167.07 731.704,166.556 751.242,166.083 770.78,165.645 790.317,165.237 809.855,164.855 829.393,164.499 848.931,164.165 868.469,163.852 888.006,163.56 907.544,163.287 927.082,163.032 946.62,162.794 966.158,162.572 985.696,162.367 1005.23,162.176 1024.77,162 1044.31,161.837 1063.85,161.687 1083.38,161.549 1102.92,161.423 1122.46,161.307 1142,161.201 1161.54,161.105 1181.07,161.018 1200.61,160.938 1220.15,160.866 1239.69,160.801 1259.22,160.742 1278.76,160.689 1298.3,160.642 1317.84,160.599 1337.38,160.561 1356.91,160.526 1376.45,160.496 1395.99,160.468 1415.53,160.444 1435.07,160.422 1454.6,160.403 1474.14,160.385 1493.68,160.37 1513.22,160.357 1532.75,160.345 1552.29,160.334 1571.83,160.325 1591.37,160.316 1610.91,160.309 1630.44,160.303 1649.98,160.297 1669.52,160.292 1689.06,160.288 1708.59,160.284 1728.13,160.28 1747.67,160.277 1767.21,160.275 1786.75,160.272 1806.28,160.27 1825.82,160.268 1845.36,160.267 1864.9,160.265 1884.43,160.264 1903.97,160.263 1923.51,160.262 1943.05,160.261 1962.59,160.261 1982.12,160.26 2001.66,160.26 2021.2,160.259 2040.74,160.259 2060.27,160.258 2079.81,160.258 2099.35,160.258 2118.89,160.258 2138.43,160.257 2157.96,160.257 2177.5,160.257 2197.04,160.257 2216.58,160.257 2236.12,160.257 2255.65,160.256 2275.19,160.256 2294.73,160.256 "/>
<circle clip-path="url(#clip542)" cx="360.486" cy="1386.4" r="14.4" fill="#009af9" fill-rule="evenodd" fill-opacity="1" stroke="#000000" stroke-opacity="1" stroke-width="3.2"/>
<circle clip-path="url(#clip542)" cx="380.024" cy="740.257" r="14.4" fill="#009af9" fill-rule="evenodd" fill-opacity="1" stroke="#000000" stroke-opacity="1" stroke-width="3.2"/>
<circle clip-path="url(#clip542)" cx="399.561" cy="512.061" r="14.4" fill="#009af9" fill-rule="evenodd" fill-opacity="1" stroke="#000000" stroke-opacity="1" stroke-width="3.2"/>
<circle clip-path="url(#clip542)" cx="419.099" cy="355.877" r="14.4" fill="#009af9" fill-rule="evenodd" fill-opacity="1" stroke="#000000" stroke-opacity="1" stroke-width="3.2"/>
<circle clip-path="url(#clip542)" cx="438.637" cy="262.094" r="14.4" fill="#009af9" fill-rule="evenodd" fill-opacity="1" stroke="#000000" stroke-opacity="1" stroke-width="3.2"/>
<circle clip-path="url(#clip542)" cx="458.175" cy="217.047" r="14.4" fill="#009af9" fill-rule="evenodd" fill-opacity="1" stroke="#000000" stroke-opacity="1" stroke-width="3.2"/>
<circle clip-path="url(#clip542)" cx="477.713" cy="196.952" r="14.4" fill="#009af9" fill-rule="evenodd" fill-opacity="1" stroke="#000000" stroke-opacity="1" stroke-width="3.2"/>
<circle clip-path="url(#clip542)" cx="497.25" cy="187.097" r="14.4" fill="#009af9" fill-rule="evenodd" fill-opacity="1" stroke="#000000" stroke-opacity="1" stroke-width="3.2"/>
<circle clip-path="url(#clip542)" cx="516.788" cy="181.447" r="14.4" fill="#009af9" fill-rule="evenodd" fill-opacity="1" stroke="#000000" stroke-opacity="1" stroke-width="3.2"/>
<circle clip-path="url(#clip542)" cx="536.326" cy="177.787" r="14.4" fill="#009af9" fill-rule="evenodd" fill-opacity="1" stroke="#000000" stroke-opacity="1" stroke-width="3.2"/>
<circle clip-path="url(#clip542)" cx="555.864" cy="175.227" r="14.4" fill="#009af9" fill-rule="evenodd" fill-opacity="1" stroke="#000000" stroke-opacity="1" stroke-width="3.2"/>
<circle clip-path="url(#clip542)" cx="575.402" cy="173.339" r="14.4" fill="#009af9" fill-rule="evenodd" fill-opacity="1" stroke="#000000" stroke-opacity="1" stroke-width="3.2"/>
<circle clip-path="url(#clip542)" cx="594.939" cy="171.888" r="14.4" fill="#009af9" fill-rule="evenodd" fill-opacity="1" stroke="#000000" stroke-opacity="1" stroke-width="3.2"/>
<circle clip-path="url(#clip542)" cx="614.477" cy="170.729" r="14.4" fill="#009af9" fill-rule="evenodd" fill-opacity="1" stroke="#000000" stroke-opacity="1" stroke-width="3.2"/>
<circle clip-path="url(#clip542)" cx="634.015" cy="169.774" r="14.4" fill="#009af9" fill-rule="evenodd" fill-opacity="1" stroke="#000000" stroke-opacity="1" stroke-width="3.2"/>
<circle clip-path="url(#clip542)" cx="653.553" cy="168.963" r="14.4" fill="#009af9" fill-rule="evenodd" fill-opacity="1" stroke="#000000" stroke-opacity="1" stroke-width="3.2"/>
<circle clip-path="url(#clip542)" cx="673.091" cy="168.259" r="14.4" fill="#009af9" fill-rule="evenodd" fill-opacity="1" stroke="#000000" stroke-opacity="1" stroke-width="3.2"/>
<circle clip-path="url(#clip542)" cx="692.628" cy="167.634" r="14.4" fill="#009af9" fill-rule="evenodd" fill-opacity="1" stroke="#000000" stroke-opacity="1" stroke-width="3.2"/>
<circle clip-path="url(#clip542)" cx="712.166" cy="167.07" r="14.4" fill="#009af9" fill-rule="evenodd" fill-opacity="1" stroke="#000000" stroke-opacity="1" stroke-width="3.2"/>
<circle clip-path="url(#clip542)" cx="731.704" cy="166.556" r="14.4" fill="#009af9" fill-rule="evenodd" fill-opacity="1" stroke="#000000" stroke-opacity="1" stroke-width="3.2"/>
<circle clip-path="url(#clip542)" cx="751.242" cy="166.083" r="14.4" fill="#009af9" fill-rule="evenodd" fill-opacity="1" stroke="#000000" stroke-opacity="1" stroke-width="3.2"/>
<circle clip-path="url(#clip542)" cx="770.78" cy="165.645" r="14.4" fill="#009af9" fill-rule="evenodd" fill-opacity="1" stroke="#000000" stroke-opacity="1" stroke-width="3.2"/>
<circle clip-path="url(#clip542)" cx="790.317" cy="165.237" r="14.4" fill="#009af9" fill-rule="evenodd" fill-opacity="1" stroke="#000000" stroke-opacity="1" stroke-width="3.2"/>
<circle clip-path="url(#clip542)" cx="809.855" cy="164.855" r="14.4" fill="#009af9" fill-rule="evenodd" fill-opacity="1" stroke="#000000" stroke-opacity="1" stroke-width="3.2"/>
<circle clip-path="url(#clip542)" cx="829.393" cy="164.499" r="14.4" fill="#009af9" fill-rule="evenodd" fill-opacity="1" stroke="#000000" stroke-opacity="1" stroke-width="3.2"/>
<circle clip-path="url(#clip542)" cx="848.931" cy="164.165" r="14.4" fill="#009af9" fill-rule="evenodd" fill-opacity="1" stroke="#000000" stroke-opacity="1" stroke-width="3.2"/>
<circle clip-path="url(#clip542)" cx="868.469" cy="163.852" r="14.4" fill="#009af9" fill-rule="evenodd" fill-opacity="1" stroke="#000000" stroke-opacity="1" stroke-width="3.2"/>
<circle clip-path="url(#clip542)" cx="888.006" cy="163.56" r="14.4" fill="#009af9" fill-rule="evenodd" fill-opacity="1" stroke="#000000" stroke-opacity="1" stroke-width="3.2"/>
<circle clip-path="url(#clip542)" cx="907.544" cy="163.287" r="14.4" fill="#009af9" fill-rule="evenodd" fill-opacity="1" stroke="#000000" stroke-opacity="1" stroke-width="3.2"/>
<circle clip-path="url(#clip542)" cx="927.082" cy="163.032" r="14.4" fill="#009af9" fill-rule="evenodd" fill-opacity="1" stroke="#000000" stroke-opacity="1" stroke-width="3.2"/>
<circle clip-path="url(#clip542)" cx="946.62" cy="162.794" r="14.4" fill="#009af9" fill-rule="evenodd" fill-opacity="1" stroke="#000000" stroke-opacity="1" stroke-width="3.2"/>
<circle clip-path="url(#clip542)" cx="966.158" cy="162.572" r="14.4" fill="#009af9" fill-rule="evenodd" fill-opacity="1" stroke="#000000" stroke-opacity="1" stroke-width="3.2"/>
<circle clip-path="url(#clip542)" cx="985.696" cy="162.367" r="14.4" fill="#009af9" fill-rule="evenodd" fill-opacity="1" stroke="#000000" stroke-opacity="1" stroke-width="3.2"/>
<circle clip-path="url(#clip542)" cx="1005.23" cy="162.176" r="14.4" fill="#009af9" fill-rule="evenodd" fill-opacity="1" stroke="#000000" stroke-opacity="1" stroke-width="3.2"/>
<circle clip-path="url(#clip542)" cx="1024.77" cy="162" r="14.4" fill="#009af9" fill-rule="evenodd" fill-opacity="1" stroke="#000000" stroke-opacity="1" stroke-width="3.2"/>
<circle clip-path="url(#clip542)" cx="1044.31" cy="161.837" r="14.4" fill="#009af9" fill-rule="evenodd" fill-opacity="1" stroke="#000000" stroke-opacity="1" stroke-width="3.2"/>
<circle clip-path="url(#clip542)" cx="1063.85" cy="161.687" r="14.4" fill="#009af9" fill-rule="evenodd" fill-opacity="1" stroke="#000000" stroke-opacity="1" stroke-width="3.2"/>
<circle clip-path="url(#clip542)" cx="1083.38" cy="161.549" r="14.4" fill="#009af9" fill-rule="evenodd" fill-opacity="1" stroke="#000000" stroke-opacity="1" stroke-width="3.2"/>
<circle clip-path="url(#clip542)" cx="1102.92" cy="161.423" r="14.4" fill="#009af9" fill-rule="evenodd" fill-opacity="1" stroke="#000000" stroke-opacity="1" stroke-width="3.2"/>
<circle clip-path="url(#clip542)" cx="1122.46" cy="161.307" r="14.4" fill="#009af9" fill-rule="evenodd" fill-opacity="1" stroke="#000000" stroke-opacity="1" stroke-width="3.2"/>
<circle clip-path="url(#clip542)" cx="1142" cy="161.201" r="14.4" fill="#009af9" fill-rule="evenodd" fill-opacity="1" stroke="#000000" stroke-opacity="1" stroke-width="3.2"/>
<circle clip-path="url(#clip542)" cx="1161.54" cy="161.105" r="14.4" fill="#009af9" fill-rule="evenodd" fill-opacity="1" stroke="#000000" stroke-opacity="1" stroke-width="3.2"/>
<circle clip-path="url(#clip542)" cx="1181.07" cy="161.018" r="14.4" fill="#009af9" fill-rule="evenodd" fill-opacity="1" stroke="#000000" stroke-opacity="1" stroke-width="3.2"/>
<circle clip-path="url(#clip542)" cx="1200.61" cy="160.938" r="14.4" fill="#009af9" fill-rule="evenodd" fill-opacity="1" stroke="#000000" stroke-opacity="1" stroke-width="3.2"/>
<circle clip-path="url(#clip542)" cx="1220.15" cy="160.866" r="14.4" fill="#009af9" fill-rule="evenodd" fill-opacity="1" stroke="#000000" stroke-opacity="1" stroke-width="3.2"/>
<circle clip-path="url(#clip542)" cx="1239.69" cy="160.801" r="14.4" fill="#009af9" fill-rule="evenodd" fill-opacity="1" stroke="#000000" stroke-opacity="1" stroke-width="3.2"/>
<circle clip-path="url(#clip542)" cx="1259.22" cy="160.742" r="14.4" fill="#009af9" fill-rule="evenodd" fill-opacity="1" stroke="#000000" stroke-opacity="1" stroke-width="3.2"/>
<circle clip-path="url(#clip542)" cx="1278.76" cy="160.689" r="14.4" fill="#009af9" fill-rule="evenodd" fill-opacity="1" stroke="#000000" stroke-opacity="1" stroke-width="3.2"/>
<circle clip-path="url(#clip542)" cx="1298.3" cy="160.642" r="14.4" fill="#009af9" fill-rule="evenodd" fill-opacity="1" stroke="#000000" stroke-opacity="1" stroke-width="3.2"/>
<circle clip-path="url(#clip542)" cx="1317.84" cy="160.599" r="14.4" fill="#009af9" fill-rule="evenodd" fill-opacity="1" stroke="#000000" stroke-opacity="1" stroke-width="3.2"/>
<circle clip-path="url(#clip542)" cx="1337.38" cy="160.561" r="14.4" fill="#009af9" fill-rule="evenodd" fill-opacity="1" stroke="#000000" stroke-opacity="1" stroke-width="3.2"/>
<circle clip-path="url(#clip542)" cx="1356.91" cy="160.526" r="14.4" fill="#009af9" fill-rule="evenodd" fill-opacity="1" stroke="#000000" stroke-opacity="1" stroke-width="3.2"/>
<circle clip-path="url(#clip542)" cx="1376.45" cy="160.496" r="14.4" fill="#009af9" fill-rule="evenodd" fill-opacity="1" stroke="#000000" stroke-opacity="1" stroke-width="3.2"/>
<circle clip-path="url(#clip542)" cx="1395.99" cy="160.468" r="14.4" fill="#009af9" fill-rule="evenodd" fill-opacity="1" stroke="#000000" stroke-opacity="1" stroke-width="3.2"/>
<circle clip-path="url(#clip542)" cx="1415.53" cy="160.444" r="14.4" fill="#009af9" fill-rule="evenodd" fill-opacity="1" stroke="#000000" stroke-opacity="1" stroke-width="3.2"/>
<circle clip-path="url(#clip542)" cx="1435.07" cy="160.422" r="14.4" fill="#009af9" fill-rule="evenodd" fill-opacity="1" stroke="#000000" stroke-opacity="1" stroke-width="3.2"/>
<circle clip-path="url(#clip542)" cx="1454.6" cy="160.403" r="14.4" fill="#009af9" fill-rule="evenodd" fill-opacity="1" stroke="#000000" stroke-opacity="1" stroke-width="3.2"/>
<circle clip-path="url(#clip542)" cx="1474.14" cy="160.385" r="14.4" fill="#009af9" fill-rule="evenodd" fill-opacity="1" stroke="#000000" stroke-opacity="1" stroke-width="3.2"/>
<circle clip-path="url(#clip542)" cx="1493.68" cy="160.37" r="14.4" fill="#009af9" fill-rule="evenodd" fill-opacity="1" stroke="#000000" stroke-opacity="1" stroke-width="3.2"/>
<circle clip-path="url(#clip542)" cx="1513.22" cy="160.357" r="14.4" fill="#009af9" fill-rule="evenodd" fill-opacity="1" stroke="#000000" stroke-opacity="1" stroke-width="3.2"/>
<circle clip-path="url(#clip542)" cx="1532.75" cy="160.345" r="14.4" fill="#009af9" fill-rule="evenodd" fill-opacity="1" stroke="#000000" stroke-opacity="1" stroke-width="3.2"/>
<circle clip-path="url(#clip542)" cx="1552.29" cy="160.334" r="14.4" fill="#009af9" fill-rule="evenodd" fill-opacity="1" stroke="#000000" stroke-opacity="1" stroke-width="3.2"/>
<circle clip-path="url(#clip542)" cx="1571.83" cy="160.325" r="14.4" fill="#009af9" fill-rule="evenodd" fill-opacity="1" stroke="#000000" stroke-opacity="1" stroke-width="3.2"/>
<circle clip-path="url(#clip542)" cx="1591.37" cy="160.316" r="14.4" fill="#009af9" fill-rule="evenodd" fill-opacity="1" stroke="#000000" stroke-opacity="1" stroke-width="3.2"/>
<circle clip-path="url(#clip542)" cx="1610.91" cy="160.309" r="14.4" fill="#009af9" fill-rule="evenodd" fill-opacity="1" stroke="#000000" stroke-opacity="1" stroke-width="3.2"/>
<circle clip-path="url(#clip542)" cx="1630.44" cy="160.303" r="14.4" fill="#009af9" fill-rule="evenodd" fill-opacity="1" stroke="#000000" stroke-opacity="1" stroke-width="3.2"/>
<circle clip-path="url(#clip542)" cx="1649.98" cy="160.297" r="14.4" fill="#009af9" fill-rule="evenodd" fill-opacity="1" stroke="#000000" stroke-opacity="1" stroke-width="3.2"/>
<circle clip-path="url(#clip542)" cx="1669.52" cy="160.292" r="14.4" fill="#009af9" fill-rule="evenodd" fill-opacity="1" stroke="#000000" stroke-opacity="1" stroke-width="3.2"/>
<circle clip-path="url(#clip542)" cx="1689.06" cy="160.288" r="14.4" fill="#009af9" fill-rule="evenodd" fill-opacity="1" stroke="#000000" stroke-opacity="1" stroke-width="3.2"/>
<circle clip-path="url(#clip542)" cx="1708.59" cy="160.284" r="14.4" fill="#009af9" fill-rule="evenodd" fill-opacity="1" stroke="#000000" stroke-opacity="1" stroke-width="3.2"/>
<circle clip-path="url(#clip542)" cx="1728.13" cy="160.28" r="14.4" fill="#009af9" fill-rule="evenodd" fill-opacity="1" stroke="#000000" stroke-opacity="1" stroke-width="3.2"/>
<circle clip-path="url(#clip542)" cx="1747.67" cy="160.277" r="14.4" fill="#009af9" fill-rule="evenodd" fill-opacity="1" stroke="#000000" stroke-opacity="1" stroke-width="3.2"/>
<circle clip-path="url(#clip542)" cx="1767.21" cy="160.275" r="14.4" fill="#009af9" fill-rule="evenodd" fill-opacity="1" stroke="#000000" stroke-opacity="1" stroke-width="3.2"/>
<circle clip-path="url(#clip542)" cx="1786.75" cy="160.272" r="14.4" fill="#009af9" fill-rule="evenodd" fill-opacity="1" stroke="#000000" stroke-opacity="1" stroke-width="3.2"/>
<circle clip-path="url(#clip542)" cx="1806.28" cy="160.27" r="14.4" fill="#009af9" fill-rule="evenodd" fill-opacity="1" stroke="#000000" stroke-opacity="1" stroke-width="3.2"/>
<circle clip-path="url(#clip542)" cx="1825.82" cy="160.268" r="14.4" fill="#009af9" fill-rule="evenodd" fill-opacity="1" stroke="#000000" stroke-opacity="1" stroke-width="3.2"/>
<circle clip-path="url(#clip542)" cx="1845.36" cy="160.267" r="14.4" fill="#009af9" fill-rule="evenodd" fill-opacity="1" stroke="#000000" stroke-opacity="1" stroke-width="3.2"/>
<circle clip-path="url(#clip542)" cx="1864.9" cy="160.265" r="14.4" fill="#009af9" fill-rule="evenodd" fill-opacity="1" stroke="#000000" stroke-opacity="1" stroke-width="3.2"/>
<circle clip-path="url(#clip542)" cx="1884.43" cy="160.264" r="14.4" fill="#009af9" fill-rule="evenodd" fill-opacity="1" stroke="#000000" stroke-opacity="1" stroke-width="3.2"/>
<circle clip-path="url(#clip542)" cx="1903.97" cy="160.263" r="14.4" fill="#009af9" fill-rule="evenodd" fill-opacity="1" stroke="#000000" stroke-opacity="1" stroke-width="3.2"/>
<circle clip-path="url(#clip542)" cx="1923.51" cy="160.262" r="14.4" fill="#009af9" fill-rule="evenodd" fill-opacity="1" stroke="#000000" stroke-opacity="1" stroke-width="3.2"/>
<circle clip-path="url(#clip542)" cx="1943.05" cy="160.261" r="14.4" fill="#009af9" fill-rule="evenodd" fill-opacity="1" stroke="#000000" stroke-opacity="1" stroke-width="3.2"/>
<circle clip-path="url(#clip542)" cx="1962.59" cy="160.261" r="14.4" fill="#009af9" fill-rule="evenodd" fill-opacity="1" stroke="#000000" stroke-opacity="1" stroke-width="3.2"/>
<circle clip-path="url(#clip542)" cx="1982.12" cy="160.26" r="14.4" fill="#009af9" fill-rule="evenodd" fill-opacity="1" stroke="#000000" stroke-opacity="1" stroke-width="3.2"/>
<circle clip-path="url(#clip542)" cx="2001.66" cy="160.26" r="14.4" fill="#009af9" fill-rule="evenodd" fill-opacity="1" stroke="#000000" stroke-opacity="1" stroke-width="3.2"/>
<circle clip-path="url(#clip542)" cx="2021.2" cy="160.259" r="14.4" fill="#009af9" fill-rule="evenodd" fill-opacity="1" stroke="#000000" stroke-opacity="1" stroke-width="3.2"/>
<circle clip-path="url(#clip542)" cx="2040.74" cy="160.259" r="14.4" fill="#009af9" fill-rule="evenodd" fill-opacity="1" stroke="#000000" stroke-opacity="1" stroke-width="3.2"/>
<circle clip-path="url(#clip542)" cx="2060.27" cy="160.258" r="14.4" fill="#009af9" fill-rule="evenodd" fill-opacity="1" stroke="#000000" stroke-opacity="1" stroke-width="3.2"/>
<circle clip-path="url(#clip542)" cx="2079.81" cy="160.258" r="14.4" fill="#009af9" fill-rule="evenodd" fill-opacity="1" stroke="#000000" stroke-opacity="1" stroke-width="3.2"/>
<circle clip-path="url(#clip542)" cx="2099.35" cy="160.258" r="14.4" fill="#009af9" fill-rule="evenodd" fill-opacity="1" stroke="#000000" stroke-opacity="1" stroke-width="3.2"/>
<circle clip-path="url(#clip542)" cx="2118.89" cy="160.258" r="14.4" fill="#009af9" fill-rule="evenodd" fill-opacity="1" stroke="#000000" stroke-opacity="1" stroke-width="3.2"/>
<circle clip-path="url(#clip542)" cx="2138.43" cy="160.257" r="14.4" fill="#009af9" fill-rule="evenodd" fill-opacity="1" stroke="#000000" stroke-opacity="1" stroke-width="3.2"/>
<circle clip-path="url(#clip542)" cx="2157.96" cy="160.257" r="14.4" fill="#009af9" fill-rule="evenodd" fill-opacity="1" stroke="#000000" stroke-opacity="1" stroke-width="3.2"/>
<circle clip-path="url(#clip542)" cx="2177.5" cy="160.257" r="14.4" fill="#009af9" fill-rule="evenodd" fill-opacity="1" stroke="#000000" stroke-opacity="1" stroke-width="3.2"/>
<circle clip-path="url(#clip542)" cx="2197.04" cy="160.257" r="14.4" fill="#009af9" fill-rule="evenodd" fill-opacity="1" stroke="#000000" stroke-opacity="1" stroke-width="3.2"/>
<circle clip-path="url(#clip542)" cx="2216.58" cy="160.257" r="14.4" fill="#009af9" fill-rule="evenodd" fill-opacity="1" stroke="#000000" stroke-opacity="1" stroke-width="3.2"/>
<circle clip-path="url(#clip542)" cx="2236.12" cy="160.257" r="14.4" fill="#009af9" fill-rule="evenodd" fill-opacity="1" stroke="#000000" stroke-opacity="1" stroke-width="3.2"/>
<circle clip-path="url(#clip542)" cx="2255.65" cy="160.256" r="14.4" fill="#009af9" fill-rule="evenodd" fill-opacity="1" stroke="#000000" stroke-opacity="1" stroke-width="3.2"/>
<circle clip-path="url(#clip542)" cx="2275.19" cy="160.256" r="14.4" fill="#009af9" fill-rule="evenodd" fill-opacity="1" stroke="#000000" stroke-opacity="1" stroke-width="3.2"/>
<circle clip-path="url(#clip542)" cx="2294.73" cy="160.256" r="14.4" fill="#009af9" fill-rule="evenodd" fill-opacity="1" stroke="#000000" stroke-opacity="1" stroke-width="3.2"/>
<path clip-path="url(#clip540)" d="M1766.42 1379.86 L2284.41 1379.86 L2284.41 1276.18 L1766.42 1276.18  Z" fill="#ffffff" fill-rule="evenodd" fill-opacity="1"/>
<polyline clip-path="url(#clip540)" style="stroke:#000000; stroke-linecap:round; stroke-linejoin:round; stroke-width:4; stroke-opacity:1; fill:none" points="1766.42,1379.86 2284.41,1379.86 2284.41,1276.18 1766.42,1276.18 1766.42,1379.86 "/>
<polyline clip-path="url(#clip540)" style="stroke:#009af9; stroke-linecap:round; stroke-linejoin:round; stroke-width:4; stroke-opacity:1; fill:none" points="1789.2,1328.02 1925.89,1328.02 "/>
<circle clip-path="url(#clip540)" cx="1857.55" cy="1328.02" r="18.9842" fill="#009af9" fill-rule="evenodd" fill-opacity="1" stroke="#000000" stroke-opacity="1" stroke-width="4.55111"/>
<path clip-path="url(#clip540)" d="M1948.67 1309.28 L1952.93 1309.28 L1952.93 1345.3 L1948.67 1345.3 L1948.67 1309.28 Z" fill="#000000" fill-rule="nonzero" fill-opacity="1" /><path clip-path="url(#clip540)" d="M1971.89 1322.36 Q1968.46 1322.36 1966.47 1325.04 Q1964.48 1327.7 1964.48 1332.36 Q1964.48 1337.01 1966.45 1339.69 Q1968.44 1342.36 1971.89 1342.36 Q1975.29 1342.36 1977.28 1339.67 Q1979.27 1336.99 1979.27 1332.36 Q1979.27 1327.75 1977.28 1325.06 Q1975.29 1322.36 1971.89 1322.36 M1971.89 1318.75 Q1977.44 1318.75 1980.61 1322.36 Q1983.79 1325.97 1983.79 1332.36 Q1983.79 1338.72 1980.61 1342.36 Q1977.44 1345.97 1971.89 1345.97 Q1966.31 1345.97 1963.14 1342.36 Q1959.99 1338.72 1959.99 1332.36 Q1959.99 1325.97 1963.14 1322.36 Q1966.31 1318.75 1971.89 1318.75 Z" fill="#000000" fill-rule="nonzero" fill-opacity="1" /><path clip-path="url(#clip540)" d="M2007.91 1332.03 Q2007.91 1327.4 2005.98 1324.86 Q2004.09 1322.31 2000.64 1322.31 Q1997.21 1322.31 1995.29 1324.86 Q1993.39 1327.4 1993.39 1332.03 Q1993.39 1336.64 1995.29 1339.19 Q1997.21 1341.73 2000.64 1341.73 Q2004.09 1341.73 2005.98 1339.19 Q2007.91 1336.64 2007.91 1332.03 M2012.17 1342.08 Q2012.17 1348.7 2009.23 1351.92 Q2006.29 1355.16 2000.22 1355.16 Q1997.98 1355.16 1995.98 1354.81 Q1993.99 1354.49 1992.12 1353.79 L1992.12 1349.65 Q1993.99 1350.67 1995.82 1351.15 Q1997.65 1351.64 1999.55 1351.64 Q2003.74 1351.64 2005.82 1349.44 Q2007.91 1347.26 2007.91 1342.84 L2007.91 1340.74 Q2006.59 1343.03 2004.53 1344.16 Q2002.47 1345.3 1999.6 1345.3 Q1994.83 1345.3 1991.91 1341.66 Q1988.99 1338.03 1988.99 1332.03 Q1988.99 1326.01 1991.91 1322.38 Q1994.83 1318.75 1999.6 1318.75 Q2002.47 1318.75 2004.53 1319.88 Q2006.59 1321.01 2007.91 1323.31 L2007.91 1319.37 L2012.17 1319.37 L2012.17 1342.08 Z" fill="#000000" fill-rule="nonzero" fill-opacity="1" /><path clip-path="url(#clip540)" d="M2040.64 1353.17 L2040.64 1356.48 L2016.01 1356.48 L2016.01 1353.17 L2040.64 1353.17 Z" fill="#000000" fill-rule="nonzero" fill-opacity="1" /><path clip-path="url(#clip540)" d="M2044.64 1309.28 L2048.9 1309.28 L2048.9 1345.3 L2044.64 1345.3 L2044.64 1309.28 Z" fill="#000000" fill-rule="nonzero" fill-opacity="1" /><path clip-path="url(#clip540)" d="M2057.81 1319.37 L2062.07 1319.37 L2062.07 1345.3 L2057.81 1345.3 L2057.81 1319.37 M2057.81 1309.28 L2062.07 1309.28 L2062.07 1314.67 L2057.81 1314.67 L2057.81 1309.28 Z" fill="#000000" fill-rule="nonzero" fill-opacity="1" /><path clip-path="url(#clip540)" d="M2070.82 1309.28 L2075.1 1309.28 L2075.1 1330.55 L2087.81 1319.37 L2093.25 1319.37 L2079.5 1331.5 L2093.83 1345.3 L2088.28 1345.3 L2075.1 1332.63 L2075.1 1345.3 L2070.82 1345.3 L2070.82 1309.28 Z" fill="#000000" fill-rule="nonzero" fill-opacity="1" /><path clip-path="url(#clip540)" d="M2118.92 1331.27 L2118.92 1333.35 L2099.34 1333.35 Q2099.62 1337.75 2101.98 1340.06 Q2104.36 1342.36 2108.6 1342.36 Q2111.05 1342.36 2113.35 1341.75 Q2115.66 1341.15 2117.93 1339.95 L2117.93 1343.98 Q2115.64 1344.95 2113.23 1345.46 Q2110.82 1345.97 2108.35 1345.97 Q2102.14 1345.97 2098.51 1342.36 Q2094.9 1338.75 2094.9 1332.59 Q2094.9 1326.22 2098.32 1322.5 Q2101.77 1318.75 2107.6 1318.75 Q2112.84 1318.75 2115.87 1322.13 Q2118.92 1325.48 2118.92 1331.27 M2114.66 1330.02 Q2114.62 1326.52 2112.7 1324.44 Q2110.8 1322.36 2107.65 1322.36 Q2104.09 1322.36 2101.93 1324.37 Q2099.8 1326.38 2099.48 1330.04 L2114.66 1330.02 Z" fill="#000000" fill-rule="nonzero" fill-opacity="1" /><path clip-path="url(#clip540)" d="M2125.91 1309.28 L2130.17 1309.28 L2130.17 1345.3 L2125.91 1345.3 L2125.91 1309.28 Z" fill="#000000" fill-rule="nonzero" fill-opacity="1" /><path clip-path="url(#clip540)" d="M2139.09 1319.37 L2143.35 1319.37 L2143.35 1345.3 L2139.09 1345.3 L2139.09 1319.37 M2139.09 1309.28 L2143.35 1309.28 L2143.35 1314.67 L2139.09 1314.67 L2139.09 1309.28 Z" fill="#000000" fill-rule="nonzero" fill-opacity="1" /><path clip-path="url(#clip540)" d="M2173.81 1329.65 L2173.81 1345.3 L2169.55 1345.3 L2169.55 1329.79 Q2169.55 1326.11 2168.11 1324.28 Q2166.68 1322.45 2163.81 1322.45 Q2160.36 1322.45 2158.37 1324.65 Q2156.38 1326.85 2156.38 1330.64 L2156.38 1345.3 L2152.1 1345.3 L2152.1 1309.28 L2156.38 1309.28 L2156.38 1323.4 Q2157.91 1321.06 2159.97 1319.9 Q2162.05 1318.75 2164.76 1318.75 Q2169.22 1318.75 2171.52 1321.52 Q2173.81 1324.28 2173.81 1329.65 Z" fill="#000000" fill-rule="nonzero" fill-opacity="1" /><path clip-path="url(#clip540)" d="M2192.35 1322.36 Q2188.92 1322.36 2186.93 1325.04 Q2184.94 1327.7 2184.94 1332.36 Q2184.94 1337.01 2186.91 1339.69 Q2188.9 1342.36 2192.35 1342.36 Q2195.75 1342.36 2197.74 1339.67 Q2199.73 1336.99 2199.73 1332.36 Q2199.73 1327.75 2197.74 1325.06 Q2195.75 1322.36 2192.35 1322.36 M2192.35 1318.75 Q2197.91 1318.75 2201.08 1322.36 Q2204.25 1325.97 2204.25 1332.36 Q2204.25 1338.72 2201.08 1342.36 Q2197.91 1345.97 2192.35 1345.97 Q2186.77 1345.97 2183.6 1342.36 Q2180.45 1338.72 2180.45 1332.36 Q2180.45 1325.97 2183.6 1322.36 Q2186.77 1318.75 2192.35 1318.75 Z" fill="#000000" fill-rule="nonzero" fill-opacity="1" /><path clip-path="url(#clip540)" d="M2221.35 1322.36 Q2217.93 1322.36 2215.94 1325.04 Q2213.95 1327.7 2213.95 1332.36 Q2213.95 1337.01 2215.91 1339.69 Q2217.9 1342.36 2221.35 1342.36 Q2224.76 1342.36 2226.75 1339.67 Q2228.74 1336.99 2228.74 1332.36 Q2228.74 1327.75 2226.75 1325.06 Q2224.76 1322.36 2221.35 1322.36 M2221.35 1318.75 Q2226.91 1318.75 2230.08 1322.36 Q2233.25 1325.97 2233.25 1332.36 Q2233.25 1338.72 2230.08 1342.36 Q2226.91 1345.97 2221.35 1345.97 Q2215.78 1345.97 2212.6 1342.36 Q2209.46 1338.72 2209.46 1332.36 Q2209.46 1325.97 2212.6 1322.36 Q2215.78 1318.75 2221.35 1318.75 Z" fill="#000000" fill-rule="nonzero" fill-opacity="1" /><path clip-path="url(#clip540)" d="M2257.37 1323.31 L2257.37 1309.28 L2261.63 1309.28 L2261.63 1345.3 L2257.37 1345.3 L2257.37 1341.41 Q2256.03 1343.72 2253.97 1344.86 Q2251.93 1345.97 2249.06 1345.97 Q2244.36 1345.97 2241.4 1342.22 Q2238.46 1338.47 2238.46 1332.36 Q2238.46 1326.25 2241.4 1322.5 Q2244.36 1318.75 2249.06 1318.75 Q2251.93 1318.75 2253.97 1319.88 Q2256.03 1320.99 2257.37 1323.31 M2242.86 1332.36 Q2242.86 1337.06 2244.78 1339.74 Q2246.72 1342.4 2250.1 1342.4 Q2253.48 1342.4 2255.43 1339.74 Q2257.37 1337.06 2257.37 1332.36 Q2257.37 1327.66 2255.43 1325 Q2253.48 1322.31 2250.1 1322.31 Q2246.72 1322.31 2244.78 1325 Q2242.86 1327.66 2242.86 1332.36 Z" fill="#000000" fill-rule="nonzero" fill-opacity="1" /></svg>
