<?xml version="1.0" encoding="utf-8"?>
<svg xmlns="http://www.w3.org/2000/svg" xmlns:xlink="http://www.w3.org/1999/xlink" width="600" height="400" viewBox="0 0 2400 1600">
<defs>
  <clipPath id="clip080">
    <rect x="0" y="0" width="2400" height="1600"/>
  </clipPath>
</defs>
<path clip-path="url(#clip080)" d="M0 1600 L2400 1600 L2400 0 L0 0  Z" fill="#ffffff" fill-rule="evenodd" fill-opacity="1"/>
<defs>
  <clipPath id="clip081">
    <rect x="480" y="0" width="1681" height="1600"/>
  </clipPath>
</defs>
<path clip-path="url(#clip080)" d="M157.754 1552.76 L2352.76 1552.76 L2352.76 123.472 L157.754 123.472  Z" fill="#ffffff" fill-rule="evenodd" fill-opacity="1"/>
<defs>
  <clipPath id="clip082">
    <rect x="157" y="123" width="2196" height="1430"/>
  </clipPath>
</defs>
<polyline clip-path="url(#clip082)" style="stroke:#000000; stroke-linecap:round; stroke-linejoin:round; stroke-width:2; stroke-opacity:0.1; fill:none" points="157.754,1021.97 2352.76,1021.97 "/>
<polyline clip-path="url(#clip082)" style="stroke:#000000; stroke-linecap:round; stroke-linejoin:round; stroke-width:2; stroke-opacity:0.1; fill:none" points="157.754,531.628 2352.76,531.628 "/>
<polyline clip-path="url(#clip080)" style="stroke:#000000; stroke-linecap:round; stroke-linejoin:round; stroke-width:4; stroke-opacity:1; fill:none" points="157.754,1552.76 2352.76,1552.76 "/>
<polyline clip-path="url(#clip080)" style="stroke:#000000; stroke-linecap:round; stroke-linejoin:round; stroke-width:4; stroke-opacity:1; fill:none" points="157.754,1552.76 157.754,123.472 "/>
<polyline clip-path="url(#clip080)" style="stroke:#000000; stroke-linecap:round; stroke-linejoin:round; stroke-width:4; stroke-opacity:1; fill:none" points="157.754,1021.97 176.651,1021.97 "/>
<polyline clip-path="url(#clip080)" style="stroke:#000000; stroke-linecap:round; stroke-linejoin:round; stroke-width:4; stroke-opacity:1; fill:none" points="157.754,531.628 176.651,531.628 "/>
<path clip-path="url(#clip080)" d="M90.2847 1000.29 Q90.2847 1002.26 89.055 1003.38 Q87.8254 1004.47 86.42 1004.47 Q85.0849 1004.47 84.3823 1003.7 Q83.6796 1002.92 83.6796 1001.94 Q83.6796 1000.6 84.6633 999.445 Q85.6471 998.286 87.1227 998.04 Q85.6822 997.126 83.5391 997.126 Q82.1337 997.126 80.904 997.864 Q79.7095 998.602 78.9717 999.551 Q78.269 1000.5 77.6366 1001.87 Q77.0393 1003.2 76.7934 1004.01 Q76.5826 1004.79 76.4069 1005.63 L73.9476 1015.47 Q72.753 1020.14 72.753 1021.79 Q72.753 1023.83 73.7368 1025.2 Q74.7205 1026.53 76.688 1026.53 Q77.4609 1026.53 78.3393 1026.32 Q79.2176 1026.08 80.3419 1025.44 Q81.5013 1024.78 82.5202 1023.79 Q83.5742 1022.77 84.5931 1021.05 Q85.6119 1019.33 86.2795 1017.12 Q86.4903 1016.34 87.193 1016.34 Q88.0713 1016.34 88.0713 1017.05 Q88.0713 1017.64 87.5794 1018.91 Q87.1227 1020.14 86.1038 1021.76 Q85.1201 1023.34 83.8201 1024.78 Q82.5202 1026.18 80.5878 1027.17 Q78.6555 1028.15 76.5475 1028.15 Q73.526 1028.15 71.5233 1026.53 Q69.5207 1024.92 68.7829 1022.67 Q68.6072 1022.98 68.3613 1023.41 Q68.1154 1023.83 67.3776 1024.78 Q66.6749 1025.69 65.8668 1026.39 Q65.0587 1027.06 63.7939 1027.59 Q62.5643 1028.15 61.2292 1028.15 Q59.5428 1028.15 58.032 1027.66 Q56.5564 1027.17 55.5024 1026.04 Q54.4484 1024.92 54.4484 1023.37 Q54.4484 1021.65 55.6078 1020.46 Q56.8023 1019.23 58.4185 1019.23 Q59.4374 1019.23 60.2454 1019.82 Q61.0886 1020.42 61.0886 1021.72 Q61.0886 1023.16 60.1049 1024.25 Q59.1212 1025.34 57.7158 1025.62 Q59.1563 1026.53 61.2994 1026.53 Q63.6183 1026.53 65.4452 1024.5 Q67.2722 1022.46 68.1505 1019.05 Q70.3288 1010.86 71.172 1007.21 Q72.0152 1003.52 72.0152 1001.94 Q72.0152 1000.46 71.6287 999.445 Q71.2423 998.426 70.5747 997.97 Q69.9423 997.478 69.3451 997.302 Q68.7829 997.126 68.1505 997.126 Q67.0965 997.126 65.902 997.548 Q64.7425 997.97 63.3372 998.953 Q61.967 999.902 60.667 1001.87 Q59.3671 1003.84 58.4887 1006.54 Q58.3131 1007.35 57.5401 1007.35 Q56.6969 1007.32 56.6969 1006.61 Q56.6969 1006.02 57.1537 1004.79 Q57.6455 1003.52 58.6293 1001.94 Q59.6482 1000.36 60.9481 998.953 Q62.2832 997.513 64.2155 996.529 Q66.183 995.545 68.291 995.545 Q69.2396 995.545 70.1531 995.756 Q71.1017 995.932 72.226 996.459 Q73.3854 996.986 74.4043 998.145 Q75.4232 999.305 76.0556 1000.99 Q76.4772 1000.18 77.0393 999.41 Q77.6366 998.637 78.5501 997.689 Q79.4987 996.705 80.7986 996.143 Q82.1337 995.545 83.6093 995.545 Q85.0498 995.545 86.4551 995.932 Q87.8605 996.283 89.055 997.443 Q90.2847 998.567 90.2847 1000.29 Z" fill="#000000" fill-rule="nonzero" fill-opacity="1" /><path clip-path="url(#clip080)" d="M97.6128 1019.33 L97.6128 1017.75 Q103.663 1017.75 106.786 1014.53 Q107.647 1014.53 107.794 1014.73 Q107.942 1014.92 107.942 1015.83 L107.942 1044.09 Q107.942 1045.59 108.68 1046.06 Q109.418 1046.53 112.639 1046.53 L114.238 1046.53 L114.238 1048.08 Q112.467 1047.93 106.073 1047.93 Q99.6786 1047.93 97.9325 1048.08 L97.9325 1046.53 L99.531 1046.53 Q102.704 1046.53 103.466 1046.08 Q104.228 1045.62 104.228 1044.09 L104.228 1018 Q101.597 1019.33 97.6128 1019.33 Z" fill="#000000" fill-rule="nonzero" fill-opacity="1" /><path clip-path="url(#clip080)" d="M86.8285 509.95 Q86.8285 511.917 85.5988 513.042 Q84.3691 514.131 82.9638 514.131 Q81.6287 514.131 80.926 513.358 Q80.2233 512.585 80.2233 511.601 Q80.2233 510.266 81.2071 509.107 Q82.1908 507.947 83.6664 507.701 Q82.226 506.788 80.0828 506.788 Q78.6775 506.788 77.4478 507.526 Q76.2532 508.264 75.5154 509.212 Q74.8128 510.161 74.1803 511.531 Q73.5831 512.866 73.3371 513.674 Q73.1263 514.447 72.9507 515.29 L70.4913 525.128 Q69.2968 529.8 69.2968 531.452 Q69.2968 533.49 70.2805 534.86 Q71.2643 536.195 73.2317 536.195 Q74.0047 536.195 74.883 535.984 Q75.7614 535.738 76.8856 535.106 Q78.045 534.438 79.0639 533.454 Q80.1179 532.435 81.1368 530.714 Q82.1557 528.992 82.8232 526.779 Q83.034 526.006 83.7367 526.006 Q84.615 526.006 84.615 526.709 Q84.615 527.306 84.1232 528.571 Q83.6664 529.8 82.6476 531.417 Q81.6638 532.998 80.3639 534.438 Q79.0639 535.843 77.1316 536.827 Q75.1992 537.811 73.0912 537.811 Q70.0697 537.811 68.0671 536.195 Q66.0645 534.579 65.3267 532.33 Q65.151 532.646 64.9051 533.068 Q64.6591 533.49 63.9213 534.438 Q63.2186 535.352 62.4106 536.054 Q61.6025 536.722 60.3377 537.249 Q59.108 537.811 57.7729 537.811 Q56.0865 537.811 54.5758 537.319 Q53.1001 536.827 52.0461 535.703 Q50.9921 534.579 50.9921 533.033 Q50.9921 531.311 52.1515 530.117 Q53.3461 528.887 54.9622 528.887 Q55.9811 528.887 56.7892 529.484 Q57.6324 530.082 57.6324 531.381 Q57.6324 532.822 56.6486 533.911 Q55.6649 535 54.2596 535.281 Q55.7 536.195 57.8432 536.195 Q60.162 536.195 61.989 534.157 Q63.8159 532.119 64.6943 528.711 Q66.8725 520.525 67.7158 516.871 Q68.559 513.182 68.559 511.601 Q68.559 510.126 68.1725 509.107 Q67.786 508.088 67.1185 507.631 Q66.4861 507.139 65.8888 506.964 Q65.3267 506.788 64.6943 506.788 Q63.6402 506.788 62.4457 507.21 Q61.2863 507.631 59.8809 508.615 Q58.5107 509.563 57.2108 511.531 Q55.9108 513.498 55.0325 516.204 Q54.8568 517.012 54.0839 517.012 Q53.2407 516.977 53.2407 516.274 Q53.2407 515.677 53.6974 514.447 Q54.1893 513.182 55.173 511.601 Q56.1919 510.02 57.4919 508.615 Q58.8269 507.174 60.7593 506.191 Q62.7268 505.207 64.8348 505.207 Q65.7834 505.207 66.6969 505.418 Q67.6455 505.593 68.7698 506.12 Q69.9292 506.647 70.948 507.807 Q71.9669 508.966 72.5993 510.653 Q73.0209 509.845 73.5831 509.072 Q74.1803 508.299 75.0938 507.35 Q76.0424 506.366 77.3424 505.804 Q78.6775 505.207 80.1531 505.207 Q81.5935 505.207 82.9989 505.593 Q84.4042 505.945 85.5988 507.104 Q86.8285 508.228 86.8285 509.95 Z" fill="#000000" fill-rule="nonzero" fill-opacity="1" /><path clip-path="url(#clip080)" d="M94.1565 557.737 Q94.1565 556.827 94.2303 556.556 Q94.3287 556.286 94.7222 555.868 L104.387 545.096 Q109.675 539.144 109.675 533.955 Q109.675 530.585 107.904 528.175 Q106.158 525.765 102.936 525.765 Q100.723 525.765 98.8539 527.118 Q96.9848 528.47 96.124 530.88 Q96.2715 530.831 96.788 530.831 Q98.0423 530.831 98.7309 531.618 Q99.4441 532.405 99.4441 533.463 Q99.4441 534.815 98.5587 535.479 Q97.698 536.119 96.8372 536.119 Q96.4929 536.119 96.0256 536.045 Q95.5829 535.971 94.8697 535.283 Q94.1565 534.569 94.1565 533.315 Q94.1565 529.798 96.8126 526.995 Q99.4933 524.191 103.576 524.191 Q108.199 524.191 111.224 526.945 Q114.274 529.675 114.274 533.955 Q114.274 535.455 113.807 536.832 Q113.364 538.185 112.749 539.242 Q112.159 540.3 110.536 541.997 Q108.913 543.694 107.609 544.899 Q106.306 546.104 103.379 548.662 L98.0423 553.851 L107.117 553.851 Q111.544 553.851 111.888 553.457 Q112.38 552.744 112.995 548.981 L114.274 548.981 L112.848 557.737 L94.1565 557.737 Z" fill="#000000" fill-rule="nonzero" fill-opacity="1" /><path clip-path="url(#clip080)" d="M390.184 12.096 L441.347 12.096 L441.347 18.9825 L419.877 18.9825 L419.877 72.576 L411.654 72.576 L411.654 18.9825 L390.184 18.9825 L390.184 12.096 Z" fill="#000000" fill-rule="nonzero" fill-opacity="1" /><path clip-path="url(#clip080)" d="M463.019 34.1734 Q461.764 33.4443 460.265 33.1202 Q458.807 32.7556 457.024 32.7556 Q450.705 32.7556 447.302 36.8875 Q443.94 40.9789 443.94 48.6757 L443.94 72.576 L436.446 72.576 L436.446 27.2059 L443.94 27.2059 L443.94 34.2544 Q446.289 30.1225 450.057 28.1376 Q453.824 26.1121 459.212 26.1121 Q459.981 26.1121 460.913 26.2337 Q461.845 26.3147 462.979 26.5172 L463.019 34.1734 Z" fill="#000000" fill-rule="nonzero" fill-opacity="1" /><path clip-path="url(#clip080)" d="M470.068 54.671 L470.068 27.2059 L477.522 27.2059 L477.522 54.3874 Q477.522 60.8284 480.033 64.0691 Q482.545 67.2693 487.568 67.2693 Q493.604 67.2693 497.088 63.421 Q500.612 59.5726 500.612 52.9291 L500.612 27.2059 L508.066 27.2059 L508.066 72.576 L500.612 72.576 L500.612 65.6084 Q497.898 69.7404 494.292 71.7658 Q490.728 73.7508 485.988 73.7508 Q478.17 73.7508 474.119 68.8897 Q470.068 64.0286 470.068 54.671 M488.824 26.1121 L488.824 26.1121 Z" fill="#000000" fill-rule="nonzero" fill-opacity="1" /><path clip-path="url(#clip080)" d="M562.226 48.0275 L562.226 51.6733 L527.955 51.6733 Q528.442 59.3701 532.573 63.421 Q536.746 67.4314 544.159 67.4314 Q548.453 67.4314 552.463 66.3781 Q556.514 65.3249 560.484 63.2184 L560.484 70.267 Q556.474 71.9684 552.261 72.8596 Q548.048 73.7508 543.713 73.7508 Q532.857 73.7508 526.497 67.4314 Q520.178 61.1119 520.178 50.3365 Q520.178 39.1965 526.173 32.6746 Q532.209 26.1121 542.417 26.1121 Q551.572 26.1121 556.879 32.0264 Q562.226 37.9003 562.226 48.0275 M554.772 45.84 Q554.691 39.7232 551.329 36.0774 Q548.007 32.4315 542.498 32.4315 Q536.26 32.4315 532.492 35.9558 Q528.766 39.4801 528.199 45.8805 L554.772 45.84 Z" fill="#000000" fill-rule="nonzero" fill-opacity="1" /><path clip-path="url(#clip080)" d="M595.484 27.2059 L603.383 27.2059 L617.561 65.2844 L631.74 27.2059 L639.639 27.2059 L622.625 72.576 L612.498 72.576 L595.484 27.2059 Z" fill="#000000" fill-rule="nonzero" fill-opacity="1" /><path clip-path="url(#clip080)" d="M678.852 28.5427 L678.852 35.5912 Q675.692 33.9709 672.289 33.1607 Q668.886 32.3505 665.241 32.3505 Q659.691 32.3505 656.896 34.0519 Q654.141 35.7533 654.141 39.156 Q654.141 41.7486 656.126 43.2475 Q658.111 44.7058 664.106 46.0426 L666.658 46.6097 Q674.598 48.3111 677.92 51.4303 Q681.282 54.509 681.282 60.0587 Q681.282 66.3781 676.259 70.0644 Q671.276 73.7508 662.526 73.7508 Q658.881 73.7508 654.911 73.0216 Q650.981 72.3329 646.606 70.9151 L646.606 63.2184 Q650.738 65.3654 654.749 66.4591 Q658.759 67.5124 662.689 67.5124 Q667.955 67.5124 670.79 65.73 Q673.626 63.9071 673.626 60.6258 Q673.626 57.5877 671.56 55.9673 Q669.535 54.3469 662.608 52.8481 L660.015 52.2405 Q653.088 50.7821 650.009 47.7845 Q646.931 44.7463 646.931 39.4801 Q646.931 33.0797 651.468 29.5959 Q656.005 26.1121 664.349 26.1121 Q668.481 26.1121 672.127 26.7198 Q675.773 27.3274 678.852 28.5427 Z" fill="#000000" fill-rule="nonzero" fill-opacity="1" /><path clip-path="url(#clip080)" d="M694.205 62.2867 L702.752 62.2867 L702.752 72.576 L694.205 72.576 L694.205 62.2867 Z" fill="#000000" fill-rule="nonzero" fill-opacity="1" /><path clip-path="url(#clip080)" d="M754.401 18.8205 L754.401 41.5461 L764.69 41.5461 Q770.402 41.5461 773.521 38.5889 Q776.64 35.6318 776.64 30.163 Q776.64 24.7348 773.521 21.7777 Q770.402 18.8205 764.69 18.8205 L754.401 18.8205 M746.218 12.096 L764.69 12.096 Q774.858 12.096 780.043 16.714 Q785.269 21.2916 785.269 30.163 Q785.269 39.1155 780.043 43.6931 Q774.858 48.2706 764.69 48.2706 L754.401 48.2706 L754.401 72.576 L746.218 72.576 L746.218 12.096 Z" fill="#000000" fill-rule="nonzero" fill-opacity="1" /><path clip-path="url(#clip080)" d="M820.755 34.1734 Q819.499 33.4443 818 33.1202 Q816.542 32.7556 814.759 32.7556 Q808.44 32.7556 805.037 36.8875 Q801.675 40.9789 801.675 48.6757 L801.675 72.576 L794.181 72.576 L794.181 27.2059 L801.675 27.2059 L801.675 34.2544 Q804.025 30.1225 807.792 28.1376 Q811.559 26.1121 816.947 26.1121 Q817.717 26.1121 818.648 26.2337 Q819.58 26.3147 820.714 26.5172 L820.755 34.1734 Z" fill="#000000" fill-rule="nonzero" fill-opacity="1" /><path clip-path="url(#clip080)" d="M865.558 48.0275 L865.558 51.6733 L831.287 51.6733 Q831.773 59.3701 835.905 63.421 Q840.078 67.4314 847.491 67.4314 Q851.785 67.4314 855.795 66.3781 Q859.846 65.3249 863.816 63.2184 L863.816 70.267 Q859.806 71.9684 855.593 72.8596 Q851.38 73.7508 847.045 73.7508 Q836.189 73.7508 829.829 67.4314 Q823.509 61.1119 823.509 50.3365 Q823.509 39.1965 829.505 32.6746 Q835.541 26.1121 845.749 26.1121 Q854.904 26.1121 860.211 32.0264 Q865.558 37.9003 865.558 48.0275 M858.104 45.84 Q858.023 39.7232 854.661 36.0774 Q851.339 32.4315 845.83 32.4315 Q839.592 32.4315 835.824 35.9558 Q832.097 39.4801 831.53 45.8805 L858.104 45.84 Z" fill="#000000" fill-rule="nonzero" fill-opacity="1" /><path clip-path="url(#clip080)" d="M907.647 34.0924 L907.647 9.54393 L915.1 9.54393 L915.1 72.576 L907.647 72.576 L907.647 65.7705 Q905.297 69.8214 901.692 71.8063 Q898.127 73.7508 893.104 73.7508 Q884.881 73.7508 879.695 67.1883 Q874.551 60.6258 874.551 49.9314 Q874.551 39.2371 879.695 32.6746 Q884.881 26.1121 893.104 26.1121 Q898.127 26.1121 901.692 28.0971 Q905.297 30.0415 907.647 34.0924 M882.248 49.9314 Q882.248 58.1548 885.61 62.8538 Q889.013 67.5124 894.927 67.5124 Q900.841 67.5124 904.244 62.8538 Q907.647 58.1548 907.647 49.9314 Q907.647 41.7081 904.244 37.0496 Q900.841 32.3505 894.927 32.3505 Q889.013 32.3505 885.61 37.0496 Q882.248 41.7081 882.248 49.9314 Z" fill="#000000" fill-rule="nonzero" fill-opacity="1" /><path clip-path="url(#clip080)" d="M930.453 27.2059 L937.907 27.2059 L937.907 72.576 L930.453 72.576 L930.453 27.2059 M930.453 9.54393 L937.907 9.54393 L937.907 18.9825 L930.453 18.9825 L930.453 9.54393 Z" fill="#000000" fill-rule="nonzero" fill-opacity="1" /><path clip-path="url(#clip080)" d="M986.153 28.9478 L986.153 35.9153 Q982.994 34.1734 979.793 33.3227 Q976.634 32.4315 973.393 32.4315 Q966.142 32.4315 962.131 37.0496 Q958.121 41.6271 958.121 49.9314 Q958.121 58.2358 962.131 62.8538 Q966.142 67.4314 973.393 67.4314 Q976.634 67.4314 979.793 66.5807 Q982.994 65.6895 986.153 63.9476 L986.153 70.8341 Q983.034 72.2924 979.672 73.0216 Q976.35 73.7508 972.583 73.7508 Q962.334 73.7508 956.298 67.3098 Q950.262 60.8689 950.262 49.9314 Q950.262 38.832 956.339 32.472 Q962.455 26.1121 973.069 26.1121 Q976.512 26.1121 979.793 26.8413 Q983.075 27.5299 986.153 28.9478 Z" fill="#000000" fill-rule="nonzero" fill-opacity="1" /><path clip-path="url(#clip080)" d="M1006.49 14.324 L1006.49 27.2059 L1021.84 27.2059 L1021.84 32.9987 L1006.49 32.9987 L1006.49 57.6282 Q1006.49 63.1779 1007.99 64.7578 Q1009.53 66.3376 1014.19 66.3376 L1021.84 66.3376 L1021.84 72.576 L1014.19 72.576 Q1005.56 72.576 1002.28 69.3758 Q998.995 66.1351 998.995 57.6282 L998.995 32.9987 L993.526 32.9987 L993.526 27.2059 L998.995 27.2059 L998.995 14.324 L1006.49 14.324 Z" fill="#000000" fill-rule="nonzero" fill-opacity="1" /><path clip-path="url(#clip080)" d="M1070.45 48.0275 L1070.45 51.6733 L1036.18 51.6733 Q1036.67 59.3701 1040.8 63.421 Q1044.97 67.4314 1052.39 67.4314 Q1056.68 67.4314 1060.69 66.3781 Q1064.74 65.3249 1068.71 63.2184 L1068.71 70.267 Q1064.7 71.9684 1060.49 72.8596 Q1056.27 73.7508 1051.94 73.7508 Q1041.08 73.7508 1034.72 67.4314 Q1028.4 61.1119 1028.4 50.3365 Q1028.4 39.1965 1034.4 32.6746 Q1040.44 26.1121 1050.64 26.1121 Q1059.8 26.1121 1065.11 32.0264 Q1070.45 37.9003 1070.45 48.0275 M1063 45.84 Q1062.92 39.7232 1059.56 36.0774 Q1056.23 32.4315 1050.72 32.4315 Q1044.49 32.4315 1040.72 35.9558 Q1036.99 39.4801 1036.42 45.8805 L1063 45.84 Z" fill="#000000" fill-rule="nonzero" fill-opacity="1" /><path clip-path="url(#clip080)" d="M1112.54 34.0924 L1112.54 9.54393 L1120 9.54393 L1120 72.576 L1112.54 72.576 L1112.54 65.7705 Q1110.19 69.8214 1106.59 71.8063 Q1103.02 73.7508 1098 73.7508 Q1089.78 73.7508 1084.59 67.1883 Q1079.45 60.6258 1079.45 49.9314 Q1079.45 39.2371 1084.59 32.6746 Q1089.78 26.1121 1098 26.1121 Q1103.02 26.1121 1106.59 28.0971 Q1110.19 30.0415 1112.54 34.0924 M1087.14 49.9314 Q1087.14 58.1548 1090.5 62.8538 Q1093.91 67.5124 1099.82 67.5124 Q1105.74 67.5124 1109.14 62.8538 Q1112.54 58.1548 1112.54 49.9314 Q1112.54 41.7081 1109.14 37.0496 Q1105.74 32.3505 1099.82 32.3505 Q1093.91 32.3505 1090.5 37.0496 Q1087.14 41.7081 1087.14 49.9314 Z" fill="#000000" fill-rule="nonzero" fill-opacity="1" /><path clip-path="url(#clip080)" d="M1162.04 12.096 L1170.23 12.096 L1170.23 65.6895 L1199.68 65.6895 L1199.68 72.576 L1162.04 72.576 L1162.04 12.096 Z" fill="#000000" fill-rule="nonzero" fill-opacity="1" /><path clip-path="url(#clip080)" d="M1228.56 49.7694 Q1219.53 49.7694 1216.04 51.8354 Q1212.56 53.9013 1212.56 58.8839 Q1212.56 62.8538 1215.15 65.2034 Q1217.78 67.5124 1222.28 67.5124 Q1228.48 67.5124 1232.21 63.1374 Q1235.97 58.7219 1235.97 51.4303 L1235.97 49.7694 L1228.56 49.7694 M1243.43 46.6907 L1243.43 72.576 L1235.97 72.576 L1235.97 65.6895 Q1233.42 69.8214 1229.61 71.8063 Q1225.8 73.7508 1220.3 73.7508 Q1213.33 73.7508 1209.2 69.8619 Q1205.1 65.9325 1205.1 59.3701 Q1205.1 51.7138 1210.21 47.825 Q1215.35 43.9361 1225.52 43.9361 L1235.97 43.9361 L1235.97 43.2069 Q1235.97 38.0623 1232.57 35.2672 Q1229.21 32.4315 1223.09 32.4315 Q1219.2 32.4315 1215.52 33.3632 Q1211.83 34.295 1208.43 36.1584 L1208.43 29.2718 Q1212.52 27.692 1216.37 26.9223 Q1220.21 26.1121 1223.86 26.1121 Q1233.7 26.1121 1238.57 31.2163 Q1243.43 36.3204 1243.43 46.6907 Z" fill="#000000" fill-rule="nonzero" fill-opacity="1" /><path clip-path="url(#clip080)" d="M1266.15 14.324 L1266.15 27.2059 L1281.5 27.2059 L1281.5 32.9987 L1266.15 32.9987 L1266.15 57.6282 Q1266.15 63.1779 1267.65 64.7578 Q1269.19 66.3376 1273.85 66.3376 L1281.5 66.3376 L1281.5 72.576 L1273.85 72.576 Q1265.22 72.576 1261.94 69.3758 Q1258.66 66.1351 1258.66 57.6282 L1258.66 32.9987 L1253.19 32.9987 L1253.19 27.2059 L1258.66 27.2059 L1258.66 14.324 L1266.15 14.324 Z" fill="#000000" fill-rule="nonzero" fill-opacity="1" /><path clip-path="url(#clip080)" d="M1330.12 48.0275 L1330.12 51.6733 L1295.84 51.6733 Q1296.33 59.3701 1300.46 63.421 Q1304.64 67.4314 1312.05 67.4314 Q1316.34 67.4314 1320.35 66.3781 Q1324.4 65.3249 1328.37 63.2184 L1328.37 70.267 Q1324.36 71.9684 1320.15 72.8596 Q1315.94 73.7508 1311.6 73.7508 Q1300.75 73.7508 1294.39 67.4314 Q1288.07 61.1119 1288.07 50.3365 Q1288.07 39.1965 1294.06 32.6746 Q1300.1 26.1121 1310.31 26.1121 Q1319.46 26.1121 1324.77 32.0264 Q1330.12 37.9003 1330.12 48.0275 M1322.66 45.84 Q1322.58 39.7232 1319.22 36.0774 Q1315.9 32.4315 1310.39 32.4315 Q1304.15 32.4315 1300.38 35.9558 Q1296.66 39.4801 1296.09 45.8805 L1322.66 45.84 Z" fill="#000000" fill-rule="nonzero" fill-opacity="1" /><path clip-path="url(#clip080)" d="M1380.06 45.1919 L1380.06 72.576 L1372.61 72.576 L1372.61 45.4349 Q1372.61 38.994 1370.1 35.7938 Q1367.59 32.5936 1362.56 32.5936 Q1356.53 32.5936 1353.04 36.4419 Q1349.56 40.2903 1349.56 46.9338 L1349.56 72.576 L1342.07 72.576 L1342.07 27.2059 L1349.56 27.2059 L1349.56 34.2544 Q1352.23 30.163 1355.84 28.1376 Q1359.48 26.1121 1364.22 26.1121 Q1372.04 26.1121 1376.05 30.9732 Q1380.06 35.7938 1380.06 45.1919 Z" fill="#000000" fill-rule="nonzero" fill-opacity="1" /><path clip-path="url(#clip080)" d="M1402.3 14.324 L1402.3 27.2059 L1417.66 27.2059 L1417.66 32.9987 L1402.3 32.9987 L1402.3 57.6282 Q1402.3 63.1779 1403.8 64.7578 Q1405.34 66.3376 1410 66.3376 L1417.66 66.3376 L1417.66 72.576 L1410 72.576 Q1401.37 72.576 1398.09 69.3758 Q1394.81 66.1351 1394.81 57.6282 L1394.81 32.9987 L1389.34 32.9987 L1389.34 27.2059 L1394.81 27.2059 L1394.81 14.324 L1402.3 14.324 Z" fill="#000000" fill-rule="nonzero" fill-opacity="1" /><path clip-path="url(#clip080)" d="M1490.41 14.0809 L1490.41 22.0612 Q1485.75 19.8332 1481.62 18.7395 Q1477.49 17.6457 1473.64 17.6457 Q1466.96 17.6457 1463.31 20.2383 Q1459.7 22.8309 1459.7 27.611 Q1459.7 31.6214 1462.09 33.6873 Q1464.52 35.7128 1471.25 36.9686 L1476.19 37.9813 Q1485.35 39.7232 1489.68 44.1387 Q1494.06 48.5136 1494.06 55.8863 Q1494.06 64.6767 1488.14 69.2137 Q1482.27 73.7508 1470.88 73.7508 Q1466.59 73.7508 1461.73 72.7785 Q1456.91 71.8063 1451.72 69.9024 L1451.72 61.4765 Q1456.71 64.2716 1461.49 65.6895 Q1466.27 67.1073 1470.88 67.1073 Q1477.89 67.1073 1481.7 64.3527 Q1485.51 61.598 1485.51 56.4939 Q1485.51 52.0379 1482.75 49.5264 Q1480.04 47.0148 1473.8 45.759 L1468.82 44.7868 Q1459.66 42.9639 1455.57 39.075 Q1451.48 35.1862 1451.48 28.2591 Q1451.48 20.2383 1457.11 15.6203 Q1462.78 11.0023 1472.71 11.0023 Q1476.96 11.0023 1481.38 11.7719 Q1485.79 12.5416 1490.41 14.0809 Z" fill="#000000" fill-rule="nonzero" fill-opacity="1" /><path clip-path="url(#clip080)" d="M1513.86 14.324 L1513.86 27.2059 L1529.22 27.2059 L1529.22 32.9987 L1513.86 32.9987 L1513.86 57.6282 Q1513.86 63.1779 1515.36 64.7578 Q1516.9 66.3376 1521.56 66.3376 L1529.22 66.3376 L1529.22 72.576 L1521.56 72.576 Q1512.93 72.576 1509.65 69.3758 Q1506.37 66.1351 1506.37 57.6282 L1506.37 32.9987 L1500.9 32.9987 L1500.9 27.2059 L1506.37 27.2059 L1506.37 14.324 L1513.86 14.324 Z" fill="#000000" fill-rule="nonzero" fill-opacity="1" /><path clip-path="url(#clip080)" d="M1559.64 49.7694 Q1550.61 49.7694 1547.12 51.8354 Q1543.64 53.9013 1543.64 58.8839 Q1543.64 62.8538 1546.23 65.2034 Q1548.86 67.5124 1553.36 67.5124 Q1559.56 67.5124 1563.29 63.1374 Q1567.05 58.7219 1567.05 51.4303 L1567.05 49.7694 L1559.64 49.7694 M1574.51 46.6907 L1574.51 72.576 L1567.05 72.576 L1567.05 65.6895 Q1564.5 69.8214 1560.69 71.8063 Q1556.89 73.7508 1551.38 73.7508 Q1544.41 73.7508 1540.28 69.8619 Q1536.19 65.9325 1536.19 59.3701 Q1536.19 51.7138 1541.29 47.825 Q1546.43 43.9361 1556.6 43.9361 L1567.05 43.9361 L1567.05 43.2069 Q1567.05 38.0623 1563.65 35.2672 Q1560.29 32.4315 1554.17 32.4315 Q1550.28 32.4315 1546.6 33.3632 Q1542.91 34.295 1539.51 36.1584 L1539.51 29.2718 Q1543.6 27.692 1547.45 26.9223 Q1551.29 26.1121 1554.94 26.1121 Q1564.78 26.1121 1569.65 31.2163 Q1574.51 36.3204 1574.51 46.6907 Z" fill="#000000" fill-rule="nonzero" fill-opacity="1" /><path clip-path="url(#clip080)" d="M1597.23 14.324 L1597.23 27.2059 L1612.59 27.2059 L1612.59 32.9987 L1597.23 32.9987 L1597.23 57.6282 Q1597.23 63.1779 1598.73 64.7578 Q1600.27 66.3376 1604.93 66.3376 L1612.59 66.3376 L1612.59 72.576 L1604.93 72.576 Q1596.3 72.576 1593.02 69.3758 Q1589.74 66.1351 1589.74 57.6282 L1589.74 32.9987 L1584.27 32.9987 L1584.27 27.2059 L1589.74 27.2059 L1589.74 14.324 L1597.23 14.324 Z" fill="#000000" fill-rule="nonzero" fill-opacity="1" /><path clip-path="url(#clip080)" d="M1661.2 48.0275 L1661.2 51.6733 L1626.93 51.6733 Q1627.41 59.3701 1631.54 63.421 Q1635.72 67.4314 1643.13 67.4314 Q1647.42 67.4314 1651.43 66.3781 Q1655.48 65.3249 1659.45 63.2184 L1659.45 70.267 Q1655.44 71.9684 1651.23 72.8596 Q1647.02 73.7508 1642.68 73.7508 Q1631.83 73.7508 1625.47 67.4314 Q1619.15 61.1119 1619.15 50.3365 Q1619.15 39.1965 1625.14 32.6746 Q1631.18 26.1121 1641.39 26.1121 Q1650.54 26.1121 1655.85 32.0264 Q1661.2 37.9003 1661.2 48.0275 M1653.74 45.84 Q1653.66 39.7232 1650.3 36.0774 Q1646.98 32.4315 1641.47 32.4315 Q1635.23 32.4315 1631.46 35.9558 Q1627.74 39.4801 1627.17 45.8805 L1653.74 45.84 Z" fill="#000000" fill-rule="nonzero" fill-opacity="1" /><path clip-path="url(#clip080)" d="M1702.35 28.5427 L1702.35 35.5912 Q1699.19 33.9709 1695.79 33.1607 Q1692.39 32.3505 1688.74 32.3505 Q1683.19 32.3505 1680.4 34.0519 Q1677.64 35.7533 1677.64 39.156 Q1677.64 41.7486 1679.63 43.2475 Q1681.61 44.7058 1687.61 46.0426 L1690.16 46.6097 Q1698.1 48.3111 1701.42 51.4303 Q1704.78 54.509 1704.78 60.0587 Q1704.78 66.3781 1699.76 70.0644 Q1694.78 73.7508 1686.03 73.7508 Q1682.38 73.7508 1678.41 73.0216 Q1674.48 72.3329 1670.11 70.9151 L1670.11 63.2184 Q1674.24 65.3654 1678.25 66.4591 Q1682.26 67.5124 1686.19 67.5124 Q1691.46 67.5124 1694.29 65.73 Q1697.13 63.9071 1697.13 60.6258 Q1697.13 57.5877 1695.06 55.9673 Q1693.04 54.3469 1686.11 52.8481 L1683.52 52.2405 Q1676.59 50.7821 1673.51 47.7845 Q1670.43 44.7463 1670.43 39.4801 Q1670.43 33.0797 1674.97 29.5959 Q1679.51 26.1121 1687.85 26.1121 Q1691.98 26.1121 1695.63 26.7198 Q1699.27 27.3274 1702.35 28.5427 Z" fill="#000000" fill-rule="nonzero" fill-opacity="1" /><path clip-path="url(#clip080)" d="M1760.93 9.62495 Q1755.5 18.942 1752.87 28.0566 Q1750.23 37.1711 1750.23 46.5287 Q1750.23 55.8863 1752.87 65.0818 Q1755.54 74.2369 1760.93 83.5134 L1754.45 83.5134 Q1748.37 73.9938 1745.33 64.7983 Q1742.34 55.6027 1742.34 46.5287 Q1742.34 37.4952 1745.33 28.3401 Q1748.33 19.1851 1754.45 9.62495 L1760.93 9.62495 Z" fill="#000000" fill-rule="nonzero" fill-opacity="1" /><path clip-path="url(#clip080)" d="M1783.9 18.8205 L1783.9 41.5461 L1794.19 41.5461 Q1799.9 41.5461 1803.02 38.5889 Q1806.14 35.6318 1806.14 30.163 Q1806.14 24.7348 1803.02 21.7777 Q1799.9 18.8205 1794.19 18.8205 L1783.9 18.8205 M1775.71 12.096 L1794.19 12.096 Q1804.35 12.096 1809.54 16.714 Q1814.77 21.2916 1814.77 30.163 Q1814.77 39.1155 1809.54 43.6931 Q1804.35 48.2706 1794.19 48.2706 L1783.9 48.2706 L1783.9 72.576 L1775.71 72.576 L1775.71 12.096 Z" fill="#000000" fill-rule="nonzero" fill-opacity="1" /><path clip-path="url(#clip080)" d="M1840.04 32.4315 Q1834.05 32.4315 1830.56 37.1306 Q1827.08 41.7891 1827.08 49.9314 Q1827.08 58.0738 1830.52 62.7728 Q1834.01 67.4314 1840.04 67.4314 Q1846 67.4314 1849.48 62.7323 Q1852.97 58.0333 1852.97 49.9314 Q1852.97 41.8701 1849.48 37.1711 Q1846 32.4315 1840.04 32.4315 M1840.04 26.1121 Q1849.77 26.1121 1855.32 32.4315 Q1860.86 38.7509 1860.86 49.9314 Q1860.86 61.0714 1855.32 67.4314 Q1849.77 73.7508 1840.04 73.7508 Q1830.28 73.7508 1824.73 67.4314 Q1819.22 61.0714 1819.22 49.9314 Q1819.22 38.7509 1824.73 32.4315 Q1830.28 26.1121 1840.04 26.1121 Z" fill="#000000" fill-rule="nonzero" fill-opacity="1" /><path clip-path="url(#clip080)" d="M1902.14 28.5427 L1902.14 35.5912 Q1898.98 33.9709 1895.58 33.1607 Q1892.18 32.3505 1888.53 32.3505 Q1882.98 32.3505 1880.19 34.0519 Q1877.43 35.7533 1877.43 39.156 Q1877.43 41.7486 1879.42 43.2475 Q1881.4 44.7058 1887.4 46.0426 L1889.95 46.6097 Q1897.89 48.3111 1901.21 51.4303 Q1904.57 54.509 1904.57 60.0587 Q1904.57 66.3781 1899.55 70.0644 Q1894.57 73.7508 1885.82 73.7508 Q1882.17 73.7508 1878.2 73.0216 Q1874.27 72.3329 1869.9 70.9151 L1869.9 63.2184 Q1874.03 65.3654 1878.04 66.4591 Q1882.05 67.5124 1885.98 67.5124 Q1891.25 67.5124 1894.08 65.73 Q1896.92 63.9071 1896.92 60.6258 Q1896.92 57.5877 1894.85 55.9673 Q1892.83 54.3469 1885.9 52.8481 L1883.31 52.2405 Q1876.38 50.7821 1873.3 47.7845 Q1870.22 44.7463 1870.22 39.4801 Q1870.22 33.0797 1874.76 29.5959 Q1879.3 26.1121 1887.64 26.1121 Q1891.77 26.1121 1895.42 26.7198 Q1899.07 27.3274 1902.14 28.5427 Z" fill="#000000" fill-rule="nonzero" fill-opacity="1" /><path clip-path="url(#clip080)" d="M1923.82 14.324 L1923.82 27.2059 L1939.17 27.2059 L1939.17 32.9987 L1923.82 32.9987 L1923.82 57.6282 Q1923.82 63.1779 1925.31 64.7578 Q1926.85 66.3376 1931.51 66.3376 L1939.17 66.3376 L1939.17 72.576 L1931.51 72.576 Q1922.88 72.576 1919.6 69.3758 Q1916.32 66.1351 1916.32 57.6282 L1916.32 32.9987 L1910.85 32.9987 L1910.85 27.2059 L1916.32 27.2059 L1916.32 14.324 L1923.82 14.324 Z" fill="#000000" fill-rule="nonzero" fill-opacity="1" /><path clip-path="url(#clip080)" d="M1945.2 46.5287 L1967.04 46.5287 L1967.04 53.1722 L1945.2 53.1722 L1945.2 46.5287 Z" fill="#000000" fill-rule="nonzero" fill-opacity="1" /><path clip-path="url(#clip080)" d="M1979.23 12.096 L2017.47 12.096 L2017.47 18.9825 L1987.42 18.9825 L1987.42 36.8875 L2016.22 36.8875 L2016.22 43.7741 L1987.42 43.7741 L1987.42 65.6895 L2018.2 65.6895 L2018.2 72.576 L1979.23 72.576 L1979.23 12.096 Z" fill="#000000" fill-rule="nonzero" fill-opacity="1" /><path clip-path="url(#clip080)" d="M2031.65 12.096 L2043.84 12.096 L2059.28 53.2532 L2074.79 12.096 L2086.99 12.096 L2086.99 72.576 L2079.01 72.576 L2079.01 19.4686 L2063.41 60.9499 L2055.19 60.9499 L2039.59 19.4686 L2039.59 72.576 L2031.65 72.576 L2031.65 12.096 Z" fill="#000000" fill-rule="nonzero" fill-opacity="1" /><path clip-path="url(#clip080)" d="M2101.73 9.62495 L2108.21 9.62495 Q2114.29 19.1851 2117.29 28.3401 Q2120.33 37.4952 2120.33 46.5287 Q2120.33 55.6027 2117.29 64.7983 Q2114.29 73.9938 2108.21 83.5134 L2101.73 83.5134 Q2107.12 74.2369 2109.75 65.0818 Q2112.43 55.8863 2112.43 46.5287 Q2112.43 37.1711 2109.75 28.0566 Q2107.12 18.942 2101.73 9.62495 Z" fill="#000000" fill-rule="nonzero" fill-opacity="1" /><polyline clip-path="url(#clip082)" style="stroke:#000000; stroke-linecap:round; stroke-linejoin:round; stroke-width:8; stroke-opacity:1; fill:none" points="162.144,968.586 166.534,1027.4 170.924,905.075 175.314,813.914 179.704,837.548 184.094,912.124 188.484,849.614 192.874,821.619 197.264,827.389 201.654,884.664 206.044,1033.36 210.434,1134.66 214.824,1115.41 219.214,1103.95 223.604,1024.71 227.994,1060.41 232.384,1107.49 236.774,1086.18 241.164,1088.78 245.554,1093.98 249.944,1129.74 254.334,1131.12 258.724,1114.34 263.114,1120.63 267.504,1030.57 271.894,1040.54 276.284,1123.5 280.674,1184.57 285.064,1221.06 289.454,1132.23 293.844,1147.62 298.234,1185.04 302.624,1051.6 307.014,1005.52 311.404,1040.07 315.794,1109.58 320.184,1051.7 324.574,1109.64 328.964,1117.11 333.354,1115.26 337.744,1099.92 342.134,1057.66 346.524,960.393 350.914,997.046 355.304,899.594 359.694,974.94 364.084,1003.07 368.474,1106.21 372.864,1121.38 377.254,1092.01 381.644,1055.76 386.034,1092.72 390.424,1047.05 394.814,994.399 399.204,1014.55 403.594,1026.79 407.984,1008.59 412.374,961.666 416.764,947.875 421.154,896.04 425.544,1004.13 429.934,963.261 434.324,966.998 438.714,993.992 443.104,949.488 447.494,933.942 451.884,925.239 456.274,945.48 460.664,951.745 465.054,1041.12 469.444,1131.22 473.834,1228.2 478.224,1344.52 482.614,1377.86 487.004,1461.22 491.394,1512.3 495.784,1443.53 500.174,1299.18 504.564,1280.03 508.954,1155.49 513.344,1145.32 517.734,1056.74 522.124,983.825 526.514,887.12 530.904,781.456 535.294,711.083 539.684,658.604 544.074,707.216 548.464,741.309 552.854,778.231 557.244,888.246 561.634,982.952 566.024,980.445 570.414,1017.79 574.804,1130 579.194,1198.44 583.584,1289.38 587.974,1355.35 592.364,1423.09 596.754,1406.55 601.144,1268.58 605.534,1124.38 609.924,1027.34 614.314,854.751 618.704,787.377 623.094,808.323 627.484,793.998 631.874,870.695 636.264,849.572 640.654,988.044 645.044,1019.48 649.434,1091.41 653.824,1134.98 658.214,1159.27 662.604,1124.64 666.994,1164.79 671.384,1142.56 675.774,1138.73 680.164,1259.55 684.554,1245.64 688.944,1239.23 693.334,1295.67 697.724,1231.16 702.114,1132.99 706.504,1188.43 710.894,1196.28 715.284,1200.82 719.674,1180.62 724.064,1151.42 728.454,1171.6 732.844,1094.1 737.234,1079.61 741.624,1040.12 746.014,979.474 750.404,924.925 754.794,910.87 759.184,938.725 763.574,902.209 767.964,885.407 772.354,928.089 776.744,923.238 781.134,988.754 785.524,1031.8 789.914,1043.46 794.304,1053.07 798.694,1032.66 803.084,1010.9 807.474,1055.38 811.864,1050.56 816.254,948.545 820.644,918.71 825.034,836.439 829.424,798.018 833.814,792.104 838.204,831.766 842.594,840.379 846.984,952.664 851.374,945.924 855.764,1098.63 860.154,1172.21 864.544,1169.6 868.934,1172.25 873.324,1092.64 877.714,1108.36 882.104,1035.5 886.494,997.166 890.884,935.79 895.274,954.071 899.664,897.12 904.054,931.014 908.444,988.703 912.834,1025.76 917.224,1120.82 921.614,1065.43 926.004,1176.26 930.394,1242.17 934.784,1202.82 939.174,1165.81 943.564,1175.74 947.954,1130.48 952.344,1118.54 956.734,1087.93 961.124,1036.74 965.515,977.028 969.905,903.954 974.295,924.074 978.685,902.615 983.075,901.084 987.465,922.63 991.855,959.765 996.245,953.696 1000.63,946.286 1005.02,1054.02 1009.41,1121.77 1013.8,1127.91 1018.19,1166.94 1022.58,1111.02 1026.97,1075.53 1031.36,1132.38 1035.75,1108.96 1040.14,1100.85 1044.53,1063.8 1048.92,1088.32 1053.31,1097.4 1057.7,1071.32 1062.09,1144.53 1066.48,1133.78 1070.87,967.085 1075.26,950.047 1079.65,898.46 1084.04,887.641 1088.43,863.105 1092.82,955.191 1097.21,939.122 1101.6,978.174 1105.99,1065.73 1110.38,1106.21 1114.77,1048.7 1119.16,1031.41 1123.55,1037.48 1127.94,952.201 1132.33,873.236 1136.72,881.33 1141.11,878.497 1145.5,895.727 1149.89,888.567 1154.28,1042.22 1158.67,1081.87 1163.06,1129.95 1167.45,1240.62 1171.84,1246.68 1176.23,1234.2 1180.62,1192.91 1185.01,1158.12 1189.4,1043.71 1193.79,1016.57 1198.18,959.407 1202.57,983.117 1206.96,933.43 1211.35,876.894 1215.74,878.468 1220.13,993.917 1224.52,1012.76 1228.91,1007.91 1233.3,976.228 1237.69,960.155 1242.08,1050.41 1246.47,1046.3 1250.86,1091.91 1255.25,1039.16 1259.64,1058.29 1264.03,1011.59 1268.42,1011.4 1272.81,828.195 1277.2,743.791 1281.59,887.483 1285.98,854.596 1290.37,859.926 1294.76,908.835 1299.15,900.613 1303.54,949.129 1307.93,1009.21 1312.32,1168.72 1316.71,1284.7 1321.1,1333.83 1325.49,1359.49 1329.88,1280.22 1334.27,1174.26 1338.66,1172.02 1343.05,1196.4 1347.44,1096.85 1351.83,1049.89 1356.22,978.455 1360.61,872.988 1365,766.715 1369.39,797.516 1373.78,849.13 1378.17,824.013 1382.56,934.226 1386.95,984.836 1391.34,964.614 1395.73,1036.58 1400.12,1092.58 1404.51,1116.15 1408.9,1134.24 1413.29,1147.21 1417.68,1150.31 1422.07,1141.78 1426.46,1087.73 1430.85,1165.93 1435.24,1060.59 1439.63,1018 1444.02,963.024 1448.41,948.544 1452.8,911.103 1457.2,954.973 1461.59,1017.9 1465.98,987.039 1470.37,1135.38 1474.76,1122.5 1479.15,1122.32 1483.54,1158.01 1487.93,1128.19 1492.32,1069.65 1496.71,1097.98 1501.1,1038.81 1505.49,986.352 1509.88,972.394 1514.27,1000.48 1518.66,1044.16 1523.05,1052.71 1527.44,984.432 1531.83,896.19 1536.22,947.728 1540.61,968.598 1545,970.011 1549.39,1098.76 1553.78,1089.32 1558.17,1076.04 1562.56,1143.02 1566.95,1177.47 1571.34,1142.63 1575.73,1098.55 1580.12,1080.99 1584.51,1048.56 1588.9,1000.43 1593.29,974.981 1597.68,987.384 1602.07,1045.88 1606.46,1023.6 1610.85,1018.47 1615.24,1048.71 1619.63,1173.09 1624.02,1260.07 1628.41,1161.79 1632.8,1199.43 1637.19,1172.4 1641.58,1096.62 1645.97,1119.04 1650.36,1053.91 1654.75,1035.91 1659.14,1060.16 1663.53,973.776 1667.92,953.325 1672.31,865.408 1676.7,948.371 1681.09,881.623 1685.48,841.763 1689.87,919.409 1694.26,972.189 1698.65,851.88 1703.04,883.036 1707.43,894.4 1711.82,947.079 1716.21,893.705 1720.6,1021.04 1724.99,1073.04 1729.38,1128.58 1733.77,1132.78 1738.16,1234.71 1742.55,1222.54 1746.94,1166.9 1751.33,1131.61 1755.72,1066.71 1760.11,1032.91 1764.5,1086.48 1768.89,944.105 1773.28,859.823 1777.67,681.001 1782.06,686.052 1786.45,729.33 1790.84,778.769 1795.23,916.93 1799.62,972.468 1804.01,1055.13 1808.4,1118.3 1812.79,1131.58 1817.18,1184.21 1821.57,1269.89 1825.96,1217.43 1830.35,1247.12 1834.74,1222.94 1839.13,1102.76 1843.52,1116.59 1847.91,1119.63 1852.3,1004.03 1856.69,986.201 1861.08,1016.12 1865.47,1000.97 1869.86,1023.43 1874.25,1022.42 1878.64,1020.09 1883.03,1007.27 1887.42,924.645 1891.81,935.024 1896.2,894.48 1900.59,880.455 1904.98,805.309 1909.37,821.025 1913.76,822.866 1918.15,917.826 1922.54,1019.05 1926.93,1112.9 1931.32,1180.46 1935.71,1151.69 1940.1,1154.92 1944.49,1143.99 1948.88,1176.28 1953.27,1145.32 1957.66,1140.11 1962.05,1138 1966.44,1081.77 1970.83,946.377 1975.22,949.277 1979.61,1009.93 1984,1059.73 1988.39,1091.27 1992.78,1129.14 1997.17,1206.74 2001.56,1159.96 2005.95,1106.99 2010.34,997.262 2014.73,1042.93 2019.12,1008.47 2023.51,930.014 2027.9,822.224 2032.29,746.328 2036.68,733.257 2041.07,722.105 2045.46,784.333 2049.85,717.877 2054.24,786.408 2058.63,816.306 2063.02,1009.52 2067.41,1040 2071.8,1157.19 2076.19,1235.75 2080.58,1250.04 2084.97,1262.27 2089.36,1237.69 2093.75,1249.49 2098.14,1179.25 2102.53,1113.99 2106.92,1043.74 2111.31,1089.43 2115.7,1059.33 2120.09,942.231 2124.48,965.94 2128.87,951.905 2133.26,922.206 2137.65,926.881 2142.04,884.448 2146.43,836.305 2150.82,891.193 2155.21,860.127 2159.6,881.207 2163.99,955.114 2168.38,1009.02 2172.77,941.28 2177.16,948.729 2181.55,1048.19 2185.94,1055.87 2190.33,1098.94 2194.72,1173.2 2199.11,1192.99 2203.5,1116.29 2207.89,1066.9 2212.28,1025.99 2216.67,961.087 2221.06,906.798 2225.45,814.3 2229.84,763.433 2234.23,825.56 2238.62,859.213 2243.01,857.192 2247.4,852.541 2251.79,941.351 2256.18,1030.45 2260.57,1106.21 2264.96,1133.95 2269.35,1056.71 2273.74,1008.19 2278.13,1048.93 2282.52,980.856 2286.91,1090.94 2291.3,1113.48 2295.69,1180.61 2300.08,1227.92 2304.47,1209.85 2308.86,1265.41 2313.25,1278.42 2317.64,1249.09 2322.03,1194.24 2326.42,1138.37 2330.81,1072.44 2335.2,985.105 2339.59,952.593 2343.98,896.943 2348.37,842.139 2352.76,902.231 "/>
<polyline clip-path="url(#clip082)" style="stroke:#ff0000; stroke-linecap:round; stroke-linejoin:round; stroke-width:8; stroke-opacity:1; fill:none" points="162.144,1014.98 166.534,1045.24 170.924,1178.91 175.314,1278.19 179.704,1312.01 184.094,1282.29 188.484,1334.72 192.874,1293.66 197.264,1275.82 201.654,1283.22 206.044,1154.43 210.434,997.426 214.824,945.04 219.214,939.252 223.604,947.431 227.994,979.101 232.384,949.51 236.774,931.646 241.164,944 245.554,983.479 249.944,1015.44 254.334,988.496 258.724,981.608 263.114,988.794 267.504,964.355 271.894,934.683 276.284,856.354 280.674,813.782 285.064,784.952 289.454,773.548 293.844,809.341 298.234,878.271 302.624,912.028 307.014,964.503 311.404,1003.62 315.794,1014.64 320.184,1061.86 324.574,979.91 328.964,936.455 333.354,921.707 337.744,936.978 342.134,971.543 346.524,1058.67 350.914,1111.69 355.304,1124.69 359.694,1100.89 364.084,1064.73 368.474,986.731 372.864,985.834 377.254,969.854 381.644,959.439 386.034,963.856 390.424,980.692 394.814,995.065 399.204,1038.93 403.594,1120.23 407.984,1101.47 412.374,1156.21 416.764,1164.26 421.154,1210.57 425.544,1106.71 429.934,1083.14 434.324,1079.87 438.714,1149.66 443.104,1145.82 447.494,1173.85 451.884,1205.47 456.274,1240.14 460.664,1200.95 465.054,1081.54 469.444,1001.37 473.834,913.432 478.224,778.648 482.614,715.67 487.004,678.866 491.394,646.02 495.784,665.939 500.174,720.56 504.564,776.708 508.954,856.868 513.344,879.25 517.734,935.273 522.124,1004.82 526.514,1130.55 530.904,1263.2 535.294,1376.41 539.684,1431.69 544.074,1498.24 548.464,1487 552.854,1458.55 557.244,1303.48 561.634,1237.9 566.024,1195.46 570.414,1136.71 574.804,956.45 579.194,894.426 583.584,788.286 587.974,656.414 592.364,595.385 596.754,631.945 601.144,728.469 605.534,846.501 609.924,973.426 614.314,1152.07 618.704,1250.84 623.094,1249.45 627.484,1287.39 631.874,1249.79 636.264,1321.17 640.654,1166.19 645.044,1129.82 649.434,1011.74 653.824,933.868 658.214,891.94 662.604,912.741 666.994,916.336 671.384,958.699 675.774,935.358 680.164,884.156 684.554,848.93 688.944,840.981 693.334,830.97 697.724,810.485 702.114,786.644 706.504,781.683 710.894,801.147 715.284,811.506 719.674,816.275 724.064,844.283 728.454,866.537 732.844,908.583 737.234,932.527 741.624,971.563 746.014,1005.44 750.404,1087.89 754.794,1115.04 759.184,1099.24 763.574,1143.46 767.964,1170.48 772.354,1154.2 776.744,1138.5 781.134,1111.14 785.524,1007.69 789.914,939.062 794.304,939.306 798.694,928.001 803.084,929.065 807.474,912.258 811.864,944.281 816.254,1021.89 820.644,1082.06 825.034,1151.14 829.424,1259.54 833.814,1279.17 838.204,1319.53 842.594,1299.1 846.984,1185.06 851.374,1151.53 855.764,1032.56 860.154,974.139 864.544,952.413 868.934,972.601 873.324,986.382 877.714,962.34 882.104,966.637 886.494,1033.99 890.884,1134.17 895.274,1179.74 899.664,1215.39 904.054,1180.81 908.444,1135.06 912.834,1056.94 917.224,1016.58 921.614,986.457 926.004,894.441 930.394,885.466 934.784,870.097 939.174,886.127 943.564,899.935 947.954,902.274 952.344,935.283 956.734,947.168 961.124,1027.79 965.515,1063.61 969.905,1130.73 974.295,1203.17 978.685,1236.12 983.075,1160.21 987.465,1202.42 991.855,1179.59 996.245,1193.75 1000.63,1202.5 1005.02,1077.12 1009.41,1006.09 1013.8,996.417 1018.19,905.622 1022.58,872.944 1026.97,881.819 1031.36,882.741 1035.75,917.618 1040.14,951.88 1044.53,955.839 1048.92,981.988 1053.31,958.181 1057.7,979.555 1062.09,988.146 1066.48,1041.46 1070.87,1104.25 1075.26,1153.55 1079.65,1178.77 1084.04,1158.6 1088.43,1144.51 1092.82,1132.77 1097.21,1104.67 1101.6,1081.25 1105.99,1013.29 1110.38,983.49 1114.77,1011.69 1119.16,1050.17 1123.55,1073.16 1127.94,1103.4 1132.33,1175.74 1136.72,1218.66 1141.11,1211.65 1145.5,1165.32 1149.89,1169.86 1154.28,1093.9 1158.67,956.211 1163.06,925.144 1167.45,876.154 1171.84,842.358 1176.23,801.09 1180.62,811.759 1185.01,880.877 1189.4,942.51 1193.79,1011.41 1198.18,1040.22 1202.57,1097.06 1206.96,1172.26 1211.35,1210.71 1215.74,1283.55 1220.13,1168.54 1224.52,1116.31 1228.91,1058.73 1233.3,1078.76 1237.69,1016.34 1242.08,965.142 1246.47,910.304 1250.86,904.439 1255.25,927.641 1259.64,962.724 1264.03,1029.87 1268.42,1115.93 1272.81,1205.37 1277.2,1213.7 1281.59,1237.11 1285.98,1232.1 1290.37,1243.55 1294.76,1216.26 1299.15,1262.14 1303.54,1238.46 1307.93,1187.47 1312.32,1017.58 1316.71,857.857 1321.1,754.184 1325.49,663.869 1329.88,661.972 1334.27,676.555 1338.66,707.173 1343.05,776.179 1347.44,864.37 1351.83,966.192 1356.22,1089.9 1360.61,1235.81 1365,1351.82 1369.39,1339.76 1373.78,1257.86 1378.17,1310.74 1382.56,1249.9 1386.95,1192.12 1391.34,1159.07 1395.73,1157.45 1400.12,1071.41 1404.51,985.85 1408.9,932.403 1413.29,874.325 1417.68,888.691 1422.07,885.156 1426.46,902.405 1430.85,938.783 1435.24,968.981 1439.63,1068.62 1444.02,1136.62 1448.41,1134.65 1452.8,1205.43 1457.2,1121.34 1461.59,1051.94 1465.98,1003.91 1470.37,947.449 1474.76,947.248 1479.15,950.286 1483.54,937.691 1487.93,937.987 1492.32,997.371 1496.71,1000.94 1501.1,1035.87 1505.49,1089.33 1509.88,1133.15 1514.27,1045.75 1518.66,988.632 1523.05,996.628 1527.44,1054.66 1531.83,1125.17 1536.22,1190.86 1540.61,1172 1545,1114.76 1549.39,1040.14 1553.78,983.487 1558.17,899.664 1562.56,802.484 1566.95,758.314 1571.34,765.345 1575.73,812.698 1580.12,896.253 1584.51,979.349 1588.9,1027.5 1593.29,1072.34 1597.68,1092.9 1602.07,1084.44 1606.46,1063.19 1610.85,1015.33 1615.24,992.808 1619.63,902.035 1624.02,872.621 1628.41,849.692 1632.8,838.772 1637.19,856.981 1641.58,860.325 1645.97,879.735 1650.36,899.203 1654.75,917.871 1659.14,993.542 1663.53,1049.02 1667.92,1113.99 1672.31,1139.13 1676.7,1137.69 1681.09,1202.44 1685.48,1225.98 1689.87,1260.16 1694.26,1198.81 1698.65,1216.94 1703.04,1191.03 1707.43,1200.76 1711.82,1181.89 1716.21,1216.52 1720.6,1128.85 1724.99,1073.14 1729.38,1005.24 1733.77,939.916 1738.16,853.448 1742.55,781.182 1746.94,805.632 1751.33,859.324 1755.72,902.577 1760.11,952.854 1764.5,1016.83 1768.89,1072.8 1773.28,1169.52 1777.67,1303.6 1782.06,1385.03 1786.45,1403.22 1790.84,1419.94 1795.23,1256.72 1799.62,1224.57 1804.01,1166.44 1808.4,1015.64 1812.79,956.255 1817.18,842.414 1821.57,723.391 1825.96,687.546 1830.35,692.475 1834.74,727.113 1839.13,780.433 1843.52,852.7 1847.91,957.011 1852.3,1003.65 1856.69,1003.88 1861.08,1003.11 1865.47,1015.79 1869.86,993.446 1874.25,988.901 1878.64,1044.9 1883.03,1056.78 1887.42,1096.1 1891.81,1082.46 1896.2,1141.35 1900.59,1157.28 1904.98,1247.07 1909.37,1268.49 1913.76,1257.53 1918.15,1170.93 1922.54,1097.99 1926.93,1013.22 1931.32,928.2 1935.71,892.896 1940.1,901.066 1944.49,904.047 1948.88,909.405 1953.27,951.034 1957.66,961.347 1962.05,957.237 1966.44,986.271 1970.83,1053.38 1975.22,1056.16 1979.61,1060.7 1984,1019.34 1988.39,998.029 1992.78,939.422 1997.17,887.142 2001.56,840.407 2005.95,833.045 2010.34,857.264 2014.73,883.36 2019.12,913.445 2023.51,991.62 2027.9,1101.23 2032.29,1171.27 2036.68,1228.81 2041.07,1277.58 2045.46,1315.39 2049.85,1416.47 2054.24,1446.69 2058.63,1395.7 2063.02,1183.86 2067.41,1111.29 2071.8,1039.26 2076.19,910.784 2080.58,808.728 2084.97,770.002 2089.36,742.504 2093.75,749.301 2098.14,788.625 2102.53,854.499 2106.92,905.652 2111.31,963.142 2115.7,985.938 2120.09,1041.97 2124.48,1059.79 2128.87,1050.81 2133.26,1044.53 2137.65,1080.09 2142.04,1150.81 2146.43,1194.68 2150.82,1213.63 2155.21,1236.74 2159.6,1185.93 2163.99,1132.9 2168.38,1102.9 2172.77,1151.1 2177.16,1127.09 2181.55,1052.1 2185.94,973.79 2190.33,924.115 2194.72,847.66 2199.11,800.744 2203.5,808.127 2207.89,861.47 2212.28,968.735 2216.67,1066.77 2221.06,1159.59 2225.45,1270.71 2229.84,1280.72 2234.23,1263.78 2238.62,1254.26 2243.01,1243.89 2247.4,1205.56 2251.79,1196.33 2256.18,1096.94 2260.57,1029.28 2264.96,981.018 2269.35,1047.91 2273.74,1078.13 2278.13,1060.36 2282.52,1079.75 2286.91,1049.67 2291.3,953.021 2295.69,847.934 2300.08,794.807 2304.47,692.201 2308.86,657.959 2313.25,666.571 2317.64,717.176 2322.03,795.115 2326.42,858.051 2330.81,916.389 2335.2,981.241 2339.59,1040.85 2343.98,1133.04 2348.37,1143.66 2352.76,1140.92 "/>
<polyline clip-path="url(#clip082)" style="stroke:#000000; stroke-linecap:round; stroke-linejoin:round; stroke-width:8; stroke-opacity:1; fill:none" points="162.144,583.024 166.534,603.154 170.924,567.529 175.314,532.331 179.704,461.148 184.094,447.493 188.484,402.688 192.874,421.855 197.264,465.928 201.654,286.619 206.044,224.325 210.434,328.924 214.824,453.216 219.214,556.177 223.604,552.435 227.994,461.319 232.384,574.567 236.774,578.792 241.164,570.185 245.554,521.374 249.944,477.377 254.334,529.071 258.724,576.603 263.114,509.069 267.504,483.871 271.894,510.099 276.284,536.203 280.674,596.915 285.064,637.493 289.454,659.369 293.844,712.688 298.234,740.761 302.624,690.407 307.014,708.444 311.404,577.19 315.794,557.704 320.184,452.474 324.574,464.434 328.964,496.093 333.354,576.595 337.744,599.087 342.134,668.763 346.524,629.678 350.914,586.669 355.304,541.202 359.694,502.553 364.084,459.672 368.474,451.84 372.864,528.684 377.254,509.09 381.644,581.6 386.034,599.576 390.424,569.344 394.814,628.067 399.204,620.238 403.594,517.45 407.984,511.14 412.374,452.197 416.764,469.473 421.154,382.696 425.544,440.735 429.934,544.302 434.324,565.303 438.714,513.784 443.104,520.241 447.494,427.09 451.884,350.358 456.274,257.74 460.664,254.107 465.054,242.392 469.444,282.681 473.834,219.368 478.224,296.479 482.614,376.083 487.004,425.252 491.394,555.629 495.784,698.432 500.174,727.562 504.564,712.746 508.954,780.504 513.344,778.11 517.734,880.146 522.124,865.259 526.514,854.047 530.904,757.846 535.294,690.392 539.684,554.957 544.074,350.933 548.464,268.777 552.854,164.525 557.244,248.755 561.634,164.275 566.024,163.924 570.414,173.652 574.804,224.822 579.194,225.839 583.584,317.279 587.974,467.547 592.364,551.867 596.754,750.923 601.144,887.478 605.534,929.205 609.924,890.278 614.314,855.643 618.704,702.16 623.094,757.583 627.484,652.24 631.874,552.351 636.264,411.643 640.654,400.695 645.044,314.928 649.434,356.574 653.824,411.404 658.214,502.591 662.604,498.345 666.994,620.366 671.384,614.166 675.774,563.078 680.164,559.573 684.554,653.006 688.944,617.816 693.334,581.595 697.724,550.051 702.114,596.879 706.504,574.536 710.894,624.334 715.284,587.997 719.674,726.939 724.064,759.897 728.454,779.933 732.844,747.427 737.234,731.91 741.624,756.24 746.014,713.298 750.404,714.719 754.794,618.192 759.184,632.386 763.574,568.777 767.964,579.878 772.354,519.166 776.744,504.675 781.134,456.921 785.524,503.676 789.914,570.404 794.304,553.625 798.694,649.328 803.084,737.159 807.474,816.233 811.864,826.236 816.254,818.022 820.644,768.678 825.034,789.828 829.424,676.806 833.814,607.924 838.204,512.23 842.594,405.453 846.984,378.689 851.374,325.08 855.764,360.147 860.154,391.123 864.544,377.086 868.934,454.759 873.324,474.616 877.714,507.726 882.104,568.989 886.494,634.58 890.884,506.684 895.274,473.952 899.664,380.508 904.054,359.201 908.444,318.243 912.834,338.988 917.224,322.93 921.614,330.961 926.004,379.538 930.394,351.964 934.784,476.677 939.174,527.554 943.564,523.248 947.954,554.682 952.344,575.432 956.734,647.926 961.124,684.314 965.515,728.674 969.905,686.623 974.295,576.589 978.685,540.946 983.075,590.409 987.465,477.24 991.855,542.116 996.245,482.208 1000.63,403.626 1005.02,345.182 1009.41,363.822 1013.8,329.348 1018.19,391.999 1022.58,553.419 1026.97,548.227 1031.36,554.589 1035.75,595.382 1040.14,614.785 1044.53,550.113 1048.92,594.518 1053.31,587.668 1057.7,568.136 1062.09,625.611 1066.48,638.526 1070.87,609.232 1075.26,627.89 1079.65,603.383 1084.04,561.217 1088.43,567.73 1092.82,515.473 1097.21,483.497 1101.6,443.008 1105.99,487.224 1110.38,514.089 1114.77,527.807 1119.16,463.356 1123.55,501.729 1127.94,533.346 1132.33,461.175 1136.72,497.223 1141.11,472.649 1145.5,543.426 1149.89,515.637 1154.28,402.208 1158.67,445.899 1163.06,369.089 1167.45,396.693 1171.84,453.109 1176.23,578.298 1180.62,625.637 1185.01,635.232 1189.4,734.694 1193.79,610.144 1198.18,646.506 1202.57,629.941 1206.96,595.722 1211.35,569.231 1215.74,461.187 1220.13,464.065 1224.52,471.208 1228.91,530.234 1233.3,498.713 1237.69,528.936 1242.08,504.792 1246.47,581.59 1250.86,599.09 1255.25,615.881 1259.64,655.568 1264.03,631.452 1268.42,638.655 1272.81,613.659 1277.2,643.298 1281.59,566.734 1285.98,544.789 1290.37,488.366 1294.76,398.522 1299.15,302.301 1303.54,227.307 1307.93,225.774 1312.32,218.315 1316.71,310.378 1321.1,321.447 1325.49,538.884 1329.88,642.253 1334.27,693.949 1338.66,689.31 1343.05,675.758 1347.44,814.587 1351.83,832.675 1356.22,787.61 1360.61,642.232 1365,584.841 1369.39,467.831 1373.78,485.588 1378.17,412.148 1382.56,282.499 1386.95,335.421 1391.34,298.616 1395.73,240.563 1400.12,337.355 1404.51,364.488 1408.9,377.735 1413.29,445.903 1417.68,515.33 1422.07,575.632 1426.46,599.038 1430.85,538.763 1435.24,555.593 1439.63,539.392 1444.02,530.896 1448.41,556.66 1452.8,392.145 1457.2,378 1461.59,376.26 1465.98,477.817 1470.37,485.69 1474.76,493.533 1479.15,512.687 1483.54,572.873 1487.93,579.984 1492.32,588.028 1496.71,622.238 1501.1,609.652 1505.49,515.59 1509.88,438.228 1514.27,498.824 1518.66,585.295 1523.05,668.77 1527.44,630.398 1531.83,565.788 1536.22,492.293 1540.61,448.48 1545,399.042 1549.39,421.769 1553.78,467.273 1558.17,431.817 1562.56,542.455 1566.95,561.193 1571.34,643.733 1575.73,769.368 1580.12,756.721 1584.51,682.37 1588.9,603.535 1593.29,617.546 1597.68,564.223 1602.07,519.226 1606.46,545.332 1610.85,481.877 1615.24,441.661 1619.63,471.33 1624.02,487.835 1628.41,522.707 1632.8,548.756 1637.19,560.672 1641.58,604.297 1645.97,625.032 1650.36,706.586 1654.75,687.807 1659.14,654.303 1663.53,659.597 1667.92,577.541 1672.31,612.194 1676.7,651.027 1681.09,627.524 1685.48,583.466 1689.87,462.957 1694.26,538.937 1698.65,597.728 1703.04,557.087 1707.43,500.119 1711.82,500.707 1716.21,374.096 1720.6,281.309 1724.99,284.803 1729.38,291.007 1733.77,342.043 1738.16,382.947 1742.55,501.559 1746.94,611.969 1751.33,600 1755.72,599.202 1760.11,660.765 1764.5,672.658 1768.89,745.491 1773.28,806.322 1777.67,666.496 1782.06,606.535 1786.45,454.569 1790.84,277.614 1795.23,338.307 1799.62,272.245 1804.01,169.66 1808.4,171.619 1812.79,242.574 1817.18,339.744 1821.57,498.726 1825.96,636.87 1830.35,612.622 1834.74,658.919 1839.13,581.621 1843.52,624.434 1847.91,602.805 1852.3,660.092 1856.69,674.83 1861.08,635.189 1865.47,636.917 1869.86,553.655 1874.25,564.444 1878.64,473.075 1883.03,537.901 1887.42,588.306 1891.81,706.61 1896.2,598.726 1900.59,594.945 1904.98,550.546 1909.37,478.833 1913.76,426.795 1918.15,434.696 1922.54,365.425 1926.93,355.313 1931.32,395.915 1935.71,390.493 1940.1,437.336 1944.49,457.484 1948.88,485.275 1953.27,549.047 1957.66,540.123 1962.05,646.931 1966.44,666.329 1970.83,651.767 1975.22,612.518 1979.61,481.668 1984,464.442 1988.39,465.809 1992.78,536.346 1997.17,597.927 2001.56,647.47 2005.95,771.124 2010.34,781.525 2014.73,733.224 2019.12,774.073 2023.51,857.53 2027.9,819.958 2032.29,772.347 2036.68,737.073 2041.07,658.985 2045.46,545.424 2049.85,417.948 2054.24,288.377 2058.63,217.746 2063.02,263.624 2067.41,278.107 2071.8,168.091 2076.19,243.611 2080.58,329.364 2084.97,409.232 2089.36,531.937 2093.75,529.906 2098.14,598.736 2102.53,597.082 2106.92,648.461 2111.31,682.978 2115.7,703.593 2120.09,647.24 2124.48,685.864 2128.87,611.445 2133.26,644.47 2137.65,645.473 2142.04,669.033 2146.43,591.085 2150.82,546.407 2155.21,500.472 2159.6,467.525 2163.99,474.161 2168.38,531.366 2172.77,473.445 2177.16,456.474 2181.55,451.614 2185.94,479.886 2190.33,486.27 2194.72,478.814 2199.11,629.681 2203.5,744.936 2207.89,746.711 2212.28,739.949 2216.67,712.476 2221.06,716.792 2225.45,616.171 2229.84,567.02 2234.23,525.802 2238.62,535.273 2243.01,535.721 2247.4,527.052 2251.79,447.157 2256.18,418.719 2260.57,402.319 2264.96,451.839 2269.35,443.114 2273.74,386.733 2278.13,449.396 2282.52,333.302 2286.91,273.602 2291.3,295.298 2295.69,412.295 2300.08,482.992 2304.47,599.064 2308.86,639.176 2313.25,784.664 2317.64,756.012 2322.03,752.247 2326.42,802.55 2330.81,758.282 2335.2,777.278 2339.59,767.915 2343.98,789.328 2348.37,678.807 2352.76,716.732 "/>
<polyline clip-path="url(#clip082)" style="stroke:#ff0000; stroke-linecap:round; stroke-linejoin:round; stroke-width:8; stroke-opacity:1; fill:none" points="162.144,497.803 166.534,440.454 170.924,399.276 175.314,381.153 179.704,426.567 184.094,452.87 188.484,446.617 192.874,472.911 197.264,460.967 201.654,555.258 206.044,672.233 210.434,683.889 214.824,651.73 219.214,627.156 223.604,607.452 227.994,604.411 232.384,596.447 236.774,570.605 241.164,552.898 245.554,545.762 249.944,550.086 254.334,570.158 258.724,554.072 263.114,576.481 267.504,595.291 271.894,621.868 276.284,643.349 280.674,655.959 285.064,653.733 289.454,619.496 293.844,560.946 298.234,514.268 302.624,478.053 307.014,456.705 311.404,460.547 315.794,495.506 320.184,532.495 324.574,594.185 328.964,587.1 333.354,580.36 337.744,538.672 342.134,496.155 346.524,477.388 350.914,471.307 355.304,472.456 359.694,515.411 364.084,558.757 368.474,562.226 372.864,543.532 377.254,541.651 381.644,522.8 386.034,509.582 390.424,498.699 394.814,490.881 399.204,484.112 403.594,497.151 407.984,512.331 412.374,505.429 416.764,508.386 421.154,517.054 425.544,547.342 429.934,525.065 434.324,508.661 438.714,490.456 443.104,498.33 447.494,526.114 451.884,556.933 456.274,584.528 460.664,629.755 465.054,700.499 469.444,718.377 473.834,797.205 478.224,800.852 482.614,794.144 487.004,763.662 491.394,706.651 495.784,636.163 500.174,576.041 504.564,513.968 508.954,462.71 513.344,425.206 517.734,369.406 522.124,319.668 526.514,270.993 530.904,254.215 535.294,267.726 539.684,327.584 544.074,418.438 548.464,466.104 552.854,555.622 557.244,579.169 561.634,663.354 566.024,686.754 570.414,713.303 574.804,786.681 579.194,804.005 583.584,811.799 587.974,803.196 592.364,714.985 596.754,604.977 601.144,494.136 605.534,402.863 609.924,333.06 614.314,283.163 618.704,286.616 623.094,312.782 627.484,340.244 631.874,391.317 636.264,435.825 640.654,536.978 645.044,607.384 649.434,633.607 653.824,644.532 658.214,635.863 662.604,598.325 666.994,561.626 671.384,537.693 675.774,547.693 680.164,569.461 684.554,589.107 688.944,600.355 693.334,614.44 697.724,608.204 702.114,592.188 706.504,577.827 710.894,564.255 715.284,558.175 719.674,528.378 724.064,504.203 728.454,497.013 732.844,491.971 737.234,475.395 741.624,455.345 746.014,434.022 750.404,420.871 754.794,420.626 759.184,429.234 763.574,438.119 767.964,441.586 772.354,468.717 776.744,482.953 781.134,543.447 785.524,555.639 789.914,562.981 794.304,548.361 798.694,522.407 803.084,490.084 807.474,462.145 811.864,418.49 816.254,377.348 820.644,361.038 825.034,343.589 829.424,343.44 833.814,375.823 838.204,410.829 842.594,486.476 846.984,558.131 851.374,597.01 855.764,641.902 860.154,641.323 864.544,640.861 868.934,631.042 873.324,606.025 877.714,599.696 882.104,562.763 886.494,521.423 890.884,499.679 895.274,496.159 899.664,525.817 904.054,567.25 908.444,628.724 912.834,642.068 917.224,693.853 921.614,697.336 926.004,691.942 930.394,674.365 934.784,648.273 939.174,608.058 943.564,574.45 947.954,540.234 952.344,522.146 956.734,500.007 961.124,452.551 965.515,420.817 969.905,405.067 974.295,414.971 978.685,425.316 983.075,433.025 987.465,444.806 991.855,446.908 996.245,460.745 1000.63,527.095 1005.02,629.451 1009.41,651.505 1013.8,679.669 1018.19,672.293 1022.58,648.408 1026.97,612.209 1031.36,574.045 1035.75,545.416 1040.14,530.118 1044.53,528.252 1048.92,531.033 1053.31,521.783 1057.7,500.731 1062.09,480.116 1066.48,457.403 1070.87,450.115 1075.26,404.268 1079.65,423.753 1084.04,466.542 1088.43,481.756 1092.82,512.377 1097.21,546.105 1101.6,572.92 1105.99,571.511 1110.38,568.981 1114.77,557.858 1119.16,560.741 1123.55,569.088 1127.94,528.734 1132.33,517.314 1136.72,498.867 1141.11,479.346 1145.5,481.636 1149.89,500.907 1154.28,583.28 1158.67,650.074 1163.06,691.935 1167.45,694.976 1171.84,674.31 1176.23,635.412 1180.62,587.35 1185.01,538.293 1189.4,481.797 1193.79,461.821 1198.18,445.633 1202.57,419.904 1206.96,395.049 1211.35,407.652 1215.74,430.078 1220.13,482.09 1224.52,512.089 1228.91,522.155 1233.3,530.698 1237.69,588.231 1242.08,616.085 1246.47,601.841 1250.86,562.462 1255.25,533.552 1259.64,494.417 1264.03,462.528 1268.42,439.724 1272.81,415.569 1277.2,398.572 1281.59,425.47 1285.98,433.697 1290.37,473.717 1294.76,519.949 1299.15,570.505 1303.54,628.285 1307.93,653.683 1312.32,751.738 1316.71,779.998 1321.1,811.782 1325.49,754.28 1329.88,696.673 1334.27,644.362 1338.66,579.651 1343.05,503.764 1347.44,437.802 1351.83,376.795 1356.22,329.872 1360.61,315.001 1365,335.917 1369.39,415.305 1373.78,445.974 1378.17,484.486 1382.56,578.65 1386.95,595.447 1391.34,620.188 1395.73,653.67 1400.12,633.569 1404.51,670.102 1408.9,690.067 1413.29,674.095 1417.68,639.581 1422.07,617.115 1426.46,574.853 1430.85,546.052 1435.24,522.487 1439.63,492.41 1444.02,477.869 1448.41,484.763 1452.8,530.183 1457.2,598.748 1461.59,625.519 1465.98,605.249 1470.37,589.964 1474.76,566.39 1479.15,554.435 1483.54,532.226 1487.93,513.673 1492.32,510.305 1496.71,496.979 1501.1,485.673 1505.49,512.21 1509.88,542.382 1514.27,553.48 1518.66,535.18 1523.05,502.608 1527.44,472.092 1531.83,455.237 1536.22,464.541 1540.61,528.375 1545,593.029 1549.39,609.143 1553.78,622.133 1558.17,661.515 1562.56,659.267 1566.95,626.261 1571.34,585.289 1575.73,523.826 1580.12,473.974 1584.51,434.131 1588.9,431.94 1593.29,430.414 1597.68,459.841 1602.07,503.957 1606.46,558.336 1610.85,580.192 1615.24,609.097 1619.63,637.81 1624.02,652.576 1628.41,656.022 1632.8,624.597 1637.19,611.22 1641.58,574.639 1645.97,542.956 1650.36,497.421 1654.75,468.822 1659.14,434.562 1663.53,403.721 1667.92,404.84 1672.31,402.183 1676.7,383.91 1681.09,371.552 1685.48,403.318 1689.87,429.259 1694.26,433.931 1698.65,422.643 1703.04,435.692 1707.43,466.384 1711.82,488.424 1716.21,556.531 1720.6,646.413 1724.99,669.134 1729.38,710.486 1733.77,691.754 1738.16,708.963 1742.55,664.765 1746.94,599.239 1751.33,546.264 1755.72,493.379 1760.11,449.857 1764.5,412.653 1768.89,369.748 1773.28,327.89 1777.67,315.283 1782.06,314.146 1786.45,388.58 1790.84,503.293 1795.23,537.264 1799.62,600.394 1804.01,694.172 1808.4,781.436 1812.79,762.934 1817.18,756.641 1821.57,731.229 1825.96,691.507 1830.35,650.42 1834.74,598.087 1839.13,553.288 1843.52,501.048 1847.91,463.606 1852.3,456.789 1856.69,468.581 1861.08,487.539 1865.47,513.276 1869.86,532.284 1874.25,518.846 1878.64,528.28 1883.03,513.905 1887.42,478.106 1891.81,469.233 1896.2,448.555 1900.59,437.995 1904.98,456.961 1909.37,472.649 1913.76,508.189 1918.15,541.454 1922.54,594.014 1926.93,651.833 1931.32,668.995 1935.71,682.07 1940.1,647.774 1944.49,616.698 1948.88,582.761 1953.27,558.917 1957.66,533.477 1962.05,509.066 1966.44,489.898 1970.83,470.072 1975.22,487.499 1979.61,543.645 1984,569.462 1988.39,564.805 1992.78,583.928 1997.17,579.97 2001.56,563.54 2005.95,541.708 2010.34,523.305 2014.73,513.285 2019.12,479.288 2023.51,417.966 2027.9,367.56 2032.29,333.5 2036.68,320.371 2041.07,333.864 2045.46,367.319 2049.85,395.657 2054.24,467.563 2058.63,550.656 2063.02,636.238 2067.41,661.45 2071.8,758.071 2076.19,791.231 2080.58,776.827 2084.97,720.612 2089.36,680.673 2093.75,635.249 2098.14,582.77 2102.53,534.41 2106.92,504.044 2111.31,475.543 2115.7,460.169 2120.09,463.489 2124.48,460.231 2128.87,452.665 2133.26,428.272 2137.65,391.241 2142.04,374.852 2146.43,394.059 2150.82,422.812 2155.21,447.886 2159.6,491.379 2163.99,499.075 2168.38,510.743 2172.77,516.771 2177.16,530.996 2181.55,582.508 2185.94,604.328 2190.33,640.065 2194.72,640.268 2199.11,600.603 2203.5,548.104 2207.89,488.111 2212.28,440.208 2216.67,398.657 2221.06,377.605 2225.45,369.311 2229.84,386.638 2234.23,409.399 2238.62,415.027 2243.01,428.335 2247.4,459.459 2251.79,489.625 2256.18,568.367 2260.57,613.923 2264.96,594.831 2269.35,583.031 2273.74,604.621 2278.13,600.132 2282.52,640.503 2286.91,687.051 2291.3,712.982 2295.69,719.658 2300.08,719.206 2304.47,698.398 2308.86,658.806 2313.25,598.534 2317.64,538.26 2322.03,478.344 2326.42,435.406 2330.81,408.339 2335.2,376.004 2339.59,350.179 2343.98,330.332 2348.37,352.139 2352.76,364.931 "/>
</svg>
