<?xml version="1.0" encoding="utf-8"?>
<svg xmlns="http://www.w3.org/2000/svg" xmlns:xlink="http://www.w3.org/1999/xlink" width="600" height="400" viewBox="0 0 2400 1600">
<defs>
  <clipPath id="clip440">
    <rect x="0" y="0" width="2400" height="1600"/>
  </clipPath>
</defs>
<path clip-path="url(#clip440)" d="M0 1600 L2400 1600 L2400 0 L0 0  Z" fill="#ffffff" fill-rule="evenodd" fill-opacity="1"/>
<defs>
  <clipPath id="clip441">
    <rect x="480" y="0" width="1681" height="1600"/>
  </clipPath>
</defs>
<path clip-path="url(#clip440)" d="M377.713 1423.18 L2352.76 1423.18 L2352.76 47.2441 L377.713 47.2441  Z" fill="#ffffff" fill-rule="evenodd" fill-opacity="1"/>
<defs>
  <clipPath id="clip442">
    <rect x="377" y="47" width="1976" height="1377"/>
  </clipPath>
</defs>
<polyline clip-path="url(#clip442)" style="stroke:#000000; stroke-linecap:round; stroke-linejoin:round; stroke-width:2; stroke-opacity:0.1; fill:none" points="744.151,1423.18 744.151,47.2441 "/>
<polyline clip-path="url(#clip442)" style="stroke:#000000; stroke-linecap:round; stroke-linejoin:round; stroke-width:2; stroke-opacity:0.1; fill:none" points="1132.33,1423.18 1132.33,47.2441 "/>
<polyline clip-path="url(#clip442)" style="stroke:#000000; stroke-linecap:round; stroke-linejoin:round; stroke-width:2; stroke-opacity:0.1; fill:none" points="1520.5,1423.18 1520.5,47.2441 "/>
<polyline clip-path="url(#clip442)" style="stroke:#000000; stroke-linecap:round; stroke-linejoin:round; stroke-width:2; stroke-opacity:0.1; fill:none" points="1908.68,1423.18 1908.68,47.2441 "/>
<polyline clip-path="url(#clip442)" style="stroke:#000000; stroke-linecap:round; stroke-linejoin:round; stroke-width:2; stroke-opacity:0.1; fill:none" points="2296.86,1423.18 2296.86,47.2441 "/>
<polyline clip-path="url(#clip442)" style="stroke:#000000; stroke-linecap:round; stroke-linejoin:round; stroke-width:2; stroke-opacity:0.1; fill:none" points="377.713,1263.01 2352.76,1263.01 "/>
<polyline clip-path="url(#clip442)" style="stroke:#000000; stroke-linecap:round; stroke-linejoin:round; stroke-width:2; stroke-opacity:0.1; fill:none" points="377.713,978.448 2352.76,978.448 "/>
<polyline clip-path="url(#clip442)" style="stroke:#000000; stroke-linecap:round; stroke-linejoin:round; stroke-width:2; stroke-opacity:0.1; fill:none" points="377.713,693.888 2352.76,693.888 "/>
<polyline clip-path="url(#clip442)" style="stroke:#000000; stroke-linecap:round; stroke-linejoin:round; stroke-width:2; stroke-opacity:0.1; fill:none" points="377.713,409.328 2352.76,409.328 "/>
<polyline clip-path="url(#clip442)" style="stroke:#000000; stroke-linecap:round; stroke-linejoin:round; stroke-width:2; stroke-opacity:0.1; fill:none" points="377.713,124.769 2352.76,124.769 "/>
<polyline clip-path="url(#clip440)" style="stroke:#000000; stroke-linecap:round; stroke-linejoin:round; stroke-width:4; stroke-opacity:1; fill:none" points="377.713,1423.18 2352.76,1423.18 "/>
<polyline clip-path="url(#clip440)" style="stroke:#000000; stroke-linecap:round; stroke-linejoin:round; stroke-width:4; stroke-opacity:1; fill:none" points="744.151,1423.18 744.151,1404.28 "/>
<polyline clip-path="url(#clip440)" style="stroke:#000000; stroke-linecap:round; stroke-linejoin:round; stroke-width:4; stroke-opacity:1; fill:none" points="1132.33,1423.18 1132.33,1404.28 "/>
<polyline clip-path="url(#clip440)" style="stroke:#000000; stroke-linecap:round; stroke-linejoin:round; stroke-width:4; stroke-opacity:1; fill:none" points="1520.5,1423.18 1520.5,1404.28 "/>
<polyline clip-path="url(#clip440)" style="stroke:#000000; stroke-linecap:round; stroke-linejoin:round; stroke-width:4; stroke-opacity:1; fill:none" points="1908.68,1423.18 1908.68,1404.28 "/>
<polyline clip-path="url(#clip440)" style="stroke:#000000; stroke-linecap:round; stroke-linejoin:round; stroke-width:4; stroke-opacity:1; fill:none" points="2296.86,1423.18 2296.86,1404.28 "/>
<path clip-path="url(#clip440)" d="M734.429 1451.02 L752.786 1451.02 L752.786 1454.96 L738.712 1454.96 L738.712 1463.43 Q739.73 1463.08 740.749 1462.92 Q741.767 1462.73 742.786 1462.73 Q748.573 1462.73 751.952 1465.9 Q755.332 1469.08 755.332 1474.49 Q755.332 1480.07 751.86 1483.17 Q748.388 1486.25 742.068 1486.25 Q739.892 1486.25 737.624 1485.88 Q735.378 1485.51 732.971 1484.77 L732.971 1480.07 Q735.054 1481.2 737.277 1481.76 Q739.499 1482.32 741.976 1482.32 Q745.98 1482.32 748.318 1480.21 Q750.656 1478.1 750.656 1474.49 Q750.656 1470.88 748.318 1468.77 Q745.98 1466.67 741.976 1466.67 Q740.101 1466.67 738.226 1467.08 Q736.374 1467.5 734.429 1468.38 L734.429 1451.02 Z" fill="#000000" fill-rule="nonzero" fill-opacity="1" /><path clip-path="url(#clip440)" d="M1107.02 1481.64 L1114.65 1481.64 L1114.65 1455.28 L1106.34 1456.95 L1106.34 1452.69 L1114.61 1451.02 L1119.28 1451.02 L1119.28 1481.64 L1126.92 1481.64 L1126.92 1485.58 L1107.02 1485.58 L1107.02 1481.64 Z" fill="#000000" fill-rule="nonzero" fill-opacity="1" /><path clip-path="url(#clip440)" d="M1146.37 1454.1 Q1142.76 1454.1 1140.93 1457.66 Q1139.12 1461.2 1139.12 1468.33 Q1139.12 1475.44 1140.93 1479.01 Q1142.76 1482.55 1146.37 1482.55 Q1150 1482.55 1151.81 1479.01 Q1153.64 1475.44 1153.64 1468.33 Q1153.64 1461.2 1151.81 1457.66 Q1150 1454.1 1146.37 1454.1 M1146.37 1450.39 Q1152.18 1450.39 1155.23 1455 Q1158.31 1459.58 1158.31 1468.33 Q1158.31 1477.06 1155.23 1481.67 Q1152.18 1486.25 1146.37 1486.25 Q1140.56 1486.25 1137.48 1481.67 Q1134.42 1477.06 1134.42 1468.33 Q1134.42 1459.58 1137.48 1455 Q1140.56 1450.39 1146.37 1450.39 Z" fill="#000000" fill-rule="nonzero" fill-opacity="1" /><path clip-path="url(#clip440)" d="M1495.69 1481.64 L1503.33 1481.64 L1503.33 1455.28 L1495.02 1456.95 L1495.02 1452.69 L1503.28 1451.02 L1507.96 1451.02 L1507.96 1481.64 L1515.6 1481.64 L1515.6 1485.58 L1495.69 1485.58 L1495.69 1481.64 Z" fill="#000000" fill-rule="nonzero" fill-opacity="1" /><path clip-path="url(#clip440)" d="M1525.09 1451.02 L1543.44 1451.02 L1543.44 1454.96 L1529.37 1454.96 L1529.37 1463.43 Q1530.39 1463.08 1531.41 1462.92 Q1532.43 1462.73 1533.44 1462.73 Q1539.23 1462.73 1542.61 1465.9 Q1545.99 1469.08 1545.99 1474.49 Q1545.99 1480.07 1542.52 1483.17 Q1539.05 1486.25 1532.73 1486.25 Q1530.55 1486.25 1528.28 1485.88 Q1526.04 1485.51 1523.63 1484.77 L1523.63 1480.07 Q1525.71 1481.2 1527.94 1481.76 Q1530.16 1482.32 1532.63 1482.32 Q1536.64 1482.32 1538.98 1480.21 Q1541.32 1478.1 1541.32 1474.49 Q1541.32 1470.88 1538.98 1468.77 Q1536.64 1466.67 1532.63 1466.67 Q1530.76 1466.67 1528.88 1467.08 Q1527.03 1467.5 1525.09 1468.38 L1525.09 1451.02 Z" fill="#000000" fill-rule="nonzero" fill-opacity="1" /><path clip-path="url(#clip440)" d="M1887.45 1481.64 L1903.77 1481.64 L1903.77 1485.58 L1881.83 1485.58 L1881.83 1481.64 Q1884.49 1478.89 1889.08 1474.26 Q1893.68 1469.61 1894.86 1468.27 Q1897.11 1465.74 1897.99 1464.01 Q1898.89 1462.25 1898.89 1460.56 Q1898.89 1457.8 1896.95 1456.07 Q1895.02 1454.33 1891.92 1454.33 Q1889.72 1454.33 1887.27 1455.09 Q1884.84 1455.86 1882.06 1457.41 L1882.06 1452.69 Q1884.89 1451.55 1887.34 1450.97 Q1889.79 1450.39 1891.83 1450.39 Q1897.2 1450.39 1900.39 1453.08 Q1903.59 1455.77 1903.59 1460.26 Q1903.59 1462.39 1902.78 1464.31 Q1901.99 1466.2 1899.89 1468.8 Q1899.31 1469.47 1896.2 1472.69 Q1893.1 1475.88 1887.45 1481.64 Z" fill="#000000" fill-rule="nonzero" fill-opacity="1" /><path clip-path="url(#clip440)" d="M1923.59 1454.1 Q1919.98 1454.1 1918.15 1457.66 Q1916.34 1461.2 1916.34 1468.33 Q1916.34 1475.44 1918.15 1479.01 Q1919.98 1482.55 1923.59 1482.55 Q1927.22 1482.55 1929.03 1479.01 Q1930.86 1475.44 1930.86 1468.33 Q1930.86 1461.2 1929.03 1457.66 Q1927.22 1454.1 1923.59 1454.1 M1923.59 1450.39 Q1929.4 1450.39 1932.45 1455 Q1935.53 1459.58 1935.53 1468.33 Q1935.53 1477.06 1932.45 1481.67 Q1929.4 1486.25 1923.59 1486.25 Q1917.78 1486.25 1914.7 1481.67 Q1911.64 1477.06 1911.64 1468.33 Q1911.64 1459.58 1914.7 1455 Q1917.78 1450.39 1923.59 1450.39 Z" fill="#000000" fill-rule="nonzero" fill-opacity="1" /><path clip-path="url(#clip440)" d="M2276.13 1481.64 L2292.45 1481.64 L2292.45 1485.58 L2270.5 1485.58 L2270.5 1481.64 Q2273.17 1478.89 2277.75 1474.26 Q2282.36 1469.61 2283.54 1468.27 Q2285.78 1465.74 2286.66 1464.01 Q2287.56 1462.25 2287.56 1460.56 Q2287.56 1457.8 2285.62 1456.07 Q2283.7 1454.33 2280.6 1454.33 Q2278.4 1454.33 2275.94 1455.09 Q2273.51 1455.86 2270.74 1457.41 L2270.74 1452.69 Q2273.56 1451.55 2276.01 1450.97 Q2278.47 1450.39 2280.5 1450.39 Q2285.87 1450.39 2289.07 1453.08 Q2292.26 1455.77 2292.26 1460.26 Q2292.26 1462.39 2291.45 1464.31 Q2290.67 1466.2 2288.56 1468.8 Q2287.98 1469.47 2284.88 1472.69 Q2281.78 1475.88 2276.13 1481.64 Z" fill="#000000" fill-rule="nonzero" fill-opacity="1" /><path clip-path="url(#clip440)" d="M2302.31 1451.02 L2320.67 1451.02 L2320.67 1454.96 L2306.59 1454.96 L2306.59 1463.43 Q2307.61 1463.08 2308.63 1462.92 Q2309.65 1462.73 2310.67 1462.73 Q2316.45 1462.73 2319.83 1465.9 Q2323.21 1469.08 2323.21 1474.49 Q2323.21 1480.07 2319.74 1483.17 Q2316.27 1486.25 2309.95 1486.25 Q2307.77 1486.25 2305.5 1485.88 Q2303.26 1485.51 2300.85 1484.77 L2300.85 1480.07 Q2302.93 1481.2 2305.16 1481.76 Q2307.38 1482.32 2309.86 1482.32 Q2313.86 1482.32 2316.2 1480.21 Q2318.54 1478.1 2318.54 1474.49 Q2318.54 1470.88 2316.2 1468.77 Q2313.86 1466.67 2309.86 1466.67 Q2307.98 1466.67 2306.11 1467.08 Q2304.25 1467.5 2302.31 1468.38 L2302.31 1451.02 Z" fill="#000000" fill-rule="nonzero" fill-opacity="1" /><path clip-path="url(#clip440)" d="M1232.95 1520.52 L1239.38 1520.52 L1239.38 1568.04 L1232.95 1568.04 L1232.95 1520.52 Z" fill="#000000" fill-rule="nonzero" fill-opacity="1" /><path clip-path="url(#clip440)" d="M1257.72 1522.27 L1257.72 1532.4 L1269.78 1532.4 L1269.78 1536.95 L1257.72 1536.95 L1257.72 1556.3 Q1257.72 1560.66 1258.9 1561.9 Q1260.1 1563.14 1263.76 1563.14 L1269.78 1563.14 L1269.78 1568.04 L1263.76 1568.04 Q1256.99 1568.04 1254.41 1565.53 Q1251.83 1562.98 1251.83 1556.3 L1251.83 1536.95 L1247.53 1536.95 L1247.53 1532.4 L1251.83 1532.4 L1251.83 1522.27 L1257.72 1522.27 Z" fill="#000000" fill-rule="nonzero" fill-opacity="1" /><path clip-path="url(#clip440)" d="M1307.97 1548.76 L1307.97 1551.62 L1281.05 1551.62 Q1281.43 1557.67 1284.68 1560.85 Q1287.95 1564 1293.78 1564 Q1297.15 1564 1300.3 1563.17 Q1303.49 1562.35 1306.61 1560.69 L1306.61 1566.23 Q1303.46 1567.57 1300.14 1568.27 Q1296.83 1568.97 1293.43 1568.97 Q1284.9 1568.97 1279.9 1564 Q1274.94 1559.04 1274.94 1550.57 Q1274.94 1541.82 1279.65 1536.69 Q1284.39 1531.54 1292.41 1531.54 Q1299.6 1531.54 1303.77 1536.18 Q1307.97 1540.8 1307.97 1548.76 M1302.12 1547.04 Q1302.05 1542.23 1299.41 1539.37 Q1296.8 1536.5 1292.47 1536.5 Q1287.57 1536.5 1284.61 1539.27 Q1281.68 1542.04 1281.24 1547.07 L1302.12 1547.04 Z" fill="#000000" fill-rule="nonzero" fill-opacity="1" /><path clip-path="url(#clip440)" d="M1338.24 1537.87 Q1337.26 1537.3 1336.08 1537.04 Q1334.93 1536.76 1333.53 1536.76 Q1328.57 1536.76 1325.89 1540 Q1323.25 1543.22 1323.25 1549.27 L1323.25 1568.04 L1317.36 1568.04 L1317.36 1532.4 L1323.25 1532.4 L1323.25 1537.93 Q1325.1 1534.69 1328.06 1533.13 Q1331.02 1531.54 1335.25 1531.54 Q1335.86 1531.54 1336.59 1531.63 Q1337.32 1531.7 1338.21 1531.85 L1338.24 1537.87 Z" fill="#000000" fill-rule="nonzero" fill-opacity="1" /><path clip-path="url(#clip440)" d="M1360.59 1550.12 Q1353.49 1550.12 1350.75 1551.75 Q1348.02 1553.37 1348.02 1557.29 Q1348.02 1560.4 1350.05 1562.25 Q1352.12 1564.07 1355.65 1564.07 Q1360.52 1564.07 1363.45 1560.63 Q1366.41 1557.16 1366.41 1551.43 L1366.41 1550.12 L1360.59 1550.12 M1372.27 1547.71 L1372.27 1568.04 L1366.41 1568.04 L1366.41 1562.63 Q1364.41 1565.88 1361.41 1567.44 Q1358.42 1568.97 1354.09 1568.97 Q1348.62 1568.97 1345.37 1565.91 Q1342.16 1562.82 1342.16 1557.67 Q1342.16 1551.65 1346.17 1548.6 Q1350.21 1545.54 1358.2 1545.54 L1366.41 1545.54 L1366.41 1544.97 Q1366.41 1540.93 1363.74 1538.73 Q1361.1 1536.5 1356.29 1536.5 Q1353.23 1536.5 1350.34 1537.23 Q1347.44 1537.97 1344.77 1539.43 L1344.77 1534.02 Q1347.98 1532.78 1351.01 1532.17 Q1354.03 1531.54 1356.9 1531.54 Q1364.63 1531.54 1368.45 1535.55 Q1372.27 1539.56 1372.27 1547.71 Z" fill="#000000" fill-rule="nonzero" fill-opacity="1" /><path clip-path="url(#clip440)" d="M1390.12 1522.27 L1390.12 1532.4 L1402.19 1532.4 L1402.19 1536.95 L1390.12 1536.95 L1390.12 1556.3 Q1390.12 1560.66 1391.3 1561.9 Q1392.51 1563.14 1396.17 1563.14 L1402.19 1563.14 L1402.19 1568.04 L1396.17 1568.04 Q1389.39 1568.04 1386.81 1565.53 Q1384.24 1562.98 1384.24 1556.3 L1384.24 1536.95 L1379.94 1536.95 L1379.94 1532.4 L1384.24 1532.4 L1384.24 1522.27 L1390.12 1522.27 Z" fill="#000000" fill-rule="nonzero" fill-opacity="1" /><path clip-path="url(#clip440)" d="M1409.89 1532.4 L1415.75 1532.4 L1415.75 1568.04 L1409.89 1568.04 L1409.89 1532.4 M1409.89 1518.52 L1415.75 1518.52 L1415.75 1525.93 L1409.89 1525.93 L1409.89 1518.52 Z" fill="#000000" fill-rule="nonzero" fill-opacity="1" /><path clip-path="url(#clip440)" d="M1441.81 1536.5 Q1437.1 1536.5 1434.37 1540.19 Q1431.63 1543.85 1431.63 1550.25 Q1431.63 1556.65 1434.33 1560.34 Q1437.07 1564 1441.81 1564 Q1446.49 1564 1449.23 1560.31 Q1451.97 1556.62 1451.97 1550.25 Q1451.97 1543.92 1449.23 1540.23 Q1446.49 1536.5 1441.81 1536.5 M1441.81 1531.54 Q1449.45 1531.54 1453.81 1536.5 Q1458.17 1541.47 1458.17 1550.25 Q1458.17 1559 1453.81 1564 Q1449.45 1568.97 1441.81 1568.97 Q1434.14 1568.97 1429.78 1564 Q1425.45 1559 1425.45 1550.25 Q1425.45 1541.47 1429.78 1536.5 Q1434.14 1531.54 1441.81 1531.54 Z" fill="#000000" fill-rule="nonzero" fill-opacity="1" /><path clip-path="url(#clip440)" d="M1497.51 1546.53 L1497.51 1568.04 L1491.66 1568.04 L1491.66 1546.72 Q1491.66 1541.66 1489.68 1539.14 Q1487.71 1536.63 1483.76 1536.63 Q1479.02 1536.63 1476.28 1539.65 Q1473.55 1542.68 1473.55 1547.9 L1473.55 1568.04 L1467.66 1568.04 L1467.66 1532.4 L1473.55 1532.4 L1473.55 1537.93 Q1475.65 1534.72 1478.48 1533.13 Q1481.34 1531.54 1485.07 1531.54 Q1491.21 1531.54 1494.36 1535.36 Q1497.51 1539.14 1497.51 1546.53 Z" fill="#000000" fill-rule="nonzero" fill-opacity="1" /><polyline clip-path="url(#clip440)" style="stroke:#000000; stroke-linecap:round; stroke-linejoin:round; stroke-width:4; stroke-opacity:1; fill:none" points="377.713,1423.18 377.713,47.2441 "/>
<polyline clip-path="url(#clip440)" style="stroke:#000000; stroke-linecap:round; stroke-linejoin:round; stroke-width:4; stroke-opacity:1; fill:none" points="377.713,1263.01 396.61,1263.01 "/>
<polyline clip-path="url(#clip440)" style="stroke:#000000; stroke-linecap:round; stroke-linejoin:round; stroke-width:4; stroke-opacity:1; fill:none" points="377.713,978.448 396.61,978.448 "/>
<polyline clip-path="url(#clip440)" style="stroke:#000000; stroke-linecap:round; stroke-linejoin:round; stroke-width:4; stroke-opacity:1; fill:none" points="377.713,693.888 396.61,693.888 "/>
<polyline clip-path="url(#clip440)" style="stroke:#000000; stroke-linecap:round; stroke-linejoin:round; stroke-width:4; stroke-opacity:1; fill:none" points="377.713,409.328 396.61,409.328 "/>
<polyline clip-path="url(#clip440)" style="stroke:#000000; stroke-linecap:round; stroke-linejoin:round; stroke-width:4; stroke-opacity:1; fill:none" points="377.713,124.769 396.61,124.769 "/>
<path clip-path="url(#clip440)" d="M116.555 1269.91 L146.23 1269.91 L146.23 1273.84 L116.555 1273.84 L116.555 1269.91 Z" fill="#000000" fill-rule="nonzero" fill-opacity="1" /><path clip-path="url(#clip440)" d="M157.133 1282.8 L164.772 1282.8 L164.772 1256.43 L156.462 1258.1 L156.462 1253.84 L164.726 1252.18 L169.402 1252.18 L169.402 1282.8 L177.04 1282.8 L177.04 1286.74 L157.133 1286.74 L157.133 1282.8 Z" fill="#000000" fill-rule="nonzero" fill-opacity="1" /><path clip-path="url(#clip440)" d="M186.485 1280.86 L191.369 1280.86 L191.369 1286.74 L186.485 1286.74 L186.485 1280.86 Z" fill="#000000" fill-rule="nonzero" fill-opacity="1" /><path clip-path="url(#clip440)" d="M211.554 1255.25 Q207.943 1255.25 206.114 1258.82 Q204.309 1262.36 204.309 1269.49 Q204.309 1276.6 206.114 1280.16 Q207.943 1283.7 211.554 1283.7 Q215.188 1283.7 216.994 1280.16 Q218.823 1276.6 218.823 1269.49 Q218.823 1262.36 216.994 1258.82 Q215.188 1255.25 211.554 1255.25 M211.554 1251.55 Q217.364 1251.55 220.42 1256.16 Q223.499 1260.74 223.499 1269.49 Q223.499 1278.22 220.42 1282.82 Q217.364 1287.41 211.554 1287.41 Q205.744 1287.41 202.665 1282.82 Q199.61 1278.22 199.61 1269.49 Q199.61 1260.74 202.665 1256.16 Q205.744 1251.55 211.554 1251.55 Z" fill="#000000" fill-rule="nonzero" fill-opacity="1" /><path clip-path="url(#clip440)" d="M259.887 1261.27 L249.309 1271.9 L259.887 1282.48 L257.133 1285.28 L246.508 1274.65 L235.883 1285.28 L233.151 1282.48 L243.707 1271.9 L233.151 1261.27 L235.883 1258.47 L246.508 1269.1 L257.133 1258.47 L259.887 1261.27 Z" fill="#000000" fill-rule="nonzero" fill-opacity="1" /><path clip-path="url(#clip440)" d="M272.248 1282.8 L279.887 1282.8 L279.887 1256.43 L271.577 1258.1 L271.577 1253.84 L279.841 1252.18 L284.517 1252.18 L284.517 1282.8 L292.156 1282.8 L292.156 1286.74 L272.248 1286.74 L272.248 1282.8 Z" fill="#000000" fill-rule="nonzero" fill-opacity="1" /><path clip-path="url(#clip440)" d="M311.6 1255.25 Q307.989 1255.25 306.16 1258.82 Q304.355 1262.36 304.355 1269.49 Q304.355 1276.6 306.16 1280.16 Q307.989 1283.7 311.6 1283.7 Q315.234 1283.7 317.04 1280.16 Q318.868 1276.6 318.868 1269.49 Q318.868 1262.36 317.04 1258.82 Q315.234 1255.25 311.6 1255.25 M311.6 1251.55 Q317.41 1251.55 320.466 1256.16 Q323.544 1260.74 323.544 1269.49 Q323.544 1278.22 320.466 1282.82 Q317.41 1287.41 311.6 1287.41 Q305.79 1287.41 302.711 1282.82 Q299.656 1278.22 299.656 1269.49 Q299.656 1260.74 302.711 1256.16 Q305.79 1251.55 311.6 1251.55 Z" fill="#000000" fill-rule="nonzero" fill-opacity="1" /><path clip-path="url(#clip440)" d="M324.729 1231.25 L339.644 1231.25 L339.644 1234.44 L328.209 1234.44 L328.209 1241.33 Q329.036 1241.04 329.864 1240.91 Q330.691 1240.76 331.519 1240.76 Q336.221 1240.76 338.967 1243.34 Q341.713 1245.92 341.713 1250.32 Q341.713 1254.85 338.891 1257.37 Q336.07 1259.87 330.936 1259.87 Q329.168 1259.87 327.325 1259.57 Q325.5 1259.27 323.544 1258.67 L323.544 1254.85 Q325.237 1255.77 327.043 1256.22 Q328.848 1256.67 330.861 1256.67 Q334.114 1256.67 336.014 1254.96 Q337.913 1253.25 337.913 1250.32 Q337.913 1247.38 336.014 1245.67 Q334.114 1243.96 330.861 1243.96 Q329.337 1243.96 327.814 1244.3 Q326.309 1244.64 324.729 1245.35 L324.729 1231.25 Z" fill="#000000" fill-rule="nonzero" fill-opacity="1" /><path clip-path="url(#clip440)" d="M114.26 985.347 L143.936 985.347 L143.936 989.282 L114.26 989.282 L114.26 985.347 Z" fill="#000000" fill-rule="nonzero" fill-opacity="1" /><path clip-path="url(#clip440)" d="M164.028 985.764 Q160.695 985.764 158.774 987.546 Q156.876 989.329 156.876 992.454 Q156.876 995.579 158.774 997.361 Q160.695 999.143 164.028 999.143 Q167.362 999.143 169.283 997.361 Q171.204 995.556 171.204 992.454 Q171.204 989.329 169.283 987.546 Q167.385 985.764 164.028 985.764 M159.353 983.773 Q156.343 983.032 154.653 980.972 Q152.987 978.912 152.987 975.949 Q152.987 971.806 155.927 969.398 Q158.89 966.991 164.028 966.991 Q169.19 966.991 172.13 969.398 Q175.07 971.806 175.07 975.949 Q175.07 978.912 173.38 980.972 Q171.714 983.032 168.727 983.773 Q172.107 984.56 173.982 986.852 Q175.88 989.144 175.88 992.454 Q175.88 997.477 172.802 1000.16 Q169.746 1002.85 164.028 1002.85 Q158.311 1002.85 155.232 1000.16 Q152.177 997.477 152.177 992.454 Q152.177 989.144 154.075 986.852 Q155.973 984.56 159.353 983.773 M157.64 976.389 Q157.64 979.074 159.306 980.579 Q160.996 982.083 164.028 982.083 Q167.038 982.083 168.727 980.579 Q170.44 979.074 170.44 976.389 Q170.44 973.704 168.727 972.199 Q167.038 970.695 164.028 970.695 Q160.996 970.695 159.306 972.199 Q157.64 973.704 157.64 976.389 Z" fill="#000000" fill-rule="nonzero" fill-opacity="1" /><path clip-path="url(#clip440)" d="M184.19 996.296 L189.075 996.296 L189.075 1002.18 L184.19 1002.18 L184.19 996.296 Z" fill="#000000" fill-rule="nonzero" fill-opacity="1" /><path clip-path="url(#clip440)" d="M209.26 970.695 Q205.649 970.695 203.82 974.259 Q202.014 977.801 202.014 984.931 Q202.014 992.037 203.82 995.602 Q205.649 999.143 209.26 999.143 Q212.894 999.143 214.699 995.602 Q216.528 992.037 216.528 984.931 Q216.528 977.801 214.699 974.259 Q212.894 970.695 209.26 970.695 M209.26 966.991 Q215.07 966.991 218.125 971.597 Q221.204 976.181 221.204 984.931 Q221.204 993.657 218.125 998.264 Q215.07 1002.85 209.26 1002.85 Q203.449 1002.85 200.371 998.264 Q197.315 993.657 197.315 984.931 Q197.315 976.181 200.371 971.597 Q203.449 966.991 209.26 966.991 Z" fill="#000000" fill-rule="nonzero" fill-opacity="1" /><path clip-path="url(#clip440)" d="M257.593 976.713 L247.014 987.338 L257.593 997.917 L254.838 1000.72 L244.213 990.093 L233.588 1000.72 L230.857 997.917 L241.412 987.338 L230.857 976.713 L233.588 973.912 L244.213 984.537 L254.838 973.912 L257.593 976.713 Z" fill="#000000" fill-rule="nonzero" fill-opacity="1" /><path clip-path="url(#clip440)" d="M269.954 998.241 L277.593 998.241 L277.593 971.875 L269.282 973.542 L269.282 969.283 L277.546 967.616 L282.222 967.616 L282.222 998.241 L289.861 998.241 L289.861 1002.18 L269.954 1002.18 L269.954 998.241 Z" fill="#000000" fill-rule="nonzero" fill-opacity="1" /><path clip-path="url(#clip440)" d="M309.305 970.695 Q305.694 970.695 303.866 974.259 Q302.06 977.801 302.06 984.931 Q302.06 992.037 303.866 995.602 Q305.694 999.143 309.305 999.143 Q312.94 999.143 314.745 995.602 Q316.574 992.037 316.574 984.931 Q316.574 977.801 314.745 974.259 Q312.94 970.695 309.305 970.695 M309.305 966.991 Q315.116 966.991 318.171 971.597 Q321.25 976.181 321.25 984.931 Q321.25 993.657 318.171 998.264 Q315.116 1002.85 309.305 1002.85 Q303.495 1002.85 300.417 998.264 Q297.361 993.657 297.361 984.931 Q297.361 976.181 300.417 971.597 Q303.495 966.991 309.305 966.991 Z" fill="#000000" fill-rule="nonzero" fill-opacity="1" /><path clip-path="url(#clip440)" d="M333.926 949.996 L324.334 964.985 L333.926 964.985 L333.926 949.996 M332.929 946.685 L337.707 946.685 L337.707 964.985 L341.713 964.985 L341.713 968.145 L337.707 968.145 L337.707 974.765 L333.926 974.765 L333.926 968.145 L321.25 968.145 L321.25 964.478 L332.929 946.685 Z" fill="#000000" fill-rule="nonzero" fill-opacity="1" /><path clip-path="url(#clip440)" d="M114.26 700.787 L143.936 700.787 L143.936 704.722 L114.26 704.722 L114.26 700.787 Z" fill="#000000" fill-rule="nonzero" fill-opacity="1" /><path clip-path="url(#clip440)" d="M164.607 698.473 Q161.459 698.473 159.607 700.625 Q157.778 702.778 157.778 706.528 Q157.778 710.255 159.607 712.431 Q161.459 714.584 164.607 714.584 Q167.755 714.584 169.584 712.431 Q171.436 710.255 171.436 706.528 Q171.436 702.778 169.584 700.625 Q167.755 698.473 164.607 698.473 M173.889 683.82 L173.889 688.079 Q172.13 687.246 170.325 686.806 Q168.542 686.366 166.783 686.366 Q162.153 686.366 159.7 689.491 Q157.269 692.616 156.922 698.935 Q158.288 696.922 160.348 695.857 Q162.408 694.769 164.885 694.769 Q170.093 694.769 173.102 697.94 Q176.135 701.088 176.135 706.528 Q176.135 711.852 172.987 715.07 Q169.839 718.287 164.607 718.287 Q158.612 718.287 155.44 713.704 Q152.269 709.097 152.269 700.371 Q152.269 692.176 156.158 687.315 Q160.047 682.431 166.598 682.431 Q168.357 682.431 170.139 682.778 Q171.945 683.125 173.889 683.82 Z" fill="#000000" fill-rule="nonzero" fill-opacity="1" /><path clip-path="url(#clip440)" d="M184.19 711.736 L189.075 711.736 L189.075 717.616 L184.19 717.616 L184.19 711.736 Z" fill="#000000" fill-rule="nonzero" fill-opacity="1" /><path clip-path="url(#clip440)" d="M209.26 686.135 Q205.649 686.135 203.82 689.699 Q202.014 693.241 202.014 700.371 Q202.014 707.477 203.82 711.042 Q205.649 714.584 209.26 714.584 Q212.894 714.584 214.699 711.042 Q216.528 707.477 216.528 700.371 Q216.528 693.241 214.699 689.699 Q212.894 686.135 209.26 686.135 M209.26 682.431 Q215.07 682.431 218.125 687.037 Q221.204 691.621 221.204 700.371 Q221.204 709.097 218.125 713.704 Q215.07 718.287 209.26 718.287 Q203.449 718.287 200.371 713.704 Q197.315 709.097 197.315 700.371 Q197.315 691.621 200.371 687.037 Q203.449 682.431 209.26 682.431 Z" fill="#000000" fill-rule="nonzero" fill-opacity="1" /><path clip-path="url(#clip440)" d="M257.593 692.153 L247.014 702.778 L257.593 713.357 L254.838 716.158 L244.213 705.533 L233.588 716.158 L230.857 713.357 L241.412 702.778 L230.857 692.153 L233.588 689.352 L244.213 699.977 L254.838 689.352 L257.593 692.153 Z" fill="#000000" fill-rule="nonzero" fill-opacity="1" /><path clip-path="url(#clip440)" d="M269.954 713.681 L277.593 713.681 L277.593 687.315 L269.282 688.982 L269.282 684.723 L277.546 683.056 L282.222 683.056 L282.222 713.681 L289.861 713.681 L289.861 717.616 L269.954 717.616 L269.954 713.681 Z" fill="#000000" fill-rule="nonzero" fill-opacity="1" /><path clip-path="url(#clip440)" d="M309.305 686.135 Q305.694 686.135 303.866 689.699 Q302.06 693.241 302.06 700.371 Q302.06 707.477 303.866 711.042 Q305.694 714.584 309.305 714.584 Q312.94 714.584 314.745 711.042 Q316.574 707.477 316.574 700.371 Q316.574 693.241 314.745 689.699 Q312.94 686.135 309.305 686.135 M309.305 682.431 Q315.116 682.431 318.171 687.037 Q321.25 691.621 321.25 700.371 Q321.25 709.097 318.171 713.704 Q315.116 718.287 309.305 718.287 Q303.495 718.287 300.417 713.704 Q297.361 709.097 297.361 700.371 Q297.361 691.621 300.417 687.037 Q303.495 682.431 309.305 682.431 Z" fill="#000000" fill-rule="nonzero" fill-opacity="1" /><path clip-path="url(#clip440)" d="M333.926 665.436 L324.334 680.425 L333.926 680.425 L333.926 665.436 M332.929 662.126 L337.707 662.126 L337.707 680.425 L341.713 680.425 L341.713 683.585 L337.707 683.585 L337.707 690.206 L333.926 690.206 L333.926 683.585 L321.25 683.585 L321.25 679.918 L332.929 662.126 Z" fill="#000000" fill-rule="nonzero" fill-opacity="1" /><path clip-path="url(#clip440)" d="M114.26 416.227 L143.936 416.227 L143.936 420.163 L114.26 420.163 L114.26 416.227 Z" fill="#000000" fill-rule="nonzero" fill-opacity="1" /><path clip-path="url(#clip440)" d="M166.876 402.57 L155.07 421.019 L166.876 421.019 L166.876 402.57 M165.649 398.496 L171.528 398.496 L171.528 421.019 L176.459 421.019 L176.459 424.908 L171.528 424.908 L171.528 433.056 L166.876 433.056 L166.876 424.908 L151.274 424.908 L151.274 420.394 L165.649 398.496 Z" fill="#000000" fill-rule="nonzero" fill-opacity="1" /><path clip-path="url(#clip440)" d="M184.19 427.176 L189.075 427.176 L189.075 433.056 L184.19 433.056 L184.19 427.176 Z" fill="#000000" fill-rule="nonzero" fill-opacity="1" /><path clip-path="url(#clip440)" d="M209.26 401.575 Q205.649 401.575 203.82 405.14 Q202.014 408.681 202.014 415.811 Q202.014 422.917 203.82 426.482 Q205.649 430.024 209.26 430.024 Q212.894 430.024 214.699 426.482 Q216.528 422.917 216.528 415.811 Q216.528 408.681 214.699 405.14 Q212.894 401.575 209.26 401.575 M209.26 397.871 Q215.07 397.871 218.125 402.477 Q221.204 407.061 221.204 415.811 Q221.204 424.538 218.125 429.144 Q215.07 433.727 209.26 433.727 Q203.449 433.727 200.371 429.144 Q197.315 424.538 197.315 415.811 Q197.315 407.061 200.371 402.477 Q203.449 397.871 209.26 397.871 Z" fill="#000000" fill-rule="nonzero" fill-opacity="1" /><path clip-path="url(#clip440)" d="M257.593 407.593 L247.014 418.218 L257.593 428.797 L254.838 431.598 L244.213 420.973 L233.588 431.598 L230.857 428.797 L241.412 418.218 L230.857 407.593 L233.588 404.792 L244.213 415.417 L254.838 404.792 L257.593 407.593 Z" fill="#000000" fill-rule="nonzero" fill-opacity="1" /><path clip-path="url(#clip440)" d="M269.954 429.121 L277.593 429.121 L277.593 402.755 L269.282 404.422 L269.282 400.163 L277.546 398.496 L282.222 398.496 L282.222 429.121 L289.861 429.121 L289.861 433.056 L269.954 433.056 L269.954 429.121 Z" fill="#000000" fill-rule="nonzero" fill-opacity="1" /><path clip-path="url(#clip440)" d="M309.305 401.575 Q305.694 401.575 303.866 405.14 Q302.06 408.681 302.06 415.811 Q302.06 422.917 303.866 426.482 Q305.694 430.024 309.305 430.024 Q312.94 430.024 314.745 426.482 Q316.574 422.917 316.574 415.811 Q316.574 408.681 314.745 405.14 Q312.94 401.575 309.305 401.575 M309.305 397.871 Q315.116 397.871 318.171 402.477 Q321.25 407.061 321.25 415.811 Q321.25 424.538 318.171 429.144 Q315.116 433.727 309.305 433.727 Q303.495 433.727 300.417 429.144 Q297.361 424.538 297.361 415.811 Q297.361 407.061 300.417 402.477 Q303.495 397.871 309.305 397.871 Z" fill="#000000" fill-rule="nonzero" fill-opacity="1" /><path clip-path="url(#clip440)" d="M333.926 380.876 L324.334 395.866 L333.926 395.866 L333.926 380.876 M332.929 377.566 L337.707 377.566 L337.707 395.866 L341.713 395.866 L341.713 399.025 L337.707 399.025 L337.707 405.646 L333.926 405.646 L333.926 399.025 L321.25 399.025 L321.25 395.358 L332.929 377.566 Z" fill="#000000" fill-rule="nonzero" fill-opacity="1" /><path clip-path="url(#clip440)" d="M114.26 131.668 L143.936 131.668 L143.936 135.603 L114.26 135.603 L114.26 131.668 Z" fill="#000000" fill-rule="nonzero" fill-opacity="1" /><path clip-path="url(#clip440)" d="M158.056 144.561 L174.376 144.561 L174.376 148.496 L152.431 148.496 L152.431 144.561 Q155.093 141.806 159.677 137.177 Q164.283 132.524 165.464 131.181 Q167.709 128.658 168.589 126.922 Q169.491 125.163 169.491 123.473 Q169.491 120.718 167.547 118.982 Q165.626 117.246 162.524 117.246 Q160.325 117.246 157.871 118.01 Q155.44 118.774 152.663 120.325 L152.663 115.603 Q155.487 114.469 157.94 113.89 Q160.394 113.311 162.431 113.311 Q167.802 113.311 170.996 115.996 Q174.19 118.681 174.19 123.172 Q174.19 125.302 173.38 127.223 Q172.593 129.121 170.487 131.714 Q169.908 132.385 166.806 135.603 Q163.704 138.797 158.056 144.561 Z" fill="#000000" fill-rule="nonzero" fill-opacity="1" /><path clip-path="url(#clip440)" d="M184.19 142.617 L189.075 142.617 L189.075 148.496 L184.19 148.496 L184.19 142.617 Z" fill="#000000" fill-rule="nonzero" fill-opacity="1" /><path clip-path="url(#clip440)" d="M209.26 117.015 Q205.649 117.015 203.82 120.58 Q202.014 124.121 202.014 131.251 Q202.014 138.357 203.82 141.922 Q205.649 145.464 209.26 145.464 Q212.894 145.464 214.699 141.922 Q216.528 138.357 216.528 131.251 Q216.528 124.121 214.699 120.58 Q212.894 117.015 209.26 117.015 M209.26 113.311 Q215.07 113.311 218.125 117.918 Q221.204 122.501 221.204 131.251 Q221.204 139.978 218.125 144.584 Q215.07 149.167 209.26 149.167 Q203.449 149.167 200.371 144.584 Q197.315 139.978 197.315 131.251 Q197.315 122.501 200.371 117.918 Q203.449 113.311 209.26 113.311 Z" fill="#000000" fill-rule="nonzero" fill-opacity="1" /><path clip-path="url(#clip440)" d="M257.593 123.033 L247.014 133.658 L257.593 144.237 L254.838 147.038 L244.213 136.413 L233.588 147.038 L230.857 144.237 L241.412 133.658 L230.857 123.033 L233.588 120.232 L244.213 130.857 L254.838 120.232 L257.593 123.033 Z" fill="#000000" fill-rule="nonzero" fill-opacity="1" /><path clip-path="url(#clip440)" d="M269.954 144.561 L277.593 144.561 L277.593 118.195 L269.282 119.862 L269.282 115.603 L277.546 113.936 L282.222 113.936 L282.222 144.561 L289.861 144.561 L289.861 148.496 L269.954 148.496 L269.954 144.561 Z" fill="#000000" fill-rule="nonzero" fill-opacity="1" /><path clip-path="url(#clip440)" d="M309.305 117.015 Q305.694 117.015 303.866 120.58 Q302.06 124.121 302.06 131.251 Q302.06 138.357 303.866 141.922 Q305.694 145.464 309.305 145.464 Q312.94 145.464 314.745 141.922 Q316.574 138.357 316.574 131.251 Q316.574 124.121 314.745 120.58 Q312.94 117.015 309.305 117.015 M309.305 113.311 Q315.116 113.311 318.171 117.918 Q321.25 122.501 321.25 131.251 Q321.25 139.978 318.171 144.584 Q315.116 149.167 309.305 149.167 Q303.495 149.167 300.417 144.584 Q297.361 139.978 297.361 131.251 Q297.361 122.501 300.417 117.918 Q303.495 113.311 309.305 113.311 Z" fill="#000000" fill-rule="nonzero" fill-opacity="1" /><path clip-path="url(#clip440)" d="M333.926 96.3159 L324.334 111.306 L333.926 111.306 L333.926 96.3159 M332.929 93.0057 L337.707 93.0057 L337.707 111.306 L341.713 111.306 L341.713 114.465 L337.707 114.465 L337.707 121.086 L333.926 121.086 L333.926 114.465 L321.25 114.465 L321.25 110.798 L332.929 93.0057 Z" fill="#000000" fill-rule="nonzero" fill-opacity="1" /><path clip-path="url(#clip440)" d="M16.4842 816.375 L16.4842 786.329 L21.895 786.329 L21.895 809.945 L35.9632 809.945 L35.9632 787.315 L41.3741 787.315 L41.3741 809.945 L58.5933 809.945 L58.5933 785.756 L64.0042 785.756 L64.0042 816.375 L16.4842 816.375 Z" fill="#000000" fill-rule="nonzero" fill-opacity="1" /><path clip-path="url(#clip440)" d="M16.4842 775.189 L16.4842 768.759 L58.5933 768.759 L58.5933 745.62 L64.0042 745.62 L64.0042 775.189 L16.4842 775.189 Z" fill="#000000" fill-rule="nonzero" fill-opacity="1" /><path clip-path="url(#clip440)" d="M41.3104 732.443 L58.7206 732.443 L58.7206 722.13 Q58.7206 716.942 56.5881 714.46 Q54.4238 711.945 49.9996 711.945 Q45.5436 711.945 43.4429 714.46 Q41.3104 716.942 41.3104 722.13 L41.3104 732.443 M21.7677 732.443 L36.0905 732.443 L36.0905 722.926 Q36.0905 718.216 34.34 715.924 Q32.5576 713.6 28.9291 713.6 Q25.3325 713.6 23.5501 715.924 Q21.7677 718.216 21.7677 722.926 L21.7677 732.443 M16.4842 738.872 L16.4842 722.449 Q16.4842 715.096 19.5397 711.118 Q22.5952 707.139 28.2289 707.139 Q32.5894 707.139 35.1675 709.176 Q37.7456 711.213 38.3822 715.16 Q39.4007 710.418 42.6472 707.808 Q45.8619 705.166 50.6998 705.166 Q57.0655 705.166 60.5348 709.495 Q64.0042 713.823 64.0042 721.812 L64.0042 738.872 L16.4842 738.872 Z" fill="#000000" fill-rule="nonzero" fill-opacity="1" /><path clip-path="url(#clip440)" d="M20.8447 676.011 Q20.8447 683.013 26.0645 687.151 Q31.2844 691.257 40.2919 691.257 Q49.2675 691.257 54.4874 687.151 Q59.7073 683.013 59.7073 676.011 Q59.7073 669.009 54.4874 664.935 Q49.2675 660.829 40.2919 660.829 Q31.2844 660.829 26.0645 664.935 Q20.8447 669.009 20.8447 676.011 M15.6248 676.011 Q15.6248 666.017 22.3406 660.033 Q29.0246 654.049 40.2919 654.049 Q51.5274 654.049 58.2432 660.033 Q64.9272 666.017 64.9272 676.011 Q64.9272 686.037 58.2432 692.052 Q51.5592 698.036 40.2919 698.036 Q29.0246 698.036 22.3406 692.052 Q15.6248 686.037 15.6248 676.011 Z" fill="#000000" fill-rule="nonzero" fill-opacity="1" /><polyline clip-path="url(#clip442)" style="stroke:#009af9; stroke-linecap:round; stroke-linejoin:round; stroke-width:6; stroke-opacity:1; fill:none" points="433.61,1384.24 511.245,145.153 588.881,109.703 666.516,97.4603 744.151,91.6611 821.787,87.6333 899.422,86.8891 977.058,86.5964 1054.69,86.4375 1132.33,86.3462 1209.96,86.2913 1287.6,86.2571 1365.23,86.2349 1442.87,86.2202 1520.5,86.2101 1598.14,86.2031 1675.78,86.1982 1753.41,86.1946 1831.05,86.1921 1908.68,86.1902 1986.32,86.1887 2063.95,86.1877 2141.59,86.1868 2219.22,86.1862 2296.86,86.1857 "/>
<path clip-path="url(#clip440)" d="M1971.36 1377.32 L2286.92 1377.32 L2286.92 1273.64 L1971.36 1273.64  Z" fill="#ffffff" fill-rule="evenodd" fill-opacity="1"/>
<polyline clip-path="url(#clip440)" style="stroke:#000000; stroke-linecap:round; stroke-linejoin:round; stroke-width:4; stroke-opacity:1; fill:none" points="1971.36,1377.32 2286.92,1377.32 2286.92,1273.64 1971.36,1273.64 1971.36,1377.32 "/>
<polyline clip-path="url(#clip440)" style="stroke:#009af9; stroke-linecap:round; stroke-linejoin:round; stroke-width:6; stroke-opacity:1; fill:none" points="1993.31,1325.48 2124.98,1325.48 "/>
<path clip-path="url(#clip440)" d="M2146.92 1308.2 L2168.77 1308.2 L2168.77 1312.13 L2151.6 1312.13 L2151.6 1322.36 L2168.06 1322.36 L2168.06 1326.3 L2151.6 1326.3 L2151.6 1338.82 L2169.19 1338.82 L2169.19 1342.76 L2146.92 1342.76 L2146.92 1308.2 Z" fill="#000000" fill-rule="nonzero" fill-opacity="1" /><path clip-path="url(#clip440)" d="M2176.87 1308.2 L2181.55 1308.2 L2181.55 1338.82 L2198.38 1338.82 L2198.38 1342.76 L2176.87 1342.76 L2176.87 1308.2 Z" fill="#000000" fill-rule="nonzero" fill-opacity="1" /><path clip-path="url(#clip440)" d="M2207.96 1326.25 L2207.96 1338.91 L2215.46 1338.91 Q2219.24 1338.91 2221.04 1337.36 Q2222.87 1335.79 2222.87 1332.57 Q2222.87 1329.33 2221.04 1327.8 Q2219.24 1326.25 2215.46 1326.25 L2207.96 1326.25 M2207.96 1312.04 L2207.96 1322.45 L2214.88 1322.45 Q2218.31 1322.45 2219.98 1321.18 Q2221.67 1319.89 2221.67 1317.25 Q2221.67 1314.63 2219.98 1313.33 Q2218.31 1312.04 2214.88 1312.04 L2207.96 1312.04 M2203.29 1308.2 L2215.23 1308.2 Q2220.58 1308.2 2223.47 1310.42 Q2226.37 1312.64 2226.37 1316.74 Q2226.37 1319.91 2224.88 1321.78 Q2223.4 1323.66 2220.53 1324.12 Q2223.98 1324.86 2225.88 1327.22 Q2227.8 1329.56 2227.8 1333.08 Q2227.8 1337.71 2224.65 1340.23 Q2221.5 1342.76 2215.69 1342.76 L2203.29 1342.76 L2203.29 1308.2 Z" fill="#000000" fill-rule="nonzero" fill-opacity="1" /><path clip-path="url(#clip440)" d="M2249 1311.37 Q2243.91 1311.37 2240.9 1315.16 Q2237.92 1318.96 2237.92 1325.51 Q2237.92 1332.04 2240.9 1335.83 Q2243.91 1339.63 2249 1339.63 Q2254.1 1339.63 2257.06 1335.83 Q2260.05 1332.04 2260.05 1325.51 Q2260.05 1318.96 2257.06 1315.16 Q2254.1 1311.37 2249 1311.37 M2249 1307.57 Q2256.27 1307.57 2260.62 1312.45 Q2264.98 1317.32 2264.98 1325.51 Q2264.98 1333.68 2260.62 1338.57 Q2256.27 1343.43 2249 1343.43 Q2241.71 1343.43 2237.34 1338.57 Q2232.99 1333.7 2232.99 1325.51 Q2232.99 1317.32 2237.34 1312.45 Q2241.71 1307.57 2249 1307.57 Z" fill="#000000" fill-rule="nonzero" fill-opacity="1" /></svg>
