<?xml version="1.0" encoding="utf-8"?>
<svg xmlns="http://www.w3.org/2000/svg" xmlns:xlink="http://www.w3.org/1999/xlink" width="600" height="400" viewBox="0 0 2400 1600">
<defs>
  <clipPath id="clip880">
    <rect x="0" y="0" width="2400" height="1600"/>
  </clipPath>
</defs>
<path clip-path="url(#clip880)" d="M0 1600 L2400 1600 L2400 0 L0 0  Z" fill="#ffffff" fill-rule="evenodd" fill-opacity="1"/>
<defs>
  <clipPath id="clip881">
    <rect x="480" y="0" width="1681" height="1600"/>
  </clipPath>
</defs>
<path clip-path="url(#clip880)" d="M347.69 1423.18 L2352.76 1423.18 L2352.76 123.472 L347.69 123.472  Z" fill="#ffffff" fill-rule="evenodd" fill-opacity="1"/>
<defs>
  <clipPath id="clip882">
    <rect x="347" y="123" width="2006" height="1301"/>
  </clipPath>
</defs>
<polyline clip-path="url(#clip882)" style="stroke:#000000; stroke-linecap:round; stroke-linejoin:round; stroke-width:2; stroke-opacity:0.1; fill:none" points="363.316,1423.18 363.316,123.472 "/>
<polyline clip-path="url(#clip882)" style="stroke:#000000; stroke-linecap:round; stroke-linejoin:round; stroke-width:2; stroke-opacity:0.1; fill:none" points="774.527,1423.18 774.527,123.472 "/>
<polyline clip-path="url(#clip882)" style="stroke:#000000; stroke-linecap:round; stroke-linejoin:round; stroke-width:2; stroke-opacity:0.1; fill:none" points="1185.74,1423.18 1185.74,123.472 "/>
<polyline clip-path="url(#clip882)" style="stroke:#000000; stroke-linecap:round; stroke-linejoin:round; stroke-width:2; stroke-opacity:0.1; fill:none" points="1596.95,1423.18 1596.95,123.472 "/>
<polyline clip-path="url(#clip882)" style="stroke:#000000; stroke-linecap:round; stroke-linejoin:round; stroke-width:2; stroke-opacity:0.1; fill:none" points="2008.16,1423.18 2008.16,123.472 "/>
<polyline clip-path="url(#clip882)" style="stroke:#000000; stroke-linecap:round; stroke-linejoin:round; stroke-width:2; stroke-opacity:0.1; fill:none" points="347.69,1276.24 2352.76,1276.24 "/>
<polyline clip-path="url(#clip882)" style="stroke:#000000; stroke-linecap:round; stroke-linejoin:round; stroke-width:2; stroke-opacity:0.1; fill:none" points="347.69,1083.37 2352.76,1083.37 "/>
<polyline clip-path="url(#clip882)" style="stroke:#000000; stroke-linecap:round; stroke-linejoin:round; stroke-width:2; stroke-opacity:0.1; fill:none" points="347.69,890.497 2352.76,890.497 "/>
<polyline clip-path="url(#clip882)" style="stroke:#000000; stroke-linecap:round; stroke-linejoin:round; stroke-width:2; stroke-opacity:0.1; fill:none" points="347.69,697.624 2352.76,697.624 "/>
<polyline clip-path="url(#clip882)" style="stroke:#000000; stroke-linecap:round; stroke-linejoin:round; stroke-width:2; stroke-opacity:0.1; fill:none" points="347.69,504.751 2352.76,504.751 "/>
<polyline clip-path="url(#clip882)" style="stroke:#000000; stroke-linecap:round; stroke-linejoin:round; stroke-width:2; stroke-opacity:0.1; fill:none" points="347.69,311.877 2352.76,311.877 "/>
<polyline clip-path="url(#clip880)" style="stroke:#000000; stroke-linecap:round; stroke-linejoin:round; stroke-width:4; stroke-opacity:1; fill:none" points="347.69,1423.18 2352.76,1423.18 "/>
<polyline clip-path="url(#clip880)" style="stroke:#000000; stroke-linecap:round; stroke-linejoin:round; stroke-width:4; stroke-opacity:1; fill:none" points="363.316,1423.18 363.316,1404.28 "/>
<polyline clip-path="url(#clip880)" style="stroke:#000000; stroke-linecap:round; stroke-linejoin:round; stroke-width:4; stroke-opacity:1; fill:none" points="774.527,1423.18 774.527,1404.28 "/>
<polyline clip-path="url(#clip880)" style="stroke:#000000; stroke-linecap:round; stroke-linejoin:round; stroke-width:4; stroke-opacity:1; fill:none" points="1185.74,1423.18 1185.74,1404.28 "/>
<polyline clip-path="url(#clip880)" style="stroke:#000000; stroke-linecap:round; stroke-linejoin:round; stroke-width:4; stroke-opacity:1; fill:none" points="1596.95,1423.18 1596.95,1404.28 "/>
<polyline clip-path="url(#clip880)" style="stroke:#000000; stroke-linecap:round; stroke-linejoin:round; stroke-width:4; stroke-opacity:1; fill:none" points="2008.16,1423.18 2008.16,1404.28 "/>
<path clip-path="url(#clip880)" d="M363.316 1454.1 Q359.705 1454.1 357.876 1457.66 Q356.07 1461.2 356.07 1468.33 Q356.07 1475.44 357.876 1479.01 Q359.705 1482.55 363.316 1482.55 Q366.95 1482.55 368.755 1479.01 Q370.584 1475.44 370.584 1468.33 Q370.584 1461.2 368.755 1457.66 Q366.95 1454.1 363.316 1454.1 M363.316 1450.39 Q369.126 1450.39 372.181 1455 Q375.26 1459.58 375.26 1468.33 Q375.26 1477.06 372.181 1481.67 Q369.126 1486.25 363.316 1486.25 Q357.506 1486.25 354.427 1481.67 Q351.371 1477.06 351.371 1468.33 Q351.371 1459.58 354.427 1455 Q357.506 1450.39 363.316 1450.39 Z" fill="#000000" fill-rule="nonzero" fill-opacity="1" /><path clip-path="url(#clip880)" d="M749.215 1481.64 L756.853 1481.64 L756.853 1455.28 L748.543 1456.95 L748.543 1452.69 L756.807 1451.02 L761.483 1451.02 L761.483 1481.64 L769.122 1481.64 L769.122 1485.58 L749.215 1485.58 L749.215 1481.64 Z" fill="#000000" fill-rule="nonzero" fill-opacity="1" /><path clip-path="url(#clip880)" d="M788.566 1454.1 Q784.955 1454.1 783.126 1457.66 Q781.321 1461.2 781.321 1468.33 Q781.321 1475.44 783.126 1479.01 Q784.955 1482.55 788.566 1482.55 Q792.2 1482.55 794.006 1479.01 Q795.835 1475.44 795.835 1468.33 Q795.835 1461.2 794.006 1457.66 Q792.2 1454.1 788.566 1454.1 M788.566 1450.39 Q794.376 1450.39 797.432 1455 Q800.511 1459.58 800.511 1468.33 Q800.511 1477.06 797.432 1481.67 Q794.376 1486.25 788.566 1486.25 Q782.756 1486.25 779.677 1481.67 Q776.622 1477.06 776.622 1468.33 Q776.622 1459.58 779.677 1455 Q782.756 1450.39 788.566 1450.39 Z" fill="#000000" fill-rule="nonzero" fill-opacity="1" /><path clip-path="url(#clip880)" d="M1164.51 1481.64 L1180.83 1481.64 L1180.83 1485.58 L1158.89 1485.58 L1158.89 1481.64 Q1161.55 1478.89 1166.13 1474.26 Q1170.74 1469.61 1171.92 1468.27 Q1174.16 1465.74 1175.04 1464.01 Q1175.95 1462.25 1175.95 1460.56 Q1175.95 1457.8 1174 1456.07 Q1172.08 1454.33 1168.98 1454.33 Q1166.78 1454.33 1164.33 1455.09 Q1161.9 1455.86 1159.12 1457.41 L1159.12 1452.69 Q1161.94 1451.55 1164.4 1450.97 Q1166.85 1450.39 1168.89 1450.39 Q1174.26 1450.39 1177.45 1453.08 Q1180.65 1455.77 1180.65 1460.26 Q1180.65 1462.39 1179.84 1464.31 Q1179.05 1466.2 1176.94 1468.8 Q1176.36 1469.47 1173.26 1472.69 Q1170.16 1475.88 1164.51 1481.64 Z" fill="#000000" fill-rule="nonzero" fill-opacity="1" /><path clip-path="url(#clip880)" d="M1200.65 1454.1 Q1197.03 1454.1 1195.21 1457.66 Q1193.4 1461.2 1193.4 1468.33 Q1193.4 1475.44 1195.21 1479.01 Q1197.03 1482.55 1200.65 1482.55 Q1204.28 1482.55 1206.09 1479.01 Q1207.91 1475.44 1207.91 1468.33 Q1207.91 1461.2 1206.09 1457.66 Q1204.28 1454.1 1200.65 1454.1 M1200.65 1450.39 Q1206.46 1450.39 1209.51 1455 Q1212.59 1459.58 1212.59 1468.33 Q1212.59 1477.06 1209.51 1481.67 Q1206.46 1486.25 1200.65 1486.25 Q1194.84 1486.25 1191.76 1481.67 Q1188.7 1477.06 1188.7 1468.33 Q1188.7 1459.58 1191.76 1455 Q1194.84 1450.39 1200.65 1450.39 Z" fill="#000000" fill-rule="nonzero" fill-opacity="1" /><path clip-path="url(#clip880)" d="M1585.79 1466.95 Q1589.15 1467.66 1591.02 1469.93 Q1592.92 1472.2 1592.92 1475.53 Q1592.92 1480.65 1589.4 1483.45 Q1585.88 1486.25 1579.4 1486.25 Q1577.23 1486.25 1574.91 1485.81 Q1572.62 1485.39 1570.17 1484.54 L1570.17 1480.02 Q1572.11 1481.16 1574.43 1481.74 Q1576.74 1482.32 1579.26 1482.32 Q1583.66 1482.32 1585.95 1480.58 Q1588.27 1478.84 1588.27 1475.53 Q1588.27 1472.48 1586.12 1470.77 Q1583.99 1469.03 1580.17 1469.03 L1576.14 1469.03 L1576.14 1465.19 L1580.35 1465.19 Q1583.8 1465.19 1585.63 1463.82 Q1587.46 1462.43 1587.46 1459.84 Q1587.46 1457.18 1585.56 1455.77 Q1583.69 1454.33 1580.17 1454.33 Q1578.25 1454.33 1576.05 1454.75 Q1573.85 1455.16 1571.21 1456.04 L1571.21 1451.88 Q1573.87 1451.14 1576.19 1450.77 Q1578.52 1450.39 1580.58 1450.39 Q1585.91 1450.39 1589.01 1452.83 Q1592.11 1455.23 1592.11 1459.35 Q1592.11 1462.22 1590.47 1464.21 Q1588.82 1466.18 1585.79 1466.95 Z" fill="#000000" fill-rule="nonzero" fill-opacity="1" /><path clip-path="url(#clip880)" d="M1611.79 1454.1 Q1608.18 1454.1 1606.35 1457.66 Q1604.54 1461.2 1604.54 1468.33 Q1604.54 1475.44 1606.35 1479.01 Q1608.18 1482.55 1611.79 1482.55 Q1615.42 1482.55 1617.23 1479.01 Q1619.06 1475.44 1619.06 1468.33 Q1619.06 1461.2 1617.23 1457.66 Q1615.42 1454.1 1611.79 1454.1 M1611.79 1450.39 Q1617.6 1450.39 1620.65 1455 Q1623.73 1459.58 1623.73 1468.33 Q1623.73 1477.06 1620.65 1481.67 Q1617.6 1486.25 1611.79 1486.25 Q1605.98 1486.25 1602.9 1481.67 Q1599.84 1477.06 1599.84 1468.33 Q1599.84 1459.58 1602.9 1455 Q1605.98 1450.39 1611.79 1450.39 Z" fill="#000000" fill-rule="nonzero" fill-opacity="1" /><path clip-path="url(#clip880)" d="M1996.33 1455.09 L1984.53 1473.54 L1996.33 1473.54 L1996.33 1455.09 M1995.11 1451.02 L2000.98 1451.02 L2000.98 1473.54 L2005.92 1473.54 L2005.92 1477.43 L2000.98 1477.43 L2000.98 1485.58 L1996.33 1485.58 L1996.33 1477.43 L1980.73 1477.43 L1980.73 1472.92 L1995.11 1451.02 Z" fill="#000000" fill-rule="nonzero" fill-opacity="1" /><path clip-path="url(#clip880)" d="M2023.65 1454.1 Q2020.04 1454.1 2018.21 1457.66 Q2016.4 1461.2 2016.4 1468.33 Q2016.4 1475.44 2018.21 1479.01 Q2020.04 1482.55 2023.65 1482.55 Q2027.28 1482.55 2029.09 1479.01 Q2030.92 1475.44 2030.92 1468.33 Q2030.92 1461.2 2029.09 1457.66 Q2027.28 1454.1 2023.65 1454.1 M2023.65 1450.39 Q2029.46 1450.39 2032.51 1455 Q2035.59 1459.58 2035.59 1468.33 Q2035.59 1477.06 2032.51 1481.67 Q2029.46 1486.25 2023.65 1486.25 Q2017.84 1486.25 2014.76 1481.67 Q2011.7 1477.06 2011.7 1468.33 Q2011.7 1459.58 2014.76 1455 Q2017.84 1450.39 2023.65 1450.39 Z" fill="#000000" fill-rule="nonzero" fill-opacity="1" /><path clip-path="url(#clip880)" d="M1217.94 1520.52 L1224.37 1520.52 L1224.37 1568.04 L1217.94 1568.04 L1217.94 1520.52 Z" fill="#000000" fill-rule="nonzero" fill-opacity="1" /><path clip-path="url(#clip880)" d="M1242.71 1522.27 L1242.71 1532.4 L1254.77 1532.4 L1254.77 1536.95 L1242.71 1536.95 L1242.71 1556.3 Q1242.71 1560.66 1243.88 1561.9 Q1245.09 1563.14 1248.75 1563.14 L1254.77 1563.14 L1254.77 1568.04 L1248.75 1568.04 Q1241.97 1568.04 1239.4 1565.53 Q1236.82 1562.98 1236.82 1556.3 L1236.82 1536.95 L1232.52 1536.95 L1232.52 1532.4 L1236.82 1532.4 L1236.82 1522.27 L1242.71 1522.27 Z" fill="#000000" fill-rule="nonzero" fill-opacity="1" /><path clip-path="url(#clip880)" d="M1292.96 1548.76 L1292.96 1551.62 L1266.04 1551.62 Q1266.42 1557.67 1269.66 1560.85 Q1272.94 1564 1278.77 1564 Q1282.14 1564 1285.29 1563.17 Q1288.48 1562.35 1291.59 1560.69 L1291.59 1566.23 Q1288.44 1567.57 1285.13 1568.27 Q1281.82 1568.97 1278.42 1568.97 Q1269.89 1568.97 1264.89 1564 Q1259.93 1559.04 1259.93 1550.57 Q1259.93 1541.82 1264.64 1536.69 Q1269.38 1531.54 1277.4 1531.54 Q1284.59 1531.54 1288.76 1536.18 Q1292.96 1540.8 1292.96 1548.76 M1287.11 1547.04 Q1287.04 1542.23 1284.4 1539.37 Q1281.79 1536.5 1277.46 1536.5 Q1272.56 1536.5 1269.6 1539.27 Q1266.67 1542.04 1266.23 1547.07 L1287.11 1547.04 Z" fill="#000000" fill-rule="nonzero" fill-opacity="1" /><path clip-path="url(#clip880)" d="M1323.23 1537.87 Q1322.25 1537.3 1321.07 1537.04 Q1319.92 1536.76 1318.52 1536.76 Q1313.56 1536.76 1310.88 1540 Q1308.24 1543.22 1308.24 1549.27 L1308.24 1568.04 L1302.35 1568.04 L1302.35 1532.4 L1308.24 1532.4 L1308.24 1537.93 Q1310.09 1534.69 1313.05 1533.13 Q1316.01 1531.54 1320.24 1531.54 Q1320.85 1531.54 1321.58 1531.63 Q1322.31 1531.7 1323.2 1531.85 L1323.23 1537.87 Z" fill="#000000" fill-rule="nonzero" fill-opacity="1" /><path clip-path="url(#clip880)" d="M1345.58 1550.12 Q1338.48 1550.12 1335.74 1551.75 Q1333 1553.37 1333 1557.29 Q1333 1560.4 1335.04 1562.25 Q1337.11 1564.07 1340.64 1564.07 Q1345.51 1564.07 1348.44 1560.63 Q1351.4 1557.16 1351.4 1551.43 L1351.4 1550.12 L1345.58 1550.12 M1357.26 1547.71 L1357.26 1568.04 L1351.4 1568.04 L1351.4 1562.63 Q1349.4 1565.88 1346.4 1567.44 Q1343.41 1568.97 1339.08 1568.97 Q1333.61 1568.97 1330.36 1565.91 Q1327.15 1562.82 1327.15 1557.67 Q1327.15 1551.65 1331.16 1548.6 Q1335.2 1545.54 1343.19 1545.54 L1351.4 1545.54 L1351.4 1544.97 Q1351.4 1540.93 1348.73 1538.73 Q1346.09 1536.5 1341.28 1536.5 Q1338.22 1536.5 1335.33 1537.23 Q1332.43 1537.97 1329.76 1539.43 L1329.76 1534.02 Q1332.97 1532.78 1336 1532.17 Q1339.02 1531.54 1341.88 1531.54 Q1349.62 1531.54 1353.44 1535.55 Q1357.26 1539.56 1357.26 1547.71 Z" fill="#000000" fill-rule="nonzero" fill-opacity="1" /><path clip-path="url(#clip880)" d="M1375.11 1522.27 L1375.11 1532.4 L1387.18 1532.4 L1387.18 1536.95 L1375.11 1536.95 L1375.11 1556.3 Q1375.11 1560.66 1376.29 1561.9 Q1377.5 1563.14 1381.16 1563.14 L1387.18 1563.14 L1387.18 1568.04 L1381.16 1568.04 Q1374.38 1568.04 1371.8 1565.53 Q1369.22 1562.98 1369.22 1556.3 L1369.22 1536.95 L1364.93 1536.95 L1364.93 1532.4 L1369.22 1532.4 L1369.22 1522.27 L1375.11 1522.27 Z" fill="#000000" fill-rule="nonzero" fill-opacity="1" /><path clip-path="url(#clip880)" d="M1394.88 1532.4 L1400.73 1532.4 L1400.73 1568.04 L1394.88 1568.04 L1394.88 1532.4 M1394.88 1518.52 L1400.73 1518.52 L1400.73 1525.93 L1394.88 1525.93 L1394.88 1518.52 Z" fill="#000000" fill-rule="nonzero" fill-opacity="1" /><path clip-path="url(#clip880)" d="M1426.8 1536.5 Q1422.09 1536.5 1419.35 1540.19 Q1416.62 1543.85 1416.62 1550.25 Q1416.62 1556.65 1419.32 1560.34 Q1422.06 1564 1426.8 1564 Q1431.48 1564 1434.22 1560.31 Q1436.96 1556.62 1436.96 1550.25 Q1436.96 1543.92 1434.22 1540.23 Q1431.48 1536.5 1426.8 1536.5 M1426.8 1531.54 Q1434.44 1531.54 1438.8 1536.5 Q1443.16 1541.47 1443.16 1550.25 Q1443.16 1559 1438.8 1564 Q1434.44 1568.97 1426.8 1568.97 Q1419.13 1568.97 1414.77 1564 Q1410.44 1559 1410.44 1550.25 Q1410.44 1541.47 1414.77 1536.5 Q1419.13 1531.54 1426.8 1531.54 Z" fill="#000000" fill-rule="nonzero" fill-opacity="1" /><path clip-path="url(#clip880)" d="M1482.5 1546.53 L1482.5 1568.04 L1476.65 1568.04 L1476.65 1546.72 Q1476.65 1541.66 1474.67 1539.14 Q1472.7 1536.63 1468.75 1536.63 Q1464.01 1536.63 1461.27 1539.65 Q1458.54 1542.68 1458.54 1547.9 L1458.54 1568.04 L1452.65 1568.04 L1452.65 1532.4 L1458.54 1532.4 L1458.54 1537.93 Q1460.64 1534.72 1463.47 1533.13 Q1466.33 1531.54 1470.06 1531.54 Q1476.2 1531.54 1479.35 1535.36 Q1482.5 1539.14 1482.5 1546.53 Z" fill="#000000" fill-rule="nonzero" fill-opacity="1" /><polyline clip-path="url(#clip880)" style="stroke:#000000; stroke-linecap:round; stroke-linejoin:round; stroke-width:4; stroke-opacity:1; fill:none" points="347.69,1423.18 347.69,123.472 "/>
<polyline clip-path="url(#clip880)" style="stroke:#000000; stroke-linecap:round; stroke-linejoin:round; stroke-width:4; stroke-opacity:1; fill:none" points="347.69,1276.24 366.587,1276.24 "/>
<polyline clip-path="url(#clip880)" style="stroke:#000000; stroke-linecap:round; stroke-linejoin:round; stroke-width:4; stroke-opacity:1; fill:none" points="347.69,1083.37 366.587,1083.37 "/>
<polyline clip-path="url(#clip880)" style="stroke:#000000; stroke-linecap:round; stroke-linejoin:round; stroke-width:4; stroke-opacity:1; fill:none" points="347.69,890.497 366.587,890.497 "/>
<polyline clip-path="url(#clip880)" style="stroke:#000000; stroke-linecap:round; stroke-linejoin:round; stroke-width:4; stroke-opacity:1; fill:none" points="347.69,697.624 366.587,697.624 "/>
<polyline clip-path="url(#clip880)" style="stroke:#000000; stroke-linecap:round; stroke-linejoin:round; stroke-width:4; stroke-opacity:1; fill:none" points="347.69,504.751 366.587,504.751 "/>
<polyline clip-path="url(#clip880)" style="stroke:#000000; stroke-linecap:round; stroke-linejoin:round; stroke-width:4; stroke-opacity:1; fill:none" points="347.69,311.877 366.587,311.877 "/>
<path clip-path="url(#clip880)" d="M114.26 1276.69 L143.936 1276.69 L143.936 1280.63 L114.26 1280.63 L114.26 1276.69 Z" fill="#000000" fill-rule="nonzero" fill-opacity="1" /><path clip-path="url(#clip880)" d="M154.839 1289.59 L162.477 1289.59 L162.477 1263.22 L154.167 1264.89 L154.167 1260.63 L162.431 1258.96 L167.107 1258.96 L167.107 1289.59 L174.746 1289.59 L174.746 1293.52 L154.839 1293.52 L154.839 1289.59 Z" fill="#000000" fill-rule="nonzero" fill-opacity="1" /><path clip-path="url(#clip880)" d="M194.769 1274.38 Q191.621 1274.38 189.769 1276.53 Q187.94 1278.69 187.94 1282.44 Q187.94 1286.16 189.769 1288.34 Q191.621 1290.49 194.769 1290.49 Q197.917 1290.49 199.746 1288.34 Q201.598 1286.16 201.598 1282.44 Q201.598 1278.69 199.746 1276.53 Q197.917 1274.38 194.769 1274.38 M204.051 1259.73 L204.051 1263.99 Q202.292 1263.15 200.487 1262.71 Q198.704 1262.27 196.945 1262.27 Q192.315 1262.27 189.862 1265.4 Q187.431 1268.52 187.084 1274.84 Q188.45 1272.83 190.51 1271.76 Q192.57 1270.68 195.047 1270.68 Q200.255 1270.68 203.264 1273.85 Q206.297 1277 206.297 1282.44 Q206.297 1287.76 203.149 1290.98 Q200 1294.19 194.769 1294.19 Q188.774 1294.19 185.602 1289.61 Q182.431 1285 182.431 1276.28 Q182.431 1268.08 186.32 1263.22 Q190.209 1258.34 196.76 1258.34 Q198.519 1258.34 200.301 1258.69 Q202.107 1259.03 204.051 1259.73 Z" fill="#000000" fill-rule="nonzero" fill-opacity="1" /><path clip-path="url(#clip880)" d="M213.172 1258.96 L235.394 1258.96 L235.394 1260.95 L222.848 1293.52 L217.963 1293.52 L229.769 1262.9 L213.172 1262.9 L213.172 1258.96 Z" fill="#000000" fill-rule="nonzero" fill-opacity="1" /><path clip-path="url(#clip880)" d="M244.56 1258.96 L262.917 1258.96 L262.917 1262.9 L248.843 1262.9 L248.843 1271.37 Q249.861 1271.02 250.88 1270.86 Q251.898 1270.68 252.917 1270.68 Q258.704 1270.68 262.083 1273.85 Q265.463 1277.02 265.463 1282.44 Q265.463 1288.01 261.991 1291.12 Q258.519 1294.19 252.199 1294.19 Q250.023 1294.19 247.755 1293.82 Q245.509 1293.45 243.102 1292.71 L243.102 1288.01 Q245.185 1289.15 247.408 1289.7 Q249.63 1290.26 252.107 1290.26 Q256.111 1290.26 258.449 1288.15 Q260.787 1286.05 260.787 1282.44 Q260.787 1278.82 258.449 1276.72 Q256.111 1274.61 252.107 1274.61 Q250.232 1274.61 248.357 1275.03 Q246.505 1275.44 244.56 1276.32 L244.56 1258.96 Z" fill="#000000" fill-rule="nonzero" fill-opacity="1" /><path clip-path="url(#clip880)" d="M274.676 1287.64 L279.56 1287.64 L279.56 1293.52 L274.676 1293.52 L274.676 1287.64 Z" fill="#000000" fill-rule="nonzero" fill-opacity="1" /><path clip-path="url(#clip880)" d="M299.745 1262.04 Q296.134 1262.04 294.305 1265.61 Q292.5 1269.15 292.5 1276.28 Q292.5 1283.38 294.305 1286.95 Q296.134 1290.49 299.745 1290.49 Q303.38 1290.49 305.185 1286.95 Q307.014 1283.38 307.014 1276.28 Q307.014 1269.15 305.185 1265.61 Q303.38 1262.04 299.745 1262.04 M299.745 1258.34 Q305.555 1258.34 308.611 1262.94 Q311.69 1267.53 311.69 1276.28 Q311.69 1285 308.611 1289.61 Q305.555 1294.19 299.745 1294.19 Q293.935 1294.19 290.856 1289.61 Q287.801 1285 287.801 1276.28 Q287.801 1267.53 290.856 1262.94 Q293.935 1258.34 299.745 1258.34 Z" fill="#000000" fill-rule="nonzero" fill-opacity="1" /><path clip-path="url(#clip880)" d="M115.256 1083.82 L144.931 1083.82 L144.931 1087.76 L115.256 1087.76 L115.256 1083.82 Z" fill="#000000" fill-rule="nonzero" fill-opacity="1" /><path clip-path="url(#clip880)" d="M155.834 1096.72 L163.473 1096.72 L163.473 1070.35 L155.163 1072.02 L155.163 1067.76 L163.427 1066.09 L168.102 1066.09 L168.102 1096.72 L175.741 1096.72 L175.741 1100.65 L155.834 1100.65 L155.834 1096.72 Z" fill="#000000" fill-rule="nonzero" fill-opacity="1" /><path clip-path="url(#clip880)" d="M195.764 1081.51 Q192.616 1081.51 190.764 1083.66 Q188.936 1085.81 188.936 1089.56 Q188.936 1093.29 190.764 1095.47 Q192.616 1097.62 195.764 1097.62 Q198.912 1097.62 200.741 1095.47 Q202.593 1093.29 202.593 1089.56 Q202.593 1085.81 200.741 1083.66 Q198.912 1081.51 195.764 1081.51 M205.047 1066.85 L205.047 1071.11 Q203.287 1070.28 201.482 1069.84 Q199.7 1069.4 197.94 1069.4 Q193.311 1069.4 190.857 1072.53 Q188.426 1075.65 188.079 1081.97 Q189.445 1079.96 191.505 1078.89 Q193.565 1077.8 196.042 1077.8 Q201.25 1077.8 204.26 1080.97 Q207.292 1084.12 207.292 1089.56 Q207.292 1094.89 204.144 1098.1 Q200.996 1101.32 195.764 1101.32 Q189.769 1101.32 186.598 1096.74 Q183.426 1092.13 183.426 1083.4 Q183.426 1075.21 187.315 1070.35 Q191.204 1065.47 197.755 1065.47 Q199.514 1065.47 201.297 1065.81 Q203.102 1066.16 205.047 1066.85 Z" fill="#000000" fill-rule="nonzero" fill-opacity="1" /><path clip-path="url(#clip880)" d="M214.167 1066.09 L236.389 1066.09 L236.389 1068.08 L223.843 1100.65 L218.959 1100.65 L230.764 1070.03 L214.167 1070.03 L214.167 1066.09 Z" fill="#000000" fill-rule="nonzero" fill-opacity="1" /><path clip-path="url(#clip880)" d="M258.357 1070.16 L246.551 1088.61 L258.357 1088.61 L258.357 1070.16 M257.13 1066.09 L263.009 1066.09 L263.009 1088.61 L267.94 1088.61 L267.94 1092.5 L263.009 1092.5 L263.009 1100.65 L258.357 1100.65 L258.357 1092.5 L242.755 1092.5 L242.755 1087.99 L257.13 1066.09 Z" fill="#000000" fill-rule="nonzero" fill-opacity="1" /><path clip-path="url(#clip880)" d="M275.671 1094.77 L280.556 1094.77 L280.556 1100.65 L275.671 1100.65 L275.671 1094.77 Z" fill="#000000" fill-rule="nonzero" fill-opacity="1" /><path clip-path="url(#clip880)" d="M290.787 1066.09 L309.143 1066.09 L309.143 1070.03 L295.069 1070.03 L295.069 1078.5 Q296.088 1078.15 297.106 1077.99 Q298.125 1077.8 299.143 1077.8 Q304.93 1077.8 308.31 1080.97 Q311.69 1084.15 311.69 1089.56 Q311.69 1095.14 308.217 1098.24 Q304.745 1101.32 298.426 1101.32 Q296.25 1101.32 293.981 1100.95 Q291.736 1100.58 289.329 1099.84 L289.329 1095.14 Q291.412 1096.28 293.634 1096.83 Q295.856 1097.39 298.333 1097.39 Q302.338 1097.39 304.676 1095.28 Q307.014 1093.17 307.014 1089.56 Q307.014 1085.95 304.676 1083.84 Q302.338 1081.74 298.333 1081.74 Q296.458 1081.74 294.583 1082.15 Q292.731 1082.57 290.787 1083.45 L290.787 1066.09 Z" fill="#000000" fill-rule="nonzero" fill-opacity="1" /><path clip-path="url(#clip880)" d="M114.26 890.948 L143.936 890.948 L143.936 894.884 L114.26 894.884 L114.26 890.948 Z" fill="#000000" fill-rule="nonzero" fill-opacity="1" /><path clip-path="url(#clip880)" d="M154.839 903.842 L162.477 903.842 L162.477 877.476 L154.167 879.143 L154.167 874.884 L162.431 873.217 L167.107 873.217 L167.107 903.842 L174.746 903.842 L174.746 907.777 L154.839 907.777 L154.839 903.842 Z" fill="#000000" fill-rule="nonzero" fill-opacity="1" /><path clip-path="url(#clip880)" d="M194.769 888.634 Q191.621 888.634 189.769 890.786 Q187.94 892.939 187.94 896.689 Q187.94 900.416 189.769 902.592 Q191.621 904.745 194.769 904.745 Q197.917 904.745 199.746 902.592 Q201.598 900.416 201.598 896.689 Q201.598 892.939 199.746 890.786 Q197.917 888.634 194.769 888.634 M204.051 873.981 L204.051 878.24 Q202.292 877.407 200.487 876.967 Q198.704 876.527 196.945 876.527 Q192.315 876.527 189.862 879.652 Q187.431 882.777 187.084 889.097 Q188.45 887.083 190.51 886.018 Q192.57 884.93 195.047 884.93 Q200.255 884.93 203.264 888.101 Q206.297 891.249 206.297 896.689 Q206.297 902.013 203.149 905.231 Q200 908.448 194.769 908.448 Q188.774 908.448 185.602 903.865 Q182.431 899.259 182.431 890.532 Q182.431 882.337 186.32 877.476 Q190.209 872.592 196.76 872.592 Q198.519 872.592 200.301 872.939 Q202.107 873.286 204.051 873.981 Z" fill="#000000" fill-rule="nonzero" fill-opacity="1" /><path clip-path="url(#clip880)" d="M213.172 873.217 L235.394 873.217 L235.394 875.208 L222.848 907.777 L217.963 907.777 L229.769 877.152 L213.172 877.152 L213.172 873.217 Z" fill="#000000" fill-rule="nonzero" fill-opacity="1" /><path clip-path="url(#clip880)" d="M257.361 877.291 L245.556 895.74 L257.361 895.74 L257.361 877.291 M256.134 873.217 L262.014 873.217 L262.014 895.74 L266.945 895.74 L266.945 899.629 L262.014 899.629 L262.014 907.777 L257.361 907.777 L257.361 899.629 L241.759 899.629 L241.759 895.115 L256.134 873.217 Z" fill="#000000" fill-rule="nonzero" fill-opacity="1" /><path clip-path="url(#clip880)" d="M274.676 901.897 L279.56 901.897 L279.56 907.777 L274.676 907.777 L274.676 901.897 Z" fill="#000000" fill-rule="nonzero" fill-opacity="1" /><path clip-path="url(#clip880)" d="M299.745 876.296 Q296.134 876.296 294.305 879.86 Q292.5 883.402 292.5 890.532 Q292.5 897.638 294.305 901.203 Q296.134 904.745 299.745 904.745 Q303.38 904.745 305.185 901.203 Q307.014 897.638 307.014 890.532 Q307.014 883.402 305.185 879.86 Q303.38 876.296 299.745 876.296 M299.745 872.592 Q305.555 872.592 308.611 877.198 Q311.69 881.782 311.69 890.532 Q311.69 899.259 308.611 903.865 Q305.555 908.448 299.745 908.448 Q293.935 908.448 290.856 903.865 Q287.801 899.259 287.801 890.532 Q287.801 881.782 290.856 877.198 Q293.935 872.592 299.745 872.592 Z" fill="#000000" fill-rule="nonzero" fill-opacity="1" /><path clip-path="url(#clip880)" d="M115.256 698.075 L144.931 698.075 L144.931 702.01 L115.256 702.01 L115.256 698.075 Z" fill="#000000" fill-rule="nonzero" fill-opacity="1" /><path clip-path="url(#clip880)" d="M155.834 710.969 L163.473 710.969 L163.473 684.603 L155.163 686.27 L155.163 682.01 L163.427 680.344 L168.102 680.344 L168.102 710.969 L175.741 710.969 L175.741 714.904 L155.834 714.904 L155.834 710.969 Z" fill="#000000" fill-rule="nonzero" fill-opacity="1" /><path clip-path="url(#clip880)" d="M195.764 695.76 Q192.616 695.76 190.764 697.913 Q188.936 700.066 188.936 703.816 Q188.936 707.543 190.764 709.719 Q192.616 711.871 195.764 711.871 Q198.912 711.871 200.741 709.719 Q202.593 707.543 202.593 703.816 Q202.593 700.066 200.741 697.913 Q198.912 695.76 195.764 695.76 M205.047 681.108 L205.047 685.367 Q203.287 684.534 201.482 684.094 Q199.7 683.654 197.94 683.654 Q193.311 683.654 190.857 686.779 Q188.426 689.904 188.079 696.223 Q189.445 694.209 191.505 693.145 Q193.565 692.057 196.042 692.057 Q201.25 692.057 204.26 695.228 Q207.292 698.376 207.292 703.816 Q207.292 709.14 204.144 712.357 Q200.996 715.575 195.764 715.575 Q189.769 715.575 186.598 710.992 Q183.426 706.385 183.426 697.658 Q183.426 689.464 187.315 684.603 Q191.204 679.719 197.755 679.719 Q199.514 679.719 201.297 680.066 Q203.102 680.413 205.047 681.108 Z" fill="#000000" fill-rule="nonzero" fill-opacity="1" /><path clip-path="url(#clip880)" d="M214.167 680.344 L236.389 680.344 L236.389 682.334 L223.843 714.904 L218.959 714.904 L230.764 684.279 L214.167 684.279 L214.167 680.344 Z" fill="#000000" fill-rule="nonzero" fill-opacity="1" /><path clip-path="url(#clip880)" d="M259.676 696.27 Q263.033 696.987 264.907 699.256 Q266.806 701.524 266.806 704.858 Q266.806 709.973 263.287 712.774 Q259.769 715.575 253.287 715.575 Q251.111 715.575 248.796 715.135 Q246.505 714.719 244.051 713.862 L244.051 709.348 Q245.996 710.482 248.31 711.061 Q250.625 711.64 253.148 711.64 Q257.546 711.64 259.838 709.904 Q262.153 708.168 262.153 704.858 Q262.153 701.802 260 700.089 Q257.87 698.353 254.051 698.353 L250.023 698.353 L250.023 694.51 L254.236 694.51 Q257.685 694.51 259.514 693.145 Q261.343 691.756 261.343 689.163 Q261.343 686.501 259.445 685.089 Q257.57 683.654 254.051 683.654 Q252.13 683.654 249.931 684.071 Q247.732 684.487 245.093 685.367 L245.093 681.2 Q247.755 680.46 250.07 680.089 Q252.408 679.719 254.468 679.719 Q259.792 679.719 262.894 682.149 Q265.995 684.557 265.995 688.677 Q265.995 691.547 264.352 693.538 Q262.708 695.506 259.676 696.27 Z" fill="#000000" fill-rule="nonzero" fill-opacity="1" /><path clip-path="url(#clip880)" d="M275.671 709.024 L280.556 709.024 L280.556 714.904 L275.671 714.904 L275.671 709.024 Z" fill="#000000" fill-rule="nonzero" fill-opacity="1" /><path clip-path="url(#clip880)" d="M290.787 680.344 L309.143 680.344 L309.143 684.279 L295.069 684.279 L295.069 692.751 Q296.088 692.404 297.106 692.242 Q298.125 692.057 299.143 692.057 Q304.93 692.057 308.31 695.228 Q311.69 698.399 311.69 703.816 Q311.69 709.395 308.217 712.496 Q304.745 715.575 298.426 715.575 Q296.25 715.575 293.981 715.205 Q291.736 714.834 289.329 714.094 L289.329 709.395 Q291.412 710.529 293.634 711.084 Q295.856 711.64 298.333 711.64 Q302.338 711.64 304.676 709.533 Q307.014 707.427 307.014 703.816 Q307.014 700.205 304.676 698.098 Q302.338 695.992 298.333 695.992 Q296.458 695.992 294.583 696.408 Q292.731 696.825 290.787 697.705 L290.787 680.344 Z" fill="#000000" fill-rule="nonzero" fill-opacity="1" /><path clip-path="url(#clip880)" d="M114.26 505.202 L143.936 505.202 L143.936 509.137 L114.26 509.137 L114.26 505.202 Z" fill="#000000" fill-rule="nonzero" fill-opacity="1" /><path clip-path="url(#clip880)" d="M154.839 518.095 L162.477 518.095 L162.477 491.73 L154.167 493.396 L154.167 489.137 L162.431 487.471 L167.107 487.471 L167.107 518.095 L174.746 518.095 L174.746 522.031 L154.839 522.031 L154.839 518.095 Z" fill="#000000" fill-rule="nonzero" fill-opacity="1" /><path clip-path="url(#clip880)" d="M194.769 502.887 Q191.621 502.887 189.769 505.04 Q187.94 507.193 187.94 510.943 Q187.94 514.669 189.769 516.845 Q191.621 518.998 194.769 518.998 Q197.917 518.998 199.746 516.845 Q201.598 514.669 201.598 510.943 Q201.598 507.193 199.746 505.04 Q197.917 502.887 194.769 502.887 M204.051 488.234 L204.051 492.494 Q202.292 491.66 200.487 491.221 Q198.704 490.781 196.945 490.781 Q192.315 490.781 189.862 493.906 Q187.431 497.031 187.084 503.35 Q188.45 501.336 190.51 500.271 Q192.57 499.183 195.047 499.183 Q200.255 499.183 203.264 502.355 Q206.297 505.503 206.297 510.943 Q206.297 516.267 203.149 519.484 Q200 522.702 194.769 522.702 Q188.774 522.702 185.602 518.119 Q182.431 513.512 182.431 504.785 Q182.431 496.591 186.32 491.73 Q190.209 486.846 196.76 486.846 Q198.519 486.846 200.301 487.193 Q202.107 487.54 204.051 488.234 Z" fill="#000000" fill-rule="nonzero" fill-opacity="1" /><path clip-path="url(#clip880)" d="M213.172 487.471 L235.394 487.471 L235.394 489.461 L222.848 522.031 L217.963 522.031 L229.769 491.406 L213.172 491.406 L213.172 487.471 Z" fill="#000000" fill-rule="nonzero" fill-opacity="1" /><path clip-path="url(#clip880)" d="M258.681 503.396 Q262.037 504.114 263.912 506.382 Q265.81 508.651 265.81 511.984 Q265.81 517.1 262.292 519.901 Q258.773 522.702 252.292 522.702 Q250.116 522.702 247.801 522.262 Q245.509 521.845 243.056 520.989 L243.056 516.475 Q245 517.609 247.315 518.188 Q249.63 518.767 252.153 518.767 Q256.551 518.767 258.843 517.031 Q261.158 515.294 261.158 511.984 Q261.158 508.929 259.005 507.216 Q256.875 505.48 253.056 505.48 L249.028 505.48 L249.028 501.637 L253.241 501.637 Q256.69 501.637 258.519 500.271 Q260.347 498.883 260.347 496.29 Q260.347 493.628 258.449 492.216 Q256.574 490.781 253.056 490.781 Q251.134 490.781 248.935 491.197 Q246.736 491.614 244.097 492.494 L244.097 488.327 Q246.759 487.586 249.074 487.216 Q251.412 486.846 253.472 486.846 Q258.796 486.846 261.898 489.276 Q265 491.683 265 495.804 Q265 498.674 263.357 500.665 Q261.713 502.632 258.681 503.396 Z" fill="#000000" fill-rule="nonzero" fill-opacity="1" /><path clip-path="url(#clip880)" d="M274.676 516.151 L279.56 516.151 L279.56 522.031 L274.676 522.031 L274.676 516.151 Z" fill="#000000" fill-rule="nonzero" fill-opacity="1" /><path clip-path="url(#clip880)" d="M299.745 490.549 Q296.134 490.549 294.305 494.114 Q292.5 497.656 292.5 504.785 Q292.5 511.892 294.305 515.457 Q296.134 518.998 299.745 518.998 Q303.38 518.998 305.185 515.457 Q307.014 511.892 307.014 504.785 Q307.014 497.656 305.185 494.114 Q303.38 490.549 299.745 490.549 M299.745 486.846 Q305.555 486.846 308.611 491.452 Q311.69 496.035 311.69 504.785 Q311.69 513.512 308.611 518.119 Q305.555 522.702 299.745 522.702 Q293.935 522.702 290.856 518.119 Q287.801 513.512 287.801 504.785 Q287.801 496.035 290.856 491.452 Q293.935 486.846 299.745 486.846 Z" fill="#000000" fill-rule="nonzero" fill-opacity="1" /><path clip-path="url(#clip880)" d="M115.256 312.329 L144.931 312.329 L144.931 316.264 L115.256 316.264 L115.256 312.329 Z" fill="#000000" fill-rule="nonzero" fill-opacity="1" /><path clip-path="url(#clip880)" d="M155.834 325.222 L163.473 325.222 L163.473 298.857 L155.163 300.523 L155.163 296.264 L163.427 294.597 L168.102 294.597 L168.102 325.222 L175.741 325.222 L175.741 329.157 L155.834 329.157 L155.834 325.222 Z" fill="#000000" fill-rule="nonzero" fill-opacity="1" /><path clip-path="url(#clip880)" d="M195.764 310.014 Q192.616 310.014 190.764 312.167 Q188.936 314.319 188.936 318.069 Q188.936 321.796 190.764 323.972 Q192.616 326.125 195.764 326.125 Q198.912 326.125 200.741 323.972 Q202.593 321.796 202.593 318.069 Q202.593 314.319 200.741 312.167 Q198.912 310.014 195.764 310.014 M205.047 295.361 L205.047 299.62 Q203.287 298.787 201.482 298.347 Q199.7 297.907 197.94 297.907 Q193.311 297.907 190.857 301.032 Q188.426 304.157 188.079 310.477 Q189.445 308.463 191.505 307.398 Q193.565 306.31 196.042 306.31 Q201.25 306.31 204.26 309.481 Q207.292 312.63 207.292 318.069 Q207.292 323.393 204.144 326.611 Q200.996 329.829 195.764 329.829 Q189.769 329.829 186.598 325.245 Q183.426 320.639 183.426 311.912 Q183.426 303.718 187.315 298.857 Q191.204 293.972 197.755 293.972 Q199.514 293.972 201.297 294.32 Q203.102 294.667 205.047 295.361 Z" fill="#000000" fill-rule="nonzero" fill-opacity="1" /><path clip-path="url(#clip880)" d="M214.167 294.597 L236.389 294.597 L236.389 296.588 L223.843 329.157 L218.959 329.157 L230.764 298.532 L214.167 298.532 L214.167 294.597 Z" fill="#000000" fill-rule="nonzero" fill-opacity="1" /><path clip-path="url(#clip880)" d="M249.537 325.222 L265.857 325.222 L265.857 329.157 L243.912 329.157 L243.912 325.222 Q246.574 322.468 251.158 317.838 Q255.764 313.185 256.945 311.843 Q259.19 309.319 260.07 307.583 Q260.972 305.824 260.972 304.134 Q260.972 301.38 259.028 299.644 Q257.107 297.907 254.005 297.907 Q251.806 297.907 249.352 298.671 Q246.921 299.435 244.144 300.986 L244.144 296.264 Q246.968 295.13 249.421 294.551 Q251.875 293.972 253.912 293.972 Q259.283 293.972 262.477 296.657 Q265.671 299.343 265.671 303.833 Q265.671 305.963 264.861 307.884 Q264.074 309.782 261.968 312.375 Q261.389 313.046 258.287 316.264 Q255.185 319.458 249.537 325.222 Z" fill="#000000" fill-rule="nonzero" fill-opacity="1" /><path clip-path="url(#clip880)" d="M275.671 323.278 L280.556 323.278 L280.556 329.157 L275.671 329.157 L275.671 323.278 Z" fill="#000000" fill-rule="nonzero" fill-opacity="1" /><path clip-path="url(#clip880)" d="M290.787 294.597 L309.143 294.597 L309.143 298.532 L295.069 298.532 L295.069 307.005 Q296.088 306.657 297.106 306.495 Q298.125 306.31 299.143 306.31 Q304.93 306.31 308.31 309.481 Q311.69 312.653 311.69 318.069 Q311.69 323.648 308.217 326.75 Q304.745 329.829 298.426 329.829 Q296.25 329.829 293.981 329.458 Q291.736 329.088 289.329 328.347 L289.329 323.648 Q291.412 324.782 293.634 325.338 Q295.856 325.893 298.333 325.893 Q302.338 325.893 304.676 323.787 Q307.014 321.681 307.014 318.069 Q307.014 314.458 304.676 312.352 Q302.338 310.245 298.333 310.245 Q296.458 310.245 294.583 310.662 Q292.731 311.079 290.787 311.958 L290.787 294.597 Z" fill="#000000" fill-rule="nonzero" fill-opacity="1" /><path clip-path="url(#clip880)" d="M16.4842 1001.46 L16.4842 995.028 L58.5933 995.028 L58.5933 971.888 L64.0042 971.888 L64.0042 1001.46 L16.4842 1001.46 Z" fill="#000000" fill-rule="nonzero" fill-opacity="1" /><path clip-path="url(#clip880)" d="M32.4621 952.728 Q32.4621 957.438 36.1542 960.175 Q39.8145 962.913 46.212 962.913 Q52.6095 962.913 56.3017 960.207 Q59.9619 957.47 59.9619 952.728 Q59.9619 948.049 56.2698 945.311 Q52.5777 942.574 46.212 942.574 Q39.8781 942.574 36.186 945.311 Q32.4621 948.049 32.4621 952.728 M27.4968 952.728 Q27.4968 945.089 32.4621 940.728 Q37.4273 936.368 46.212 936.368 Q54.9649 936.368 59.9619 940.728 Q64.9272 945.089 64.9272 952.728 Q64.9272 960.398 59.9619 964.759 Q54.9649 969.087 46.212 969.087 Q37.4273 969.087 32.4621 964.759 Q27.4968 960.398 27.4968 952.728 Z" fill="#000000" fill-rule="nonzero" fill-opacity="1" /><path clip-path="url(#clip880)" d="M45.7664 903.202 Q39.4007 903.202 35.8996 905.844 Q32.3984 908.454 32.3984 913.196 Q32.3984 917.907 35.8996 920.549 Q39.4007 923.159 45.7664 923.159 Q52.1003 923.159 55.6014 920.549 Q59.1026 917.907 59.1026 913.196 Q59.1026 908.454 55.6014 905.844 Q52.1003 903.202 45.7664 903.202 M59.58 897.346 Q68.683 897.346 73.1071 901.388 Q77.5631 905.43 77.5631 913.769 Q77.5631 916.857 77.0857 919.594 Q76.6401 922.331 75.6852 924.909 L69.9879 924.909 Q71.3884 922.331 72.0568 919.817 Q72.7252 917.302 72.7252 914.692 Q72.7252 908.931 69.7015 906.067 Q66.7096 903.202 60.6303 903.202 L57.7339 903.202 Q60.885 905.017 62.4446 907.849 Q64.0042 910.682 64.0042 914.629 Q64.0042 921.185 59.0071 925.196 Q54.01 929.206 45.7664 929.206 Q37.491 929.206 32.4939 925.196 Q27.4968 921.185 27.4968 914.629 Q27.4968 910.682 29.0564 907.849 Q30.616 905.017 33.7671 903.202 L28.3562 903.202 L28.3562 897.346 L59.58 897.346 Z" fill="#000000" fill-rule="nonzero" fill-opacity="1" /><path clip-path="url(#clip880)" d="M43.5384 888.243 L43.5384 871.087 L48.7583 871.087 L48.7583 888.243 L43.5384 888.243 Z" fill="#000000" fill-rule="nonzero" fill-opacity="1" /><path clip-path="url(#clip880)" d="M16.4842 861.507 L16.4842 855.078 L58.5933 855.078 L58.5933 831.938 L64.0042 831.938 L64.0042 861.507 L16.4842 861.507 Z" fill="#000000" fill-rule="nonzero" fill-opacity="1" /><path clip-path="url(#clip880)" d="M28.3562 825.445 L28.3562 819.589 L64.0042 819.589 L64.0042 825.445 L28.3562 825.445 M14.479 825.445 L14.479 819.589 L21.895 819.589 L21.895 825.445 L14.479 825.445 Z" fill="#000000" fill-rule="nonzero" fill-opacity="1" /><path clip-path="url(#clip880)" d="M14.479 807.558 L14.479 801.669 L43.7294 801.669 L28.3562 784.195 L28.3562 776.716 L45.0344 795.622 L64.0042 775.92 L64.0042 783.559 L46.5939 801.669 L64.0042 801.669 L64.0042 807.558 L14.479 807.558 Z" fill="#000000" fill-rule="nonzero" fill-opacity="1" /><path clip-path="url(#clip880)" d="M44.7161 741.418 L47.5806 741.418 L47.5806 768.345 Q53.6281 767.963 56.8109 764.716 Q59.9619 761.438 59.9619 755.613 Q59.9619 752.24 59.1344 749.089 Q58.3069 745.906 56.6518 742.787 L62.1899 742.787 Q63.5267 745.938 64.227 749.248 Q64.9272 752.558 64.9272 755.964 Q64.9272 764.494 59.9619 769.491 Q54.9967 774.456 46.5303 774.456 Q37.7774 774.456 32.6531 769.745 Q27.4968 765.003 27.4968 756.982 Q27.4968 749.789 32.1438 745.619 Q36.7589 741.418 44.7161 741.418 M42.9973 747.274 Q38.1912 747.338 35.3266 749.98 Q32.4621 752.59 32.4621 756.918 Q32.4621 761.82 35.2312 764.78 Q38.0002 767.708 43.0292 768.154 L42.9973 747.274 Z" fill="#000000" fill-rule="nonzero" fill-opacity="1" /><path clip-path="url(#clip880)" d="M14.479 731.806 L14.479 725.949 L64.0042 725.949 L64.0042 731.806 L14.479 731.806 Z" fill="#000000" fill-rule="nonzero" fill-opacity="1" /><path clip-path="url(#clip880)" d="M28.3562 713.695 L28.3562 707.839 L64.0042 707.839 L64.0042 713.695 L28.3562 713.695 M14.479 713.695 L14.479 707.839 L21.895 707.839 L21.895 713.695 L14.479 713.695 Z" fill="#000000" fill-rule="nonzero" fill-opacity="1" /><path clip-path="url(#clip880)" d="M42.4881 665.952 L64.0042 665.952 L64.0042 671.809 L42.679 671.809 Q37.6183 671.809 35.1038 673.782 Q32.5894 675.756 32.5894 679.702 Q32.5894 684.445 35.6131 687.182 Q38.6368 689.919 43.8567 689.919 L64.0042 689.919 L64.0042 695.808 L14.479 695.808 L14.479 689.919 L33.8944 689.919 Q30.6797 687.819 29.0883 684.986 Q27.4968 682.121 27.4968 678.397 Q27.4968 672.254 31.3163 669.103 Q35.1038 665.952 42.4881 665.952 Z" fill="#000000" fill-rule="nonzero" fill-opacity="1" /><path clip-path="url(#clip880)" d="M32.4621 640.458 Q32.4621 645.168 36.1542 647.906 Q39.8145 650.643 46.212 650.643 Q52.6095 650.643 56.3017 647.937 Q59.9619 645.2 59.9619 640.458 Q59.9619 635.779 56.2698 633.042 Q52.5777 630.304 46.212 630.304 Q39.8781 630.304 36.186 633.042 Q32.4621 635.779 32.4621 640.458 M27.4968 640.458 Q27.4968 632.819 32.4621 628.458 Q37.4273 624.098 46.212 624.098 Q54.9649 624.098 59.9619 628.458 Q64.9272 632.819 64.9272 640.458 Q64.9272 648.128 59.9619 652.489 Q54.9649 656.818 46.212 656.818 Q37.4273 656.818 32.4621 652.489 Q27.4968 648.128 27.4968 640.458 Z" fill="#000000" fill-rule="nonzero" fill-opacity="1" /><path clip-path="url(#clip880)" d="M32.4621 600.577 Q32.4621 605.287 36.1542 608.024 Q39.8145 610.762 46.212 610.762 Q52.6095 610.762 56.3017 608.056 Q59.9619 605.319 59.9619 600.577 Q59.9619 595.898 56.2698 593.161 Q52.5777 590.423 46.212 590.423 Q39.8781 590.423 36.186 593.161 Q32.4621 595.898 32.4621 600.577 M27.4968 600.577 Q27.4968 592.938 32.4621 588.577 Q37.4273 584.217 46.212 584.217 Q54.9649 584.217 59.9619 588.577 Q64.9272 592.938 64.9272 600.577 Q64.9272 608.247 59.9619 612.608 Q54.9649 616.936 46.212 616.936 Q37.4273 616.936 32.4621 612.608 Q27.4968 608.247 27.4968 600.577 Z" fill="#000000" fill-rule="nonzero" fill-opacity="1" /><path clip-path="url(#clip880)" d="M33.7671 551.051 L14.479 551.051 L14.479 545.195 L64.0042 545.195 L64.0042 551.051 L58.657 551.051 Q61.8398 552.897 63.3994 555.73 Q64.9272 558.531 64.9272 562.478 Q64.9272 568.939 59.771 573.013 Q54.6147 577.055 46.212 577.055 Q37.8093 577.055 32.6531 573.013 Q27.4968 568.939 27.4968 562.478 Q27.4968 558.531 29.0564 555.73 Q30.5842 552.897 33.7671 551.051 M46.212 571.008 Q52.6732 571.008 56.3653 568.366 Q60.0256 565.693 60.0256 561.046 Q60.0256 556.399 56.3653 553.725 Q52.6732 551.051 46.212 551.051 Q39.7508 551.051 36.0905 553.725 Q32.3984 556.399 32.3984 561.046 Q32.3984 565.693 36.0905 568.366 Q39.7508 571.008 46.212 571.008 Z" fill="#000000" fill-rule="nonzero" fill-opacity="1" /><path clip-path="url(#clip880)" d="M1007.82 12.096 L1046.06 12.096 L1046.06 18.9825 L1016 18.9825 L1016 36.8875 L1044.8 36.8875 L1044.8 43.7741 L1016 43.7741 L1016 65.6895 L1046.79 65.6895 L1046.79 72.576 L1007.82 72.576 L1007.82 12.096 Z" fill="#000000" fill-rule="nonzero" fill-opacity="1" /><path clip-path="url(#clip880)" d="M1060.24 12.096 L1072.43 12.096 L1087.87 53.2532 L1103.38 12.096 L1115.57 12.096 L1115.57 72.576 L1107.59 72.576 L1107.59 19.4686 L1092 60.9499 L1083.77 60.9499 L1068.18 19.4686 L1068.18 72.576 L1060.24 72.576 L1060.24 12.096 Z" fill="#000000" fill-rule="nonzero" fill-opacity="1" /><path clip-path="url(#clip880)" d="M1203.48 16.7545 L1203.48 25.383 Q1199.35 21.5346 1194.65 19.6307 Q1189.99 17.7268 1184.72 17.7268 Q1174.35 17.7268 1168.84 24.0867 Q1163.33 30.4061 1163.33 42.3968 Q1163.33 54.3469 1168.84 60.7069 Q1174.35 67.0263 1184.72 67.0263 Q1189.99 67.0263 1194.65 65.1223 Q1199.35 63.2184 1203.48 59.3701 L1203.48 67.9175 Q1199.18 70.8341 1194.36 72.2924 Q1189.58 73.7508 1184.24 73.7508 Q1170.5 73.7508 1162.61 65.3654 Q1154.71 56.9395 1154.71 42.3968 Q1154.71 27.8135 1162.61 19.4281 Q1170.5 11.0023 1184.24 11.0023 Q1189.67 11.0023 1194.45 12.4606 Q1199.27 13.8784 1203.48 16.7545 Z" fill="#000000" fill-rule="nonzero" fill-opacity="1" /><path clip-path="url(#clip880)" d="M1233.37 32.4315 Q1227.38 32.4315 1223.9 37.1306 Q1220.41 41.7891 1220.41 49.9314 Q1220.41 58.0738 1223.85 62.7728 Q1227.34 67.4314 1233.37 67.4314 Q1239.33 67.4314 1242.81 62.7323 Q1246.3 58.0333 1246.3 49.9314 Q1246.3 41.8701 1242.81 37.1711 Q1239.33 32.4315 1233.37 32.4315 M1233.37 26.1121 Q1243.1 26.1121 1248.65 32.4315 Q1254.2 38.7509 1254.2 49.9314 Q1254.2 61.0714 1248.65 67.4314 Q1243.1 73.7508 1233.37 73.7508 Q1223.61 73.7508 1218.06 67.4314 Q1212.55 61.0714 1212.55 49.9314 Q1212.55 38.7509 1218.06 32.4315 Q1223.61 26.1121 1233.37 26.1121 Z" fill="#000000" fill-rule="nonzero" fill-opacity="1" /><path clip-path="url(#clip880)" d="M1304.27 45.1919 L1304.27 72.576 L1296.81 72.576 L1296.81 45.4349 Q1296.81 38.994 1294.3 35.7938 Q1291.79 32.5936 1286.77 32.5936 Q1280.73 32.5936 1277.25 36.4419 Q1273.76 40.2903 1273.76 46.9338 L1273.76 72.576 L1266.27 72.576 L1266.27 27.2059 L1273.76 27.2059 L1273.76 34.2544 Q1276.44 30.163 1280.04 28.1376 Q1283.69 26.1121 1288.43 26.1121 Q1296.24 26.1121 1300.25 30.9732 Q1304.27 35.7938 1304.27 45.1919 Z" fill="#000000" fill-rule="nonzero" fill-opacity="1" /><path clip-path="url(#clip880)" d="M1313.78 27.2059 L1321.68 27.2059 L1335.86 65.2844 L1350.04 27.2059 L1357.94 27.2059 L1340.93 72.576 L1330.8 72.576 L1313.78 27.2059 Z" fill="#000000" fill-rule="nonzero" fill-opacity="1" /><path clip-path="url(#clip880)" d="M1407.04 48.0275 L1407.04 51.6733 L1372.77 51.6733 Q1373.25 59.3701 1377.38 63.421 Q1381.56 67.4314 1388.97 67.4314 Q1393.26 67.4314 1397.27 66.3781 Q1401.32 65.3249 1405.29 63.2184 L1405.29 70.267 Q1401.28 71.9684 1397.07 72.8596 Q1392.86 73.7508 1388.52 73.7508 Q1377.67 73.7508 1371.31 67.4314 Q1364.99 61.1119 1364.99 50.3365 Q1364.99 39.1965 1370.98 32.6746 Q1377.02 26.1121 1387.23 26.1121 Q1396.38 26.1121 1401.69 32.0264 Q1407.04 37.9003 1407.04 48.0275 M1399.58 45.84 Q1399.5 39.7232 1396.14 36.0774 Q1392.82 32.4315 1387.31 32.4315 Q1381.07 32.4315 1377.3 35.9558 Q1373.58 39.4801 1373.01 45.8805 L1399.58 45.84 Z" fill="#000000" fill-rule="nonzero" fill-opacity="1" /><path clip-path="url(#clip880)" d="M1445.56 34.1734 Q1444.31 33.4443 1442.81 33.1202 Q1441.35 32.7556 1439.57 32.7556 Q1433.25 32.7556 1429.84 36.8875 Q1426.48 40.9789 1426.48 48.6757 L1426.48 72.576 L1418.99 72.576 L1418.99 27.2059 L1426.48 27.2059 L1426.48 34.2544 Q1428.83 30.1225 1432.6 28.1376 Q1436.37 26.1121 1441.75 26.1121 Q1442.52 26.1121 1443.45 26.2337 Q1444.39 26.3147 1445.52 26.5172 L1445.56 34.1734 Z" fill="#000000" fill-rule="nonzero" fill-opacity="1" /><path clip-path="url(#clip880)" d="M1481.78 49.3643 Q1481.78 41.2625 1478.41 36.8065 Q1475.09 32.3505 1469.06 32.3505 Q1463.06 32.3505 1459.7 36.8065 Q1456.38 41.2625 1456.38 49.3643 Q1456.38 57.4256 1459.7 61.8816 Q1463.06 66.3376 1469.06 66.3376 Q1475.09 66.3376 1478.41 61.8816 Q1481.78 57.4256 1481.78 49.3643 M1489.23 66.9452 Q1489.23 78.5308 1484.08 84.1616 Q1478.94 89.8329 1468.33 89.8329 Q1464.4 89.8329 1460.91 89.2252 Q1457.43 88.6581 1454.15 87.4428 L1454.15 80.1917 Q1457.43 81.9741 1460.63 82.8248 Q1463.83 83.6755 1467.15 83.6755 Q1474.48 83.6755 1478.13 79.8271 Q1481.78 76.0193 1481.78 68.282 L1481.78 64.5957 Q1479.47 68.6061 1475.86 70.5911 Q1472.26 72.576 1467.23 72.576 Q1458.89 72.576 1453.78 66.2161 Q1448.68 59.8562 1448.68 49.3643 Q1448.68 38.832 1453.78 32.472 Q1458.89 26.1121 1467.23 26.1121 Q1472.26 26.1121 1475.86 28.0971 Q1479.47 30.082 1481.78 34.0924 L1481.78 27.2059 L1489.23 27.2059 L1489.23 66.9452 Z" fill="#000000" fill-rule="nonzero" fill-opacity="1" /><path clip-path="url(#clip880)" d="M1543.39 48.0275 L1543.39 51.6733 L1509.12 51.6733 Q1509.61 59.3701 1513.74 63.421 Q1517.91 67.4314 1525.32 67.4314 Q1529.62 67.4314 1533.63 66.3781 Q1537.68 65.3249 1541.65 63.2184 L1541.65 70.267 Q1537.64 71.9684 1533.42 72.8596 Q1529.21 73.7508 1524.88 73.7508 Q1514.02 73.7508 1507.66 67.4314 Q1501.34 61.1119 1501.34 50.3365 Q1501.34 39.1965 1507.34 32.6746 Q1513.37 26.1121 1523.58 26.1121 Q1532.74 26.1121 1538.04 32.0264 Q1543.39 37.9003 1543.39 48.0275 M1535.94 45.84 Q1535.86 39.7232 1532.49 36.0774 Q1529.17 32.4315 1523.66 32.4315 Q1517.42 32.4315 1513.66 35.9558 Q1509.93 39.4801 1509.36 45.8805 L1535.94 45.84 Z" fill="#000000" fill-rule="nonzero" fill-opacity="1" /><path clip-path="url(#clip880)" d="M1593.34 45.1919 L1593.34 72.576 L1585.88 72.576 L1585.88 45.4349 Q1585.88 38.994 1583.37 35.7938 Q1580.86 32.5936 1575.84 32.5936 Q1569.8 32.5936 1566.32 36.4419 Q1562.83 40.2903 1562.83 46.9338 L1562.83 72.576 L1555.34 72.576 L1555.34 27.2059 L1562.83 27.2059 L1562.83 34.2544 Q1565.51 30.163 1569.11 28.1376 Q1572.76 26.1121 1577.5 26.1121 Q1585.32 26.1121 1589.33 30.9732 Q1593.34 35.7938 1593.34 45.1919 Z" fill="#000000" fill-rule="nonzero" fill-opacity="1" /><path clip-path="url(#clip880)" d="M1640.85 28.9478 L1640.85 35.9153 Q1637.7 34.1734 1634.49 33.3227 Q1631.34 32.4315 1628.09 32.4315 Q1620.84 32.4315 1616.83 37.0496 Q1612.82 41.6271 1612.82 49.9314 Q1612.82 58.2358 1616.83 62.8538 Q1620.84 67.4314 1628.09 67.4314 Q1631.34 67.4314 1634.49 66.5807 Q1637.7 65.6895 1640.85 63.9476 L1640.85 70.8341 Q1637.74 72.2924 1634.37 73.0216 Q1631.05 73.7508 1627.28 73.7508 Q1617.04 73.7508 1611 67.3098 Q1604.96 60.8689 1604.96 49.9314 Q1604.96 38.832 1611.04 32.472 Q1617.16 26.1121 1627.77 26.1121 Q1631.21 26.1121 1634.49 26.8413 Q1637.78 27.5299 1640.85 28.9478 Z" fill="#000000" fill-rule="nonzero" fill-opacity="1" /><path clip-path="url(#clip880)" d="M1692.63 48.0275 L1692.63 51.6733 L1658.35 51.6733 Q1658.84 59.3701 1662.97 63.421 Q1667.15 67.4314 1674.56 67.4314 Q1678.85 67.4314 1682.86 66.3781 Q1686.91 65.3249 1690.88 63.2184 L1690.88 70.267 Q1686.87 71.9684 1682.66 72.8596 Q1678.45 73.7508 1674.11 73.7508 Q1663.26 73.7508 1656.9 67.4314 Q1650.58 61.1119 1650.58 50.3365 Q1650.58 39.1965 1656.57 32.6746 Q1662.61 26.1121 1672.82 26.1121 Q1681.97 26.1121 1687.28 32.0264 Q1692.63 37.9003 1692.63 48.0275 M1685.17 45.84 Q1685.09 39.7232 1681.73 36.0774 Q1678.41 32.4315 1672.9 32.4315 Q1666.66 32.4315 1662.89 35.9558 Q1659.16 39.4801 1658.6 45.8805 L1685.17 45.84 Z" fill="#000000" fill-rule="nonzero" fill-opacity="1" /><polyline clip-path="url(#clip882)" style="stroke:#00008b; stroke-linecap:round; stroke-linejoin:round; stroke-width:8; stroke-opacity:1; fill:none" points="404.437,1386.4 445.558,451.418 486.679,237.596 527.8,182.468 568.921,167.532 610.042,163.286 651.164,161.965 692.285,161.47 733.406,161.222 774.527,161.059 815.648,160.933 856.769,160.83 897.89,160.744 939.011,160.67 980.133,160.608 1021.25,160.555 1062.37,160.51 1103.5,160.472 1144.62,160.439 1185.74,160.411 1226.86,160.388 1267.98,160.368 1309.1,160.351 1350.22,160.336 1391.34,160.324 1432.47,160.314 1473.59,160.305 1514.71,160.297 1555.83,160.291 1596.95,160.285 1638.07,160.281 1679.19,160.277 1720.31,160.273 1761.43,160.271 1802.56,160.268 1843.68,160.266 1884.8,160.264 1925.92,160.263 1967.04,160.262 2008.16,160.26 2049.28,160.26 2090.4,160.259 2131.52,160.258 2172.65,160.258 2213.77,160.257 2254.89,160.257 2296.01,160.256 "/>
<circle clip-path="url(#clip882)" cx="404.437" cy="1386.4" r="10.8" fill="#00008b" fill-rule="evenodd" fill-opacity="1" stroke="#000000" stroke-opacity="1" stroke-width="3.2"/>
<circle clip-path="url(#clip882)" cx="445.558" cy="451.418" r="10.8" fill="#00008b" fill-rule="evenodd" fill-opacity="1" stroke="#000000" stroke-opacity="1" stroke-width="3.2"/>
<circle clip-path="url(#clip882)" cx="486.679" cy="237.596" r="10.8" fill="#00008b" fill-rule="evenodd" fill-opacity="1" stroke="#000000" stroke-opacity="1" stroke-width="3.2"/>
<circle clip-path="url(#clip882)" cx="527.8" cy="182.468" r="10.8" fill="#00008b" fill-rule="evenodd" fill-opacity="1" stroke="#000000" stroke-opacity="1" stroke-width="3.2"/>
<circle clip-path="url(#clip882)" cx="568.921" cy="167.532" r="10.8" fill="#00008b" fill-rule="evenodd" fill-opacity="1" stroke="#000000" stroke-opacity="1" stroke-width="3.2"/>
<circle clip-path="url(#clip882)" cx="610.042" cy="163.286" r="10.8" fill="#00008b" fill-rule="evenodd" fill-opacity="1" stroke="#000000" stroke-opacity="1" stroke-width="3.2"/>
<circle clip-path="url(#clip882)" cx="651.164" cy="161.965" r="10.8" fill="#00008b" fill-rule="evenodd" fill-opacity="1" stroke="#000000" stroke-opacity="1" stroke-width="3.2"/>
<circle clip-path="url(#clip882)" cx="692.285" cy="161.47" r="10.8" fill="#00008b" fill-rule="evenodd" fill-opacity="1" stroke="#000000" stroke-opacity="1" stroke-width="3.2"/>
<circle clip-path="url(#clip882)" cx="733.406" cy="161.222" r="10.8" fill="#00008b" fill-rule="evenodd" fill-opacity="1" stroke="#000000" stroke-opacity="1" stroke-width="3.2"/>
<circle clip-path="url(#clip882)" cx="774.527" cy="161.059" r="10.8" fill="#00008b" fill-rule="evenodd" fill-opacity="1" stroke="#000000" stroke-opacity="1" stroke-width="3.2"/>
<circle clip-path="url(#clip882)" cx="815.648" cy="160.933" r="10.8" fill="#00008b" fill-rule="evenodd" fill-opacity="1" stroke="#000000" stroke-opacity="1" stroke-width="3.2"/>
<circle clip-path="url(#clip882)" cx="856.769" cy="160.83" r="10.8" fill="#00008b" fill-rule="evenodd" fill-opacity="1" stroke="#000000" stroke-opacity="1" stroke-width="3.2"/>
<circle clip-path="url(#clip882)" cx="897.89" cy="160.744" r="10.8" fill="#00008b" fill-rule="evenodd" fill-opacity="1" stroke="#000000" stroke-opacity="1" stroke-width="3.2"/>
<circle clip-path="url(#clip882)" cx="939.011" cy="160.67" r="10.8" fill="#00008b" fill-rule="evenodd" fill-opacity="1" stroke="#000000" stroke-opacity="1" stroke-width="3.2"/>
<circle clip-path="url(#clip882)" cx="980.133" cy="160.608" r="10.8" fill="#00008b" fill-rule="evenodd" fill-opacity="1" stroke="#000000" stroke-opacity="1" stroke-width="3.2"/>
<circle clip-path="url(#clip882)" cx="1021.25" cy="160.555" r="10.8" fill="#00008b" fill-rule="evenodd" fill-opacity="1" stroke="#000000" stroke-opacity="1" stroke-width="3.2"/>
<circle clip-path="url(#clip882)" cx="1062.37" cy="160.51" r="10.8" fill="#00008b" fill-rule="evenodd" fill-opacity="1" stroke="#000000" stroke-opacity="1" stroke-width="3.2"/>
<circle clip-path="url(#clip882)" cx="1103.5" cy="160.472" r="10.8" fill="#00008b" fill-rule="evenodd" fill-opacity="1" stroke="#000000" stroke-opacity="1" stroke-width="3.2"/>
<circle clip-path="url(#clip882)" cx="1144.62" cy="160.439" r="10.8" fill="#00008b" fill-rule="evenodd" fill-opacity="1" stroke="#000000" stroke-opacity="1" stroke-width="3.2"/>
<circle clip-path="url(#clip882)" cx="1185.74" cy="160.411" r="10.8" fill="#00008b" fill-rule="evenodd" fill-opacity="1" stroke="#000000" stroke-opacity="1" stroke-width="3.2"/>
<circle clip-path="url(#clip882)" cx="1226.86" cy="160.388" r="10.8" fill="#00008b" fill-rule="evenodd" fill-opacity="1" stroke="#000000" stroke-opacity="1" stroke-width="3.2"/>
<circle clip-path="url(#clip882)" cx="1267.98" cy="160.368" r="10.8" fill="#00008b" fill-rule="evenodd" fill-opacity="1" stroke="#000000" stroke-opacity="1" stroke-width="3.2"/>
<circle clip-path="url(#clip882)" cx="1309.1" cy="160.351" r="10.8" fill="#00008b" fill-rule="evenodd" fill-opacity="1" stroke="#000000" stroke-opacity="1" stroke-width="3.2"/>
<circle clip-path="url(#clip882)" cx="1350.22" cy="160.336" r="10.8" fill="#00008b" fill-rule="evenodd" fill-opacity="1" stroke="#000000" stroke-opacity="1" stroke-width="3.2"/>
<circle clip-path="url(#clip882)" cx="1391.34" cy="160.324" r="10.8" fill="#00008b" fill-rule="evenodd" fill-opacity="1" stroke="#000000" stroke-opacity="1" stroke-width="3.2"/>
<circle clip-path="url(#clip882)" cx="1432.47" cy="160.314" r="10.8" fill="#00008b" fill-rule="evenodd" fill-opacity="1" stroke="#000000" stroke-opacity="1" stroke-width="3.2"/>
<circle clip-path="url(#clip882)" cx="1473.59" cy="160.305" r="10.8" fill="#00008b" fill-rule="evenodd" fill-opacity="1" stroke="#000000" stroke-opacity="1" stroke-width="3.2"/>
<circle clip-path="url(#clip882)" cx="1514.71" cy="160.297" r="10.8" fill="#00008b" fill-rule="evenodd" fill-opacity="1" stroke="#000000" stroke-opacity="1" stroke-width="3.2"/>
<circle clip-path="url(#clip882)" cx="1555.83" cy="160.291" r="10.8" fill="#00008b" fill-rule="evenodd" fill-opacity="1" stroke="#000000" stroke-opacity="1" stroke-width="3.2"/>
<circle clip-path="url(#clip882)" cx="1596.95" cy="160.285" r="10.8" fill="#00008b" fill-rule="evenodd" fill-opacity="1" stroke="#000000" stroke-opacity="1" stroke-width="3.2"/>
<circle clip-path="url(#clip882)" cx="1638.07" cy="160.281" r="10.8" fill="#00008b" fill-rule="evenodd" fill-opacity="1" stroke="#000000" stroke-opacity="1" stroke-width="3.2"/>
<circle clip-path="url(#clip882)" cx="1679.19" cy="160.277" r="10.8" fill="#00008b" fill-rule="evenodd" fill-opacity="1" stroke="#000000" stroke-opacity="1" stroke-width="3.2"/>
<circle clip-path="url(#clip882)" cx="1720.31" cy="160.273" r="10.8" fill="#00008b" fill-rule="evenodd" fill-opacity="1" stroke="#000000" stroke-opacity="1" stroke-width="3.2"/>
<circle clip-path="url(#clip882)" cx="1761.43" cy="160.271" r="10.8" fill="#00008b" fill-rule="evenodd" fill-opacity="1" stroke="#000000" stroke-opacity="1" stroke-width="3.2"/>
<circle clip-path="url(#clip882)" cx="1802.56" cy="160.268" r="10.8" fill="#00008b" fill-rule="evenodd" fill-opacity="1" stroke="#000000" stroke-opacity="1" stroke-width="3.2"/>
<circle clip-path="url(#clip882)" cx="1843.68" cy="160.266" r="10.8" fill="#00008b" fill-rule="evenodd" fill-opacity="1" stroke="#000000" stroke-opacity="1" stroke-width="3.2"/>
<circle clip-path="url(#clip882)" cx="1884.8" cy="160.264" r="10.8" fill="#00008b" fill-rule="evenodd" fill-opacity="1" stroke="#000000" stroke-opacity="1" stroke-width="3.2"/>
<circle clip-path="url(#clip882)" cx="1925.92" cy="160.263" r="10.8" fill="#00008b" fill-rule="evenodd" fill-opacity="1" stroke="#000000" stroke-opacity="1" stroke-width="3.2"/>
<circle clip-path="url(#clip882)" cx="1967.04" cy="160.262" r="10.8" fill="#00008b" fill-rule="evenodd" fill-opacity="1" stroke="#000000" stroke-opacity="1" stroke-width="3.2"/>
<circle clip-path="url(#clip882)" cx="2008.16" cy="160.26" r="10.8" fill="#00008b" fill-rule="evenodd" fill-opacity="1" stroke="#000000" stroke-opacity="1" stroke-width="3.2"/>
<circle clip-path="url(#clip882)" cx="2049.28" cy="160.26" r="10.8" fill="#00008b" fill-rule="evenodd" fill-opacity="1" stroke="#000000" stroke-opacity="1" stroke-width="3.2"/>
<circle clip-path="url(#clip882)" cx="2090.4" cy="160.259" r="10.8" fill="#00008b" fill-rule="evenodd" fill-opacity="1" stroke="#000000" stroke-opacity="1" stroke-width="3.2"/>
<circle clip-path="url(#clip882)" cx="2131.52" cy="160.258" r="10.8" fill="#00008b" fill-rule="evenodd" fill-opacity="1" stroke="#000000" stroke-opacity="1" stroke-width="3.2"/>
<circle clip-path="url(#clip882)" cx="2172.65" cy="160.258" r="10.8" fill="#00008b" fill-rule="evenodd" fill-opacity="1" stroke="#000000" stroke-opacity="1" stroke-width="3.2"/>
<circle clip-path="url(#clip882)" cx="2213.77" cy="160.257" r="10.8" fill="#00008b" fill-rule="evenodd" fill-opacity="1" stroke="#000000" stroke-opacity="1" stroke-width="3.2"/>
<circle clip-path="url(#clip882)" cx="2254.89" cy="160.257" r="10.8" fill="#00008b" fill-rule="evenodd" fill-opacity="1" stroke="#000000" stroke-opacity="1" stroke-width="3.2"/>
<circle clip-path="url(#clip882)" cx="2296.01" cy="160.256" r="10.8" fill="#00008b" fill-rule="evenodd" fill-opacity="1" stroke="#000000" stroke-opacity="1" stroke-width="3.2"/>
<path clip-path="url(#clip880)" d="M1477.36 -12761.5 L1502.18 -12761.5 L1502.18 -12756.6 L1483.2 -12756.6 L1483.2 -12743.9 L1500.33 -12743.9 L1500.33 -12739 L1483.2 -12739 L1483.2 -12718.3 L1477.36 -12718.3 L1477.36 -12761.5 Z" fill="#000000" fill-rule="nonzero" fill-opacity="1" /><path clip-path="url(#clip880)" d="M1506.9 -12750.7 L1512.22 -12750.7 L1512.22 -12718.3 L1506.9 -12718.3 L1506.9 -12750.7 M1506.9 -12763.4 L1512.22 -12763.4 L1512.22 -12756.6 L1506.9 -12756.6 L1506.9 -12763.4 Z" fill="#000000" fill-rule="nonzero" fill-opacity="1" /><path clip-path="url(#clip880)" d="M1550.3 -12737.9 L1550.3 -12718.3 L1544.98 -12718.3 L1544.98 -12737.7 Q1544.98 -12742.3 1543.18 -12744.6 Q1541.39 -12746.9 1537.8 -12746.9 Q1533.49 -12746.9 1531 -12744.1 Q1528.51 -12741.4 1528.51 -12736.6 L1528.51 -12718.3 L1523.16 -12718.3 L1523.16 -12750.7 L1528.51 -12750.7 L1528.51 -12745.7 Q1530.42 -12748.6 1533 -12750.1 Q1535.6 -12751.5 1538.99 -12751.5 Q1544.57 -12751.5 1547.44 -12748 Q1550.3 -12744.6 1550.3 -12737.9 Z" fill="#000000" fill-rule="nonzero" fill-opacity="1" /><path clip-path="url(#clip880)" d="M1575.65 -12734.6 Q1569.2 -12734.6 1566.71 -12733.1 Q1564.22 -12731.7 1564.22 -12728.1 Q1564.22 -12725.3 1566.07 -12723.6 Q1567.95 -12721.9 1571.16 -12721.9 Q1575.59 -12721.9 1578.25 -12725.1 Q1580.94 -12728.2 1580.94 -12733.4 L1580.94 -12734.6 L1575.65 -12734.6 M1586.27 -12736.8 L1586.27 -12718.3 L1580.94 -12718.3 L1580.94 -12723.2 Q1579.12 -12720.3 1576.4 -12718.9 Q1573.68 -12717.5 1569.75 -12717.5 Q1564.77 -12717.5 1561.82 -12720.3 Q1558.9 -12723.1 1558.9 -12727.8 Q1558.9 -12733.2 1562.54 -12736 Q1566.22 -12738.8 1573.48 -12738.8 L1580.94 -12738.8 L1580.94 -12739.3 Q1580.94 -12743 1578.51 -12745 Q1576.11 -12747 1571.74 -12747 Q1568.96 -12747 1566.33 -12746.3 Q1563.7 -12745.7 1561.27 -12744.3 L1561.27 -12749.3 Q1564.19 -12750.4 1566.94 -12750.9 Q1569.69 -12751.5 1572.29 -12751.5 Q1579.32 -12751.5 1582.8 -12747.9 Q1586.27 -12744.2 1586.27 -12736.8 Z" fill="#000000" fill-rule="nonzero" fill-opacity="1" /><path clip-path="url(#clip880)" d="M1597.23 -12763.4 L1602.56 -12763.4 L1602.56 -12718.3 L1597.23 -12718.3 L1597.23 -12763.4 Z" fill="#000000" fill-rule="nonzero" fill-opacity="1" /><path clip-path="url(#clip880)" d="M1632.77 -12761.5 L1638.61 -12761.5 L1638.61 -12723.2 L1659.65 -12723.2 L1659.65 -12718.3 L1632.77 -12718.3 L1632.77 -12761.5 Z" fill="#000000" fill-rule="nonzero" fill-opacity="1" /><path clip-path="url(#clip880)" d="M1665.78 -12761.5 L1671.63 -12761.5 L1671.63 -12723.2 L1692.66 -12723.2 L1692.66 -12718.3 L1665.78 -12718.3 L1665.78 -12761.5 Z" fill="#000000" fill-rule="nonzero" fill-opacity="1" /><path clip-path="url(#clip880)" d="M1699.92 -12725.7 L1706.03 -12725.7 L1706.03 -12718.3 L1699.92 -12718.3 L1699.92 -12725.7 M1699.92 -12749 L1706.03 -12749 L1706.03 -12741.6 L1699.92 -12741.6 L1699.92 -12749 Z" fill="#000000" fill-rule="nonzero" fill-opacity="1" /><path clip-path="url(#clip880)" d="M1734.68 -12736.9 L1750.27 -12736.9 L1750.27 -12732.2 L1734.68 -12732.2 L1734.68 -12736.9 Z" fill="#000000" fill-rule="nonzero" fill-opacity="1" /><path clip-path="url(#clip880)" d="M1760.51 -12723.2 L1770.06 -12723.2 L1770.06 -12756.2 L1759.68 -12754.1 L1759.68 -12759.4 L1770.01 -12761.5 L1775.85 -12761.5 L1775.85 -12723.2 L1785.4 -12723.2 L1785.4 -12718.3 L1760.51 -12718.3 L1760.51 -12723.2 Z" fill="#000000" fill-rule="nonzero" fill-opacity="1" /><path clip-path="url(#clip880)" d="M1810.43 -12742.3 Q1806.49 -12742.3 1804.18 -12739.6 Q1801.89 -12736.9 1801.89 -12732.2 Q1801.89 -12727.5 1804.18 -12724.8 Q1806.49 -12722.1 1810.43 -12722.1 Q1814.36 -12722.1 1816.65 -12724.8 Q1818.96 -12727.5 1818.96 -12732.2 Q1818.96 -12736.9 1816.65 -12739.6 Q1814.36 -12742.3 1810.43 -12742.3 M1822.03 -12760.6 L1822.03 -12755.3 Q1819.83 -12756.3 1817.57 -12756.8 Q1815.35 -12757.4 1813.15 -12757.4 Q1807.36 -12757.4 1804.29 -12753.5 Q1801.26 -12749.6 1800.82 -12741.7 Q1802.53 -12744.2 1805.1 -12745.5 Q1807.68 -12746.9 1810.77 -12746.9 Q1817.29 -12746.9 1821.05 -12742.9 Q1824.84 -12739 1824.84 -12732.2 Q1824.84 -12725.5 1820.9 -12721.5 Q1816.97 -12717.5 1810.43 -12717.5 Q1802.93 -12717.5 1798.97 -12723.2 Q1795.01 -12729 1795.01 -12739.9 Q1795.01 -12750.1 1799.87 -12756.2 Q1804.73 -12762.3 1812.92 -12762.3 Q1815.12 -12762.3 1817.34 -12761.9 Q1819.6 -12761.4 1822.03 -12760.6 Z" fill="#000000" fill-rule="nonzero" fill-opacity="1" /><path clip-path="url(#clip880)" d="M1833.43 -12761.5 L1861.21 -12761.5 L1861.21 -12759 L1845.53 -12718.3 L1839.42 -12718.3 L1854.18 -12756.6 L1833.43 -12756.6 L1833.43 -12761.5 Z" fill="#000000" fill-rule="nonzero" fill-opacity="1" /><path clip-path="url(#clip880)" d="M1877.64 -12723.2 L1898.04 -12723.2 L1898.04 -12718.3 L1870.61 -12718.3 L1870.61 -12723.2 Q1873.94 -12726.7 1879.67 -12732.5 Q1885.43 -12738.3 1886.9 -12740 Q1889.71 -12743.1 1890.81 -12745.3 Q1891.94 -12747.5 1891.94 -12749.6 Q1891.94 -12753.1 1889.51 -12755.2 Q1887.11 -12757.4 1883.23 -12757.4 Q1880.48 -12757.4 1877.41 -12756.4 Q1874.37 -12755.5 1870.9 -12753.5 L1870.9 -12759.4 Q1874.43 -12760.9 1877.5 -12761.6 Q1880.57 -12762.3 1883.11 -12762.3 Q1889.83 -12762.3 1893.82 -12759 Q1897.81 -12755.6 1897.81 -12750 Q1897.81 -12747.3 1896.8 -12744.9 Q1895.82 -12742.5 1893.18 -12739.3 Q1892.46 -12738.5 1888.58 -12734.4 Q1884.7 -12730.5 1877.64 -12723.2 Z" fill="#000000" fill-rule="nonzero" fill-opacity="1" /><path clip-path="url(#clip880)" d="M1910.31 -12725.7 L1916.42 -12725.7 L1916.42 -12718.3 L1910.31 -12718.3 L1910.31 -12725.7 Z" fill="#000000" fill-rule="nonzero" fill-opacity="1" /><path clip-path="url(#clip880)" d="M1930.16 -12723.2 L1939.71 -12723.2 L1939.71 -12756.2 L1929.32 -12754.1 L1929.32 -12759.4 L1939.65 -12761.5 L1945.5 -12761.5 L1945.5 -12723.2 L1955.05 -12723.2 L1955.05 -12718.3 L1930.16 -12718.3 L1930.16 -12723.2 Z" fill="#000000" fill-rule="nonzero" fill-opacity="1" /></svg>
